<?xml version="1.0" encoding="UTF-8"?>
<!--Generator: Apple Native CoreSVG 175-->
<!DOCTYPE svg
PUBLIC "-//W3C//DTD SVG 1.1//EN"
       "http://www.w3.org/Graphics/SVG/1.1/DTD/svg11.dtd">
<svg version="1.1" xmlns="http://www.w3.org/2000/svg" xmlns:xlink="http://www.w3.org/1999/xlink" width="3300" height="2200">
 <!--glyph: "uni10018B.medium", point size: 100.0, font version: "17.0d11e1", template writer version: "65.1"-->
 <g id="Notes">
  <rect height="2200" id="artboard" style="fill:white;opacity:1" width="3300" x="0" y="0"/>
  <line style="fill:none;stroke:black;opacity:1;stroke-width:0.5;" x1="263" x2="3036" y1="292" y2="292"/>
  <text style="stroke:none;fill:black;font-family:sans-serif;font-size:13;font-weight:bold;" transform="matrix(1 0 0 1 263 322)">Weight/Scale Variations</text>
  <text style="stroke:none;fill:black;font-family:sans-serif;font-size:13;text-anchor:middle;" transform="matrix(1 0 0 1 559.711 322)">Ultralight</text>
  <text style="stroke:none;fill:black;font-family:sans-serif;font-size:13;text-anchor:middle;" transform="matrix(1 0 0 1 856.422 322)">Thin</text>
  <text style="stroke:none;fill:black;font-family:sans-serif;font-size:13;text-anchor:middle;" transform="matrix(1 0 0 1 1153.13 322)">Light</text>
  <text style="stroke:none;fill:black;font-family:sans-serif;font-size:13;text-anchor:middle;" transform="matrix(1 0 0 1 1449.84 322)">Regular</text>
  <text style="stroke:none;fill:black;font-family:sans-serif;font-size:13;text-anchor:middle;" transform="matrix(1 0 0 1 1746.56 322)">Medium</text>
  <text style="stroke:none;fill:black;font-family:sans-serif;font-size:13;text-anchor:middle;" transform="matrix(1 0 0 1 2043.27 322)">Semibold</text>
  <text style="stroke:none;fill:black;font-family:sans-serif;font-size:13;text-anchor:middle;" transform="matrix(1 0 0 1 2339.98 322)">Bold</text>
  <text style="stroke:none;fill:black;font-family:sans-serif;font-size:13;text-anchor:middle;" transform="matrix(1 0 0 1 2636.69 322)">Heavy</text>
  <text style="stroke:none;fill:black;font-family:sans-serif;font-size:13;text-anchor:middle;" transform="matrix(1 0 0 1 2933.4 322)">Black</text>
  <line style="fill:none;stroke:black;opacity:1;stroke-width:0.5;" x1="263" x2="3036" y1="1903" y2="1903"/>
  <g transform="matrix(1 0 0 1 263 1933)">
   <path d="M9.24805 0.830078Q10.8691 0.830078 12.2949 0.214844Q13.7207-0.400391 14.8096-1.49414Q15.8984-2.58789 16.5186-4.01367Q17.1387-5.43945 17.1387-7.05078Q17.1387-8.66211 16.5186-10.0879Q15.8984-11.5137 14.8047-12.6074Q13.7109-13.7012 12.2852-14.3164Q10.8594-14.9316 9.23828-14.9316Q7.62695-14.9316 6.20117-14.3164Q4.77539-13.7012 3.69141-12.6074Q2.60742-11.5137 1.9873-10.0879Q1.36719-8.66211 1.36719-7.05078Q1.36719-5.43945 1.9873-4.01367Q2.60742-2.58789 3.69629-1.49414Q4.78516-0.400391 6.21094 0.214844Q7.63672 0.830078 9.24805 0.830078ZM9.24805-0.654297Q7.91992-0.654297 6.7627-1.14746Q5.60547-1.64062 4.73145-2.51953Q3.85742-3.39844 3.36426-4.56055Q2.87109-5.72266 2.87109-7.05078Q2.87109-8.37891 3.35938-9.54102Q3.84766-10.7031 4.72168-11.582Q5.5957-12.4609 6.75293-12.9541Q7.91016-13.4473 9.23828-13.4473Q10.5762-13.4473 11.7334-12.9541Q12.8906-12.4609 13.7695-11.582Q14.6484-10.7031 15.1465-9.54102Q15.6445-8.37891 15.6445-7.05078Q15.6445-5.72266 15.1514-4.56055Q14.6582-3.39844 13.7842-2.51953Q12.9102-1.64062 11.748-1.14746Q10.5859-0.654297 9.24805-0.654297ZM5.6543-7.05078Q5.6543-6.72852 5.85938-6.52832Q6.06445-6.32812 6.40625-6.32812L8.51562-6.32812L8.51562-4.20898Q8.51562-3.88672 8.71094-3.67676Q8.90625-3.4668 9.23828-3.4668Q9.56055-3.4668 9.77051-3.67676Q9.98047-3.88672 9.98047-4.20898L9.98047-6.32812L12.0898-6.32812Q12.4219-6.32812 12.627-6.52832Q12.832-6.72852 12.832-7.05078Q12.832-7.38281 12.627-7.58789Q12.4219-7.79297 12.0898-7.79297L9.98047-7.79297L9.98047-9.90234Q9.98047-10.2344 9.77051-10.4443Q9.56055-10.6543 9.23828-10.6543Q8.90625-10.6543 8.71094-10.4443Q8.51562-10.2344 8.51562-9.90234L8.51562-7.79297L6.40625-7.79297Q6.06445-7.79297 5.85938-7.58789Q5.6543-7.38281 5.6543-7.05078Z"/>
  </g>
  <g transform="matrix(1 0 0 1 281.867 1933)">
   <path d="M11.709 2.91016Q13.75 2.91016 15.5518 2.12891Q17.3535 1.34766 18.7305-0.0292969Q20.1074-1.40625 20.8887-3.20801Q21.6699-5.00977 21.6699-7.05078Q21.6699-9.0918 20.8887-10.8936Q20.1074-12.6953 18.7305-14.0723Q17.3535-15.4492 15.5469-16.2305Q13.7402-17.0117 11.6992-17.0117Q9.6582-17.0117 7.85645-16.2305Q6.05469-15.4492 4.68262-14.0723Q3.31055-12.6953 2.5293-10.8936Q1.74805-9.0918 1.74805-7.05078Q1.74805-5.00977 2.5293-3.20801Q3.31055-1.40625 4.6875-0.0292969Q6.06445 1.34766 7.86621 2.12891Q9.66797 2.91016 11.709 2.91016ZM11.709 1.25Q9.98047 1.25 8.47656 0.605469Q6.97266-0.0390625 5.83496-1.17676Q4.69727-2.31445 4.05762-3.81836Q3.41797-5.32227 3.41797-7.05078Q3.41797-8.7793 4.05762-10.2832Q4.69727-11.7871 5.83008-12.9297Q6.96289-14.0723 8.4668-14.7119Q9.9707-15.3516 11.6992-15.3516Q13.4277-15.3516 14.9316-14.7119Q16.4355-14.0723 17.5781-12.9297Q18.7207-11.7871 19.3652-10.2832Q20.0098-8.7793 20.0098-7.05078Q20.0098-5.32227 19.3701-3.81836Q18.7305-2.31445 17.5928-1.17676Q16.4551-0.0390625 14.9463 0.605469Q13.4375 1.25 11.709 1.25ZM7.17773-7.05078Q7.17773-6.69922 7.41211-6.47461Q7.64648-6.25 8.01758-6.25L10.8887-6.25L10.8887-3.36914Q10.8887-2.99805 11.1133-2.76855Q11.3379-2.53906 11.6895-2.53906Q12.0605-2.53906 12.29-2.76855Q12.5195-2.99805 12.5195-3.36914L12.5195-6.25L15.4004-6.25Q15.7715-6.25 16.001-6.47461Q16.2305-6.69922 16.2305-7.05078Q16.2305-7.42188 16.001-7.65137Q15.7715-7.88086 15.4004-7.88086L12.5195-7.88086L12.5195-10.752Q12.5195-11.1328 12.29-11.3623Q12.0605-11.5918 11.6895-11.5918Q11.3379-11.5918 11.1133-11.3574Q10.8887-11.123 10.8887-10.752L10.8887-7.88086L8.01758-7.88086Q7.63672-7.88086 7.40723-7.65137Q7.17773-7.42188 7.17773-7.05078Z"/>
  </g>
  <g transform="matrix(1 0 0 1 305.646 1933)">
   <path d="M14.9707 5.66406Q17.0605 5.66406 18.96 5.01465Q20.8594 4.36523 22.4512 3.19336Q24.043 2.02148 25.2197 0.429688Q26.3965-1.16211 27.0459-3.06641Q27.6953-4.9707 27.6953-7.05078Q27.6953-9.14062 27.0459-11.04Q26.3965-12.9395 25.2197-14.5312Q24.043-16.123 22.4512-17.2998Q20.8594-18.4766 18.9551-19.126Q17.0508-19.7754 14.9609-19.7754Q12.8711-19.7754 10.9717-19.126Q9.07227-18.4766 7.48535-17.2998Q5.89844-16.123 4.72168-14.5312Q3.54492-12.9395 2.90039-11.04Q2.25586-9.14062 2.25586-7.05078Q2.25586-4.9707 2.90527-3.06641Q3.55469-1.16211 4.72656 0.429688Q5.89844 2.02148 7.49023 3.19336Q9.08203 4.36523 10.9814 5.01465Q12.8809 5.66406 14.9707 5.66406ZM14.9707 3.84766Q13.1641 3.84766 11.5283 3.2959Q9.89258 2.74414 8.53516 1.74805Q7.17773 0.751953 6.17676-0.610352Q5.17578-1.97266 4.62891-3.6084Q4.08203-5.24414 4.08203-7.05078Q4.08203-8.86719 4.62891-10.5029Q5.17578-12.1387 6.17188-13.501Q7.16797-14.8633 8.52539-15.8594Q9.88281-16.8555 11.5186-17.4023Q13.1543-17.9492 14.9609-17.9492Q16.7773-17.9492 18.4131-17.4023Q20.0488-16.8555 21.4111-15.8594Q22.7734-14.8633 23.7695-13.501Q24.7656-12.1387 25.3174-10.5029Q25.8691-8.86719 25.8691-7.05078Q25.8789-5.24414 25.332-3.6084Q24.7852-1.97266 23.7842-0.610352Q22.7832 0.751953 21.4209 1.74805Q20.0586 2.74414 18.4229 3.2959Q16.7871 3.84766 14.9707 3.84766ZM9.19922-7.05078Q9.19922-6.66992 9.45801-6.4209Q9.7168-6.17188 10.1172-6.17188L14.0625-6.17188L14.0625-2.2168Q14.0625-1.81641 14.3115-1.55762Q14.5605-1.29883 14.9512-1.29883Q15.3516-1.29883 15.6104-1.55273Q15.8691-1.80664 15.8691-2.2168L15.8691-6.17188L19.8242-6.17188Q20.2246-6.17188 20.4785-6.4209Q20.7324-6.66992 20.7324-7.05078Q20.7324-7.46094 20.4785-7.71484Q20.2246-7.96875 19.8242-7.96875L15.8691-7.96875L15.8691-11.9141Q15.8691-12.3242 15.6104-12.583Q15.3516-12.8418 14.9512-12.8418Q14.5605-12.8418 14.3115-12.583Q14.0625-12.3242 14.0625-11.9141L14.0625-7.96875L10.1172-7.96875Q9.70703-7.96875 9.45312-7.71484Q9.19922-7.46094 9.19922-7.05078Z"/>
  </g>
  <text style="stroke:none;fill:black;font-family:sans-serif;font-size:13;font-weight:bold;" transform="matrix(1 0 0 1 263 1953)">Design Variations</text>
  <text style="stroke:none;fill:black;font-family:sans-serif;font-size:13;" transform="matrix(1 0 0 1 263 1971)">Symbols are supported in up to nine weights and three scales.</text>
  <text style="stroke:none;fill:black;font-family:sans-serif;font-size:13;" transform="matrix(1 0 0 1 263 1989)">For optimal layout with text and other symbols, vertically align</text>
  <text style="stroke:none;fill:black;font-family:sans-serif;font-size:13;" transform="matrix(1 0 0 1 263 2007)">symbols with the adjacent text.</text>
  <line style="fill:none;stroke:#00AEEF;stroke-width:0.5;opacity:1.0;" x1="776" x2="776" y1="1919" y2="1933"/>
  <g transform="matrix(1 0 0 1 776 1933)">
   <path d="M3.31055 0.15625Q3.70117 0.15625 3.91602-0.00976562Q4.13086-0.175781 4.26758-0.585938L5.52734-4.0332L11.2891-4.0332L12.5488-0.585938Q12.6855-0.175781 12.9004-0.00976562Q13.1152 0.15625 13.4961 0.15625Q13.8867 0.15625 14.1162-0.0585938Q14.3457-0.273438 14.3457-0.644531Q14.3457-0.869141 14.2383-1.17188L9.6582-13.3691Q9.48242-13.8184 9.17969-14.043Q8.87695-14.2676 8.4082-14.2676Q7.5-14.2676 7.17773-13.3789L2.59766-1.16211Q2.49023-0.859375 2.49023-0.634766Q2.49023-0.263672 2.70996-0.0537109Q2.92969 0.15625 3.31055 0.15625ZM6.00586-5.51758L8.37891-12.0898L8.42773-12.0898L10.8008-5.51758Z"/>
  </g>
  <line style="fill:none;stroke:#00AEEF;stroke-width:0.5;opacity:1.0;" x1="793.197" x2="793.197" y1="1919" y2="1933"/>
  <text style="stroke:none;fill:black;font-family:sans-serif;font-size:13;font-weight:bold;" transform="matrix(1 0 0 1 776 1953)">Margins</text>
  <text style="stroke:none;fill:black;font-family:sans-serif;font-size:13;" transform="matrix(1 0 0 1 776 1971)">Leading and trailing margins on the left and right side of each symbol</text>
  <text style="stroke:none;fill:black;font-family:sans-serif;font-size:13;" transform="matrix(1 0 0 1 776 1989)">can be adjusted by modifying the x-location of the margin guidelines.</text>
  <text style="stroke:none;fill:black;font-family:sans-serif;font-size:13;" transform="matrix(1 0 0 1 776 2007)">Modifications are automatically applied proportionally to all</text>
  <text style="stroke:none;fill:black;font-family:sans-serif;font-size:13;" transform="matrix(1 0 0 1 776 2025)">scales and weights.</text>
  <g transform="matrix(1 0 0 1 1289 1933)">
   <path d="M2.8418 1.86523L4.54102 3.57422Q5.18555 4.22852 5.90332 4.17969Q6.62109 4.13086 7.31445 3.35938L18.0078-8.42773L17.041-9.4043L6.42578 2.27539Q6.16211 2.57812 5.89355 2.61719Q5.625 2.65625 5.27344 2.30469L4.10156 1.14258Q3.75 0.791016 3.79395 0.522461Q3.83789 0.253906 4.14062-0.0195312L15.6152-10.8203L14.6387-11.7871L3.04688-0.898438Q2.30469-0.214844 2.25098 0.498047Q2.19727 1.21094 2.8418 1.86523ZM9.25781-16.3281Q8.94531-16.0254 8.90625-15.6348Q8.86719-15.2441 9.04297-14.9512Q9.21875-14.6777 9.55566-14.541Q9.89258-14.4043 10.3809-14.5215Q11.4746-14.7754 12.5977-14.7314Q13.7207-14.6875 14.7949-13.9844L14.209-12.5293Q13.9551-11.9043 14.0674-11.4404Q14.1797-10.9766 14.5801-10.5664L16.875-8.25195Q17.2363-7.88086 17.5781-7.82227Q17.9199-7.76367 18.3398-7.8418L19.4043-8.03711L20.0684-7.36328L20.0293-6.80664Q20-6.43555 20.1221-6.12305Q20.2441-5.81055 20.6055-5.44922L21.3672-4.70703Q21.7285-4.3457 22.1533-4.33105Q22.5781-4.31641 22.9297-4.66797L25.8398-7.58789Q26.1914-7.93945 26.1816-8.35449Q26.1719-8.76953 25.8105-9.13086L25.0391-9.89258Q24.6875-10.2539 24.3799-10.3857Q24.0723-10.5176 23.7109-10.4883L23.1348-10.4395L22.4902-11.0742L22.7344-12.1973Q22.832-12.6172 22.6953-12.9834Q22.5586-13.3496 22.1191-13.7891L19.9219-15.9766Q18.6719-17.2168 17.2607-17.8369Q15.8496-18.457 14.4189-18.4814Q12.9883-18.5059 11.665-17.959Q10.3418-17.4121 9.25781-16.3281ZM10.752-15.957Q11.6602-16.6211 12.7002-16.9043Q13.7402-17.1875 14.8047-17.085Q15.8691-16.9824 16.8701-16.5137Q17.8711-16.0449 18.7012-15.2051L21.1328-12.793Q21.3086-12.6172 21.3525-12.4512Q21.3965-12.2852 21.3379-12.0312L21.0156-10.5469L22.5195-9.0625L23.5059-9.12109Q23.6914-9.13086 23.7891-9.09668Q23.8867-9.0625 24.0332-8.91602L24.6094-8.33984L22.168-5.89844L21.5918-6.47461Q21.4453-6.62109 21.4062-6.71875Q21.3672-6.81641 21.377-7.01172L21.4453-7.98828L19.9512-9.47266L18.4277-9.21875Q18.1836-9.16992 18.042-9.2041Q17.9004-9.23828 17.7148-9.41406L15.7129-11.416Q15.5176-11.5918 15.4932-11.7529Q15.4688-11.9141 15.5859-12.1875L16.4648-14.2773Q15.293-15.3711 13.8281-15.791Q12.3633-16.2109 10.8398-15.7617Q10.7227-15.7324 10.6885-15.8057Q10.6543-15.8789 10.752-15.957Z"/>
  </g>
  <text style="stroke:none;fill:black;font-family:sans-serif;font-size:13;font-weight:bold;" transform="matrix(1 0 0 1 1289 1953)">Exporting</text>
  <text style="stroke:none;fill:black;font-family:sans-serif;font-size:13;" transform="matrix(1 0 0 1 1289 1971)">Symbols should be outlined when exporting to ensure the</text>
  <text style="stroke:none;fill:black;font-family:sans-serif;font-size:13;" transform="matrix(1 0 0 1 1289 1989)">design is preserved when submitting to Xcode.</text>
  <text id="template-version" style="stroke:none;fill:black;font-family:sans-serif;font-size:13;text-anchor:end;" transform="matrix(1 0 0 1 3036 1933)">Template v.3.0</text>
  <text style="stroke:none;fill:black;font-family:sans-serif;font-size:13;text-anchor:end;" transform="matrix(1 0 0 1 3036 1951)">Requires Xcode 13 or greater</text>
  <text id="descriptive-name" style="stroke:none;fill:black;font-family:sans-serif;font-size:13;text-anchor:end;" transform="matrix(1 0 0 1 3036 1969)">Generated from chevron.left.2</text>
  <text style="stroke:none;fill:black;font-family:sans-serif;font-size:13;text-anchor:end;" transform="matrix(1 0 0 1 3036 1987)">Typeset at 100 points</text>
  <text style="stroke:none;fill:black;font-family:sans-serif;font-size:13;" transform="matrix(1 0 0 1 263 726)">Small</text>
  <text style="stroke:none;fill:black;font-family:sans-serif;font-size:13;" transform="matrix(1 0 0 1 263 1156)">Medium</text>
  <text style="stroke:none;fill:black;font-family:sans-serif;font-size:13;" transform="matrix(1 0 0 1 263 1586)">Large</text>
 </g>
 <g id="Guides">
  <g id="H-reference" style="fill:#27AAE1;stroke:none;" transform="matrix(1 0 0 1 339 696)">
   <path d="M0.976562 0L3.66211 0L29.3457-67.1387L30.0293-67.1387L30.0293-70.459L28.125-70.459ZM11.6699-24.4629L46.9727-24.4629L46.2402-26.709L12.4512-26.709ZM55.127 0L57.7637 0L30.6152-70.459L29.4434-70.459L29.4434-67.1387Z"/>
  </g>
  <line id="Baseline-S" style="fill:none;stroke:#27AAE1;opacity:1;stroke-width:0.5;" x1="263" x2="3036" y1="696" y2="696"/>
  <line id="Capline-S" style="fill:none;stroke:#27AAE1;opacity:1;stroke-width:0.5;" x1="263" x2="3036" y1="625.541" y2="625.541"/>
  <g id="H-reference" style="fill:#27AAE1;stroke:none;" transform="matrix(1 0 0 1 339 1126)">
   <path d="M0.976562 0L3.66211 0L29.3457-67.1387L30.0293-67.1387L30.0293-70.459L28.125-70.459ZM11.6699-24.4629L46.9727-24.4629L46.2402-26.709L12.4512-26.709ZM55.127 0L57.7637 0L30.6152-70.459L29.4434-70.459L29.4434-67.1387Z"/>
  </g>
  <line id="Baseline-M" style="fill:none;stroke:#27AAE1;opacity:1;stroke-width:0.5;" x1="263" x2="3036" y1="1126" y2="1126"/>
  <line id="Capline-M" style="fill:none;stroke:#27AAE1;opacity:1;stroke-width:0.5;" x1="263" x2="3036" y1="1055.54" y2="1055.54"/>
  <g id="H-reference" style="fill:#27AAE1;stroke:none;" transform="matrix(1 0 0 1 339 1556)">
   <path d="M0.976562 0L3.66211 0L29.3457-67.1387L30.0293-67.1387L30.0293-70.459L28.125-70.459ZM11.6699-24.4629L46.9727-24.4629L46.2402-26.709L12.4512-26.709ZM55.127 0L57.7637 0L30.6152-70.459L29.4434-70.459L29.4434-67.1387Z"/>
  </g>
  <line id="Baseline-L" style="fill:none;stroke:#27AAE1;opacity:1;stroke-width:0.5;" x1="263" x2="3036" y1="1556" y2="1556"/>
  <line id="Capline-L" style="fill:none;stroke:#27AAE1;opacity:1;stroke-width:0.5;" x1="263" x2="3036" y1="1485.54" y2="1485.54"/>
  <line id="left-margin-Ultralight-S" style="fill:none;stroke:#00AEEF;stroke-width:0.5;opacity:1.0;" x1="516.108" x2="516.108" y1="600.785" y2="720.121"/>
  <line id="right-margin-Ultralight-S" style="fill:none;stroke:#00AEEF;stroke-width:0.5;opacity:1.0;" x1="603.315" x2="603.315" y1="600.785" y2="720.121"/>
  <line id="left-margin-Thin-S" style="fill:none;stroke:#00AEEF;stroke-width:0.5;opacity:1.0;" x1="812.282" x2="812.282" y1="600.785" y2="720.121"/>
  <line id="right-margin-Thin-S" style="fill:none;stroke:#00AEEF;stroke-width:0.5;opacity:1.0;" x1="900.563" x2="900.563" y1="600.785" y2="720.121"/>
  <line id="left-margin-Light-S" style="fill:none;stroke:#00AEEF;stroke-width:0.5;opacity:1.0;" x1="1107.94" x2="1107.94" y1="600.785" y2="720.121"/>
  <line id="right-margin-Light-S" style="fill:none;stroke:#00AEEF;stroke-width:0.5;opacity:1.0;" x1="1198.32" x2="1198.32" y1="600.785" y2="720.121"/>
  <line id="left-margin-Regular-S" style="fill:none;stroke:#00AEEF;stroke-width:0.5;opacity:1.0;" x1="1403.85" x2="1403.85" y1="600.785" y2="720.121"/>
  <line id="right-margin-Regular-S" style="fill:none;stroke:#00AEEF;stroke-width:0.5;opacity:1.0;" x1="1495.84" x2="1495.84" y1="600.785" y2="720.121"/>
  <line id="left-margin-Medium-S" style="fill:none;stroke:#00AEEF;stroke-width:0.5;opacity:1.0;" x1="1699.83" x2="1699.83" y1="600.785" y2="720.121"/>
  <line id="right-margin-Medium-S" style="fill:none;stroke:#00AEEF;stroke-width:0.5;opacity:1.0;" x1="1793.28" x2="1793.28" y1="600.785" y2="720.121"/>
  <line id="left-margin-Semibold-S" style="fill:none;stroke:#00AEEF;stroke-width:0.5;opacity:1.0;" x1="1995.98" x2="1995.98" y1="600.785" y2="720.121"/>
  <line id="right-margin-Semibold-S" style="fill:none;stroke:#00AEEF;stroke-width:0.5;opacity:1.0;" x1="2090.56" x2="2090.56" y1="600.785" y2="720.121"/>
  <line id="left-margin-Bold-S" style="fill:none;stroke:#00AEEF;stroke-width:0.5;opacity:1.0;" x1="2291.93" x2="2291.93" y1="600.785" y2="720.121"/>
  <line id="right-margin-Bold-S" style="fill:none;stroke:#00AEEF;stroke-width:0.5;opacity:1.0;" x1="2388.02" x2="2388.02" y1="600.785" y2="720.121"/>
  <line id="left-margin-Heavy-S" style="fill:none;stroke:#00AEEF;stroke-width:0.5;opacity:1.0;" x1="2587.57" x2="2587.57" y1="600.785" y2="720.121"/>
  <line id="right-margin-Heavy-S" style="fill:none;stroke:#00AEEF;stroke-width:0.5;opacity:1.0;" x1="2685.81" x2="2685.81" y1="600.785" y2="720.121"/>
  <line id="left-margin-Black-S" style="fill:none;stroke:#00AEEF;stroke-width:0.5;opacity:1.0;" x1="2883.33" x2="2883.33" y1="600.785" y2="720.121"/>
  <line id="right-margin-Black-S" style="fill:none;stroke:#00AEEF;stroke-width:0.5;opacity:1.0;" x1="2983.47" x2="2983.47" y1="600.785" y2="720.121"/>
  <line id="left-margin-Ultralight-M" style="fill:none;stroke:#00AEEF;stroke-width:0.5;opacity:1.0;" x1="504.291" x2="504.291" y1="1030.79" y2="1150.12"/>
  <line id="right-margin-Ultralight-M" style="fill:none;stroke:#00AEEF;stroke-width:0.5;opacity:1.0;" x1="615.131" x2="615.131" y1="1030.79" y2="1150.12"/>
  <line id="left-margin-Thin-M" style="fill:none;stroke:#00AEEF;stroke-width:0.5;opacity:1.0;" x1="800.368" x2="800.368" y1="1030.79" y2="1150.12"/>
  <line id="right-margin-Thin-M" style="fill:none;stroke:#00AEEF;stroke-width:0.5;opacity:1.0;" x1="912.477" x2="912.477" y1="1030.79" y2="1150.12"/>
  <line id="left-margin-Light-M" style="fill:none;stroke:#00AEEF;stroke-width:0.5;opacity:1.0;" x1="1095.88" x2="1095.88" y1="1030.79" y2="1150.12"/>
  <line id="right-margin-Light-M" style="fill:none;stroke:#00AEEF;stroke-width:0.5;opacity:1.0;" x1="1210.38" x2="1210.38" y1="1030.79" y2="1150.12"/>
  <line id="left-margin-Regular-M" style="fill:none;stroke:#00AEEF;stroke-width:0.5;opacity:1.0;" x1="1391.69" x2="1391.69" y1="1030.79" y2="1150.12"/>
  <line id="right-margin-Regular-M" style="fill:none;stroke:#00AEEF;stroke-width:0.5;opacity:1.0;" x1="1508" x2="1508" y1="1030.79" y2="1150.12"/>
  <line id="left-margin-Medium-M" style="fill:none;stroke:#00AEEF;stroke-width:0.5;opacity:1.0;" x1="1687.45" x2="1687.45" y1="1030.79" y2="1150.12"/>
  <line id="right-margin-Medium-M" style="fill:none;stroke:#00AEEF;stroke-width:0.5;opacity:1.0;" x1="1805.66" x2="1805.66" y1="1030.79" y2="1150.12"/>
  <line id="left-margin-Semibold-M" style="fill:none;stroke:#00AEEF;stroke-width:0.5;opacity:1.0;" x1="1983.43" x2="1983.43" y1="1030.79" y2="1150.12"/>
  <line id="right-margin-Semibold-M" style="fill:none;stroke:#00AEEF;stroke-width:0.5;opacity:1.0;" x1="2103.11" x2="2103.11" y1="1030.79" y2="1150.12"/>
  <line id="left-margin-Bold-M" style="fill:none;stroke:#00AEEF;stroke-width:0.5;opacity:1.0;" x1="2279.16" x2="2279.16" y1="1030.79" y2="1150.12"/>
  <line id="right-margin-Bold-M" style="fill:none;stroke:#00AEEF;stroke-width:0.5;opacity:1.0;" x1="2400.79" x2="2400.79" y1="1030.79" y2="1150.12"/>
  <line id="left-margin-Heavy-M" style="fill:none;stroke:#00AEEF;stroke-width:0.5;opacity:1.0;" x1="2574.46" x2="2574.46" y1="1030.79" y2="1150.12"/>
  <line id="right-margin-Heavy-M" style="fill:none;stroke:#00AEEF;stroke-width:0.5;opacity:1.0;" x1="2698.92" x2="2698.92" y1="1030.79" y2="1150.12"/>
  <line id="left-margin-Black-M" style="fill:none;stroke:#00AEEF;stroke-width:0.5;opacity:1.0;" x1="2869.92" x2="2869.92" y1="1030.79" y2="1150.12"/>
  <line id="right-margin-Black-M" style="fill:none;stroke:#00AEEF;stroke-width:0.5;opacity:1.0;" x1="2996.88" x2="2996.88" y1="1030.79" y2="1150.12"/>
  <line id="left-margin-Ultralight-L" style="fill:none;stroke:#00AEEF;stroke-width:0.5;opacity:1.0;" x1="488.446" x2="488.446" y1="1460.79" y2="1580.12"/>
  <line id="right-margin-Ultralight-L" style="fill:none;stroke:#00AEEF;stroke-width:0.5;opacity:1.0;" x1="630.976" x2="630.976" y1="1460.79" y2="1580.12"/>
  <line id="left-margin-Thin-L" style="fill:none;stroke:#00AEEF;stroke-width:0.5;opacity:1.0;" x1="784.474" x2="784.474" y1="1460.79" y2="1580.12"/>
  <line id="right-margin-Thin-L" style="fill:none;stroke:#00AEEF;stroke-width:0.5;opacity:1.0;" x1="928.37" x2="928.37" y1="1460.79" y2="1580.12"/>
  <line id="left-margin-Light-L" style="fill:none;stroke:#00AEEF;stroke-width:0.5;opacity:1.0;" x1="1079.84" x2="1079.84" y1="1460.79" y2="1580.12"/>
  <line id="right-margin-Light-L" style="fill:none;stroke:#00AEEF;stroke-width:0.5;opacity:1.0;" x1="1226.42" x2="1226.42" y1="1460.79" y2="1580.12"/>
  <line id="left-margin-Regular-L" style="fill:none;stroke:#00AEEF;stroke-width:0.5;opacity:1.0;" x1="1375.55" x2="1375.55" y1="1460.79" y2="1580.12"/>
  <line id="right-margin-Regular-L" style="fill:none;stroke:#00AEEF;stroke-width:0.5;opacity:1.0;" x1="1524.14" x2="1524.14" y1="1460.79" y2="1580.12"/>
  <line id="left-margin-Medium-L" style="fill:none;stroke:#00AEEF;stroke-width:0.5;opacity:1.0;" x1="1671.12" x2="1671.12" y1="1460.79" y2="1580.12"/>
  <line id="right-margin-Medium-L" style="fill:none;stroke:#00AEEF;stroke-width:0.5;opacity:1.0;" x1="1822" x2="1822" y1="1460.79" y2="1580.12"/>
  <line id="left-margin-Semibold-L" style="fill:none;stroke:#00AEEF;stroke-width:0.5;opacity:1.0;" x1="1966.95" x2="1966.95" y1="1460.79" y2="1580.12"/>
  <line id="right-margin-Semibold-L" style="fill:none;stroke:#00AEEF;stroke-width:0.5;opacity:1.0;" x1="2119.59" x2="2119.59" y1="1460.79" y2="1580.12"/>
  <line id="left-margin-Bold-L" style="fill:none;stroke:#00AEEF;stroke-width:0.5;opacity:1.0;" x1="2262.49" x2="2262.49" y1="1460.79" y2="1580.12"/>
  <line id="right-margin-Bold-L" style="fill:none;stroke:#00AEEF;stroke-width:0.5;opacity:1.0;" x1="2417.47" x2="2417.47" y1="1460.79" y2="1580.12"/>
  <line id="left-margin-Heavy-L" style="fill:none;stroke:#00AEEF;stroke-width:0.5;opacity:1.0;" x1="2557.51" x2="2557.51" y1="1460.79" y2="1580.12"/>
  <line id="right-margin-Heavy-L" style="fill:none;stroke:#00AEEF;stroke-width:0.5;opacity:1.0;" x1="2715.86" x2="2715.86" y1="1460.79" y2="1580.12"/>
  <line id="left-margin-Black-L" style="fill:none;stroke:#00AEEF;stroke-width:0.5;opacity:1.0;" x1="2852.71" x2="2852.71" y1="1460.79" y2="1580.12"/>
  <line id="right-margin-Black-L" style="fill:none;stroke:#00AEEF;stroke-width:0.5;opacity:1.0;" x1="3014.09" x2="3014.09" y1="1460.79" y2="1580.12"/>
 </g>
 <g id="Symbols">
  <g id="Black-L" transform="matrix(1 0 0 1 2852.71 1556)">
   <path d="M67.2363 20.9961Q69.1406 22.8027 71.3135 23.7061Q73.4863 24.6094 76.0742 24.6094Q79.6387 24.6094 82.5684 22.876Q85.498 21.1426 87.2559 18.2373Q89.0137 15.332 89.0137 11.8164Q89.0137 6.49414 84.7656 2.29492L43.75-37.5488L43.75-33.1543L84.7656-72.8516Q89.0137-76.9531 89.0137-82.3242Q89.0137-85.791 87.2559-88.6963Q85.498-91.6016 82.5684-93.335Q79.6387-95.0684 76.0742-95.0684Q73.4375-95.0684 71.2646-94.1895Q69.0918-93.3105 67.2363-91.5039L20.9473-45.9961Q18.457-43.5059 17.2852-40.9424Q16.1133-38.3789 16.0645-35.2539Q16.0645-32.2266 17.2363-29.6631Q18.4082-27.0996 20.9473-24.5117ZM123.535 20.9961Q125.439 22.8027 127.612 23.7061Q129.785 24.6094 132.373 24.6094Q135.889 24.6094 138.843 22.876Q141.797 21.1426 143.555 18.2373Q145.312 15.332 145.312 11.8164Q145.312 6.49414 141.064 2.29492L100.049-37.5488L100.049-33.1543L141.064-72.8516Q145.312-76.9531 145.312-82.3242Q145.312-85.791 143.555-88.6963Q141.797-91.6016 138.843-93.335Q135.889-95.0684 132.373-95.0684Q129.736-95.0684 127.563-94.1895Q125.391-93.3105 123.535-91.5039L77.2461-45.9961Q74.7559-43.5059 73.584-40.9424Q72.4121-38.3789 72.3633-35.2539Q72.3633-32.2266 73.5352-29.6631Q74.707-27.0996 77.2461-24.5117Z"/>
  </g>
  <g id="Heavy-L" transform="matrix(1 0 0 1 2557.51 1556)">
   <path d="M67.3828 19.9707Q68.9941 21.4844 70.874 22.2656Q72.7539 23.0469 74.9512 23.0469Q77.9785 23.0469 80.4932 21.582Q83.0078 20.1172 84.4971 17.627Q85.9863 15.1367 85.9863 12.1582Q85.9863 7.56836 82.4219 4.05273L39.3066-37.7441L39.3066-32.959L82.4219-74.6094Q85.9863-78.0762 85.9863-82.666Q85.9863-85.6445 84.4971-88.1104Q83.0078-90.5762 80.4932-92.0654Q77.9785-93.5547 74.9512-93.5547Q72.7051-93.5547 70.8496-92.7979Q68.9941-92.041 67.3828-90.4785L20.2148-44.3359Q18.1152-42.2852 17.1143-40.0879Q16.1133-37.8906 16.0645-35.2539Q16.0645-32.7148 17.0654-30.5176Q18.0664-28.3203 20.166-26.1719ZM123.682 19.9707Q125.293 21.4844 127.173 22.2656Q129.053 23.0469 131.25 23.0469Q134.277 23.0469 136.792 21.582Q139.307 20.1172 140.796 17.627Q142.285 15.1367 142.285 12.1582Q142.285 7.56836 138.721 4.05273L95.6055-37.7441L95.6055-32.959L138.721-74.6094Q142.285-78.0762 142.285-82.666Q142.285-85.6445 140.796-88.1104Q139.307-90.5762 136.792-92.0654Q134.277-93.5547 131.25-93.5547Q129.004-93.5547 127.148-92.7979Q125.293-92.041 123.682-90.4785L76.4648-44.3359Q74.4141-42.2852 73.4131-40.0879Q72.4121-37.8906 72.3633-35.2539Q72.3633-32.7148 73.3643-30.5176Q74.3652-28.3203 76.4648-26.1719Z"/>
  </g>
  <g id="Bold-L" transform="matrix(1 0 0 1 2262.49 1556)">
   <path d="M67.5781 18.7988Q68.8477 20.0195 70.3857 20.6787Q71.9238 21.3379 73.7305 21.3379Q76.1719 21.3379 78.1982 20.1416Q80.2246 18.9453 81.4209 16.9434Q82.6172 14.9414 82.6172 12.5Q82.6172 8.83789 79.7852 6.00586L34.3262-37.9395L34.3262-32.7637L79.7852-76.5625Q82.6172-79.3457 82.6172-83.0566Q82.6172-85.4492 81.4209-87.4512Q80.2246-89.4531 78.1982-90.6494Q76.1719-91.8457 73.7305-91.8457Q71.875-91.8457 70.3613-91.2109Q68.8477-90.5762 67.5781-89.3555L19.3848-42.5293Q17.7246-40.918 16.9189-39.1357Q16.1133-37.3535 16.0645-35.2539Q16.0645-33.252 16.8701-31.4941Q17.6758-29.7363 19.3359-28.0762ZM123.877 18.7988Q125.146 20.0195 126.685 20.6787Q128.223 21.3379 130.029 21.3379Q132.471 21.3379 134.497 20.1416Q136.523 18.9453 137.72 16.9434Q138.916 14.9414 138.916 12.5Q138.916 8.83789 136.084 6.00586L90.625-37.9395L90.625-32.7637L136.084-76.5625Q138.916-79.3457 138.916-83.0566Q138.916-85.4492 137.72-87.4512Q136.523-89.4531 134.497-90.6494Q132.471-91.8457 130.029-91.8457Q128.174-91.8457 126.66-91.2109Q125.146-90.5762 123.877-89.3555L75.6348-42.5293Q74.0234-40.918 73.2178-39.1357Q72.4121-37.3535 72.3633-35.2539Q72.3633-33.252 73.1689-31.4941Q73.9746-29.7363 75.6348-28.0762Z"/>
  </g>
  <g id="Semibold-L" transform="matrix(1 0 0 1 1966.95 1556)">
   <path d="M67.6758 17.9688Q68.75 18.9941 70.0439 19.5557Q71.3379 20.1172 72.8516 20.1172Q74.9023 20.1172 76.6113 19.1406Q78.3203 18.1641 79.2969 16.4795Q80.2734 14.7949 80.2734 12.7441Q80.2734 9.66797 77.9785 7.37305L30.9082-38.0371L30.9082-32.5684L77.9785-77.9297Q80.2734-80.2246 80.2734-83.3008Q80.2734-85.3027 79.2969-86.9873Q78.3203-88.6719 76.6113-89.6729Q74.9023-90.6738 72.8516-90.6738Q71.2891-90.6738 70.0195-90.1367Q68.75-89.5996 67.7246-88.5254L18.7988-41.2109Q17.4316-39.9414 16.748-38.4521Q16.0645-36.9629 16.0645-35.2539Q16.0645-33.5938 16.748-32.1533Q17.4316-30.7129 18.75-29.3457ZM123.975 17.9688Q125.049 18.9941 126.343 19.5557Q127.637 20.1172 129.15 20.1172Q131.201 20.1172 132.91 19.1406Q134.619 18.1641 135.596 16.4795Q136.572 14.7949 136.572 12.7441Q136.572 9.66797 134.277 7.37305L87.207-38.0371L87.207-32.5684L134.277-77.9297Q136.572-80.2246 136.572-83.3008Q136.572-85.3027 135.596-86.9873Q134.619-88.6719 132.91-89.6729Q131.201-90.6738 129.15-90.6738Q127.588-90.6738 126.318-90.1367Q125.049-89.5996 123.975-88.5254L75.0488-41.2109Q73.7305-39.9414 73.0469-38.4521Q72.3633-36.9629 72.3633-35.2539Q72.3633-33.5938 73.0469-32.1533Q73.7305-30.7129 75.0488-29.3457Z"/>
  </g>
  <g id="Medium-L" transform="matrix(1 0 0 1 1671.12 1556)">
   <path d="M67.7734 17.334Q68.6523 18.2617 69.7754 18.7256Q70.8984 19.1895 72.168 19.1895Q73.9746 19.1895 75.415 18.3594Q76.8555 17.5293 77.6855 16.1133Q78.5156 14.6973 78.5156 12.9395Q78.5156 10.3027 76.6113 8.39844L28.2715-38.1348L28.2715-32.4707L76.6113-78.9551Q78.5156-80.8594 78.5156-83.4961Q78.5156-85.2539 77.6855-86.6699Q76.8555-88.0859 75.415-88.9404Q73.9746-89.7949 72.168-89.7949Q70.8984-89.7949 69.7998-89.3066Q68.7012-88.8184 67.7734-87.9395L18.3594-40.2832Q17.2363-39.209 16.6504-37.9639Q16.0645-36.7188 16.0645-35.2539Q16.0645-33.8867 16.626-32.666Q17.1875-31.4453 18.3105-30.3223ZM124.072 17.334Q124.951 18.2617 126.074 18.7256Q127.197 19.1895 128.467 19.1895Q130.225 19.1895 131.689 18.3594Q133.154 17.5293 133.984 16.1133Q134.814 14.6973 134.814 12.9395Q134.814 10.3027 132.91 8.39844L84.5703-38.1348L84.5703-32.4707L132.91-78.9551Q134.814-80.8594 134.814-83.4961Q134.814-85.2539 133.984-86.6699Q133.154-88.0859 131.689-88.9404Q130.225-89.7949 128.467-89.7949Q127.197-89.7949 126.099-89.3066Q125-88.8184 124.072-87.9395L74.6094-40.2832Q73.5352-39.209 72.9492-37.9639Q72.3633-36.7188 72.3633-35.2539Q72.3633-33.8867 72.9248-32.666Q73.4863-31.4453 74.6094-30.3223Z"/>
  </g>
  <g id="Regular-L" transform="matrix(1 0 0 1 1375.55 1556)">
   <path d="M67.8711 16.5527Q68.5547 17.2363 69.4336 17.627Q70.3125 18.0176 71.3379 18.0176Q72.7051 18.0176 73.8281 17.3828Q74.9512 16.748 75.5859 15.6494Q76.2207 14.5508 76.2207 13.1836Q76.2207 11.1328 74.8047 9.7168L24.9023-38.2812L24.9023-32.3242L74.8047-80.2734Q76.2207-81.7383 76.2207-83.7402Q76.2207-85.1074 75.5859-86.2061Q74.9512-87.3047 73.8281-87.9639Q72.7051-88.623 71.3379-88.623Q70.3125-88.623 69.458-88.2324Q68.6035-87.8418 67.9199-87.1582L17.7734-39.0137Q16.9434-38.2812 16.5039-37.3047Q16.0645-36.3281 16.0645-35.2539Q16.0645-34.2285 16.5039-33.3008Q16.9434-32.373 17.7246-31.5918ZM124.17 16.5527Q124.854 17.2363 125.732 17.627Q126.611 18.0176 127.637 18.0176Q129.004 18.0176 130.127 17.3828Q131.25 16.748 131.885 15.6494Q132.52 14.5508 132.52 13.1836Q132.52 11.1328 131.104 9.7168L81.2012-38.2812L81.2012-32.3242L131.104-80.2734Q132.52-81.7383 132.52-83.7402Q132.52-85.1074 131.885-86.2061Q131.25-87.3047 130.127-87.9639Q129.004-88.623 127.637-88.623Q126.611-88.623 125.757-88.2324Q124.902-87.8418 124.17-87.1582L74.0234-39.0137Q73.2422-38.2812 72.8027-37.3047Q72.3633-36.3281 72.3633-35.2539Q72.3633-34.2285 72.8027-33.3008Q73.2422-32.373 74.0234-31.5918Z"/>
  </g>
  <g id="Light-L" transform="matrix(1 0 0 1 1079.84 1556)">
   <path d="M67.9199 14.9414Q68.457 15.4785 69.1162 15.7959Q69.7754 16.1133 70.5566 16.1133Q71.582 16.1133 72.4121 15.625Q73.2422 15.1367 73.7305 14.3066Q74.2188 13.4766 74.2188 12.4512Q74.2188 10.8887 73.1934 9.86328L22.4121-37.793L22.4121-32.8613L73.1934-80.4199Q74.2188-81.4941 74.2188-83.0566Q74.2188-84.082 73.7305-84.9121Q73.2422-85.7422 72.4121-86.2305Q71.582-86.7188 70.5566-86.7188Q69.7754-86.7188 69.1406-86.4014Q68.5059-86.084 67.9688-85.5957L17.5293-38.2812Q16.8457-37.6953 16.4551-36.9141Q16.0645-36.1328 16.0645-35.2539Q16.0645-34.4238 16.4551-33.6914Q16.8457-32.959 17.4805-32.3242ZM124.219 14.9414Q124.756 15.4785 125.415 15.7959Q126.074 16.1133 126.855 16.1133Q127.881 16.1133 128.711 15.625Q129.541 15.1367 130.029 14.3066Q130.518 13.4766 130.518 12.4512Q130.518 10.8887 129.492 9.86328L78.7109-37.793L78.7109-32.8613L129.492-80.4199Q130.518-81.4941 130.518-83.0566Q130.518-84.082 130.029-84.9121Q129.541-85.7422 128.711-86.2305Q127.881-86.7188 126.855-86.7188Q126.074-86.7188 125.439-86.4014Q124.805-86.084 124.268-85.5957L73.7793-38.2812Q73.1445-37.6953 72.7539-36.9141Q72.3633-36.1328 72.3633-35.2539Q72.3633-34.4238 72.7539-33.6914Q73.1445-32.959 73.7793-32.3242Z"/>
  </g>
  <g id="Thin-L" transform="matrix(1 0 0 1 784.474 1556)">
   <path d="M68.0176 12.8418Q68.3594 13.1348 68.7012 13.3545Q69.043 13.5742 69.5312 13.5742Q70.0684 13.5742 70.5322 13.3057Q70.9961 13.0371 71.2646 12.5732Q71.5332 12.1094 71.5332 11.5234Q71.5332 10.5469 70.9961 10.1074L19.0918-37.1094L19.0918-33.5449L70.9961-80.6641Q71.5332-81.2012 71.5332-82.1777Q71.5332-82.7148 71.2646-83.1787Q70.9961-83.6426 70.5322-83.9111Q70.0684-84.1797 69.5312-84.1797Q69.043-84.1797 68.7256-83.9844Q68.4082-83.7891 68.0664-83.4961L17.1875-37.3535Q16.748-36.9141 16.4062-36.4014Q16.0645-35.8887 16.0645-35.2539Q16.0645-34.668 16.3574-34.1797Q16.6504-33.6914 17.1387-33.252ZM124.268 12.8418Q124.658 13.1348 125 13.3545Q125.342 13.5742 125.83 13.5742Q126.367 13.5742 126.831 13.3057Q127.295 13.0371 127.563 12.5732Q127.832 12.1094 127.832 11.5234Q127.832 10.5469 127.295 10.1074L75.3906-37.1094L75.3906-33.5449L127.295-80.6641Q127.832-81.2012 127.832-82.1777Q127.832-82.7148 127.563-83.1787Q127.295-83.6426 126.831-83.9111Q126.367-84.1797 125.83-84.1797Q125.342-84.1797 125.024-83.9844Q124.707-83.7891 124.365-83.4961L73.4863-37.3535Q73.0469-36.9141 72.7051-36.4014Q72.3633-35.8887 72.3633-35.2539Q72.3633-34.668 72.6562-34.1797Q72.9492-33.6914 73.4375-33.252Z"/>
  </g>
  <g id="Ultralight-L" transform="matrix(1 0 0 1 488.446 1556)">
   <path d="M68.0664 11.7188Q68.2617 11.9141 68.4814 12.085Q68.7012 12.2559 68.9941 12.2559Q69.2871 12.2559 69.5557 12.085Q69.8242 11.9141 69.9951 11.6455Q70.166 11.377 70.166 11.0352Q70.166 10.4004 69.9219 10.2051L17.4316-36.7676L17.4316-33.9355L69.9219-80.7617Q70.166-81.0547 70.166-81.6895Q70.166-82.0312 69.9951-82.2998Q69.8242-82.5684 69.5557-82.7393Q69.2871-82.9102 68.9941-82.9102Q68.7012-82.9102 68.5303-82.7637Q68.3594-82.6172 68.1152-82.4219L17.041-36.8652Q16.6504-36.5234 16.3574-36.1328Q16.0645-35.7422 16.0645-35.2539Q16.0645-34.7656 16.333-34.4238Q16.6016-34.082 16.9434-33.7402ZM124.316 11.7188Q124.561 11.9141 124.78 12.085Q125 12.2559 125.293 12.2559Q125.586 12.2559 125.854 12.085Q126.123 11.9141 126.294 11.6455Q126.465 11.377 126.465 11.0352Q126.465 10.4004 126.221 10.2051L73.7305-36.7676L73.7305-33.9355L126.221-80.7617Q126.465-81.0547 126.465-81.6895Q126.465-82.0312 126.294-82.2998Q126.123-82.5684 125.854-82.7393Q125.586-82.9102 125.293-82.9102Q125-82.9102 124.829-82.7637Q124.658-82.6172 124.414-82.4219L73.3398-36.8652Q72.9492-36.5234 72.6562-36.1328Q72.3633-35.7422 72.3633-35.2539Q72.3633-34.7656 72.6318-34.4238Q72.9004-34.082 73.2422-33.7402Z"/>
  </g>
  <g id="Black-M" transform="matrix(1 0 0 1 2869.92 1126)">
   <path d="M52.002 8.69141Q53.6621 10.2539 55.542 11.0352Q57.4219 11.8164 59.6191 11.8164Q62.6953 11.8164 65.2588 10.3027Q67.8223 8.78906 69.3604 6.27441Q70.8984 3.75977 70.8984 0.732422Q70.8984-3.90625 67.1387-7.56836L36.8652-36.7188L36.8652-33.9844L67.1387-62.9395Q70.8984-66.5039 70.8984-71.1914Q70.8984-74.2188 69.3604-76.7334Q67.8223-79.248 65.2588-80.7617Q62.6953-82.2754 59.6191-82.2754Q55.127-82.2754 52.002-79.1504L16.7969-44.7754Q14.5508-42.4805 13.5254-40.2344Q12.5-37.9883 12.4512-35.2539Q12.4512-30.127 16.7969-25.7324ZM95.6543 8.69141Q97.2656 10.2539 99.1455 11.0352Q101.025 11.8164 103.271 11.8164Q106.348 11.8164 108.887 10.3027Q111.426 8.78906 112.964 6.27441Q114.502 3.75977 114.502 0.732422Q114.502-3.90625 110.791-7.56836L80.5176-36.7188L80.5176-33.9844L110.791-62.9395Q114.502-66.5039 114.502-71.1914Q114.502-74.2188 112.964-76.7334Q111.426-79.248 108.887-80.7617Q106.348-82.2754 103.271-82.2754Q98.7305-82.2754 95.6543-79.1504L60.4492-44.7754Q58.2031-42.4805 57.1533-40.2344Q56.1035-37.9883 56.0547-35.2539Q56.0547-30.127 60.4492-25.7324Z"/>
  </g>
  <g id="Heavy-M" transform="matrix(1 0 0 1 2574.46 1126)">
   <path d="M52.1484 8.00781Q53.5645 9.375 55.1758 10.0342Q56.7871 10.6934 58.6914 10.6934Q61.377 10.6934 63.5742 9.39941Q65.7715 8.10547 67.0654 5.95703Q68.3594 3.80859 68.3594 1.17188Q68.3594-2.7832 65.1855-5.9082L33.0566-37.0117L33.0566-33.6914L65.1855-64.5996Q68.3594-67.6758 68.3594-71.6797Q68.3594-74.2676 67.0654-76.4404Q65.7715-78.6133 63.5742-79.9072Q61.377-81.2012 58.6914-81.2012Q54.834-81.2012 52.1484-78.5156L16.1133-43.3105Q14.209-41.4062 13.3545-39.4775Q12.5-37.5488 12.4512-35.2539Q12.4512-30.9082 16.1133-27.1973ZM95.8008 8.00781Q97.168 9.375 98.7793 10.0342Q100.391 10.6934 102.344 10.6934Q104.98 10.6934 107.178 9.39941Q109.375 8.10547 110.693 5.95703Q112.012 3.80859 112.012 1.17188Q112.012-2.7832 108.838-5.9082L76.709-37.0117L76.709-33.6914L108.838-64.5996Q112.012-67.6758 112.012-71.6797Q112.012-74.2676 110.693-76.4404Q109.375-78.6133 107.178-79.9072Q104.98-81.2012 102.344-81.2012Q98.4375-81.2012 95.8008-78.5156L59.7656-43.3105Q57.8613-41.4062 56.9824-39.4775Q56.1035-37.5488 56.0547-35.2539Q56.0547-30.9082 59.7656-27.1973Z"/>
  </g>
  <g id="Bold-M" transform="matrix(1 0 0 1 2279.16 1126)">
   <path d="M52.2949 7.27539Q53.4668 8.34961 54.7852 8.91113Q56.1035 9.47266 57.7148 9.47266Q59.8633 9.47266 61.6455 8.42285Q63.4277 7.37305 64.502 5.61523Q65.5762 3.85742 65.5762 1.70898Q65.5762-1.51367 63.0371-4.05273L28.8086-37.3047L28.8086-33.3496L63.0371-66.5039Q65.5762-68.9453 65.5762-72.2168Q65.5762-74.3652 64.502-76.123Q63.4277-77.8809 61.6455-78.9307Q59.8633-79.9805 57.7148-79.9805Q54.541-79.9805 52.2949-77.7832L15.3809-41.6504Q13.8672-40.2344 13.1836-38.6719Q12.5-37.1094 12.4512-35.2539Q12.4512-31.7871 15.332-28.8574ZM95.9473 7.27539Q97.0703 8.34961 98.4131 8.91113Q99.7559 9.47266 101.318 9.47266Q103.516 9.47266 105.298 8.42285Q107.08 7.37305 108.13 5.61523Q109.18 3.85742 109.18 1.70898Q109.18-1.51367 106.689-4.05273L72.4609-37.3047L72.4609-33.3496L106.689-66.5039Q109.18-68.9453 109.18-72.2168Q109.18-74.3652 108.13-76.123Q107.08-77.8809 105.298-78.9307Q103.516-79.9805 101.318-79.9805Q98.1445-79.9805 95.9473-77.7832L58.9844-41.6504Q57.5195-40.2344 56.8115-38.6719Q56.1035-37.1094 56.0547-35.2539Q56.0547-31.7871 58.9844-28.8574Z"/>
  </g>
  <g id="Semibold-M" transform="matrix(1 0 0 1 1983.43 1126)">
   <path d="M52.3926 6.73828Q53.3691 7.66602 54.4922 8.1543Q55.6152 8.64258 56.9824 8.64258Q58.8379 8.64258 60.3271 7.73926Q61.8164 6.83594 62.7197 5.37109Q63.623 3.90625 63.623 2.05078Q63.623-0.634766 61.5234-2.73438L25.8301-37.5L25.8301-33.1055L61.5234-67.7734Q63.623-69.8242 63.623-72.5586Q63.623-74.3652 62.7197-75.8789Q61.8164-77.3926 60.3271-78.2715Q58.8379-79.1504 56.9824-79.1504Q54.2969-79.1504 52.3926-77.2461L14.8438-40.5273Q13.623-39.4043 13.0371-38.0859Q12.4512-36.7676 12.4512-35.2539Q12.4512-32.373 14.7949-29.9805ZM96.0449 6.73828Q96.9727 7.66602 98.1201 8.1543Q99.2676 8.64258 100.586 8.64258Q102.441 8.64258 103.955 7.73926Q105.469 6.83594 106.348 5.37109Q107.227 3.90625 107.227 2.05078Q107.227-0.634766 105.176-2.73438L69.4824-37.5L69.4824-33.1055L105.176-67.7734Q107.227-69.8242 107.227-72.5586Q107.227-74.3652 106.348-75.8789Q105.469-77.3926 103.955-78.2715Q102.441-79.1504 100.586-79.1504Q97.9492-79.1504 96.0449-77.2461L58.4473-40.5273Q57.2754-39.4043 56.665-38.0859Q56.0547-36.7676 56.0547-35.2539Q56.0547-32.373 58.4473-29.9805Z"/>
  </g>
  <g id="Medium-M" transform="matrix(1 0 0 1 1687.45 1126)">
   <path d="M52.4902 6.34766Q53.3203 7.12891 54.2969 7.54395Q55.2734 7.95898 56.4453 7.95898Q58.0566 7.95898 59.3262 7.20215Q60.5957 6.44531 61.3525 5.17578Q62.1094 3.90625 62.1094 2.34375Q62.1094 0 60.4004-1.75781L23.6328-37.6953L23.6328-32.9102L60.4004-68.75Q62.1094-70.5078 62.1094-72.8516Q62.1094-74.4141 61.3525-75.708Q60.5957-77.002 59.3262-77.7588Q58.0566-78.5156 56.4453-78.5156Q54.1016-78.5156 52.4902-76.8555L14.4531-39.6484Q13.4277-38.7695 12.9395-37.6465Q12.4512-36.5234 12.4512-35.2539Q12.4512-32.8125 14.4043-30.8594ZM96.0938 6.34766Q96.9238 7.12891 97.9248 7.54395Q98.9258 7.95898 100.049 7.95898Q101.66 7.95898 102.954 7.20215Q104.248 6.44531 105.005 5.17578Q105.762 3.90625 105.762 2.34375Q105.762 0 104.004-1.75781L67.2852-37.6953L67.2852-32.9102L104.004-68.75Q105.762-70.5078 105.762-72.8516Q105.762-74.4141 105.005-75.708Q104.248-77.002 102.954-77.7588Q101.66-78.5156 100.049-78.5156Q97.7539-78.5156 96.0938-76.8555L58.0566-39.6484Q57.0801-38.7695 56.5674-37.6465Q56.0547-36.5234 56.0547-35.2539Q56.0547-32.8125 58.0566-30.8594Z"/>
  </g>
  <g id="Regular-M" transform="matrix(1 0 0 1 1391.69 1126)">
   <path d="M52.5879 5.81055Q53.2227 6.44531 54.0039 6.78711Q54.7852 7.12891 55.7617 7.12891Q57.0312 7.12891 58.0322 6.54297Q59.0332 5.95703 59.6191 4.95605Q60.2051 3.95508 60.2051 2.68555Q60.2051 0.878906 58.9355-0.488281L20.7031-37.8906L20.7031-32.666L58.9355-70.0195Q60.2051-71.3867 60.2051-73.1934Q60.2051-74.4629 59.6191-75.4883Q59.0332-76.5137 58.0322-77.0996Q57.0312-77.6855 55.7617-77.6855Q53.9062-77.6855 52.5879-76.3672L13.916-38.5254Q13.1836-37.9395 12.8174-37.0605Q12.4512-36.1816 12.4512-35.2539Q12.4512-33.3984 13.8672-31.9824ZM96.1914 5.81055Q96.8262 6.44531 97.6318 6.78711Q98.4375 7.12891 99.3652 7.12891Q100.635 7.12891 101.66 6.54297Q102.686 5.95703 103.271 4.95605Q103.857 3.95508 103.857 2.68555Q103.857 0.878906 102.539-0.488281L64.3555-37.8906L64.3555-32.666L102.539-70.0195Q103.857-71.3867 103.857-73.1934Q103.857-74.4629 103.271-75.4883Q102.686-76.5137 101.66-77.0996Q100.635-77.6855 99.3652-77.6855Q97.5586-77.6855 96.1914-76.3672L57.5195-38.5254Q56.8359-37.9395 56.4453-37.0605Q56.0547-36.1816 56.0547-35.2539Q56.0547-33.3984 57.5195-31.9824Z"/>
  </g>
  <g id="Light-M" transform="matrix(1 0 0 1 1095.88 1126)">
   <path d="M52.6367 4.39453Q53.125 4.83398 53.7109 5.12695Q54.2969 5.41992 55.0293 5.41992Q56.0059 5.41992 56.7627 4.98047Q57.5195 4.54102 57.959 3.75977Q58.3984 2.97852 58.3984 2.05078Q58.3984 0.634766 57.4707-0.341797L18.457-37.4512L18.457-33.1543L57.4707-70.166Q58.3984-71.1914 58.3984-72.6074Q58.3984-73.5352 57.959-74.3164Q57.5195-75.0977 56.7627-75.5371Q56.0059-75.9766 55.0293-75.9766Q53.7109-75.9766 52.6367-74.9512L13.6719-37.8906Q13.0859-37.4023 12.7686-36.7188Q12.4512-36.0352 12.4512-35.2539Q12.4512-33.8379 13.623-32.6172ZM96.2402 4.39453Q96.7285 4.83398 97.3389 5.12695Q97.9492 5.41992 98.6328 5.41992Q99.6094 5.41992 100.391 4.98047Q101.172 4.54102 101.611 3.75977Q102.051 2.97852 102.051 2.05078Q102.051 0.634766 101.074-0.341797L62.1094-37.4512L62.1094-33.1543L101.074-70.166Q102.051-71.1914 102.051-72.6074Q102.051-73.5352 101.611-74.3164Q101.172-75.0977 100.391-75.5371Q99.6094-75.9766 98.6328-75.9766Q97.3633-75.9766 96.2891-74.9512L57.3242-37.8906Q56.7383-37.4023 56.3965-36.7188Q56.0547-36.0352 56.0547-35.2539Q56.0547-33.8379 57.2754-32.6172Z"/>
  </g>
  <g id="Thin-M" transform="matrix(1 0 0 1 800.368 1126)">
   <path d="M52.6855 2.49023Q53.0273 2.73438 53.3447 2.9541Q53.6621 3.17383 54.1016 3.17383Q54.6387 3.17383 55.0781 2.90527Q55.5176 2.63672 55.7617 2.19727Q56.0059 1.75781 56.0059 1.2207Q56.0059 0.341797 55.4688-0.146484L15.5273-36.8164L15.5273-33.7891L55.4688-70.3613Q56.0059-70.9473 56.0059-71.7773Q56.0059-72.3145 55.7617-72.7539Q55.5176-73.1934 55.0781-73.4619Q54.6387-73.7305 54.1016-73.7305Q53.4668-73.7305 52.7344-73.0957L13.3789-37.0605Q12.9883-36.7188 12.7197-36.2549Q12.4512-35.791 12.4512-35.2539Q12.4512-34.375 13.3301-33.4961ZM96.2891 2.49023Q96.6309 2.73438 96.9727 2.9541Q97.3145 3.17383 97.7051 3.17383Q98.2422 3.17383 98.6816 2.90527Q99.1211 2.63672 99.3896 2.19727Q99.6582 1.75781 99.6582 1.2207Q99.6582 0.341797 99.1211-0.146484L59.1309-36.8164L59.1309-33.7891L99.1211-70.3613Q99.6582-70.9473 99.6582-71.7773Q99.6582-72.3145 99.3896-72.7539Q99.1211-73.1934 98.6816-73.4619Q98.2422-73.7305 97.7051-73.7305Q97.0703-73.7305 96.3867-73.0957L57.0312-37.0605Q56.6406-36.7188 56.3477-36.2549Q56.0547-35.791 56.0547-35.2539Q56.0547-34.375 56.9336-33.4961Z"/>
  </g>
  <g id="Ultralight-M" transform="matrix(1 0 0 1 504.291 1126)">
   <path d="M52.7344 1.51367Q52.9297 1.66016 53.125 1.83105Q53.3203 2.00195 53.6133 2.00195Q53.9551 2.00195 54.2236 1.83105Q54.4922 1.66016 54.6387 1.36719Q54.7852 1.07422 54.7852 0.78125Q54.7852 0.195312 54.4922-0.0488281L14.0137-36.5234L14.0137-34.1309L54.4922-70.459Q54.7852-70.8008 54.7852-71.3867Q54.7852-71.6797 54.6387-71.9727Q54.4922-72.2656 54.2236-72.4121Q53.9551-72.5586 53.6133-72.5586Q53.3203-72.5586 52.7832-72.168L13.2324-36.6699Q12.8906-36.3281 12.6709-36.0107Q12.4512-35.6934 12.4512-35.2539Q12.4512-34.668 13.1836-33.9355ZM96.3379 1.51367Q96.5332 1.66016 96.7529 1.83105Q96.9727 2.00195 97.2168 2.00195Q97.5586 2.00195 97.8271 1.83105Q98.0957 1.66016 98.2422 1.36719Q98.3887 1.07422 98.3887 0.78125Q98.3887 0.195312 98.1445-0.0488281L57.6172-36.5234L57.6172-34.1309L98.1445-70.459Q98.3887-70.8008 98.3887-71.3867Q98.3887-71.6797 98.2422-71.9727Q98.0957-72.2656 97.8271-72.4121Q97.5586-72.5586 97.2168-72.5586Q96.9238-72.5586 96.4355-72.168L56.8848-36.6699Q56.543-36.3281 56.2988-36.0107Q56.0547-35.6934 56.0547-35.2539Q56.0547-34.668 56.7871-33.9355Z"/>
  </g>
  <g id="Black-S" transform="matrix(1 0 0 1 2883.33 696)">
   <path d="M40.7227-0.683594Q43.4082 1.85547 46.9727 1.85547Q50.7324 1.85547 53.4668-0.830078Q56.2012-3.51562 56.2012-7.22656Q56.2012-11.084 53.125-14.0625L29.9316-36.2793L29.9316-34.375L53.125-56.4453Q56.2012-59.375 56.2012-63.2324Q56.2012-66.9434 53.4668-69.6289Q50.7324-72.3145 46.9727-72.3145Q43.2617-72.3145 40.7227-69.7754L13.3789-43.1152Q9.81445-39.502 9.76562-35.2539Q9.76562-31.0059 13.3789-27.3926ZM74.9023-0.683594Q77.5879 1.85547 81.1523 1.85547Q84.9121 1.85547 87.6465-0.830078Q90.3809-3.51562 90.3809-7.22656Q90.3809-11.084 87.3047-14.0625L64.1113-36.2793L64.1113-34.375L87.3047-56.4453Q90.3809-59.375 90.3809-63.2324Q90.3809-66.9434 87.6465-69.6289Q84.9121-72.3145 81.1523-72.3145Q77.4414-72.3145 74.9023-69.7754L47.5586-43.1152Q43.9941-39.502 43.9453-35.2539Q43.9453-31.0059 47.5586-27.3926Z"/>
  </g>
  <g id="Heavy-S" transform="matrix(1 0 0 1 2587.57 696)">
   <path d="M40.8203-1.07422Q43.1641 1.12305 46.2891 1.12305Q49.5605 1.12305 51.9287-1.19629Q54.2969-3.51562 54.2969-6.73828Q54.2969-10.0586 51.6602-12.6465L26.9531-36.5723L26.9531-34.0332L51.6602-57.8613Q54.2969-60.4004 54.2969-63.7207Q54.2969-66.9434 51.9287-69.2871Q49.5605-71.6309 46.2891-71.6309Q43.0664-71.6309 40.8203-69.3848L12.793-41.9434Q9.81445-38.916 9.76562-35.2539Q9.76562-31.6406 12.793-28.5645ZM75-1.07422Q77.3438 1.12305 80.4688 1.12305Q83.7402 1.12305 86.1084-1.19629Q88.4766-3.51562 88.4766-6.73828Q88.4766-10.0586 85.8398-12.6465L61.1328-36.5723L61.1328-34.0332L85.8398-57.8613Q88.4766-60.4004 88.4766-63.7207Q88.4766-66.9434 86.1084-69.2871Q83.7402-71.6309 80.4688-71.6309Q77.2461-71.6309 75-69.3848L46.9727-41.9434Q43.9941-38.916 43.9453-35.2539Q43.9453-31.6406 46.9727-28.5645Z"/>
  </g>
  <g id="Bold-S" transform="matrix(1 0 0 1 2291.93 696)">
   <path d="M40.9668-1.5625Q42.8711 0.341797 45.5078 0.341797Q48.2422 0.341797 50.1953-1.58691Q52.1484-3.51562 52.1484-6.25Q52.1484-8.98438 50-11.084L23.6328-36.9141L23.6328-33.6914L50-59.4238Q52.1484-61.5234 52.1484-64.2578Q52.1484-66.9922 50.1953-68.9209Q48.2422-70.8496 45.5078-70.8496Q42.8223-70.8496 40.9668-68.9941L12.207-40.625Q9.81445-38.2812 9.76562-35.2539Q9.76562-32.3242 12.207-29.8828ZM75.1465-1.5625Q77.0508 0.341797 79.6875 0.341797Q82.4219 0.341797 84.375-1.58691Q86.3281-3.51562 86.3281-6.25Q86.3281-8.98438 84.1797-11.084L57.8125-36.9141L57.8125-33.6914L84.1797-59.4238Q86.3281-61.5234 86.3281-64.2578Q86.3281-66.9922 84.375-68.9209Q82.4219-70.8496 79.6875-70.8496Q77.002-70.8496 75.1465-68.9941L46.3867-40.625Q43.9941-38.2812 43.9453-35.2539Q43.9453-32.3242 46.3867-29.8828Z"/>
  </g>
  <g id="Semibold-S" transform="matrix(1 0 0 1 1995.98 696)">
   <path d="M41.0156-1.85547Q42.6758-0.195312 44.9707-0.195312Q47.3145-0.195312 48.9746-1.85547Q50.6348-3.51562 50.6348-5.85938Q50.6348-8.20312 48.877-10.0098L21.3379-37.1582L21.3379-33.4473L48.877-60.498Q50.6348-62.3047 50.6348-64.6484Q50.6348-66.9922 48.9746-68.6279Q47.3145-70.2637 44.9707-70.2637Q42.627-70.2637 41.0156-68.6523L11.7676-39.6973Q9.76562-37.8418 9.76562-35.2539Q9.76562-32.7637 11.7676-30.8105ZM75.1953-1.85547Q76.8555-0.195312 79.1504-0.195312Q81.4941-0.195312 83.1543-1.85547Q84.8145-3.51562 84.8145-5.85938Q84.8145-8.20312 83.0566-10.0098L55.5176-37.1582L55.5176-33.4473L83.0566-60.498Q84.8145-62.3047 84.8145-64.6484Q84.8145-66.9922 83.1543-68.6279Q81.4941-70.2637 79.1504-70.2637Q76.8066-70.2637 75.1953-68.6523L45.9473-39.6973Q43.9453-37.8418 43.9453-35.2539Q43.9453-32.7637 45.9473-30.8105Z"/>
  </g>
  <g id="Medium-S" transform="matrix(1 0 0 1 1699.83 696)">
   <path d="M41.0645-2.09961Q42.5293-0.634766 44.5801-0.634766Q46.6309-0.634766 48.0713-2.0752Q49.5117-3.51562 49.5117-5.56641Q49.5117-7.61719 47.998-9.17969L19.5801-37.3047L19.5801-33.252L47.998-61.3281Q49.5117-62.8906 49.5117-64.8926Q49.5117-66.9922 48.0713-68.4326Q46.6309-69.873 44.5801-69.873Q42.4805-69.873 41.0645-68.457L11.4258-39.0137Q9.76562-37.5 9.76562-35.2539Q9.76562-33.1055 11.4258-31.4941ZM75.2441-2.09961Q76.709-0.634766 78.7598-0.634766Q80.8105-0.634766 82.251-2.0752Q83.6914-3.51562 83.6914-5.56641Q83.6914-7.61719 82.1777-9.17969L53.7598-37.3047L53.7598-33.252L82.1777-61.3281Q83.6914-62.8906 83.6914-64.8926Q83.6914-66.9922 82.251-68.4326Q80.8105-69.873 78.7598-69.873Q76.6602-69.873 75.2441-68.457L45.6055-39.0137Q43.9453-37.5 43.9453-35.2539Q43.9453-33.1055 45.6055-31.4941Z"/>
  </g>
  <g id="Regular-S" transform="matrix(1 0 0 1 1403.85 696)">
   <path d="M41.1621-2.39258Q42.334-1.17188 44.043-1.17188Q45.752-1.17188 46.8994-2.34375Q48.0469-3.51562 48.0469-5.22461Q48.0469-6.83594 46.875-8.10547L17.334-37.5488L17.334-33.0078L46.875-62.4023Q48.0469-63.6719 48.0469-65.2832Q48.0469-66.9922 46.8994-68.1641Q45.752-69.3359 44.043-69.3359Q42.334-69.3359 41.1621-68.1641L10.9863-38.1348Q9.76562-37.0605 9.76562-35.2539Q9.76562-33.5938 10.9863-32.373ZM75.3418-2.39258Q76.5137-1.17188 78.2227-1.17188Q79.9316-1.17188 81.0791-2.34375Q82.2266-3.51562 82.2266-5.22461Q82.2266-6.83594 81.0547-8.10547L51.5137-37.5488L51.5137-33.0078L81.0547-62.4023Q82.2266-63.6719 82.2266-65.2832Q82.2266-66.9922 81.0791-68.1641Q79.9316-69.3359 78.2227-69.3359Q76.5137-69.3359 75.3418-68.1641L45.166-38.1348Q43.9453-37.0605 43.9453-35.2539Q43.9453-33.5938 45.166-32.373Z"/>
  </g>
  <g id="Light-S" transform="matrix(1 0 0 1 1107.94 696)">
   <path d="M41.2109-3.66211Q42.1875-2.68555 43.4082-2.68555Q44.7266-2.68555 45.5811-3.58887Q46.4355-4.49219 46.4355-5.76172Q46.4355-7.03125 45.5566-7.95898L15.332-37.1582L15.332-33.4473L45.5566-62.5488Q46.4355-63.4766 46.4355-64.7461Q46.4355-66.0156 45.5811-66.9189Q44.7266-67.8223 43.4082-67.8223Q42.1875-67.8223 41.2109-66.8945L10.791-37.5977Q9.76562-36.6211 9.76562-35.2539Q9.76562-33.9844 10.791-32.959ZM75.3906-3.66211Q76.3672-2.68555 77.5879-2.68555Q78.9062-2.68555 79.7607-3.58887Q80.6152-4.49219 80.6152-5.76172Q80.6152-7.03125 79.7363-7.95898L49.5117-37.1582L49.5117-33.4473L79.7363-62.5488Q80.6152-63.4766 80.6152-64.7461Q80.6152-66.0156 79.7607-66.9189Q78.9062-67.8223 77.5879-67.8223Q76.3672-67.8223 75.3906-66.8945L44.9707-37.5977Q43.9453-36.6211 43.9453-35.2539Q43.9453-33.9844 44.9707-32.959Z"/>
  </g>
  <g id="Thin-S" transform="matrix(1 0 0 1 812.282 696)">
   <path d="M41.2598-5.32227Q41.9434-4.73633 42.5781-4.73633Q43.3105-4.73633 43.8232-5.24902Q44.3359-5.76172 44.3359-6.54297Q44.3359-7.27539 43.8477-7.8125L12.7441-36.6211L12.7441-33.9844L43.8477-62.6953Q44.3359-63.2324 44.3359-64.0137Q44.3359-64.7949 43.8232-65.3076Q43.3105-65.8203 42.5781-65.8203Q41.9434-65.8203 41.3086-65.2344L10.5469-36.8164Q9.76562-36.084 9.76562-35.2539Q9.76562-34.4727 10.5469-33.6914ZM75.4395-5.32227Q76.123-4.73633 76.7578-4.73633Q77.4902-4.73633 78.0029-5.24902Q78.5156-5.76172 78.5156-6.54297Q78.5156-7.27539 78.0273-7.8125L46.9238-36.6211L46.9238-33.9844L78.0273-62.6953Q78.5156-63.2324 78.5156-64.0137Q78.5156-64.7949 78.0029-65.3076Q77.4902-65.8203 76.7578-65.8203Q76.123-65.8203 75.4883-65.2344L44.7266-36.8164Q43.9453-36.084 43.9453-35.2539Q43.9453-34.4727 44.7266-33.6914Z"/>
  </g>
  <g id="Ultralight-S" transform="matrix(1 0 0 1 516.108 696)">
   <path d="M41.3086-6.20117Q41.8457-5.76172 42.1387-5.76172Q42.627-5.76172 42.9443-6.10352Q43.2617-6.44531 43.2617-6.88477Q43.2617-7.42188 42.9688-7.71484L11.377-36.3281L11.377-34.2773L42.9688-62.793Q43.2617-63.1348 43.2617-63.6719Q43.2617-64.1113 42.9443-64.4531Q42.627-64.7949 42.1387-64.7949Q41.8457-64.7949 41.3574-64.4043L10.4492-36.4746Q9.76562-35.791 9.76562-35.2539Q9.76562-34.7168 10.4004-34.082ZM75.4883-6.20117Q76.0254-5.76172 76.3184-5.76172Q76.8066-5.76172 77.124-6.10352Q77.4414-6.44531 77.4414-6.88477Q77.4414-7.42188 77.1484-7.71484L45.5566-36.3281L45.5566-34.2773L77.1484-62.793Q77.4414-63.1348 77.4414-63.6719Q77.4414-64.1113 77.124-64.4531Q76.8066-64.7949 76.3184-64.7949Q76.0254-64.7949 75.5371-64.4043L44.6289-36.4746Q43.9453-35.791 43.9453-35.2539Q43.9453-34.7168 44.5801-34.082Z"/>
  </g>
 </g>
</svg>
