<?xml version="1.0" encoding="UTF-8"?>
<!--Generator: Apple Native CoreSVG 175-->
<!DOCTYPE svg
PUBLIC "-//W3C//DTD SVG 1.1//EN"
       "http://www.w3.org/Graphics/SVG/1.1/DTD/svg11.dtd">
<svg version="1.1" xmlns="http://www.w3.org/2000/svg" xmlns:xlink="http://www.w3.org/1999/xlink" width="3300" height="2200">
 <!--glyph: "uni10018C.medium", point size: 100.0, font version: "17.0d11e1", template writer version: "65.1"-->
 <g id="Notes">
  <rect height="2200" id="artboard" style="fill:white;opacity:1" width="3300" x="0" y="0"/>
  <line style="fill:none;stroke:black;opacity:1;stroke-width:0.5;" x1="263" x2="3036" y1="292" y2="292"/>
  <text style="stroke:none;fill:black;font-family:sans-serif;font-size:13;font-weight:bold;" transform="matrix(1 0 0 1 263 322)">Weight/Scale Variations</text>
  <text style="stroke:none;fill:black;font-family:sans-serif;font-size:13;text-anchor:middle;" transform="matrix(1 0 0 1 559.711 322)">Ultralight</text>
  <text style="stroke:none;fill:black;font-family:sans-serif;font-size:13;text-anchor:middle;" transform="matrix(1 0 0 1 856.422 322)">Thin</text>
  <text style="stroke:none;fill:black;font-family:sans-serif;font-size:13;text-anchor:middle;" transform="matrix(1 0 0 1 1153.13 322)">Light</text>
  <text style="stroke:none;fill:black;font-family:sans-serif;font-size:13;text-anchor:middle;" transform="matrix(1 0 0 1 1449.84 322)">Regular</text>
  <text style="stroke:none;fill:black;font-family:sans-serif;font-size:13;text-anchor:middle;" transform="matrix(1 0 0 1 1746.56 322)">Medium</text>
  <text style="stroke:none;fill:black;font-family:sans-serif;font-size:13;text-anchor:middle;" transform="matrix(1 0 0 1 2043.27 322)">Semibold</text>
  <text style="stroke:none;fill:black;font-family:sans-serif;font-size:13;text-anchor:middle;" transform="matrix(1 0 0 1 2339.98 322)">Bold</text>
  <text style="stroke:none;fill:black;font-family:sans-serif;font-size:13;text-anchor:middle;" transform="matrix(1 0 0 1 2636.69 322)">Heavy</text>
  <text style="stroke:none;fill:black;font-family:sans-serif;font-size:13;text-anchor:middle;" transform="matrix(1 0 0 1 2933.4 322)">Black</text>
  <line style="fill:none;stroke:black;opacity:1;stroke-width:0.5;" x1="263" x2="3036" y1="1903" y2="1903"/>
  <g transform="matrix(1 0 0 1 263 1933)">
   <path d="M9.24805 0.830078Q10.8691 0.830078 12.2949 0.214844Q13.7207-0.400391 14.8096-1.49414Q15.8984-2.58789 16.5186-4.01367Q17.1387-5.43945 17.1387-7.05078Q17.1387-8.66211 16.5186-10.0879Q15.8984-11.5137 14.8047-12.6074Q13.7109-13.7012 12.2852-14.3164Q10.8594-14.9316 9.23828-14.9316Q7.62695-14.9316 6.20117-14.3164Q4.77539-13.7012 3.69141-12.6074Q2.60742-11.5137 1.9873-10.0879Q1.36719-8.66211 1.36719-7.05078Q1.36719-5.43945 1.9873-4.01367Q2.60742-2.58789 3.69629-1.49414Q4.78516-0.400391 6.21094 0.214844Q7.63672 0.830078 9.24805 0.830078ZM9.24805-0.654297Q7.91992-0.654297 6.7627-1.14746Q5.60547-1.64062 4.73145-2.51953Q3.85742-3.39844 3.36426-4.56055Q2.87109-5.72266 2.87109-7.05078Q2.87109-8.37891 3.35938-9.54102Q3.84766-10.7031 4.72168-11.582Q5.5957-12.4609 6.75293-12.9541Q7.91016-13.4473 9.23828-13.4473Q10.5762-13.4473 11.7334-12.9541Q12.8906-12.4609 13.7695-11.582Q14.6484-10.7031 15.1465-9.54102Q15.6445-8.37891 15.6445-7.05078Q15.6445-5.72266 15.1514-4.56055Q14.6582-3.39844 13.7842-2.51953Q12.9102-1.64062 11.748-1.14746Q10.5859-0.654297 9.24805-0.654297ZM5.6543-7.05078Q5.6543-6.72852 5.85938-6.52832Q6.06445-6.32812 6.40625-6.32812L8.51562-6.32812L8.51562-4.20898Q8.51562-3.88672 8.71094-3.67676Q8.90625-3.4668 9.23828-3.4668Q9.56055-3.4668 9.77051-3.67676Q9.98047-3.88672 9.98047-4.20898L9.98047-6.32812L12.0898-6.32812Q12.4219-6.32812 12.627-6.52832Q12.832-6.72852 12.832-7.05078Q12.832-7.38281 12.627-7.58789Q12.4219-7.79297 12.0898-7.79297L9.98047-7.79297L9.98047-9.90234Q9.98047-10.2344 9.77051-10.4443Q9.56055-10.6543 9.23828-10.6543Q8.90625-10.6543 8.71094-10.4443Q8.51562-10.2344 8.51562-9.90234L8.51562-7.79297L6.40625-7.79297Q6.06445-7.79297 5.85938-7.58789Q5.6543-7.38281 5.6543-7.05078Z"/>
  </g>
  <g transform="matrix(1 0 0 1 281.867 1933)">
   <path d="M11.709 2.91016Q13.75 2.91016 15.5518 2.12891Q17.3535 1.34766 18.7305-0.0292969Q20.1074-1.40625 20.8887-3.20801Q21.6699-5.00977 21.6699-7.05078Q21.6699-9.0918 20.8887-10.8936Q20.1074-12.6953 18.7305-14.0723Q17.3535-15.4492 15.5469-16.2305Q13.7402-17.0117 11.6992-17.0117Q9.6582-17.0117 7.85645-16.2305Q6.05469-15.4492 4.68262-14.0723Q3.31055-12.6953 2.5293-10.8936Q1.74805-9.0918 1.74805-7.05078Q1.74805-5.00977 2.5293-3.20801Q3.31055-1.40625 4.6875-0.0292969Q6.06445 1.34766 7.86621 2.12891Q9.66797 2.91016 11.709 2.91016ZM11.709 1.25Q9.98047 1.25 8.47656 0.605469Q6.97266-0.0390625 5.83496-1.17676Q4.69727-2.31445 4.05762-3.81836Q3.41797-5.32227 3.41797-7.05078Q3.41797-8.7793 4.05762-10.2832Q4.69727-11.7871 5.83008-12.9297Q6.96289-14.0723 8.4668-14.7119Q9.9707-15.3516 11.6992-15.3516Q13.4277-15.3516 14.9316-14.7119Q16.4355-14.0723 17.5781-12.9297Q18.7207-11.7871 19.3652-10.2832Q20.0098-8.7793 20.0098-7.05078Q20.0098-5.32227 19.3701-3.81836Q18.7305-2.31445 17.5928-1.17676Q16.4551-0.0390625 14.9463 0.605469Q13.4375 1.25 11.709 1.25ZM7.17773-7.05078Q7.17773-6.69922 7.41211-6.47461Q7.64648-6.25 8.01758-6.25L10.8887-6.25L10.8887-3.36914Q10.8887-2.99805 11.1133-2.76855Q11.3379-2.53906 11.6895-2.53906Q12.0605-2.53906 12.29-2.76855Q12.5195-2.99805 12.5195-3.36914L12.5195-6.25L15.4004-6.25Q15.7715-6.25 16.001-6.47461Q16.2305-6.69922 16.2305-7.05078Q16.2305-7.42188 16.001-7.65137Q15.7715-7.88086 15.4004-7.88086L12.5195-7.88086L12.5195-10.752Q12.5195-11.1328 12.29-11.3623Q12.0605-11.5918 11.6895-11.5918Q11.3379-11.5918 11.1133-11.3574Q10.8887-11.123 10.8887-10.752L10.8887-7.88086L8.01758-7.88086Q7.63672-7.88086 7.40723-7.65137Q7.17773-7.42188 7.17773-7.05078Z"/>
  </g>
  <g transform="matrix(1 0 0 1 305.646 1933)">
   <path d="M14.9707 5.66406Q17.0605 5.66406 18.96 5.01465Q20.8594 4.36523 22.4512 3.19336Q24.043 2.02148 25.2197 0.429688Q26.3965-1.16211 27.0459-3.06641Q27.6953-4.9707 27.6953-7.05078Q27.6953-9.14062 27.0459-11.04Q26.3965-12.9395 25.2197-14.5312Q24.043-16.123 22.4512-17.2998Q20.8594-18.4766 18.9551-19.126Q17.0508-19.7754 14.9609-19.7754Q12.8711-19.7754 10.9717-19.126Q9.07227-18.4766 7.48535-17.2998Q5.89844-16.123 4.72168-14.5312Q3.54492-12.9395 2.90039-11.04Q2.25586-9.14062 2.25586-7.05078Q2.25586-4.9707 2.90527-3.06641Q3.55469-1.16211 4.72656 0.429688Q5.89844 2.02148 7.49023 3.19336Q9.08203 4.36523 10.9814 5.01465Q12.8809 5.66406 14.9707 5.66406ZM14.9707 3.84766Q13.1641 3.84766 11.5283 3.2959Q9.89258 2.74414 8.53516 1.74805Q7.17773 0.751953 6.17676-0.610352Q5.17578-1.97266 4.62891-3.6084Q4.08203-5.24414 4.08203-7.05078Q4.08203-8.86719 4.62891-10.5029Q5.17578-12.1387 6.17188-13.501Q7.16797-14.8633 8.52539-15.8594Q9.88281-16.8555 11.5186-17.4023Q13.1543-17.9492 14.9609-17.9492Q16.7773-17.9492 18.4131-17.4023Q20.0488-16.8555 21.4111-15.8594Q22.7734-14.8633 23.7695-13.501Q24.7656-12.1387 25.3174-10.5029Q25.8691-8.86719 25.8691-7.05078Q25.8789-5.24414 25.332-3.6084Q24.7852-1.97266 23.7842-0.610352Q22.7832 0.751953 21.4209 1.74805Q20.0586 2.74414 18.4229 3.2959Q16.7871 3.84766 14.9707 3.84766ZM9.19922-7.05078Q9.19922-6.66992 9.45801-6.4209Q9.7168-6.17188 10.1172-6.17188L14.0625-6.17188L14.0625-2.2168Q14.0625-1.81641 14.3115-1.55762Q14.5605-1.29883 14.9512-1.29883Q15.3516-1.29883 15.6104-1.55273Q15.8691-1.80664 15.8691-2.2168L15.8691-6.17188L19.8242-6.17188Q20.2246-6.17188 20.4785-6.4209Q20.7324-6.66992 20.7324-7.05078Q20.7324-7.46094 20.4785-7.71484Q20.2246-7.96875 19.8242-7.96875L15.8691-7.96875L15.8691-11.9141Q15.8691-12.3242 15.6104-12.583Q15.3516-12.8418 14.9512-12.8418Q14.5605-12.8418 14.3115-12.583Q14.0625-12.3242 14.0625-11.9141L14.0625-7.96875L10.1172-7.96875Q9.70703-7.96875 9.45312-7.71484Q9.19922-7.46094 9.19922-7.05078Z"/>
  </g>
  <text style="stroke:none;fill:black;font-family:sans-serif;font-size:13;font-weight:bold;" transform="matrix(1 0 0 1 263 1953)">Design Variations</text>
  <text style="stroke:none;fill:black;font-family:sans-serif;font-size:13;" transform="matrix(1 0 0 1 263 1971)">Symbols are supported in up to nine weights and three scales.</text>
  <text style="stroke:none;fill:black;font-family:sans-serif;font-size:13;" transform="matrix(1 0 0 1 263 1989)">For optimal layout with text and other symbols, vertically align</text>
  <text style="stroke:none;fill:black;font-family:sans-serif;font-size:13;" transform="matrix(1 0 0 1 263 2007)">symbols with the adjacent text.</text>
  <line style="fill:none;stroke:#00AEEF;stroke-width:0.5;opacity:1.0;" x1="776" x2="776" y1="1919" y2="1933"/>
  <g transform="matrix(1 0 0 1 776 1933)">
   <path d="M3.31055 0.15625Q3.70117 0.15625 3.91602-0.00976562Q4.13086-0.175781 4.26758-0.585938L5.52734-4.0332L11.2891-4.0332L12.5488-0.585938Q12.6855-0.175781 12.9004-0.00976562Q13.1152 0.15625 13.4961 0.15625Q13.8867 0.15625 14.1162-0.0585938Q14.3457-0.273438 14.3457-0.644531Q14.3457-0.869141 14.2383-1.17188L9.6582-13.3691Q9.48242-13.8184 9.17969-14.043Q8.87695-14.2676 8.4082-14.2676Q7.5-14.2676 7.17773-13.3789L2.59766-1.16211Q2.49023-0.859375 2.49023-0.634766Q2.49023-0.263672 2.70996-0.0537109Q2.92969 0.15625 3.31055 0.15625ZM6.00586-5.51758L8.37891-12.0898L8.42773-12.0898L10.8008-5.51758Z"/>
  </g>
  <line style="fill:none;stroke:#00AEEF;stroke-width:0.5;opacity:1.0;" x1="793.197" x2="793.197" y1="1919" y2="1933"/>
  <text style="stroke:none;fill:black;font-family:sans-serif;font-size:13;font-weight:bold;" transform="matrix(1 0 0 1 776 1953)">Margins</text>
  <text style="stroke:none;fill:black;font-family:sans-serif;font-size:13;" transform="matrix(1 0 0 1 776 1971)">Leading and trailing margins on the left and right side of each symbol</text>
  <text style="stroke:none;fill:black;font-family:sans-serif;font-size:13;" transform="matrix(1 0 0 1 776 1989)">can be adjusted by modifying the x-location of the margin guidelines.</text>
  <text style="stroke:none;fill:black;font-family:sans-serif;font-size:13;" transform="matrix(1 0 0 1 776 2007)">Modifications are automatically applied proportionally to all</text>
  <text style="stroke:none;fill:black;font-family:sans-serif;font-size:13;" transform="matrix(1 0 0 1 776 2025)">scales and weights.</text>
  <g transform="matrix(1 0 0 1 1289 1933)">
   <path d="M2.8418 1.86523L4.54102 3.57422Q5.18555 4.22852 5.90332 4.17969Q6.62109 4.13086 7.31445 3.35938L18.0078-8.42773L17.041-9.4043L6.42578 2.27539Q6.16211 2.57812 5.89355 2.61719Q5.625 2.65625 5.27344 2.30469L4.10156 1.14258Q3.75 0.791016 3.79395 0.522461Q3.83789 0.253906 4.14062-0.0195312L15.6152-10.8203L14.6387-11.7871L3.04688-0.898438Q2.30469-0.214844 2.25098 0.498047Q2.19727 1.21094 2.8418 1.86523ZM9.25781-16.3281Q8.94531-16.0254 8.90625-15.6348Q8.86719-15.2441 9.04297-14.9512Q9.21875-14.6777 9.55566-14.541Q9.89258-14.4043 10.3809-14.5215Q11.4746-14.7754 12.5977-14.7314Q13.7207-14.6875 14.7949-13.9844L14.209-12.5293Q13.9551-11.9043 14.0674-11.4404Q14.1797-10.9766 14.5801-10.5664L16.875-8.25195Q17.2363-7.88086 17.5781-7.82227Q17.9199-7.76367 18.3398-7.8418L19.4043-8.03711L20.0684-7.36328L20.0293-6.80664Q20-6.43555 20.1221-6.12305Q20.2441-5.81055 20.6055-5.44922L21.3672-4.70703Q21.7285-4.3457 22.1533-4.33105Q22.5781-4.31641 22.9297-4.66797L25.8398-7.58789Q26.1914-7.93945 26.1816-8.35449Q26.1719-8.76953 25.8105-9.13086L25.0391-9.89258Q24.6875-10.2539 24.3799-10.3857Q24.0723-10.5176 23.7109-10.4883L23.1348-10.4395L22.4902-11.0742L22.7344-12.1973Q22.832-12.6172 22.6953-12.9834Q22.5586-13.3496 22.1191-13.7891L19.9219-15.9766Q18.6719-17.2168 17.2607-17.8369Q15.8496-18.457 14.4189-18.4814Q12.9883-18.5059 11.665-17.959Q10.3418-17.4121 9.25781-16.3281ZM10.752-15.957Q11.6602-16.6211 12.7002-16.9043Q13.7402-17.1875 14.8047-17.085Q15.8691-16.9824 16.8701-16.5137Q17.8711-16.0449 18.7012-15.2051L21.1328-12.793Q21.3086-12.6172 21.3525-12.4512Q21.3965-12.2852 21.3379-12.0312L21.0156-10.5469L22.5195-9.0625L23.5059-9.12109Q23.6914-9.13086 23.7891-9.09668Q23.8867-9.0625 24.0332-8.91602L24.6094-8.33984L22.168-5.89844L21.5918-6.47461Q21.4453-6.62109 21.4062-6.71875Q21.3672-6.81641 21.377-7.01172L21.4453-7.98828L19.9512-9.47266L18.4277-9.21875Q18.1836-9.16992 18.042-9.2041Q17.9004-9.23828 17.7148-9.41406L15.7129-11.416Q15.5176-11.5918 15.4932-11.7529Q15.4688-11.9141 15.5859-12.1875L16.4648-14.2773Q15.293-15.3711 13.8281-15.791Q12.3633-16.2109 10.8398-15.7617Q10.7227-15.7324 10.6885-15.8057Q10.6543-15.8789 10.752-15.957Z"/>
  </g>
  <text style="stroke:none;fill:black;font-family:sans-serif;font-size:13;font-weight:bold;" transform="matrix(1 0 0 1 1289 1953)">Exporting</text>
  <text style="stroke:none;fill:black;font-family:sans-serif;font-size:13;" transform="matrix(1 0 0 1 1289 1971)">Symbols should be outlined when exporting to ensure the</text>
  <text style="stroke:none;fill:black;font-family:sans-serif;font-size:13;" transform="matrix(1 0 0 1 1289 1989)">design is preserved when submitting to Xcode.</text>
  <text id="template-version" style="stroke:none;fill:black;font-family:sans-serif;font-size:13;text-anchor:end;" transform="matrix(1 0 0 1 3036 1933)">Template v.3.0</text>
  <text style="stroke:none;fill:black;font-family:sans-serif;font-size:13;text-anchor:end;" transform="matrix(1 0 0 1 3036 1951)">Requires Xcode 13 or greater</text>
  <text id="descriptive-name" style="stroke:none;fill:black;font-family:sans-serif;font-size:13;text-anchor:end;" transform="matrix(1 0 0 1 3036 1969)">Generated from chevron.right.2</text>
  <text style="stroke:none;fill:black;font-family:sans-serif;font-size:13;text-anchor:end;" transform="matrix(1 0 0 1 3036 1987)">Typeset at 100 points</text>
  <text style="stroke:none;fill:black;font-family:sans-serif;font-size:13;" transform="matrix(1 0 0 1 263 726)">Small</text>
  <text style="stroke:none;fill:black;font-family:sans-serif;font-size:13;" transform="matrix(1 0 0 1 263 1156)">Medium</text>
  <text style="stroke:none;fill:black;font-family:sans-serif;font-size:13;" transform="matrix(1 0 0 1 263 1586)">Large</text>
 </g>
 <g id="Guides">
  <g id="H-reference" style="fill:#27AAE1;stroke:none;" transform="matrix(1 0 0 1 339 696)">
   <path d="M0.976562 0L3.66211 0L29.3457-67.1387L30.0293-67.1387L30.0293-70.459L28.125-70.459ZM11.6699-24.4629L46.9727-24.4629L46.2402-26.709L12.4512-26.709ZM55.127 0L57.7637 0L30.6152-70.459L29.4434-70.459L29.4434-67.1387Z"/>
  </g>
  <line id="Baseline-S" style="fill:none;stroke:#27AAE1;opacity:1;stroke-width:0.5;" x1="263" x2="3036" y1="696" y2="696"/>
  <line id="Capline-S" style="fill:none;stroke:#27AAE1;opacity:1;stroke-width:0.5;" x1="263" x2="3036" y1="625.541" y2="625.541"/>
  <g id="H-reference" style="fill:#27AAE1;stroke:none;" transform="matrix(1 0 0 1 339 1126)">
   <path d="M0.976562 0L3.66211 0L29.3457-67.1387L30.0293-67.1387L30.0293-70.459L28.125-70.459ZM11.6699-24.4629L46.9727-24.4629L46.2402-26.709L12.4512-26.709ZM55.127 0L57.7637 0L30.6152-70.459L29.4434-70.459L29.4434-67.1387Z"/>
  </g>
  <line id="Baseline-M" style="fill:none;stroke:#27AAE1;opacity:1;stroke-width:0.5;" x1="263" x2="3036" y1="1126" y2="1126"/>
  <line id="Capline-M" style="fill:none;stroke:#27AAE1;opacity:1;stroke-width:0.5;" x1="263" x2="3036" y1="1055.54" y2="1055.54"/>
  <g id="H-reference" style="fill:#27AAE1;stroke:none;" transform="matrix(1 0 0 1 339 1556)">
   <path d="M0.976562 0L3.66211 0L29.3457-67.1387L30.0293-67.1387L30.0293-70.459L28.125-70.459ZM11.6699-24.4629L46.9727-24.4629L46.2402-26.709L12.4512-26.709ZM55.127 0L57.7637 0L30.6152-70.459L29.4434-70.459L29.4434-67.1387Z"/>
  </g>
  <line id="Baseline-L" style="fill:none;stroke:#27AAE1;opacity:1;stroke-width:0.5;" x1="263" x2="3036" y1="1556" y2="1556"/>
  <line id="Capline-L" style="fill:none;stroke:#27AAE1;opacity:1;stroke-width:0.5;" x1="263" x2="3036" y1="1485.54" y2="1485.54"/>
  <line id="left-margin-Ultralight-S" style="fill:none;stroke:#00AEEF;stroke-width:0.5;opacity:1.0;" x1="516.108" x2="516.108" y1="600.785" y2="720.121"/>
  <line id="right-margin-Ultralight-S" style="fill:none;stroke:#00AEEF;stroke-width:0.5;opacity:1.0;" x1="603.315" x2="603.315" y1="600.785" y2="720.121"/>
  <line id="left-margin-Thin-S" style="fill:none;stroke:#00AEEF;stroke-width:0.5;opacity:1.0;" x1="812.282" x2="812.282" y1="600.785" y2="720.121"/>
  <line id="right-margin-Thin-S" style="fill:none;stroke:#00AEEF;stroke-width:0.5;opacity:1.0;" x1="900.563" x2="900.563" y1="600.785" y2="720.121"/>
  <line id="left-margin-Light-S" style="fill:none;stroke:#00AEEF;stroke-width:0.5;opacity:1.0;" x1="1107.94" x2="1107.94" y1="600.785" y2="720.121"/>
  <line id="right-margin-Light-S" style="fill:none;stroke:#00AEEF;stroke-width:0.5;opacity:1.0;" x1="1198.32" x2="1198.32" y1="600.785" y2="720.121"/>
  <line id="left-margin-Regular-S" style="fill:none;stroke:#00AEEF;stroke-width:0.5;opacity:1.0;" x1="1403.85" x2="1403.85" y1="600.785" y2="720.121"/>
  <line id="right-margin-Regular-S" style="fill:none;stroke:#00AEEF;stroke-width:0.5;opacity:1.0;" x1="1495.84" x2="1495.84" y1="600.785" y2="720.121"/>
  <line id="left-margin-Medium-S" style="fill:none;stroke:#00AEEF;stroke-width:0.5;opacity:1.0;" x1="1699.83" x2="1699.83" y1="600.785" y2="720.121"/>
  <line id="right-margin-Medium-S" style="fill:none;stroke:#00AEEF;stroke-width:0.5;opacity:1.0;" x1="1793.28" x2="1793.28" y1="600.785" y2="720.121"/>
  <line id="left-margin-Semibold-S" style="fill:none;stroke:#00AEEF;stroke-width:0.5;opacity:1.0;" x1="1995.98" x2="1995.98" y1="600.785" y2="720.121"/>
  <line id="right-margin-Semibold-S" style="fill:none;stroke:#00AEEF;stroke-width:0.5;opacity:1.0;" x1="2090.56" x2="2090.56" y1="600.785" y2="720.121"/>
  <line id="left-margin-Bold-S" style="fill:none;stroke:#00AEEF;stroke-width:0.5;opacity:1.0;" x1="2291.93" x2="2291.93" y1="600.785" y2="720.121"/>
  <line id="right-margin-Bold-S" style="fill:none;stroke:#00AEEF;stroke-width:0.5;opacity:1.0;" x1="2388.02" x2="2388.02" y1="600.785" y2="720.121"/>
  <line id="left-margin-Heavy-S" style="fill:none;stroke:#00AEEF;stroke-width:0.5;opacity:1.0;" x1="2587.57" x2="2587.57" y1="600.785" y2="720.121"/>
  <line id="right-margin-Heavy-S" style="fill:none;stroke:#00AEEF;stroke-width:0.5;opacity:1.0;" x1="2685.81" x2="2685.81" y1="600.785" y2="720.121"/>
  <line id="left-margin-Black-S" style="fill:none;stroke:#00AEEF;stroke-width:0.5;opacity:1.0;" x1="2883.33" x2="2883.33" y1="600.785" y2="720.121"/>
  <line id="right-margin-Black-S" style="fill:none;stroke:#00AEEF;stroke-width:0.5;opacity:1.0;" x1="2983.47" x2="2983.47" y1="600.785" y2="720.121"/>
  <line id="left-margin-Ultralight-M" style="fill:none;stroke:#00AEEF;stroke-width:0.5;opacity:1.0;" x1="504.291" x2="504.291" y1="1030.79" y2="1150.12"/>
  <line id="right-margin-Ultralight-M" style="fill:none;stroke:#00AEEF;stroke-width:0.5;opacity:1.0;" x1="615.131" x2="615.131" y1="1030.79" y2="1150.12"/>
  <line id="left-margin-Thin-M" style="fill:none;stroke:#00AEEF;stroke-width:0.5;opacity:1.0;" x1="800.368" x2="800.368" y1="1030.79" y2="1150.12"/>
  <line id="right-margin-Thin-M" style="fill:none;stroke:#00AEEF;stroke-width:0.5;opacity:1.0;" x1="912.477" x2="912.477" y1="1030.79" y2="1150.12"/>
  <line id="left-margin-Light-M" style="fill:none;stroke:#00AEEF;stroke-width:0.5;opacity:1.0;" x1="1095.88" x2="1095.88" y1="1030.79" y2="1150.12"/>
  <line id="right-margin-Light-M" style="fill:none;stroke:#00AEEF;stroke-width:0.5;opacity:1.0;" x1="1210.38" x2="1210.38" y1="1030.79" y2="1150.12"/>
  <line id="left-margin-Regular-M" style="fill:none;stroke:#00AEEF;stroke-width:0.5;opacity:1.0;" x1="1391.69" x2="1391.69" y1="1030.79" y2="1150.12"/>
  <line id="right-margin-Regular-M" style="fill:none;stroke:#00AEEF;stroke-width:0.5;opacity:1.0;" x1="1508" x2="1508" y1="1030.79" y2="1150.12"/>
  <line id="left-margin-Medium-M" style="fill:none;stroke:#00AEEF;stroke-width:0.5;opacity:1.0;" x1="1687.45" x2="1687.45" y1="1030.79" y2="1150.12"/>
  <line id="right-margin-Medium-M" style="fill:none;stroke:#00AEEF;stroke-width:0.5;opacity:1.0;" x1="1805.66" x2="1805.66" y1="1030.79" y2="1150.12"/>
  <line id="left-margin-Semibold-M" style="fill:none;stroke:#00AEEF;stroke-width:0.5;opacity:1.0;" x1="1983.43" x2="1983.43" y1="1030.79" y2="1150.12"/>
  <line id="right-margin-Semibold-M" style="fill:none;stroke:#00AEEF;stroke-width:0.5;opacity:1.0;" x1="2103.11" x2="2103.11" y1="1030.79" y2="1150.12"/>
  <line id="left-margin-Bold-M" style="fill:none;stroke:#00AEEF;stroke-width:0.5;opacity:1.0;" x1="2279.16" x2="2279.16" y1="1030.79" y2="1150.12"/>
  <line id="right-margin-Bold-M" style="fill:none;stroke:#00AEEF;stroke-width:0.5;opacity:1.0;" x1="2400.79" x2="2400.79" y1="1030.79" y2="1150.12"/>
  <line id="left-margin-Heavy-M" style="fill:none;stroke:#00AEEF;stroke-width:0.5;opacity:1.0;" x1="2574.46" x2="2574.46" y1="1030.79" y2="1150.12"/>
  <line id="right-margin-Heavy-M" style="fill:none;stroke:#00AEEF;stroke-width:0.5;opacity:1.0;" x1="2698.92" x2="2698.92" y1="1030.79" y2="1150.12"/>
  <line id="left-margin-Black-M" style="fill:none;stroke:#00AEEF;stroke-width:0.5;opacity:1.0;" x1="2869.92" x2="2869.92" y1="1030.79" y2="1150.12"/>
  <line id="right-margin-Black-M" style="fill:none;stroke:#00AEEF;stroke-width:0.5;opacity:1.0;" x1="2996.88" x2="2996.88" y1="1030.79" y2="1150.12"/>
  <line id="left-margin-Ultralight-L" style="fill:none;stroke:#00AEEF;stroke-width:0.5;opacity:1.0;" x1="488.446" x2="488.446" y1="1460.79" y2="1580.12"/>
  <line id="right-margin-Ultralight-L" style="fill:none;stroke:#00AEEF;stroke-width:0.5;opacity:1.0;" x1="630.976" x2="630.976" y1="1460.79" y2="1580.12"/>
  <line id="left-margin-Thin-L" style="fill:none;stroke:#00AEEF;stroke-width:0.5;opacity:1.0;" x1="784.474" x2="784.474" y1="1460.79" y2="1580.12"/>
  <line id="right-margin-Thin-L" style="fill:none;stroke:#00AEEF;stroke-width:0.5;opacity:1.0;" x1="928.37" x2="928.37" y1="1460.79" y2="1580.12"/>
  <line id="left-margin-Light-L" style="fill:none;stroke:#00AEEF;stroke-width:0.5;opacity:1.0;" x1="1079.84" x2="1079.84" y1="1460.79" y2="1580.12"/>
  <line id="right-margin-Light-L" style="fill:none;stroke:#00AEEF;stroke-width:0.5;opacity:1.0;" x1="1226.42" x2="1226.42" y1="1460.79" y2="1580.12"/>
  <line id="left-margin-Regular-L" style="fill:none;stroke:#00AEEF;stroke-width:0.5;opacity:1.0;" x1="1375.55" x2="1375.55" y1="1460.79" y2="1580.12"/>
  <line id="right-margin-Regular-L" style="fill:none;stroke:#00AEEF;stroke-width:0.5;opacity:1.0;" x1="1524.14" x2="1524.14" y1="1460.79" y2="1580.12"/>
  <line id="left-margin-Medium-L" style="fill:none;stroke:#00AEEF;stroke-width:0.5;opacity:1.0;" x1="1671.12" x2="1671.12" y1="1460.79" y2="1580.12"/>
  <line id="right-margin-Medium-L" style="fill:none;stroke:#00AEEF;stroke-width:0.5;opacity:1.0;" x1="1822" x2="1822" y1="1460.79" y2="1580.12"/>
  <line id="left-margin-Semibold-L" style="fill:none;stroke:#00AEEF;stroke-width:0.5;opacity:1.0;" x1="1966.95" x2="1966.95" y1="1460.79" y2="1580.12"/>
  <line id="right-margin-Semibold-L" style="fill:none;stroke:#00AEEF;stroke-width:0.5;opacity:1.0;" x1="2119.59" x2="2119.59" y1="1460.79" y2="1580.12"/>
  <line id="left-margin-Bold-L" style="fill:none;stroke:#00AEEF;stroke-width:0.5;opacity:1.0;" x1="2262.49" x2="2262.49" y1="1460.79" y2="1580.12"/>
  <line id="right-margin-Bold-L" style="fill:none;stroke:#00AEEF;stroke-width:0.5;opacity:1.0;" x1="2417.47" x2="2417.47" y1="1460.79" y2="1580.12"/>
  <line id="left-margin-Heavy-L" style="fill:none;stroke:#00AEEF;stroke-width:0.5;opacity:1.0;" x1="2557.51" x2="2557.51" y1="1460.79" y2="1580.12"/>
  <line id="right-margin-Heavy-L" style="fill:none;stroke:#00AEEF;stroke-width:0.5;opacity:1.0;" x1="2715.86" x2="2715.86" y1="1460.79" y2="1580.12"/>
  <line id="left-margin-Black-L" style="fill:none;stroke:#00AEEF;stroke-width:0.5;opacity:1.0;" x1="2852.71" x2="2852.71" y1="1460.79" y2="1580.12"/>
  <line id="right-margin-Black-L" style="fill:none;stroke:#00AEEF;stroke-width:0.5;opacity:1.0;" x1="3014.09" x2="3014.09" y1="1460.79" y2="1580.12"/>
 </g>
 <g id="Symbols">
  <g id="Black-L" transform="matrix(1 0 0 1 2852.71 1556)">
   <path d="M29.0039 24.6094Q31.5918 24.6094 33.7646 23.7061Q35.9375 22.8027 37.793 20.9961L84.082-24.5117Q86.6699-27.0996 87.8418-29.6631Q89.0137-32.2266 89.0137-35.2539Q88.9648-38.3789 87.793-40.9424Q86.6211-43.5059 84.082-45.9961L37.793-91.5039Q35.9863-93.3105 33.8135-94.1895Q31.6406-95.0684 29.0039-95.0684Q25.4395-95.0684 22.5098-93.335Q19.5801-91.6016 17.8223-88.6963Q16.0645-85.791 16.0645-82.3242Q16.0645-76.9531 20.3125-72.8516L61.3281-33.1543L61.3281-37.5488L20.3125 2.29492Q16.0645 6.49414 16.0645 11.8164Q16.0645 15.332 17.8223 18.2373Q19.5801 21.1426 22.5098 22.876Q25.4395 24.6094 29.0039 24.6094ZM85.3027 24.6094Q87.8906 24.6094 90.0635 23.7061Q92.2363 22.8027 94.0918 20.9961L140.381-24.5117Q142.969-27.0996 144.141-29.6631Q145.312-32.2266 145.312-35.2539Q145.264-38.3789 144.092-40.9424Q142.92-43.5059 140.381-45.9961L94.0918-91.5039Q92.2852-93.3105 90.1123-94.1895Q87.9395-95.0684 85.3027-95.0684Q81.7383-95.0684 78.8086-93.335Q75.8789-91.6016 74.1211-88.6963Q72.3633-85.791 72.3633-82.3242Q72.3633-76.9531 76.6113-72.8516L117.627-33.1543L117.627-37.5488L76.6113 2.29492Q72.3633 6.49414 72.3633 11.8164Q72.3633 15.332 74.1211 18.2373Q75.8789 21.1426 78.8086 22.876Q81.7383 24.6094 85.3027 24.6094Z"/>
  </g>
  <g id="Heavy-L" transform="matrix(1 0 0 1 2557.51 1556)">
   <path d="M27.0996 23.0469Q29.3457 23.0469 31.2012 22.2656Q33.0566 21.4844 34.6191 19.9707L81.8359-26.1719Q83.9844-28.3203 84.9854-30.5176Q85.9863-32.7148 85.9863-35.2539Q85.9375-37.8906 84.9365-40.0879Q83.9355-42.2852 81.8359-44.3359L34.6191-90.4785Q33.1055-92.041 31.2256-92.7979Q29.3457-93.5547 27.0996-93.5547Q24.0234-93.5547 21.5332-92.0654Q19.043-90.5762 17.5537-88.1104Q16.0645-85.6445 16.0645-82.666Q16.0645-78.0762 19.6289-74.6094L62.7441-32.959L62.7441-37.7441L19.6289 4.05273Q16.0645 7.56836 16.0645 12.1582Q16.0645 15.1367 17.5537 17.627Q19.043 20.1172 21.5332 21.582Q24.0234 23.0469 27.0996 23.0469ZM83.3984 23.0469Q85.6445 23.0469 87.5 22.2656Q89.3555 21.4844 90.918 19.9707L138.135-26.1719Q140.283-28.3203 141.284-30.5176Q142.285-32.7148 142.285-35.2539Q142.236-37.8906 141.235-40.0879Q140.234-42.2852 138.135-44.3359L90.918-90.4785Q89.4043-92.041 87.5244-92.7979Q85.6445-93.5547 83.3984-93.5547Q80.3223-93.5547 77.832-92.0654Q75.3418-90.5762 73.8525-88.1104Q72.3633-85.6445 72.3633-82.666Q72.3633-78.0762 75.9277-74.6094L119.043-32.959L119.043-37.7441L75.9277 4.05273Q72.3633 7.56836 72.3633 12.1582Q72.3633 15.1367 73.8525 17.627Q75.3418 20.1172 77.832 21.582Q80.3223 23.0469 83.3984 23.0469Z"/>
  </g>
  <g id="Bold-L" transform="matrix(1 0 0 1 2262.49 1556)">
   <path d="M25 21.3379Q26.8066 21.3379 28.3203 20.6787Q29.834 20.0195 31.1035 18.7988L79.3457-28.0762Q81.0059-29.7363 81.8115-31.4941Q82.6172-33.252 82.6172-35.2539Q82.6172-37.3535 81.8115-39.1357Q81.0059-40.918 79.2969-42.5293L31.1035-89.3555Q29.834-90.5762 28.3203-91.2109Q26.8066-91.8457 25-91.8457Q22.5098-91.8457 20.4834-90.6494Q18.457-89.4531 17.2607-87.4512Q16.0645-85.4492 16.0645-83.0566Q16.0645-79.3457 18.8965-76.5625L64.3555-32.7637L64.3555-37.9395L18.8965 6.00586Q16.0645 8.83789 16.0645 12.5Q16.0645 14.9414 17.2607 16.9434Q18.457 18.9453 20.4834 20.1416Q22.5098 21.3379 25 21.3379ZM81.2988 21.3379Q83.1055 21.3379 84.6191 20.6787Q86.1328 20.0195 87.4023 18.7988L135.645-28.0762Q137.305-29.7363 138.11-31.4941Q138.916-33.252 138.916-35.2539Q138.916-37.3535 138.086-39.1357Q137.256-40.918 135.596-42.5293L87.4023-89.3555Q86.1328-90.5762 84.6191-91.2109Q83.1055-91.8457 81.2988-91.8457Q78.8086-91.8457 76.7822-90.6494Q74.7559-89.4531 73.5596-87.4512Q72.3633-85.4492 72.3633-83.0566Q72.3633-79.3457 75.1953-76.5625L120.654-32.7637L120.654-37.9395L75.1953 6.00586Q72.3633 8.83789 72.3633 12.5Q72.3633 14.9414 73.5596 16.9434Q74.7559 18.9453 76.7822 20.1416Q78.8086 21.3379 81.2988 21.3379Z"/>
  </g>
  <g id="Semibold-L" transform="matrix(1 0 0 1 1966.95 1556)">
   <path d="M23.4863 20.1172Q25.0488 20.1172 26.3184 19.5557Q27.5879 18.9941 28.6621 17.9688L77.5879-29.3457Q78.9551-30.7129 79.6143-32.1533Q80.2734-33.5938 80.2734-35.2539Q80.2734-36.9629 79.5898-38.4521Q78.9062-39.9414 77.5391-41.2109L28.6133-88.5254Q27.5879-89.5996 26.3184-90.1367Q25.0488-90.6738 23.4863-90.6738Q21.3867-90.6738 19.7266-89.6729Q18.0664-88.6719 17.0654-86.9873Q16.0645-85.3027 16.0645-83.3008Q16.0645-80.2246 18.3594-77.9297L65.4785-32.5684L65.4785-38.0371L18.3594 7.37305Q16.0645 9.66797 16.0645 12.7441Q16.0645 14.7949 17.0654 16.4795Q18.0664 18.1641 19.7266 19.1406Q21.3867 20.1172 23.4863 20.1172ZM79.7852 20.1172Q81.3477 20.1172 82.6172 19.5557Q83.8867 18.9941 84.9609 17.9688L133.887-29.3457Q135.254-30.7129 135.913-32.1533Q136.572-33.5938 136.572-35.2539Q136.572-36.9629 135.889-38.4521Q135.205-39.9414 133.838-41.2109L84.9121-88.5254Q83.8867-89.5996 82.6172-90.1367Q81.3477-90.6738 79.7852-90.6738Q77.6855-90.6738 76.0254-89.6729Q74.3652-88.6719 73.3643-86.9873Q72.3633-85.3027 72.3633-83.3008Q72.3633-80.2246 74.6582-77.9297L121.777-32.5684L121.777-38.0371L74.6582 7.37305Q72.3633 9.66797 72.3633 12.7441Q72.3633 14.7949 73.3643 16.4795Q74.3652 18.1641 76.0254 19.1406Q77.6855 20.1172 79.7852 20.1172Z"/>
  </g>
  <g id="Medium-L" transform="matrix(1 0 0 1 1671.12 1556)">
   <path d="M22.4121 19.1895Q23.6816 19.1895 24.7803 18.7256Q25.8789 18.2617 26.8066 17.334L76.2695-30.3223Q77.3926-31.4453 77.9541-32.666Q78.5156-33.8867 78.5156-35.2539Q78.5156-36.7188 77.9541-37.9639Q77.3926-39.209 76.2207-40.2832L26.7578-87.9395Q25.8789-88.8184 24.8047-89.3066Q23.7305-89.7949 22.4121-89.7949Q20.6055-89.7949 19.165-88.9404Q17.7246-88.0859 16.8945-86.6699Q16.0645-85.2539 16.0645-83.4961Q16.0645-80.8594 17.9688-78.9551L66.3086-32.4707L66.3086-38.1348L17.9688 8.39844Q16.0645 10.3027 16.0645 12.9395Q16.0645 14.6973 16.8945 16.1133Q17.7246 17.5293 19.165 18.3594Q20.6055 19.1895 22.4121 19.1895ZM78.7109 19.1895Q79.9805 19.1895 81.0791 18.7256Q82.1777 18.2617 83.1055 17.334L132.568-30.3223Q133.691-31.4453 134.253-32.666Q134.814-33.8867 134.814-35.2539Q134.814-36.7188 134.229-37.9639Q133.643-39.209 132.52-40.2832L83.0566-87.9395Q82.1777-88.8184 81.1035-89.3066Q80.0293-89.7949 78.7109-89.7949Q76.9043-89.7949 75.4639-88.9404Q74.0234-88.0859 73.1934-86.6699Q72.3633-85.2539 72.3633-83.4961Q72.3633-80.8594 74.2676-78.9551L122.607-32.4707L122.607-38.1348L74.2676 8.39844Q72.3633 10.3027 72.3633 12.9395Q72.3633 14.6973 73.1934 16.1133Q74.0234 17.5293 75.4639 18.3594Q76.9043 19.1895 78.7109 19.1895Z"/>
  </g>
  <g id="Regular-L" transform="matrix(1 0 0 1 1375.55 1556)">
   <path d="M20.9473 18.0176Q21.9727 18.0176 22.8271 17.627Q23.6816 17.2363 24.4141 16.5527L74.5605-31.5918Q75.3418-32.373 75.7812-33.3008Q76.2207-34.2285 76.2207-35.2539Q76.2207-36.3281 75.7812-37.3047Q75.3418-38.2812 74.5117-39.0137L24.3652-87.1582Q23.6816-87.8418 22.8271-88.2324Q21.9727-88.623 20.9473-88.623Q19.5312-88.623 18.4326-87.9639Q17.334-87.3047 16.6992-86.2061Q16.0645-85.1074 16.0645-83.7402Q16.0645-81.7383 17.4316-80.2734L67.3828-32.3242L67.3828-38.2812L17.4316 9.7168Q16.0645 11.1328 16.0645 13.1836Q16.0645 14.5508 16.6992 15.6494Q17.334 16.748 18.4326 17.3828Q19.5312 18.0176 20.9473 18.0176ZM77.2461 18.0176Q78.2715 18.0176 79.126 17.627Q79.9805 17.2363 80.7129 16.5527L130.859-31.5918Q131.641-32.373 132.08-33.3008Q132.52-34.2285 132.52-35.2539Q132.52-36.3281 132.056-37.3047Q131.592-38.2812 130.811-39.0137L80.6641-87.1582Q79.9805-87.8418 79.126-88.2324Q78.2715-88.623 77.2461-88.623Q75.8301-88.623 74.7314-87.9639Q73.6328-87.3047 72.998-86.2061Q72.3633-85.1074 72.3633-83.7402Q72.3633-81.7383 73.7305-80.2734L123.682-32.3242L123.682-38.2812L73.7305 9.7168Q72.3633 11.1328 72.3633 13.1836Q72.3633 14.5508 72.998 15.6494Q73.6328 16.748 74.7314 17.3828Q75.8301 18.0176 77.2461 18.0176Z"/>
  </g>
  <g id="Light-L" transform="matrix(1 0 0 1 1079.84 1556)">
   <path d="M19.7266 16.1133Q20.5078 16.1133 21.1426 15.7959Q21.7773 15.4785 22.3633 14.9414L72.8027-32.3242Q73.4375-32.959 73.8281-33.6914Q74.2188-34.4238 74.2188-35.2539Q74.2188-36.1328 73.8281-36.9141Q73.4375-37.6953 72.7539-38.2812L22.2656-85.5957Q21.7285-86.084 21.1182-86.4014Q20.5078-86.7188 19.7266-86.7188Q18.6523-86.7188 17.8223-86.2305Q16.9922-85.7422 16.5283-84.9121Q16.0645-84.082 16.0645-83.0566Q16.0645-81.4941 17.0898-80.4199L67.8711-32.8613L67.8711-37.793L17.0898 9.86328Q16.0645 10.8887 16.0645 12.4512Q16.0645 13.4766 16.5283 14.3066Q16.9922 15.1367 17.8223 15.625Q18.6523 16.1133 19.7266 16.1133ZM76.0254 16.1133Q76.8066 16.1133 77.4414 15.7959Q78.0762 15.4785 78.6621 14.9414L129.102-32.3242Q129.736-32.959 130.127-33.6914Q130.518-34.4238 130.518-35.2539Q130.518-36.1328 130.103-36.9141Q129.688-37.6953 129.053-38.2812L78.5645-85.5957Q78.0273-86.084 77.417-86.4014Q76.8066-86.7188 76.0254-86.7188Q74.9512-86.7188 74.1211-86.2305Q73.291-85.7422 72.8271-84.9121Q72.3633-84.082 72.3633-83.0566Q72.3633-81.4941 73.3887-80.4199L124.17-32.8613L124.17-37.793L73.3887 9.86328Q72.3633 10.8887 72.3633 12.4512Q72.3633 13.4766 72.8271 14.3066Q73.291 15.1367 74.1211 15.625Q74.9512 16.1133 76.0254 16.1133Z"/>
  </g>
  <g id="Thin-L" transform="matrix(1 0 0 1 784.474 1556)">
   <path d="M18.1152 13.5742Q18.5547 13.5742 18.8965 13.3545Q19.2383 13.1348 19.5801 12.8418L70.459-33.252Q70.9473-33.6914 71.2402-34.1797Q71.5332-34.668 71.5332-35.2539Q71.5332-35.8887 71.2158-36.4014Q70.8984-36.9141 70.4102-37.3535L19.5312-83.4961Q19.1895-83.7891 18.8721-83.9844Q18.5547-84.1797 18.1152-84.1797Q17.5293-84.1797 17.0654-83.9111Q16.6016-83.6426 16.333-83.1787Q16.0645-82.7148 16.0645-82.1777Q16.0645-81.2012 16.6016-80.6641L68.5059-33.5449L68.5059-37.1094L16.6016 10.1074Q16.0645 10.5469 16.0645 11.5234Q16.0645 12.1094 16.333 12.5732Q16.6016 13.0371 17.0654 13.3057Q17.5293 13.5742 18.1152 13.5742ZM74.4141 13.5742Q74.8535 13.5742 75.1953 13.3545Q75.5371 13.1348 75.8789 12.8418L126.758-33.252Q127.246-33.6914 127.539-34.1797Q127.832-34.668 127.832-35.2539Q127.832-35.8887 127.49-36.4014Q127.148-36.9141 126.709-37.3535L75.8301-83.4961Q75.4883-83.7891 75.1709-83.9844Q74.8535-84.1797 74.4141-84.1797Q73.8281-84.1797 73.3643-83.9111Q72.9004-83.6426 72.6318-83.1787Q72.3633-82.7148 72.3633-82.1777Q72.3633-81.2012 72.9004-80.6641L124.756-33.5449L124.756-37.1094L72.9004 10.1074Q72.3633 10.5469 72.3633 11.5234Q72.3633 12.1094 72.6318 12.5732Q72.9004 13.0371 73.3643 13.3057Q73.8281 13.5742 74.4141 13.5742Z"/>
  </g>
  <g id="Ultralight-L" transform="matrix(1 0 0 1 488.446 1556)">
   <path d="M17.2852 12.2559Q17.5781 12.2559 17.7734 12.085Q17.9688 11.9141 18.2129 11.7188L69.2871-33.7402Q69.6777-34.082 69.9219-34.4238Q70.166-34.7656 70.166-35.2539Q70.166-35.7422 69.873-36.1328Q69.5801-36.5234 69.1895-36.8652L18.1152-82.4219Q17.8711-82.6172 17.7246-82.7637Q17.5781-82.9102 17.2852-82.9102Q16.9434-82.9102 16.6504-82.7393Q16.3574-82.5684 16.2109-82.2998Q16.0645-82.0312 16.0645-81.6895Q16.0645-81.0547 16.3574-80.7617L68.8477-33.9355L68.8477-36.7676L16.3574 10.2051Q16.0645 10.4004 16.0645 11.0352Q16.0645 11.377 16.2109 11.6455Q16.3574 11.9141 16.6504 12.085Q16.9434 12.2559 17.2852 12.2559ZM73.584 12.2559Q73.877 12.2559 74.0723 12.085Q74.2676 11.9141 74.5117 11.7188L125.586-33.7402Q125.977-34.082 126.221-34.4238Q126.465-34.7656 126.465-35.2539Q126.465-35.7422 126.172-36.1328Q125.879-36.5234 125.488-36.8652L74.4141-82.4219Q74.1699-82.6172 74.0234-82.7637Q73.877-82.9102 73.584-82.9102Q73.2422-82.9102 72.9492-82.7393Q72.6562-82.5684 72.5098-82.2998Q72.3633-82.0312 72.3633-81.6895Q72.3633-81.0547 72.6562-80.7617L125.098-33.9355L125.098-36.7676L72.6562 10.2051Q72.3633 10.4004 72.3633 11.0352Q72.3633 11.377 72.5098 11.6455Q72.6562 11.9141 72.9492 12.085Q73.2422 12.2559 73.584 12.2559Z"/>
  </g>
  <g id="Black-M" transform="matrix(1 0 0 1 2869.92 1126)">
   <path d="M23.6816 11.8164Q25.9277 11.8164 27.8076 11.0352Q29.6875 10.2539 31.2988 8.69141L66.5039-25.7324Q70.8984-30.127 70.8984-35.2539Q70.8496-37.9883 69.7998-40.2344Q68.75-42.4805 66.5039-44.7754L31.2988-79.1504Q28.2227-82.2754 23.6816-82.2754Q20.6055-82.2754 18.0664-80.7617Q15.5273-79.248 13.9893-76.7334Q12.4512-74.2188 12.4512-71.1914Q12.4512-66.5039 16.1621-62.9395L46.4355-33.9844L46.4355-36.7188L16.1621-7.56836Q12.4512-3.90625 12.4512 0.732422Q12.4512 3.75977 13.9893 6.27441Q15.5273 8.78906 18.0664 10.3027Q20.6055 11.8164 23.6816 11.8164ZM67.334 11.8164Q69.5312 11.8164 71.4111 11.0352Q73.291 10.2539 74.9512 8.69141L110.156-25.7324Q114.502-30.127 114.502-35.2539Q114.453-37.9883 113.428-40.2344Q112.402-42.4805 110.156-44.7754L74.9512-79.1504Q71.8262-82.2754 67.334-82.2754Q64.2578-82.2754 61.6943-80.7617Q59.1309-79.248 57.5928-76.7334Q56.0547-74.2188 56.0547-71.1914Q56.0547-66.5039 59.8145-62.9395L90.0879-33.9844L90.0879-36.7188L59.8145-7.56836Q56.0547-3.90625 56.0547 0.732422Q56.0547 3.75977 57.5928 6.27441Q59.1309 8.78906 61.6943 10.3027Q64.2578 11.8164 67.334 11.8164Z"/>
  </g>
  <g id="Heavy-M" transform="matrix(1 0 0 1 2574.46 1126)">
   <path d="M22.0703 10.6934Q24.0234 10.6934 25.6592 10.0342Q27.2949 9.375 28.6621 8.00781L64.6973-27.1973Q68.3594-30.9082 68.3594-35.2539Q68.3594-37.5488 67.4561-39.4775Q66.5527-41.4062 64.6973-43.3105L28.6621-78.5156Q25.9766-81.2012 22.0703-81.2012Q19.4336-81.2012 17.2607-79.9072Q15.0879-78.6133 13.7695-76.4404Q12.4512-74.2676 12.4512-71.6797Q12.4512-67.6758 15.5762-64.5996L47.7539-33.6914L47.7539-37.0117L15.5762-5.9082Q12.4512-2.7832 12.4512 1.17188Q12.4512 3.80859 13.7695 5.95703Q15.0879 8.10547 17.2607 9.39941Q19.4336 10.6934 22.0703 10.6934ZM65.7227 10.6934Q67.627 10.6934 69.2627 10.0342Q70.8984 9.375 72.3145 8.00781L108.301-27.1973Q112.012-30.9082 112.012-35.2539Q111.963-37.5488 111.084-39.4775Q110.205-41.4062 108.301-43.3105L72.3145-78.5156Q69.5801-81.2012 65.7227-81.2012Q63.0859-81.2012 60.8887-79.9072Q58.6914-78.6133 57.373-76.4404Q56.0547-74.2676 56.0547-71.6797Q56.0547-67.6758 59.2285-64.5996L91.3574-33.6914L91.3574-37.0117L59.2285-5.9082Q56.0547-2.7832 56.0547 1.17188Q56.0547 3.80859 57.373 5.95703Q58.6914 8.10547 60.8887 9.39941Q63.0859 10.6934 65.7227 10.6934Z"/>
  </g>
  <g id="Bold-M" transform="matrix(1 0 0 1 2279.16 1126)">
   <path d="M20.3125 9.47266Q21.9238 9.47266 23.2666 8.91113Q24.6094 8.34961 25.7324 7.27539L62.6465-28.8574Q65.5762-31.7871 65.5762-35.2539Q65.5273-37.1094 64.8193-38.6719Q64.1113-40.2344 62.6465-41.6504L25.6836-77.7832Q23.4863-79.9805 20.3125-79.9805Q18.1152-79.9805 16.3574-78.9307Q14.5996-77.8809 13.5254-76.123Q12.4512-74.3652 12.4512-72.2168Q12.4512-68.9453 14.9414-66.5039L49.2188-33.3496L49.2188-37.3047L14.9414-4.05273Q12.4512-1.51367 12.4512 1.70898Q12.4512 3.85742 13.5254 5.61523Q14.5996 7.37305 16.3574 8.42285Q18.1152 9.47266 20.3125 9.47266ZM63.9648 9.47266Q65.5273 9.47266 66.8701 8.91113Q68.2129 8.34961 69.3359 7.27539L106.299-28.8574Q109.18-31.7871 109.18-35.2539Q109.18-37.1094 108.472-38.6719Q107.764-40.2344 106.299-41.6504L69.3359-77.7832Q67.0898-79.9805 63.9648-79.9805Q61.7676-79.9805 59.9854-78.9307Q58.2031-77.8809 57.1289-76.123Q56.0547-74.3652 56.0547-72.2168Q56.0547-68.9453 58.5938-66.5039L92.8223-33.3496L92.8223-37.3047L58.5938-4.05273Q56.0547-1.51367 56.0547 1.70898Q56.0547 3.85742 57.1289 5.61523Q58.2031 7.37305 59.9854 8.42285Q61.7676 9.47266 63.9648 9.47266Z"/>
  </g>
  <g id="Semibold-M" transform="matrix(1 0 0 1 1983.43 1126)">
   <path d="M19.043 8.64258Q20.4102 8.64258 21.5576 8.1543Q22.7051 7.66602 23.6816 6.73828L61.2305-29.9805Q63.623-32.373 63.623-35.2539Q63.5742-36.7676 62.9883-38.0859Q62.4023-39.4043 61.2305-40.5273L23.6328-77.2461Q21.7773-79.1504 19.043-79.1504Q17.1875-79.1504 15.6982-78.2715Q14.209-77.3926 13.3301-75.8789Q12.4512-74.3652 12.4512-72.5586Q12.4512-69.8242 14.502-67.7734L50.1953-33.1055L50.1953-37.5L14.502-2.73438Q12.4512-0.634766 12.4512 2.05078Q12.4512 3.90625 13.3301 5.37109Q14.209 6.83594 15.6982 7.73926Q17.1875 8.64258 19.043 8.64258ZM62.6953 8.64258Q64.0137 8.64258 65.1611 8.1543Q66.3086 7.66602 67.2852 6.73828L104.883-29.9805Q107.227-32.373 107.227-35.2539Q107.227-36.7676 106.641-38.0859Q106.055-39.4043 104.883-40.5273L67.2852-77.2461Q65.3809-79.1504 62.6953-79.1504Q60.8398-79.1504 59.3506-78.2715Q57.8613-77.3926 56.958-75.8789Q56.0547-74.3652 56.0547-72.5586Q56.0547-69.8242 58.1543-67.7734L93.7988-33.1055L93.7988-37.5L58.1543-2.73438Q56.0547-0.634766 56.0547 2.05078Q56.0547 3.90625 56.958 5.37109Q57.8613 6.83594 59.3506 7.73926Q60.8398 8.64258 62.6953 8.64258Z"/>
  </g>
  <g id="Medium-M" transform="matrix(1 0 0 1 1687.45 1126)">
   <path d="M18.1152 7.95898Q19.3359 7.95898 20.3369 7.54395Q21.3379 7.12891 22.1191 6.34766L60.1562-30.8594Q62.1094-32.8125 62.1094-35.2539Q62.1094-36.5234 61.6211-37.6465Q61.1328-38.7695 60.1562-39.6484L22.0703-76.8555Q20.459-78.5156 18.1152-78.5156Q16.5039-78.5156 15.2344-77.7588Q13.9648-77.002 13.208-75.708Q12.4512-74.4141 12.4512-72.8516Q12.4512-70.5078 14.1602-68.75L50.9766-32.9102L50.9766-37.6953L14.1602-1.75781Q12.4512 0 12.4512 2.34375Q12.4512 3.90625 13.208 5.17578Q13.9648 6.44531 15.2344 7.20215Q16.5039 7.95898 18.1152 7.95898ZM61.7676 7.95898Q62.9395 7.95898 63.9404 7.54395Q64.9414 7.12891 65.7227 6.34766L103.809-30.8594Q105.762-32.8125 105.762-35.2539Q105.762-36.5234 105.249-37.6465Q104.736-38.7695 103.809-39.6484L65.7227-76.8555Q64.0625-78.5156 61.7676-78.5156Q60.1562-78.5156 58.8867-77.7588Q57.6172-77.002 56.8359-75.708Q56.0547-74.4141 56.0547-72.8516Q56.0547-70.5078 57.8125-68.75L94.5801-32.9102L94.5801-37.6953L57.8125-1.75781Q56.0547 0 56.0547 2.34375Q56.0547 3.90625 56.8359 5.17578Q57.6172 6.44531 58.8867 7.20215Q60.1562 7.95898 61.7676 7.95898Z"/>
  </g>
  <g id="Regular-M" transform="matrix(1 0 0 1 1391.69 1126)">
   <path d="M16.8945 7.12891Q17.8711 7.12891 18.6768 6.78711Q19.4824 6.44531 20.1172 5.81055L58.7891-31.9824Q60.2051-33.3984 60.2051-35.2539Q60.2051-36.1816 59.8389-37.0605Q59.4727-37.9395 58.7891-38.5254L20.0684-76.3672Q18.75-77.6855 16.8945-77.6855Q15.625-77.6855 14.624-77.0996Q13.623-76.5137 13.0371-75.4883Q12.4512-74.4629 12.4512-73.1934Q12.4512-71.3867 13.7207-70.0195L51.9531-32.666L51.9531-37.8906L13.7207-0.488281Q12.4512 0.878906 12.4512 2.68555Q12.4512 3.95508 13.0371 4.95605Q13.623 5.95703 14.624 6.54297Q15.625 7.12891 16.8945 7.12891ZM60.5469 7.12891Q61.4746 7.12891 62.2803 6.78711Q63.0859 6.44531 63.7207 5.81055L102.393-31.9824Q103.857-33.3984 103.857-35.2539Q103.857-36.1816 103.467-37.0605Q103.076-37.9395 102.393-38.5254L63.7207-76.3672Q62.3535-77.6855 60.5469-77.6855Q59.2773-77.6855 58.2764-77.0996Q57.2754-76.5137 56.665-75.4883Q56.0547-74.4629 56.0547-73.1934Q56.0547-71.3867 57.373-70.0195L95.5566-32.666L95.5566-37.8906L57.373-0.488281Q56.0547 0.878906 56.0547 2.68555Q56.0547 3.95508 56.665 4.95605Q57.2754 5.95703 58.2764 6.54297Q59.2773 7.12891 60.5469 7.12891Z"/>
  </g>
  <g id="Light-M" transform="matrix(1 0 0 1 1095.88 1126)">
   <path d="M15.8203 5.41992Q16.5527 5.41992 17.1631 5.12695Q17.7734 4.83398 18.2617 4.39453L57.2266-32.6172Q58.3984-33.8379 58.3984-35.2539Q58.3984-36.0352 58.0811-36.7188Q57.7637-37.4023 57.1777-37.8906L18.2129-74.9512Q17.1387-75.9766 15.8203-75.9766Q14.8438-75.9766 14.0869-75.5371Q13.3301-75.0977 12.8906-74.3164Q12.4512-73.5352 12.4512-72.6074Q12.4512-71.1914 13.3789-70.166L52.3926-33.1543L52.3926-37.4512L13.3789-0.341797Q12.4512 0.634766 12.4512 2.05078Q12.4512 2.97852 12.8906 3.75977Q13.3301 4.54102 14.0869 4.98047Q14.8438 5.41992 15.8203 5.41992ZM59.4727 5.41992Q60.1562 5.41992 60.7666 5.12695Q61.377 4.83398 61.8652 4.39453L100.83-32.6172Q102.051-33.8379 102.051-35.2539Q102.051-36.0352 101.709-36.7188Q101.367-37.4023 100.781-37.8906L61.8652-74.9512Q60.7422-75.9766 59.4727-75.9766Q58.4961-75.9766 57.7393-75.5371Q56.9824-75.0977 56.5186-74.3164Q56.0547-73.5352 56.0547-72.6074Q56.0547-71.1914 57.0312-70.166L95.9961-33.1543L95.9961-37.4512L57.0312-0.341797Q56.0547 0.634766 56.0547 2.05078Q56.0547 2.97852 56.5186 3.75977Q56.9824 4.54102 57.7393 4.98047Q58.4961 5.41992 59.4727 5.41992Z"/>
  </g>
  <g id="Thin-M" transform="matrix(1 0 0 1 800.368 1126)">
   <path d="M14.3555 3.17383Q14.7949 3.17383 15.1367 2.9541Q15.4785 2.73438 15.7715 2.49023L55.127-33.4961Q56.0059-34.375 56.0059-35.2539Q56.0059-35.791 55.7373-36.2549Q55.4688-36.7188 55.0781-37.0605L15.7227-73.0957Q15.0391-73.7305 14.3555-73.7305Q13.8184-73.7305 13.3789-73.4619Q12.9395-73.1934 12.6953-72.7539Q12.4512-72.3145 12.4512-71.7773Q12.4512-70.9473 12.9395-70.3613L52.9297-33.7891L52.9297-36.8164L12.9395-0.146484Q12.4512 0.341797 12.4512 1.2207Q12.4512 1.75781 12.6953 2.19727Q12.9395 2.63672 13.3789 2.90527Q13.8184 3.17383 14.3555 3.17383ZM58.0078 3.17383Q58.3984 3.17383 58.7402 2.9541Q59.082 2.73438 59.375 2.49023L98.7305-33.4961Q99.6582-34.375 99.6582-35.2539Q99.6582-35.791 99.3896-36.2549Q99.1211-36.7188 98.6816-37.0605L59.375-73.0957Q58.6426-73.7305 58.0078-73.7305Q57.4707-73.7305 57.0312-73.4619Q56.5918-73.1934 56.3232-72.7539Q56.0547-72.3145 56.0547-71.7773Q56.0547-70.9473 56.5918-70.3613L96.582-33.7891L96.582-36.8164L56.5918-0.146484Q56.0547 0.341797 56.0547 1.2207Q56.0547 1.75781 56.3232 2.19727Q56.5918 2.63672 57.0312 2.90527Q57.4707 3.17383 58.0078 3.17383Z"/>
  </g>
  <g id="Ultralight-M" transform="matrix(1 0 0 1 504.291 1126)">
   <path d="M13.623 2.00195Q13.916 2.00195 14.1113 1.83105Q14.3066 1.66016 14.5508 1.51367L54.0527-33.9355Q54.7852-34.668 54.7852-35.2539Q54.7852-35.6934 54.541-36.0107Q54.2969-36.3281 53.9551-36.6699L14.502-72.168Q13.916-72.5586 13.623-72.5586Q13.3301-72.5586 13.0371-72.4121Q12.7441-72.2656 12.5977-71.9727Q12.4512-71.6797 12.4512-71.3867Q12.4512-70.8008 12.7441-70.459L53.2227-34.1309L53.2227-36.5234L12.7441-0.0488281Q12.4512 0.195312 12.4512 0.78125Q12.4512 1.07422 12.5977 1.36719Q12.7441 1.66016 13.0371 1.83105Q13.3301 2.00195 13.623 2.00195ZM57.2754 2.00195Q57.5195 2.00195 57.7148 1.83105Q57.9102 1.66016 58.1543 1.51367L97.6562-33.9355Q98.3887-34.668 98.3887-35.2539Q98.3887-35.6934 98.1689-36.0107Q97.9492-36.3281 97.6074-36.6699L58.1055-72.168Q57.5195-72.5586 57.2754-72.5586Q56.9824-72.5586 56.6895-72.4121Q56.3965-72.2656 56.2256-71.9727Q56.0547-71.6797 56.0547-71.3867Q56.0547-70.8008 56.3965-70.459L96.875-34.1309L96.875-36.5234L56.3965-0.0488281Q56.0547 0.195312 56.0547 0.78125Q56.0547 1.07422 56.2256 1.36719Q56.3965 1.66016 56.6895 1.83105Q56.9824 2.00195 57.2754 2.00195Z"/>
  </g>
  <g id="Black-S" transform="matrix(1 0 0 1 2883.33 696)">
   <path d="M18.9941 1.85547Q22.5586 1.85547 25.2441-0.683594L52.5879-27.3926Q56.2012-31.0059 56.2012-35.2539Q56.1523-39.502 52.5879-43.1152L25.2441-69.7754Q22.7051-72.3145 18.9941-72.3145Q15.2344-72.3145 12.5-69.6289Q9.76562-66.9434 9.76562-63.2324Q9.76562-59.375 12.8418-56.4453L36.0352-34.375L36.0352-36.2793L12.8418-14.0625Q9.76562-11.084 9.76562-7.22656Q9.76562-3.51562 12.5-0.830078Q15.2344 1.85547 18.9941 1.85547ZM53.1738 1.85547Q56.7383 1.85547 59.4238-0.683594L86.7676-27.3926Q90.3809-31.0059 90.3809-35.2539Q90.332-39.502 86.7676-43.1152L59.4238-69.7754Q56.8848-72.3145 53.1738-72.3145Q49.4141-72.3145 46.6797-69.6289Q43.9453-66.9434 43.9453-63.2324Q43.9453-59.375 47.0215-56.4453L70.2148-34.375L70.2148-36.2793L47.0215-14.0625Q43.9453-11.084 43.9453-7.22656Q43.9453-3.51562 46.6797-0.830078Q49.4141 1.85547 53.1738 1.85547Z"/>
  </g>
  <g id="Heavy-S" transform="matrix(1 0 0 1 2587.57 696)">
   <path d="M17.7734 1.12305Q20.8984 1.12305 23.1934-1.07422L51.2207-28.5645Q54.2969-31.6406 54.2969-35.2539Q54.248-38.916 51.2207-41.9434L23.1934-69.3848Q20.9961-71.6309 17.7734-71.6309Q14.502-71.6309 12.1338-69.2871Q9.76562-66.9434 9.76562-63.7207Q9.76562-60.4004 12.4023-57.8613L37.0605-34.0332L37.0605-36.5723L12.4023-12.6465Q9.76562-10.0586 9.76562-6.73828Q9.76562-3.51562 12.1338-1.19629Q14.502 1.12305 17.7734 1.12305ZM51.9531 1.12305Q55.0781 1.12305 57.373-1.07422L85.4004-28.5645Q88.4766-31.6406 88.4766-35.2539Q88.4277-38.916 85.4004-41.9434L57.373-69.3848Q55.1758-71.6309 51.9531-71.6309Q48.6816-71.6309 46.3135-69.2871Q43.9453-66.9434 43.9453-63.7207Q43.9453-60.4004 46.582-57.8613L71.2402-34.0332L71.2402-36.5723L46.582-12.6465Q43.9453-10.0586 43.9453-6.73828Q43.9453-3.51562 46.3135-1.19629Q48.6816 1.12305 51.9531 1.12305Z"/>
  </g>
  <g id="Bold-S" transform="matrix(1 0 0 1 2291.93 696)">
   <path d="M16.4062 0.341797Q19.043 0.341797 20.9473-1.5625L49.707-29.8828Q52.1484-32.3242 52.1484-35.2539Q52.0996-38.2812 49.707-40.625L20.9473-68.9941Q19.0918-70.8496 16.4062-70.8496Q13.6719-70.8496 11.7188-68.9209Q9.76562-66.9922 9.76562-64.2578Q9.76562-61.5234 11.9141-59.4238L38.2812-33.6914L38.2812-36.9141L11.9141-11.084Q9.76562-8.98438 9.76562-6.25Q9.76562-3.51562 11.7188-1.58691Q13.6719 0.341797 16.4062 0.341797ZM50.5859 0.341797Q53.2227 0.341797 55.127-1.5625L83.8867-29.8828Q86.3281-32.3242 86.3281-35.2539Q86.2793-38.2812 83.8867-40.625L55.127-68.9941Q53.2715-70.8496 50.5859-70.8496Q47.8516-70.8496 45.8984-68.9209Q43.9453-66.9922 43.9453-64.2578Q43.9453-61.5234 46.0938-59.4238L72.4609-33.6914L72.4609-36.9141L46.0938-11.084Q43.9453-8.98438 43.9453-6.25Q43.9453-3.51562 45.8984-1.58691Q47.8516 0.341797 50.5859 0.341797Z"/>
  </g>
  <g id="Semibold-S" transform="matrix(1 0 0 1 1995.98 696)">
   <path d="M15.4785-0.195312Q17.7246-0.195312 19.3848-1.85547L48.6816-30.8105Q50.6348-32.7637 50.6348-35.2539Q50.6348-37.8418 48.6816-39.6973L19.3848-68.6523Q17.7734-70.2637 15.4785-70.2637Q13.0859-70.2637 11.4258-68.6279Q9.76562-66.9922 9.76562-64.6484Q9.76562-62.3047 11.5234-60.498L39.0625-33.4473L39.0625-37.1582L11.5234-10.0098Q9.76562-8.20312 9.76562-5.85938Q9.76562-3.51562 11.4258-1.85547Q13.0859-0.195312 15.4785-0.195312ZM49.6582-0.195312Q51.9043-0.195312 53.5645-1.85547L82.8613-30.8105Q84.8145-32.7637 84.8145-35.2539Q84.8145-37.8418 82.8613-39.6973L53.5645-68.6523Q51.9531-70.2637 49.6582-70.2637Q47.2656-70.2637 45.6055-68.6279Q43.9453-66.9922 43.9453-64.6484Q43.9453-62.3047 45.7031-60.498L73.2422-33.4473L73.2422-37.1582L45.7031-10.0098Q43.9453-8.20312 43.9453-5.85938Q43.9453-3.51562 45.6055-1.85547Q47.2656-0.195312 49.6582-0.195312Z"/>
  </g>
  <g id="Medium-S" transform="matrix(1 0 0 1 1699.83 696)">
   <path d="M14.7461-0.634766Q16.748-0.634766 18.2129-2.09961L47.8516-31.4941Q49.5117-33.1055 49.5117-35.2539Q49.5117-37.5 47.8516-39.0137L18.2129-68.457Q16.7969-69.873 14.7461-69.873Q12.6465-69.873 11.2061-68.4326Q9.76562-66.9922 9.76562-64.8926Q9.76562-62.8906 11.2793-61.3281L39.6973-33.252L39.6973-37.3047L11.2793-9.17969Q9.76562-7.61719 9.76562-5.56641Q9.76562-3.51562 11.2061-2.0752Q12.6465-0.634766 14.7461-0.634766ZM48.9258-0.634766Q50.9277-0.634766 52.3926-2.09961L82.0312-31.4941Q83.6914-33.1055 83.6914-35.2539Q83.6914-37.5 82.0312-39.0137L52.3926-68.457Q50.9766-69.873 48.9258-69.873Q46.8262-69.873 45.3857-68.4326Q43.9453-66.9922 43.9453-64.8926Q43.9453-62.8906 45.459-61.3281L73.877-33.252L73.877-37.3047L45.459-9.17969Q43.9453-7.61719 43.9453-5.56641Q43.9453-3.51562 45.3857-2.0752Q46.8262-0.634766 48.9258-0.634766Z"/>
  </g>
  <g id="Regular-S" transform="matrix(1 0 0 1 1403.85 696)">
   <path d="M13.8184-1.17188Q15.4785-1.17188 16.6504-2.39258L46.8262-32.373Q48.0469-33.5938 48.0469-35.2539Q48.0469-37.0605 46.8262-38.1348L16.6504-68.1641Q15.4785-69.3359 13.8184-69.3359Q12.0605-69.3359 10.9131-68.1641Q9.76562-66.9922 9.76562-65.2832Q9.76562-63.6719 10.9375-62.4023L40.4785-33.0078L40.4785-37.5488L10.9375-8.10547Q9.76562-6.83594 9.76562-5.22461Q9.76562-3.51562 10.9131-2.34375Q12.0605-1.17188 13.8184-1.17188ZM47.998-1.17188Q49.6582-1.17188 50.8301-2.39258L81.0059-32.373Q82.2266-33.5938 82.2266-35.2539Q82.2266-37.0605 81.0059-38.1348L50.8301-68.1641Q49.6582-69.3359 47.998-69.3359Q46.2402-69.3359 45.0928-68.1641Q43.9453-66.9922 43.9453-65.2832Q43.9453-63.6719 45.1172-62.4023L74.6582-33.0078L74.6582-37.5488L45.1172-8.10547Q43.9453-6.83594 43.9453-5.22461Q43.9453-3.51562 45.0928-2.34375Q46.2402-1.17188 47.998-1.17188Z"/>
  </g>
  <g id="Light-S" transform="matrix(1 0 0 1 1107.94 696)">
   <path d="M12.8418-2.68555Q14.0625-2.68555 15.0391-3.66211L45.4102-32.959Q46.4355-33.9844 46.4355-35.2539Q46.4355-36.6211 45.4102-37.5977L14.9902-66.8945Q14.0625-67.8223 12.8418-67.8223Q11.5234-67.8223 10.6445-66.9189Q9.76562-66.0156 9.76562-64.7461Q9.76562-63.4766 10.6445-62.5488L40.8691-33.4473L40.8691-37.1582L10.6445-7.95898Q9.76562-7.03125 9.76562-5.76172Q9.76562-4.49219 10.6445-3.58887Q11.5234-2.68555 12.8418-2.68555ZM47.0215-2.68555Q48.2422-2.68555 49.2188-3.66211L79.5898-32.959Q80.6152-33.9844 80.6152-35.2539Q80.6152-36.6211 79.5898-37.5977L49.1699-66.8945Q48.2422-67.8223 47.0215-67.8223Q45.7031-67.8223 44.8242-66.9189Q43.9453-66.0156 43.9453-64.7461Q43.9453-63.4766 44.8242-62.5488L75.0488-33.4473L75.0488-37.1582L44.8242-7.95898Q43.9453-7.03125 43.9453-5.76172Q43.9453-4.49219 44.8242-3.58887Q45.7031-2.68555 47.0215-2.68555Z"/>
  </g>
  <g id="Thin-S" transform="matrix(1 0 0 1 812.282 696)">
   <path d="M11.5723-4.73633Q12.1582-4.73633 12.8418-5.32227L43.6035-33.6914Q44.3359-34.4727 44.3359-35.2539Q44.3359-36.084 43.5547-36.8164L12.8418-65.2344Q12.1582-65.8203 11.5723-65.8203Q10.791-65.8203 10.2783-65.3076Q9.76562-64.7949 9.76562-64.0137Q9.76562-63.2324 10.2539-62.6953L41.4062-33.9844L41.4062-36.6211L10.2539-7.8125Q9.76562-7.27539 9.76562-6.54297Q9.76562-5.76172 10.2783-5.24902Q10.791-4.73633 11.5723-4.73633ZM45.752-4.73633Q46.3379-4.73633 47.0215-5.32227L77.7832-33.6914Q78.5156-34.4727 78.5156-35.2539Q78.5156-36.084 77.7344-36.8164L47.0215-65.2344Q46.3379-65.8203 45.752-65.8203Q44.9707-65.8203 44.458-65.3076Q43.9453-64.7949 43.9453-64.0137Q43.9453-63.2324 44.4336-62.6953L75.5859-33.9844L75.5859-36.6211L44.4336-7.8125Q43.9453-7.27539 43.9453-6.54297Q43.9453-5.76172 44.458-5.24902Q44.9707-4.73633 45.752-4.73633Z"/>
  </g>
  <g id="Ultralight-S" transform="matrix(1 0 0 1 516.108 696)">
   <path d="M10.8887-5.76172Q11.2305-5.76172 11.7676-6.20117L42.627-34.082Q43.2617-34.7168 43.2617-35.2539Q43.2617-35.791 42.627-36.4746L11.7188-64.4043Q11.2305-64.7949 10.8887-64.7949Q10.4492-64.7949 10.1074-64.4531Q9.76562-64.1113 9.76562-63.6719Q9.76562-63.1348 10.0586-62.793L41.6504-34.2773L41.6504-36.3281L10.0586-7.71484Q9.76562-7.42188 9.76562-6.88477Q9.76562-6.44531 10.1074-6.10352Q10.4492-5.76172 10.8887-5.76172ZM45.0684-5.76172Q45.4102-5.76172 45.9473-6.20117L76.8066-34.082Q77.4414-34.7168 77.4414-35.2539Q77.4414-35.791 76.8066-36.4746L45.8984-64.4043Q45.4102-64.7949 45.0684-64.7949Q44.6289-64.7949 44.2871-64.4531Q43.9453-64.1113 43.9453-63.6719Q43.9453-63.1348 44.2383-62.793L75.8301-34.2773L75.8301-36.3281L44.2383-7.71484Q43.9453-7.42188 43.9453-6.88477Q43.9453-6.44531 44.2871-6.10352Q44.6289-5.76172 45.0684-5.76172Z"/>
  </g>
 </g>
</svg>
