<?xml version="1.0" encoding="UTF-8"?>
<!--Generator: Apple Native CoreSVG 175-->
<!DOCTYPE svg
PUBLIC "-//W3C//DTD SVG 1.1//EN"
       "http://www.w3.org/Graphics/SVG/1.1/DTD/svg11.dtd">
<svg version="1.1" xmlns="http://www.w3.org/2000/svg" xmlns:xlink="http://www.w3.org/1999/xlink" width="3300" height="2200">
 <!--glyph: "uni10037F.medium", point size: 100.0, font version: "17.0d11e1", template writer version: "65.1"-->
 <g id="Notes">
  <rect height="2200" id="artboard" style="fill:white;opacity:1" width="3300" x="0" y="0"/>
  <line style="fill:none;stroke:black;opacity:1;stroke-width:0.5;" x1="263" x2="3036" y1="292" y2="292"/>
  <text style="stroke:none;fill:black;font-family:sans-serif;font-size:13;font-weight:bold;" transform="matrix(1 0 0 1 263 322)">Weight/Scale Variations</text>
  <text style="stroke:none;fill:black;font-family:sans-serif;font-size:13;text-anchor:middle;" transform="matrix(1 0 0 1 559.711 322)">Ultralight</text>
  <text style="stroke:none;fill:black;font-family:sans-serif;font-size:13;text-anchor:middle;" transform="matrix(1 0 0 1 856.422 322)">Thin</text>
  <text style="stroke:none;fill:black;font-family:sans-serif;font-size:13;text-anchor:middle;" transform="matrix(1 0 0 1 1153.13 322)">Light</text>
  <text style="stroke:none;fill:black;font-family:sans-serif;font-size:13;text-anchor:middle;" transform="matrix(1 0 0 1 1449.84 322)">Regular</text>
  <text style="stroke:none;fill:black;font-family:sans-serif;font-size:13;text-anchor:middle;" transform="matrix(1 0 0 1 1746.56 322)">Medium</text>
  <text style="stroke:none;fill:black;font-family:sans-serif;font-size:13;text-anchor:middle;" transform="matrix(1 0 0 1 2043.27 322)">Semibold</text>
  <text style="stroke:none;fill:black;font-family:sans-serif;font-size:13;text-anchor:middle;" transform="matrix(1 0 0 1 2339.98 322)">Bold</text>
  <text style="stroke:none;fill:black;font-family:sans-serif;font-size:13;text-anchor:middle;" transform="matrix(1 0 0 1 2636.69 322)">Heavy</text>
  <text style="stroke:none;fill:black;font-family:sans-serif;font-size:13;text-anchor:middle;" transform="matrix(1 0 0 1 2933.4 322)">Black</text>
  <line style="fill:none;stroke:black;opacity:1;stroke-width:0.5;" x1="263" x2="3036" y1="1903" y2="1903"/>
  <g transform="matrix(1 0 0 1 263 1933)">
   <path d="M9.24805 0.830078Q10.8691 0.830078 12.2949 0.214844Q13.7207-0.400391 14.8096-1.49414Q15.8984-2.58789 16.5186-4.01367Q17.1387-5.43945 17.1387-7.05078Q17.1387-8.66211 16.5186-10.0879Q15.8984-11.5137 14.8047-12.6074Q13.7109-13.7012 12.2852-14.3164Q10.8594-14.9316 9.23828-14.9316Q7.62695-14.9316 6.20117-14.3164Q4.77539-13.7012 3.69141-12.6074Q2.60742-11.5137 1.9873-10.0879Q1.36719-8.66211 1.36719-7.05078Q1.36719-5.43945 1.9873-4.01367Q2.60742-2.58789 3.69629-1.49414Q4.78516-0.400391 6.21094 0.214844Q7.63672 0.830078 9.24805 0.830078ZM9.24805-0.654297Q7.91992-0.654297 6.7627-1.14746Q5.60547-1.64062 4.73145-2.51953Q3.85742-3.39844 3.36426-4.56055Q2.87109-5.72266 2.87109-7.05078Q2.87109-8.37891 3.35938-9.54102Q3.84766-10.7031 4.72168-11.582Q5.5957-12.4609 6.75293-12.9541Q7.91016-13.4473 9.23828-13.4473Q10.5762-13.4473 11.7334-12.9541Q12.8906-12.4609 13.7695-11.582Q14.6484-10.7031 15.1465-9.54102Q15.6445-8.37891 15.6445-7.05078Q15.6445-5.72266 15.1514-4.56055Q14.6582-3.39844 13.7842-2.51953Q12.9102-1.64062 11.748-1.14746Q10.5859-0.654297 9.24805-0.654297ZM5.6543-7.05078Q5.6543-6.72852 5.85938-6.52832Q6.06445-6.32812 6.40625-6.32812L8.51562-6.32812L8.51562-4.20898Q8.51562-3.88672 8.71094-3.67676Q8.90625-3.4668 9.23828-3.4668Q9.56055-3.4668 9.77051-3.67676Q9.98047-3.88672 9.98047-4.20898L9.98047-6.32812L12.0898-6.32812Q12.4219-6.32812 12.627-6.52832Q12.832-6.72852 12.832-7.05078Q12.832-7.38281 12.627-7.58789Q12.4219-7.79297 12.0898-7.79297L9.98047-7.79297L9.98047-9.90234Q9.98047-10.2344 9.77051-10.4443Q9.56055-10.6543 9.23828-10.6543Q8.90625-10.6543 8.71094-10.4443Q8.51562-10.2344 8.51562-9.90234L8.51562-7.79297L6.40625-7.79297Q6.06445-7.79297 5.85938-7.58789Q5.6543-7.38281 5.6543-7.05078Z"/>
  </g>
  <g transform="matrix(1 0 0 1 281.867 1933)">
   <path d="M11.709 2.91016Q13.75 2.91016 15.5518 2.12891Q17.3535 1.34766 18.7305-0.0292969Q20.1074-1.40625 20.8887-3.20801Q21.6699-5.00977 21.6699-7.05078Q21.6699-9.0918 20.8887-10.8936Q20.1074-12.6953 18.7305-14.0723Q17.3535-15.4492 15.5469-16.2305Q13.7402-17.0117 11.6992-17.0117Q9.6582-17.0117 7.85645-16.2305Q6.05469-15.4492 4.68262-14.0723Q3.31055-12.6953 2.5293-10.8936Q1.74805-9.0918 1.74805-7.05078Q1.74805-5.00977 2.5293-3.20801Q3.31055-1.40625 4.6875-0.0292969Q6.06445 1.34766 7.86621 2.12891Q9.66797 2.91016 11.709 2.91016ZM11.709 1.25Q9.98047 1.25 8.47656 0.605469Q6.97266-0.0390625 5.83496-1.17676Q4.69727-2.31445 4.05762-3.81836Q3.41797-5.32227 3.41797-7.05078Q3.41797-8.7793 4.05762-10.2832Q4.69727-11.7871 5.83008-12.9297Q6.96289-14.0723 8.4668-14.7119Q9.9707-15.3516 11.6992-15.3516Q13.4277-15.3516 14.9316-14.7119Q16.4355-14.0723 17.5781-12.9297Q18.7207-11.7871 19.3652-10.2832Q20.0098-8.7793 20.0098-7.05078Q20.0098-5.32227 19.3701-3.81836Q18.7305-2.31445 17.5928-1.17676Q16.4551-0.0390625 14.9463 0.605469Q13.4375 1.25 11.709 1.25ZM7.17773-7.05078Q7.17773-6.69922 7.41211-6.47461Q7.64648-6.25 8.01758-6.25L10.8887-6.25L10.8887-3.36914Q10.8887-2.99805 11.1133-2.76855Q11.3379-2.53906 11.6895-2.53906Q12.0605-2.53906 12.29-2.76855Q12.5195-2.99805 12.5195-3.36914L12.5195-6.25L15.4004-6.25Q15.7715-6.25 16.001-6.47461Q16.2305-6.69922 16.2305-7.05078Q16.2305-7.42188 16.001-7.65137Q15.7715-7.88086 15.4004-7.88086L12.5195-7.88086L12.5195-10.752Q12.5195-11.1328 12.29-11.3623Q12.0605-11.5918 11.6895-11.5918Q11.3379-11.5918 11.1133-11.3574Q10.8887-11.123 10.8887-10.752L10.8887-7.88086L8.01758-7.88086Q7.63672-7.88086 7.40723-7.65137Q7.17773-7.42188 7.17773-7.05078Z"/>
  </g>
  <g transform="matrix(1 0 0 1 305.646 1933)">
   <path d="M14.9707 5.66406Q17.0605 5.66406 18.96 5.01465Q20.8594 4.36523 22.4512 3.19336Q24.043 2.02148 25.2197 0.429688Q26.3965-1.16211 27.0459-3.06641Q27.6953-4.9707 27.6953-7.05078Q27.6953-9.14062 27.0459-11.04Q26.3965-12.9395 25.2197-14.5312Q24.043-16.123 22.4512-17.2998Q20.8594-18.4766 18.9551-19.126Q17.0508-19.7754 14.9609-19.7754Q12.8711-19.7754 10.9717-19.126Q9.07227-18.4766 7.48535-17.2998Q5.89844-16.123 4.72168-14.5312Q3.54492-12.9395 2.90039-11.04Q2.25586-9.14062 2.25586-7.05078Q2.25586-4.9707 2.90527-3.06641Q3.55469-1.16211 4.72656 0.429688Q5.89844 2.02148 7.49023 3.19336Q9.08203 4.36523 10.9814 5.01465Q12.8809 5.66406 14.9707 5.66406ZM14.9707 3.84766Q13.1641 3.84766 11.5283 3.2959Q9.89258 2.74414 8.53516 1.74805Q7.17773 0.751953 6.17676-0.610352Q5.17578-1.97266 4.62891-3.6084Q4.08203-5.24414 4.08203-7.05078Q4.08203-8.86719 4.62891-10.5029Q5.17578-12.1387 6.17188-13.501Q7.16797-14.8633 8.52539-15.8594Q9.88281-16.8555 11.5186-17.4023Q13.1543-17.9492 14.9609-17.9492Q16.7773-17.9492 18.4131-17.4023Q20.0488-16.8555 21.4111-15.8594Q22.7734-14.8633 23.7695-13.501Q24.7656-12.1387 25.3174-10.5029Q25.8691-8.86719 25.8691-7.05078Q25.8789-5.24414 25.332-3.6084Q24.7852-1.97266 23.7842-0.610352Q22.7832 0.751953 21.4209 1.74805Q20.0586 2.74414 18.4229 3.2959Q16.7871 3.84766 14.9707 3.84766ZM9.19922-7.05078Q9.19922-6.66992 9.45801-6.4209Q9.7168-6.17188 10.1172-6.17188L14.0625-6.17188L14.0625-2.2168Q14.0625-1.81641 14.3115-1.55762Q14.5605-1.29883 14.9512-1.29883Q15.3516-1.29883 15.6104-1.55273Q15.8691-1.80664 15.8691-2.2168L15.8691-6.17188L19.8242-6.17188Q20.2246-6.17188 20.4785-6.4209Q20.7324-6.66992 20.7324-7.05078Q20.7324-7.46094 20.4785-7.71484Q20.2246-7.96875 19.8242-7.96875L15.8691-7.96875L15.8691-11.9141Q15.8691-12.3242 15.6104-12.583Q15.3516-12.8418 14.9512-12.8418Q14.5605-12.8418 14.3115-12.583Q14.0625-12.3242 14.0625-11.9141L14.0625-7.96875L10.1172-7.96875Q9.70703-7.96875 9.45312-7.71484Q9.19922-7.46094 9.19922-7.05078Z"/>
  </g>
  <text style="stroke:none;fill:black;font-family:sans-serif;font-size:13;font-weight:bold;" transform="matrix(1 0 0 1 263 1953)">Design Variations</text>
  <text style="stroke:none;fill:black;font-family:sans-serif;font-size:13;" transform="matrix(1 0 0 1 263 1971)">Symbols are supported in up to nine weights and three scales.</text>
  <text style="stroke:none;fill:black;font-family:sans-serif;font-size:13;" transform="matrix(1 0 0 1 263 1989)">For optimal layout with text and other symbols, vertically align</text>
  <text style="stroke:none;fill:black;font-family:sans-serif;font-size:13;" transform="matrix(1 0 0 1 263 2007)">symbols with the adjacent text.</text>
  <line style="fill:none;stroke:#00AEEF;stroke-width:0.5;opacity:1.0;" x1="776" x2="776" y1="1919" y2="1933"/>
  <g transform="matrix(1 0 0 1 776 1933)">
   <path d="M3.31055 0.15625Q3.70117 0.15625 3.91602-0.00976562Q4.13086-0.175781 4.26758-0.585938L5.52734-4.0332L11.2891-4.0332L12.5488-0.585938Q12.6855-0.175781 12.9004-0.00976562Q13.1152 0.15625 13.4961 0.15625Q13.8867 0.15625 14.1162-0.0585938Q14.3457-0.273438 14.3457-0.644531Q14.3457-0.869141 14.2383-1.17188L9.6582-13.3691Q9.48242-13.8184 9.17969-14.043Q8.87695-14.2676 8.4082-14.2676Q7.5-14.2676 7.17773-13.3789L2.59766-1.16211Q2.49023-0.859375 2.49023-0.634766Q2.49023-0.263672 2.70996-0.0537109Q2.92969 0.15625 3.31055 0.15625ZM6.00586-5.51758L8.37891-12.0898L8.42773-12.0898L10.8008-5.51758Z"/>
  </g>
  <line style="fill:none;stroke:#00AEEF;stroke-width:0.5;opacity:1.0;" x1="793.197" x2="793.197" y1="1919" y2="1933"/>
  <text style="stroke:none;fill:black;font-family:sans-serif;font-size:13;font-weight:bold;" transform="matrix(1 0 0 1 776 1953)">Margins</text>
  <text style="stroke:none;fill:black;font-family:sans-serif;font-size:13;" transform="matrix(1 0 0 1 776 1971)">Leading and trailing margins on the left and right side of each symbol</text>
  <text style="stroke:none;fill:black;font-family:sans-serif;font-size:13;" transform="matrix(1 0 0 1 776 1989)">can be adjusted by modifying the x-location of the margin guidelines.</text>
  <text style="stroke:none;fill:black;font-family:sans-serif;font-size:13;" transform="matrix(1 0 0 1 776 2007)">Modifications are automatically applied proportionally to all</text>
  <text style="stroke:none;fill:black;font-family:sans-serif;font-size:13;" transform="matrix(1 0 0 1 776 2025)">scales and weights.</text>
  <g transform="matrix(1 0 0 1 1289 1933)">
   <path d="M2.8418 1.86523L4.54102 3.57422Q5.18555 4.22852 5.90332 4.17969Q6.62109 4.13086 7.31445 3.35938L18.0078-8.42773L17.041-9.4043L6.42578 2.27539Q6.16211 2.57812 5.89355 2.61719Q5.625 2.65625 5.27344 2.30469L4.10156 1.14258Q3.75 0.791016 3.79395 0.522461Q3.83789 0.253906 4.14062-0.0195312L15.6152-10.8203L14.6387-11.7871L3.04688-0.898438Q2.30469-0.214844 2.25098 0.498047Q2.19727 1.21094 2.8418 1.86523ZM9.25781-16.3281Q8.94531-16.0254 8.90625-15.6348Q8.86719-15.2441 9.04297-14.9512Q9.21875-14.6777 9.55566-14.541Q9.89258-14.4043 10.3809-14.5215Q11.4746-14.7754 12.5977-14.7314Q13.7207-14.6875 14.7949-13.9844L14.209-12.5293Q13.9551-11.9043 14.0674-11.4404Q14.1797-10.9766 14.5801-10.5664L16.875-8.25195Q17.2363-7.88086 17.5781-7.82227Q17.9199-7.76367 18.3398-7.8418L19.4043-8.03711L20.0684-7.36328L20.0293-6.80664Q20-6.43555 20.1221-6.12305Q20.2441-5.81055 20.6055-5.44922L21.3672-4.70703Q21.7285-4.3457 22.1533-4.33105Q22.5781-4.31641 22.9297-4.66797L25.8398-7.58789Q26.1914-7.93945 26.1816-8.35449Q26.1719-8.76953 25.8105-9.13086L25.0391-9.89258Q24.6875-10.2539 24.3799-10.3857Q24.0723-10.5176 23.7109-10.4883L23.1348-10.4395L22.4902-11.0742L22.7344-12.1973Q22.832-12.6172 22.6953-12.9834Q22.5586-13.3496 22.1191-13.7891L19.9219-15.9766Q18.6719-17.2168 17.2607-17.8369Q15.8496-18.457 14.4189-18.4814Q12.9883-18.5059 11.665-17.959Q10.3418-17.4121 9.25781-16.3281ZM10.752-15.957Q11.6602-16.6211 12.7002-16.9043Q13.7402-17.1875 14.8047-17.085Q15.8691-16.9824 16.8701-16.5137Q17.8711-16.0449 18.7012-15.2051L21.1328-12.793Q21.3086-12.6172 21.3525-12.4512Q21.3965-12.2852 21.3379-12.0312L21.0156-10.5469L22.5195-9.0625L23.5059-9.12109Q23.6914-9.13086 23.7891-9.09668Q23.8867-9.0625 24.0332-8.91602L24.6094-8.33984L22.168-5.89844L21.5918-6.47461Q21.4453-6.62109 21.4062-6.71875Q21.3672-6.81641 21.377-7.01172L21.4453-7.98828L19.9512-9.47266L18.4277-9.21875Q18.1836-9.16992 18.042-9.2041Q17.9004-9.23828 17.7148-9.41406L15.7129-11.416Q15.5176-11.5918 15.4932-11.7529Q15.4688-11.9141 15.5859-12.1875L16.4648-14.2773Q15.293-15.3711 13.8281-15.791Q12.3633-16.2109 10.8398-15.7617Q10.7227-15.7324 10.6885-15.8057Q10.6543-15.8789 10.752-15.957Z"/>
  </g>
  <text style="stroke:none;fill:black;font-family:sans-serif;font-size:13;font-weight:bold;" transform="matrix(1 0 0 1 1289 1953)">Exporting</text>
  <text style="stroke:none;fill:black;font-family:sans-serif;font-size:13;" transform="matrix(1 0 0 1 1289 1971)">Symbols should be outlined when exporting to ensure the</text>
  <text style="stroke:none;fill:black;font-family:sans-serif;font-size:13;" transform="matrix(1 0 0 1 1289 1989)">design is preserved when submitting to Xcode.</text>
  <text id="template-version" style="stroke:none;fill:black;font-family:sans-serif;font-size:13;text-anchor:end;" transform="matrix(1 0 0 1 3036 1933)">Template v.3.0</text>
  <text style="stroke:none;fill:black;font-family:sans-serif;font-size:13;text-anchor:end;" transform="matrix(1 0 0 1 3036 1951)">Requires Xcode 13 or greater</text>
  <text id="descriptive-name" style="stroke:none;fill:black;font-family:sans-serif;font-size:13;text-anchor:end;" transform="matrix(1 0 0 1 3036 1969)">Generated from goforward</text>
  <text style="stroke:none;fill:black;font-family:sans-serif;font-size:13;text-anchor:end;" transform="matrix(1 0 0 1 3036 1987)">Typeset at 100 points</text>
  <text style="stroke:none;fill:black;font-family:sans-serif;font-size:13;" transform="matrix(1 0 0 1 263 726)">Small</text>
  <text style="stroke:none;fill:black;font-family:sans-serif;font-size:13;" transform="matrix(1 0 0 1 263 1156)">Medium</text>
  <text style="stroke:none;fill:black;font-family:sans-serif;font-size:13;" transform="matrix(1 0 0 1 263 1586)">Large</text>
 </g>
 <g id="Guides">
  <g id="H-reference" style="fill:#27AAE1;stroke:none;" transform="matrix(1 0 0 1 339 696)">
   <path d="M0.976562 0L3.66211 0L29.3457-67.1387L30.0293-67.1387L30.0293-70.459L28.125-70.459ZM11.6699-24.4629L46.9727-24.4629L46.2402-26.709L12.4512-26.709ZM55.127 0L57.7637 0L30.6152-70.459L29.4434-70.459L29.4434-67.1387Z"/>
  </g>
  <line id="Baseline-S" style="fill:none;stroke:#27AAE1;opacity:1;stroke-width:0.5;" x1="263" x2="3036" y1="696" y2="696"/>
  <line id="Capline-S" style="fill:none;stroke:#27AAE1;opacity:1;stroke-width:0.5;" x1="263" x2="3036" y1="625.541" y2="625.541"/>
  <g id="H-reference" style="fill:#27AAE1;stroke:none;" transform="matrix(1 0 0 1 339 1126)">
   <path d="M0.976562 0L3.66211 0L29.3457-67.1387L30.0293-67.1387L30.0293-70.459L28.125-70.459ZM11.6699-24.4629L46.9727-24.4629L46.2402-26.709L12.4512-26.709ZM55.127 0L57.7637 0L30.6152-70.459L29.4434-70.459L29.4434-67.1387Z"/>
  </g>
  <line id="Baseline-M" style="fill:none;stroke:#27AAE1;opacity:1;stroke-width:0.5;" x1="263" x2="3036" y1="1126" y2="1126"/>
  <line id="Capline-M" style="fill:none;stroke:#27AAE1;opacity:1;stroke-width:0.5;" x1="263" x2="3036" y1="1055.54" y2="1055.54"/>
  <g id="H-reference" style="fill:#27AAE1;stroke:none;" transform="matrix(1 0 0 1 339 1556)">
   <path d="M0.976562 0L3.66211 0L29.3457-67.1387L30.0293-67.1387L30.0293-70.459L28.125-70.459ZM11.6699-24.4629L46.9727-24.4629L46.2402-26.709L12.4512-26.709ZM55.127 0L57.7637 0L30.6152-70.459L29.4434-70.459L29.4434-67.1387Z"/>
  </g>
  <line id="Baseline-L" style="fill:none;stroke:#27AAE1;opacity:1;stroke-width:0.5;" x1="263" x2="3036" y1="1556" y2="1556"/>
  <line id="Capline-L" style="fill:none;stroke:#27AAE1;opacity:1;stroke-width:0.5;" x1="263" x2="3036" y1="1485.54" y2="1485.54"/>
  <line id="left-margin-Ultralight-S" style="fill:none;stroke:#00AEEF;stroke-width:0.5;opacity:1.0;" x1="515.644" x2="515.644" y1="600.785" y2="720.121"/>
  <line id="right-margin-Ultralight-S" style="fill:none;stroke:#00AEEF;stroke-width:0.5;opacity:1.0;" x1="603.778" x2="603.778" y1="600.785" y2="720.121"/>
  <line id="left-margin-Thin-S" style="fill:none;stroke:#00AEEF;stroke-width:0.5;opacity:1.0;" x1="811.867" x2="811.867" y1="600.785" y2="720.121"/>
  <line id="right-margin-Thin-S" style="fill:none;stroke:#00AEEF;stroke-width:0.5;opacity:1.0;" x1="900.978" x2="900.978" y1="600.785" y2="720.121"/>
  <line id="left-margin-Light-S" style="fill:none;stroke:#00AEEF;stroke-width:0.5;opacity:1.0;" x1="1107.6" x2="1107.6" y1="600.785" y2="720.121"/>
  <line id="right-margin-Light-S" style="fill:none;stroke:#00AEEF;stroke-width:0.5;opacity:1.0;" x1="1198.67" x2="1198.67" y1="600.785" y2="720.121"/>
  <line id="left-margin-Regular-S" style="fill:none;stroke:#00AEEF;stroke-width:0.5;opacity:1.0;" x1="1403.58" x2="1403.58" y1="600.785" y2="720.121"/>
  <line id="right-margin-Regular-S" style="fill:none;stroke:#00AEEF;stroke-width:0.5;opacity:1.0;" x1="1496.11" x2="1496.11" y1="600.785" y2="720.121"/>
  <line id="left-margin-Medium-S" style="fill:none;stroke:#00AEEF;stroke-width:0.5;opacity:1.0;" x1="1699.83" x2="1699.83" y1="600.785" y2="720.121"/>
  <line id="right-margin-Medium-S" style="fill:none;stroke:#00AEEF;stroke-width:0.5;opacity:1.0;" x1="1793.28" x2="1793.28" y1="600.785" y2="720.121"/>
  <line id="left-margin-Semibold-S" style="fill:none;stroke:#00AEEF;stroke-width:0.5;opacity:1.0;" x1="1996.2" x2="1996.2" y1="600.785" y2="720.121"/>
  <line id="right-margin-Semibold-S" style="fill:none;stroke:#00AEEF;stroke-width:0.5;opacity:1.0;" x1="2090.34" x2="2090.34" y1="600.785" y2="720.121"/>
  <line id="left-margin-Bold-S" style="fill:none;stroke:#00AEEF;stroke-width:0.5;opacity:1.0;" x1="2292.42" x2="2292.42" y1="600.785" y2="720.121"/>
  <line id="right-margin-Bold-S" style="fill:none;stroke:#00AEEF;stroke-width:0.5;opacity:1.0;" x1="2387.54" x2="2387.54" y1="600.785" y2="720.121"/>
  <line id="left-margin-Heavy-S" style="fill:none;stroke:#00AEEF;stroke-width:0.5;opacity:1.0;" x1="2588.47" x2="2588.47" y1="600.785" y2="720.121"/>
  <line id="right-margin-Heavy-S" style="fill:none;stroke:#00AEEF;stroke-width:0.5;opacity:1.0;" x1="2684.91" x2="2684.91" y1="600.785" y2="720.121"/>
  <line id="left-margin-Black-S" style="fill:none;stroke:#00AEEF;stroke-width:0.5;opacity:1.0;" x1="2884.57" x2="2884.57" y1="600.785" y2="720.121"/>
  <line id="right-margin-Black-S" style="fill:none;stroke:#00AEEF;stroke-width:0.5;opacity:1.0;" x1="2982.23" x2="2982.23" y1="600.785" y2="720.121"/>
  <line id="left-margin-Ultralight-M" style="fill:none;stroke:#00AEEF;stroke-width:0.5;opacity:1.0;" x1="503.632" x2="503.632" y1="1030.79" y2="1150.12"/>
  <line id="right-margin-Ultralight-M" style="fill:none;stroke:#00AEEF;stroke-width:0.5;opacity:1.0;" x1="615.79" x2="615.79" y1="1030.79" y2="1150.12"/>
  <line id="left-margin-Thin-M" style="fill:none;stroke:#00AEEF;stroke-width:0.5;opacity:1.0;" x1="799.782" x2="799.782" y1="1030.79" y2="1150.12"/>
  <line id="right-margin-Thin-M" style="fill:none;stroke:#00AEEF;stroke-width:0.5;opacity:1.0;" x1="913.063" x2="913.063" y1="1030.79" y2="1150.12"/>
  <line id="left-margin-Light-M" style="fill:none;stroke:#00AEEF;stroke-width:0.5;opacity:1.0;" x1="1095.42" x2="1095.42" y1="1030.79" y2="1150.12"/>
  <line id="right-margin-Light-M" style="fill:none;stroke:#00AEEF;stroke-width:0.5;opacity:1.0;" x1="1210.85" x2="1210.85" y1="1030.79" y2="1150.12"/>
  <line id="left-margin-Regular-M" style="fill:none;stroke:#00AEEF;stroke-width:0.5;opacity:1.0;" x1="1391.3" x2="1391.3" y1="1030.79" y2="1150.12"/>
  <line id="right-margin-Regular-M" style="fill:none;stroke:#00AEEF;stroke-width:0.5;opacity:1.0;" x1="1508.39" x2="1508.39" y1="1030.79" y2="1150.12"/>
  <line id="left-margin-Medium-M" style="fill:none;stroke:#00AEEF;stroke-width:0.5;opacity:1.0;" x1="1687.38" x2="1687.38" y1="1030.79" y2="1150.12"/>
  <line id="right-margin-Medium-M" style="fill:none;stroke:#00AEEF;stroke-width:0.5;opacity:1.0;" x1="1805.74" x2="1805.74" y1="1030.79" y2="1150.12"/>
  <line id="left-margin-Semibold-M" style="fill:none;stroke:#00AEEF;stroke-width:0.5;opacity:1.0;" x1="1983.6" x2="1983.6" y1="1030.79" y2="1150.12"/>
  <line id="right-margin-Semibold-M" style="fill:none;stroke:#00AEEF;stroke-width:0.5;opacity:1.0;" x1="2102.93" x2="2102.93" y1="1030.79" y2="1150.12"/>
  <line id="left-margin-Bold-M" style="fill:none;stroke:#00AEEF;stroke-width:0.5;opacity:1.0;" x1="2279.65" x2="2279.65" y1="1030.79" y2="1150.12"/>
  <line id="right-margin-Bold-M" style="fill:none;stroke:#00AEEF;stroke-width:0.5;opacity:1.0;" x1="2400.3" x2="2400.3" y1="1030.79" y2="1150.12"/>
  <line id="left-margin-Heavy-M" style="fill:none;stroke:#00AEEF;stroke-width:0.5;opacity:1.0;" x1="2575.43" x2="2575.43" y1="1030.79" y2="1150.12"/>
  <line id="right-margin-Heavy-M" style="fill:none;stroke:#00AEEF;stroke-width:0.5;opacity:1.0;" x1="2697.94" x2="2697.94" y1="1030.79" y2="1150.12"/>
  <line id="left-margin-Black-M" style="fill:none;stroke:#00AEEF;stroke-width:0.5;opacity:1.0;" x1="2871.32" x2="2871.32" y1="1030.79" y2="1150.12"/>
  <line id="right-margin-Black-M" style="fill:none;stroke:#00AEEF;stroke-width:0.5;opacity:1.0;" x1="2995.48" x2="2995.48" y1="1030.79" y2="1150.12"/>
  <line id="left-margin-Ultralight-L" style="fill:none;stroke:#00AEEF;stroke-width:0.5;opacity:1.0;" x1="487.592" x2="487.592" y1="1460.79" y2="1580.12"/>
  <line id="right-margin-Ultralight-L" style="fill:none;stroke:#00AEEF;stroke-width:0.5;opacity:1.0;" x1="631.83" x2="631.83" y1="1460.79" y2="1580.12"/>
  <line id="left-margin-Thin-L" style="fill:none;stroke:#00AEEF;stroke-width:0.5;opacity:1.0;" x1="783.693" x2="783.693" y1="1460.79" y2="1580.12"/>
  <line id="right-margin-Thin-L" style="fill:none;stroke:#00AEEF;stroke-width:0.5;opacity:1.0;" x1="929.152" x2="929.152" y1="1460.79" y2="1580.12"/>
  <line id="left-margin-Light-L" style="fill:none;stroke:#00AEEF;stroke-width:0.5;opacity:1.0;" x1="1079.18" x2="1079.18" y1="1460.79" y2="1580.12"/>
  <line id="right-margin-Light-L" style="fill:none;stroke:#00AEEF;stroke-width:0.5;opacity:1.0;" x1="1227.08" x2="1227.08" y1="1460.79" y2="1580.12"/>
  <line id="left-margin-Regular-L" style="fill:none;stroke:#00AEEF;stroke-width:0.5;opacity:1.0;" x1="1374.97" x2="1374.97" y1="1460.79" y2="1580.12"/>
  <line id="right-margin-Regular-L" style="fill:none;stroke:#00AEEF;stroke-width:0.5;opacity:1.0;" x1="1524.72" x2="1524.72" y1="1460.79" y2="1580.12"/>
  <line id="left-margin-Medium-L" style="fill:none;stroke:#00AEEF;stroke-width:0.5;opacity:1.0;" x1="1670.87" x2="1670.87" y1="1460.79" y2="1580.12"/>
  <line id="right-margin-Medium-L" style="fill:none;stroke:#00AEEF;stroke-width:0.5;opacity:1.0;" x1="1822.24" x2="1822.24" y1="1460.79" y2="1580.12"/>
  <line id="left-margin-Semibold-L" style="fill:none;stroke:#00AEEF;stroke-width:0.5;opacity:1.0;" x1="1966.97" x2="1966.97" y1="1460.79" y2="1580.12"/>
  <line id="right-margin-Semibold-L" style="fill:none;stroke:#00AEEF;stroke-width:0.5;opacity:1.0;" x1="2119.56" x2="2119.56" y1="1460.79" y2="1580.12"/>
  <line id="left-margin-Bold-L" style="fill:none;stroke:#00AEEF;stroke-width:0.5;opacity:1.0;" x1="2262.85" x2="2262.85" y1="1460.79" y2="1580.12"/>
  <line id="right-margin-Bold-L" style="fill:none;stroke:#00AEEF;stroke-width:0.5;opacity:1.0;" x1="2417.1" x2="2417.1" y1="1460.79" y2="1580.12"/>
  <line id="left-margin-Heavy-L" style="fill:none;stroke:#00AEEF;stroke-width:0.5;opacity:1.0;" x1="2558.39" x2="2558.39" y1="1460.79" y2="1580.12"/>
  <line id="right-margin-Heavy-L" style="fill:none;stroke:#00AEEF;stroke-width:0.5;opacity:1.0;" x1="2714.98" x2="2714.98" y1="1460.79" y2="1580.12"/>
  <line id="left-margin-Black-L" style="fill:none;stroke:#00AEEF;stroke-width:0.5;opacity:1.0;" x1="2854.05" x2="2854.05" y1="1460.79" y2="1580.12"/>
  <line id="right-margin-Black-L" style="fill:none;stroke:#00AEEF;stroke-width:0.5;opacity:1.0;" x1="3012.75" x2="3012.75" y1="1460.79" y2="1580.12"/>
 </g>
 <g id="Symbols">
  <g id="Black-L" transform="matrix(1 0 0 1 2854.05 1556)">
   <path d="M11.2793-35.2539Q11.2793-24.0234 14.7217-13.8428Q18.1641-3.66211 24.4385 4.83398Q30.7129 13.3301 39.2334 19.6045Q47.7539 25.8789 57.9346 29.3457Q68.1152 32.8125 79.3457 32.8125Q90.5762 32.8125 100.757 29.3457Q110.938 25.8789 119.458 19.6045Q127.979 13.3301 134.229 4.83398Q140.479-3.66211 143.945-13.8428Q147.412-24.0234 147.412-35.2539Q147.412-44.0918 144.824-53.2715Q142.236-62.4512 137.598-70.4346Q132.959-78.418 126.807-83.6914Q122.705-87.3535 118.481-87.4023Q114.258-87.4512 111.377-84.3262Q108.154-80.8594 108.887-76.6357Q109.619-72.4121 112.793-68.9941Q117.236-64.4043 120.41-59.1309Q123.584-53.8574 125.269-47.876Q126.953-41.8945 126.953-35.2539Q126.953-27.3438 124.561-20.2148Q122.168-13.0859 117.798-7.12891Q113.428-1.17188 107.495 3.19824Q101.562 7.56836 94.4092 9.96094Q87.2559 12.3535 79.3457 12.3535Q71.4355 12.3535 64.2822 9.96094Q57.1289 7.56836 51.1963 3.19824Q45.2637-1.17188 40.8936-7.12891Q36.5234-13.0859 34.1309-20.2148Q31.7383-27.3438 31.7383-35.2539Q31.7383-43.1152 34.082-50.1953Q36.4258-57.2754 40.6982-63.1836Q44.9707-69.0918 50.8301-73.4375Q56.6895-77.7832 63.6719-80.1758L63.6719-71.582Q63.6719-68.6035 65.21-67.041Q66.748-65.4785 69.2139-65.5762Q71.6797-65.6738 74.3652-67.6758L99.1699-85.8398Q102.393-88.1836 102.344-91.5527Q102.295-94.9219 99.1699-97.2168L74.3652-115.479Q71.6797-117.432 69.2383-117.578Q66.7969-117.725 65.2344-116.162Q63.6719-114.6 63.6719-111.523L63.6719-101.465Q52.4414-98.8281 42.8955-92.7002Q33.3496-86.5723 26.2451-77.7344Q19.1406-68.8965 15.21-58.0811Q11.2793-47.2656 11.2793-35.2539Z"/>
  </g>
  <g id="Heavy-L" transform="matrix(1 0 0 1 2558.39 1556)">
   <path d="M11.2793-35.2539Q11.2793-24.2188 14.6729-14.1846Q18.0664-4.15039 24.2432 4.22363Q30.4199 12.5977 38.8184 18.7744Q47.2168 24.9512 57.2266 28.3691Q67.2363 31.7871 78.2715 31.7871Q89.3555 31.7871 99.3652 28.3691Q109.375 24.9512 117.749 18.7744Q126.123 12.5977 132.3 4.22363Q138.477-4.15039 141.895-14.1846Q145.312-24.2188 145.312-35.2539Q145.312-44.5312 142.505-53.8574Q139.697-63.1836 134.692-71.1914Q129.688-79.1992 122.998-84.5703Q119.434-87.6953 115.771-87.6465Q112.109-87.5977 109.668-84.8145Q106.982-81.7871 107.642-78.1494Q108.301-74.5117 111.133-71.582Q116.211-66.9434 119.873-61.2793Q123.535-55.6152 125.537-49.0723Q127.539-42.5293 127.539-35.2539Q127.539-27.0508 125.049-19.6777Q122.559-12.3047 118.042-6.15234Q113.525 0 107.397 4.5166Q101.27 9.0332 93.8721 11.5234Q86.4746 14.0137 78.2715 14.0137Q70.1172 14.0137 62.7197 11.5234Q55.3223 9.0332 49.1943 4.5166Q43.0664 0 38.5498-6.15234Q34.0332-12.3047 31.543-19.6777Q29.0527-27.0508 29.0527-35.2539Q29.0527-43.5547 31.6162-51.0254Q34.1797-58.4961 38.7939-64.6973Q43.4082-70.8984 49.7314-75.3662Q56.0547-79.834 63.5254-82.1289L63.5254-73.2422Q63.5254-70.459 64.8926-69.043Q66.2598-67.627 68.457-67.7002Q70.6543-67.7734 73.0957-69.5801L96.6797-86.7188Q99.6094-88.8184 99.585-91.8213Q99.5605-94.8242 96.6797-96.9238L73.0957-114.111Q70.6543-115.869 68.4814-115.991Q66.3086-116.113 64.917-114.697Q63.5254-113.281 63.5254-110.449L63.5254-100.586Q52.3438-98.0469 42.8467-92.041Q33.3496-86.0352 26.2451-77.2949Q19.1406-68.5547 15.21-57.8613Q11.2793-47.168 11.2793-35.2539Z"/>
  </g>
  <g id="Bold-L" transform="matrix(1 0 0 1 2262.85 1556)">
   <path d="M11.2793-35.2539Q11.2793-24.4141 14.624-14.5752Q17.9688-4.73633 24.0479 3.51562Q30.127 11.7676 38.3545 17.8467Q46.582 23.9258 56.4209 27.2705Q66.2598 30.6152 77.0996 30.6152Q87.9395 30.6152 97.7783 27.2705Q107.617 23.9258 115.869 17.8467Q124.121 11.7676 130.176 3.51562Q136.23-4.73633 139.6-14.5752Q142.969-24.4141 142.969-35.2539Q142.969-45.0195 139.941-54.4922Q136.914-63.9648 131.47-71.9971Q126.025-80.0293 118.799-85.5469Q115.82-88.0859 112.744-87.915Q109.668-87.7441 107.764-85.4004Q105.664-82.8125 106.25-79.834Q106.836-76.8555 109.229-74.5117Q115.039-69.8242 119.287-63.7207Q123.535-57.6172 125.854-50.4395Q128.174-43.2617 128.174-35.2539Q128.174-26.7578 125.61-19.1162Q123.047-11.4746 118.359-5.07812Q113.672 1.31836 107.3 6.00586Q100.928 10.6934 93.2617 13.2568Q85.5957 15.8203 77.0996 15.8203Q68.6523 15.8203 60.9863 13.2568Q53.3203 10.6934 46.9482 6.00586Q40.5762 1.31836 35.8887-5.07812Q31.2012-11.4746 28.6377-19.1162Q26.0742-26.7578 26.0742-35.2539Q26.0742-44.0918 28.8574-52.002Q31.6406-59.9121 36.6455-66.4062Q41.6504-72.9004 48.4863-77.5146Q55.3223-82.1289 63.3789-84.2773L63.3789-75.0488Q63.3789-72.5586 64.5508-71.2891Q65.7227-70.0195 67.627-70.0684Q69.5312-70.1172 71.6797-71.6797L93.9453-87.6953Q96.5332-89.5508 96.5332-92.1387Q96.5332-94.7266 93.9453-96.582L71.6797-112.646Q69.5312-114.16 67.6514-114.258Q65.7715-114.355 64.5752-113.062Q63.3789-111.768 63.3789-109.229L63.3789-99.5605Q52.2949-97.2168 42.7979-91.333Q33.3008-85.4492 26.2207-76.8311Q19.1406-68.2129 15.21-57.6172Q11.2793-47.0215 11.2793-35.2539Z"/>
  </g>
  <g id="Semibold-L" transform="matrix(1 0 0 1 1966.97 1556)">
   <path d="M11.2793-35.2051Q11.2793-24.5117 14.5996-14.7949Q17.9199-5.07812 23.9014 3.05176Q29.8828 11.1816 38.0127 17.1875Q46.1426 23.1934 55.8594 26.4893Q65.5762 29.7852 76.2695 29.7852Q86.9629 29.7852 96.6797 26.4893Q106.396 23.1934 114.551 17.1875Q122.705 11.1816 128.687 3.05176Q134.668-5.07812 137.988-14.7949Q141.309-24.5117 141.309-35.2051Q141.309-45.3613 138.135-54.9316Q134.961-64.502 129.224-72.5586Q123.486-80.6152 115.869-86.2305Q113.33-88.3301 110.669-88.0859Q108.008-87.8418 106.396-85.7422Q104.736-83.5449 105.273-80.9814Q105.811-78.418 107.91-76.5137Q114.209-71.7773 118.848-65.3809Q123.486-58.9844 126.025-51.3672Q128.564-43.75 128.564-35.2051Q128.613-26.5625 126.001-18.7012Q123.389-10.8398 118.579-4.29688Q113.77 2.24609 107.227 7.03125Q100.684 11.8164 92.8467 14.4531Q85.0098 17.0898 76.2695 17.0898Q67.627 17.0898 59.7656 14.4531Q51.9043 11.8164 45.3857 7.03125Q38.8672 2.24609 34.0576-4.29688Q29.248-10.8398 26.6357-18.7012Q24.0234-26.5625 24.0234-35.2051Q24.0234-44.4336 26.9531-52.6611Q29.8828-60.8887 35.1562-67.5781Q40.4297-74.2676 47.6074-78.9795Q54.7852-83.6914 63.2812-85.791L63.2812-76.3184Q63.2812-73.9746 64.3066-72.8027Q65.332-71.6309 67.041-71.6797Q68.75-71.7285 70.6543-73.1445L92.041-88.3789Q94.3848-90.0391 94.3848-92.3584Q94.3848-94.6777 92.041-96.3379L70.7031-111.572Q68.75-112.988 67.0654-113.062Q65.3809-113.135 64.3311-111.938Q63.2812-110.742 63.2812-108.398L63.2812-98.877Q52.1973-96.582 42.749-90.7959Q33.3008-85.0098 26.2207-76.4893Q19.1406-67.9688 15.21-57.4463Q11.2793-46.9238 11.2793-35.2051Z"/>
  </g>
  <g id="Medium-L" transform="matrix(1 0 0 1 1670.87 1556)">
   <path d="M11.2793-35.2051Q11.2793-24.6094 14.5508-14.9902Q17.8223-5.37109 23.7549 2.68555Q29.6875 10.7422 37.7686 16.6992Q45.8496 22.6562 55.4688 25.9033Q65.0879 29.1504 75.6836 29.1504Q86.2305 29.1504 95.8496 25.9033Q105.469 22.6562 113.55 16.6992Q121.631 10.7422 127.563 2.68555Q133.496-5.37109 136.792-14.9902Q140.088-24.6094 140.088-35.2051Q140.088-45.6055 136.768-55.2734Q133.447-64.9414 127.49-72.998Q121.533-81.0547 113.623-86.7188Q111.426-88.5254 109.082-88.2324Q106.738-87.9395 105.42-86.0352Q104.053-84.082 104.541-81.8604Q105.029-79.6387 106.934-78.0273Q113.574-73.2422 118.53-66.626Q123.486-60.0098 126.196-52.0508Q128.906-44.0918 128.906-35.2051Q128.955-26.3672 126.294-18.3838Q123.633-10.4004 118.726-3.73535Q113.818 2.92969 107.178 7.8125Q100.537 12.6953 92.5293 15.3564Q84.5215 18.0176 75.6836 18.0176Q66.8457 18.0176 58.8379 15.3564Q50.8301 12.6953 44.2139 7.8125Q37.5977 2.92969 32.6904-3.73535Q27.7832-10.4004 25.1221-18.3838Q22.4609-26.3672 22.4609-35.2051Q22.4609-44.6777 25.4883-53.1494Q28.5156-61.6211 34.0088-68.4814Q39.502-75.3418 46.9482-80.1025Q54.3945-84.8633 63.1836-86.9141L63.1836-77.2461Q63.1836-75.0977 64.1357-73.999Q65.0879-72.9004 66.626-72.9248Q68.1641-72.9492 69.9219-74.2188L90.625-88.8672Q92.7734-90.4297 92.7979-92.5049Q92.8223-94.5801 90.625-96.1426L69.9707-110.791Q68.1641-112.061 66.626-112.134Q65.0879-112.207 64.1357-111.084Q63.1836-109.961 63.1836-107.764L63.1836-98.3398Q52.1484-96.1426 42.7002-90.4053Q33.252-84.668 26.1963-76.2207Q19.1406-67.7734 15.21-57.3242Q11.2793-46.875 11.2793-35.2051Z"/>
  </g>
  <g id="Regular-L" transform="matrix(1 0 0 1 1374.97 1556)">
   <path d="M11.2793-35.2051Q11.2793-24.7559 14.5264-15.2588Q17.7734-5.76172 23.6328 2.19727Q29.4922 10.1562 37.4512 16.04Q45.4102 21.9238 54.9072 25.1465Q64.4043 28.3691 74.8535 28.3691Q85.3027 28.3691 94.7998 25.1465Q104.297 21.9238 112.256 16.04Q120.215 10.1562 126.099 2.19727Q131.982-5.76172 135.229-15.2588Q138.477-24.7559 138.477-35.2051Q138.477-45.9473 135.01-55.7129Q131.543-65.4785 125.293-73.5596Q119.043-81.6406 110.742-87.4023Q108.936-88.7695 107.007-88.4033Q105.078-88.0371 104.102-86.4258Q103.125-84.7656 103.564-83.0078Q104.004-81.25 105.664-80.0293Q112.793-75.1953 118.115-68.2861Q123.438-61.377 126.392-52.9785Q129.346-44.5801 129.346-35.2051Q129.395-26.1719 126.66-17.9932Q123.926-9.81445 118.921-3.00293Q113.916 3.80859 107.104 8.81348Q100.293 13.8184 92.1143 16.5527Q83.9355 19.2871 74.8535 19.2871Q65.8203 19.2871 57.6416 16.5527Q49.4629 13.8184 42.6758 8.81348Q35.8887 3.80859 30.8838-3.00293Q25.8789-9.81445 23.1445-17.9932Q20.4102-26.1719 20.4102-35.2051Q20.4102-45.0195 23.6084-53.7842Q26.8066-62.5488 32.5684-69.6289Q38.3301-76.709 46.1182-81.5674Q53.9062-86.4258 63.0859-88.3789L63.0859-78.5156Q63.0859-76.5137 63.8916-75.5127Q64.6973-74.5117 66.04-74.5361Q67.3828-74.5605 68.9453-75.6836L88.7207-89.5508Q90.6738-90.918 90.6982-92.7246Q90.7227-94.5312 88.7207-95.8984L68.9941-109.766Q67.3828-110.889 66.04-110.938Q64.6973-110.986 63.8916-109.961Q63.0859-108.936 63.0859-106.934L63.0859-97.6562Q52.0996-95.5566 42.6758-89.917Q33.252-84.2773 26.1963-75.9033Q19.1406-67.5293 15.21-57.1533Q11.2793-46.7773 11.2793-35.2051Z"/>
  </g>
  <g id="Light-L" transform="matrix(1 0 0 1 1079.18 1556)">
   <path d="M11.2793-35.1562Q11.2793-24.8535 14.4775-15.4785Q17.6758-6.10352 23.4375 1.7334Q29.1992 9.57031 37.0361 15.3564Q44.873 21.1426 54.248 24.3164Q63.623 27.4902 73.9258 27.4902Q84.2285 27.4902 93.6035 24.3164Q102.979 21.1426 110.815 15.3564Q118.652 9.57031 124.438 1.7334Q130.225-6.10352 133.423-15.4785Q136.621-24.8535 136.621-35.1562Q136.621-46.0938 133.008-56.0059Q129.395-65.918 122.876-73.999Q116.357-82.0801 107.764-87.6465Q106.348-88.6719 104.907-88.3789Q103.467-88.0859 102.734-86.8652Q102.002-85.5957 102.344-84.2529Q102.686-82.9102 103.955-82.0312Q111.67-77.0996 117.48-69.9219Q123.291-62.7441 126.489-53.9062Q129.688-45.0684 129.688-35.1562Q129.736-25.9277 126.929-17.5781Q124.121-9.22852 118.994-2.24609Q113.867 4.73633 106.909 9.86328Q99.9512 14.9902 91.5771 17.7979Q83.2031 20.6055 73.9258 20.6055Q64.6973 20.6055 56.3232 17.7979Q47.9492 14.9902 40.9912 9.86328Q34.0332 4.73633 28.9307-2.24609Q23.8281-9.22852 21.0205-17.5781Q18.2129-25.9277 18.2129-35.1562Q18.2129-45.3125 21.5576-54.3457Q24.9023-63.3789 30.9082-70.6543Q36.9141-77.9297 45.0195-82.8857Q53.125-87.8418 62.6465-89.7461L62.6465-78.7109Q62.6465-77.0996 63.3301-76.2695Q64.0137-75.4395 65.1367-75.4395Q66.2598-75.4395 67.5781-76.416L86.9629-89.9902Q88.623-91.1621 88.6475-92.6514Q88.6719-94.1406 86.9629-95.3125L67.627-108.887Q66.2598-109.863 65.1367-109.888Q64.0137-109.912 63.3301-109.058Q62.6465-108.203 62.6465-106.592L62.6465-96.7773Q51.7578-94.7754 42.4072-89.2334Q33.0566-83.6914 26.0498-75.4395Q19.043-67.1875 15.1611-56.9092Q11.2793-46.6309 11.2793-35.1562Z"/>
  </g>
  <g id="Thin-L" transform="matrix(1 0 0 1 783.693 1556)">
   <path d="M11.2793-35.1562Q11.2793-25 14.4043-15.7959Q17.5293-6.5918 23.1689 1.09863Q28.8086 8.78906 36.5234 14.4531Q44.2383 20.1172 53.418 23.2178Q62.5977 26.3184 72.7051 26.3184Q82.8613 26.3184 92.041 23.2178Q101.221 20.1172 108.911 14.4531Q116.602 8.78906 122.266 1.09863Q127.93-6.5918 131.055-15.7959Q134.18-25 134.18-35.1562Q134.18-46.3379 130.371-56.3965Q126.562-66.4551 119.702-74.5605Q112.842-82.666 103.76-87.9883Q102.979-88.5742 102.148-88.3545Q101.318-88.1348 100.928-87.5Q100.537-86.7188 100.732-85.9375Q100.928-85.1562 101.709-84.668Q110.205-79.6387 116.626-72.0947Q123.047-64.5508 126.611-55.1025Q130.176-45.6543 130.176-35.1562Q130.176-25.5859 127.271-16.9922Q124.365-8.39844 119.092-1.2207Q113.818 5.95703 106.641 11.2305Q99.4629 16.5039 90.8447 19.4336Q82.2266 22.3633 72.7051 22.3633Q63.2324 22.3633 54.6143 19.4336Q45.9961 16.5039 38.8184 11.2305Q31.6406 5.95703 26.3428-1.2207Q21.0449-8.39844 18.1641-16.9922Q15.2832-25.5859 15.2832-35.1562Q15.2832-45.6543 18.8232-55.0781Q22.3633-64.502 28.7109-72.0459Q35.0586-79.5898 43.5791-84.668Q52.0996-89.7461 62.1094-91.6016L62.1094-79.0039Q62.1094-77.8809 62.5977-77.2705Q63.0859-76.6602 63.916-76.6357Q64.7461-76.6113 65.8203-77.3926L84.6191-90.5273Q85.8887-91.4551 85.8887-92.5537Q85.8887-93.6523 84.6191-94.5801L65.7715-107.715Q64.7461-108.447 63.916-108.472Q63.0859-108.496 62.5977-107.861Q62.1094-107.227 62.1094-106.104L62.1094-95.6543Q51.2695-93.75 42.041-88.3545Q32.8125-82.959 25.8789-74.8291Q18.9453-66.6992 15.1123-56.5674Q11.2793-46.4355 11.2793-35.1562Z"/>
  </g>
  <g id="Ultralight-L" transform="matrix(1 0 0 1 487.592 1556)">
   <path d="M11.2793-35.1074Q11.2793-25.0977 14.3555-15.9668Q17.4316-6.83594 23.0225 0.78125Q28.6133 8.39844 36.2305 13.9893Q43.8477 19.5801 52.9541 22.6562Q62.0605 25.7324 72.0703 25.7324Q82.1289 25.7324 91.2354 22.6562Q100.342 19.5801 107.935 13.9893Q115.527 8.39844 121.143 0.78125Q126.758-6.83594 129.858-15.9668Q132.959-25.0977 132.959-35.1074Q132.959-46.4355 129.028-56.5918Q125.098-66.748 118.066-74.8535Q111.035-82.959 101.758-88.1836Q101.221-88.4766 100.708-88.3301Q100.195-88.1836 100-87.793Q99.8047-87.3047 99.9268-86.792Q100.049-86.2793 100.537-86.0352Q109.473-80.957 116.211-73.2178Q122.949-65.4785 126.685-55.7373Q130.42-45.9961 130.42-35.1074Q130.371-25.4395 127.441-16.7236Q124.512-8.00781 119.141-0.708008Q113.77 6.5918 106.494 11.9629Q99.2188 17.334 90.4785 20.2881Q81.7383 23.2422 72.0703 23.2422Q62.4512 23.2422 53.7109 20.2881Q44.9707 17.334 37.6709 11.9629Q30.3711 6.5918 25.0244-0.708008Q19.6777-8.00781 16.7236-16.7236Q13.7695-25.4395 13.7695-35.1074Q13.7695-45.8496 17.4072-55.4443Q21.0449-65.0391 27.5879-72.7295Q34.1309-80.4199 42.8711-85.5469Q51.6113-90.6738 61.8164-92.5293L61.8164-79.1504Q61.8164-78.2715 62.207-77.7832Q62.5977-77.2949 63.2812-77.2705Q63.9648-77.2461 64.8926-77.9297L83.3984-90.8203Q84.5215-91.6016 84.5215-92.5049Q84.5215-93.4082 83.3984-94.1895L64.8438-107.129Q63.9648-107.764 63.2812-107.764Q62.5977-107.764 62.207-107.227Q61.8164-106.689 61.8164-105.859L61.8164-95.0684Q51.0742-93.2129 41.8701-87.8906Q32.666-82.5684 25.7812-74.5117Q18.8965-66.4551 15.0879-56.3965Q11.2793-46.3379 11.2793-35.1074Z"/>
  </g>
  <g id="Black-M" transform="matrix(1 0 0 1 2871.32 1126)">
   <path d="M8.74023-35.2539Q8.74023-24.2676 12.8906-14.5996Q17.041-4.93164 24.3896 2.41699Q31.7383 9.76562 41.4062 13.916Q51.0742 18.0664 62.0605 18.0664Q73.0957 18.0664 82.7637 13.916Q92.4316 9.76562 99.7559 2.41699Q107.08-4.93164 111.255-14.5996Q115.43-24.2676 115.43-35.2539Q115.43-41.7969 113.55-48.8281Q111.67-55.8594 108.301-62.0117Q104.932-68.1641 100.488-72.1191Q96.9727-75.293 93.4082-75.4639Q89.8438-75.6348 87.3047-73.0469Q84.4238-70.0684 85.0342-66.4551Q85.6445-62.8418 88.2324-59.8145Q91.3574-56.2988 93.5547-52.4414Q95.752-48.584 96.8994-44.3115Q98.0469-40.0391 98.0469-35.2539Q98.0469-27.7832 95.2393-21.2891Q92.4316-14.7949 87.5-9.83887Q82.5684-4.88281 76.0498-2.09961Q69.5312 0.683594 62.0605 0.683594Q54.6387 0.683594 48.1201-2.09961Q41.6016-4.88281 36.6455-9.83887Q31.6895-14.7949 28.9062-21.2891Q26.123-27.7832 26.123-35.2539Q26.123-41.0645 27.832-46.2891Q29.541-51.5137 32.6416-55.9326Q35.7422-60.3516 39.9902-63.6475Q44.2383-66.9434 49.3164-68.8965L49.3164-62.1094Q49.3164-58.4473 52.0996-57.4707Q54.8828-56.4941 58.252-58.9844L78.3691-73.877Q81.0059-75.8301 80.957-78.6377Q80.9082-81.4453 78.3691-83.3496L58.252-98.2422Q54.9316-100.732 52.124-99.8047Q49.3164-98.877 49.3164-95.166L49.3164-87.0117Q40.5762-84.9121 33.1787-80.0781Q25.7812-75.2441 20.2881-68.3594Q14.7949-61.4746 11.7676-53.0518Q8.74023-44.6289 8.74023-35.2539Z"/>
  </g>
  <g id="Heavy-M" transform="matrix(1 0 0 1 2575.43 1126)">
   <path d="M8.74023-35.2539Q8.74023-24.4629 12.8418-14.9414Q16.9434-5.41992 24.1699 1.80664Q31.3965 9.0332 40.918 13.1348Q50.4395 17.2363 61.2305 17.2363Q72.0703 17.2363 81.5918 13.1348Q91.1133 9.0332 98.3154 1.80664Q105.518-5.41992 109.644-14.9414Q113.77-24.4629 113.77-35.2539Q113.77-42.1875 111.719-49.3408Q109.668-56.4941 105.981-62.6709Q102.295-68.8477 97.4121-72.9492Q94.3359-75.6348 91.2109-75.6836Q88.0859-75.7324 85.9375-73.4375Q83.4961-70.8008 84.0576-67.6514Q84.6191-64.502 86.9629-61.9141Q90.5762-58.3496 93.1641-54.1992Q95.752-50.0488 97.1436-45.2881Q98.5352-40.5273 98.5352-35.2539Q98.5352-27.4902 95.6299-20.752Q92.7246-14.0137 87.6221-8.88672Q82.5195-3.75977 75.7568-0.878906Q68.9941 2.00195 61.2305 2.00195Q53.5156 2.00195 46.7529-0.878906Q39.9902-3.75977 34.8633-8.88672Q29.7363-14.0137 26.8555-20.752Q23.9746-27.4902 23.9746-35.2539Q23.9746-41.4551 25.8545-46.9971Q27.7344-52.5391 31.1279-57.1777Q34.5215-61.8164 39.1357-65.21Q43.75-68.6035 49.2676-70.5078L49.2676-63.6719Q49.2676-60.2539 51.7578-59.3506Q54.248-58.4473 57.2754-60.6934L76.3184-74.6582Q78.7598-76.416 78.7109-78.9307Q78.6621-81.4453 76.3184-83.1543L57.3242-97.1191Q54.2969-99.3652 51.7822-98.5107Q49.2676-97.6562 49.2676-94.1895L49.2676-86.3281Q40.5762-84.3262 33.1787-79.5898Q25.7812-74.8535 20.2881-68.042Q14.7949-61.2305 11.7676-52.8809Q8.74023-44.5312 8.74023-35.2539Z"/>
  </g>
  <g id="Bold-M" transform="matrix(1 0 0 1 2279.65 1126)">
   <path d="M8.74023-35.2539Q8.74023-24.6582 12.7686-15.3076Q16.7969-5.95703 23.9258 1.14746Q31.0547 8.25195 40.3809 12.2803Q49.707 16.3086 60.3027 16.3086Q70.9473 16.3086 80.2734 12.2803Q89.5996 8.25195 96.7041 1.14746Q103.809-5.95703 107.861-15.3076Q111.914-24.6582 111.914-35.2539Q111.914-42.627 109.668-49.9023Q107.422-57.1777 103.394-63.3789Q99.3652-69.5801 93.9941-73.8281Q91.4551-76.0254 88.7939-75.9521Q86.1328-75.8789 84.375-73.877Q82.4707-71.6309 82.9834-69.0186Q83.4961-66.4062 85.5469-64.3066Q89.6973-60.6934 92.7246-56.1768Q95.752-51.6602 97.4121-46.3867Q99.0723-41.1133 99.0723-35.2539Q99.0723-27.1973 96.0693-20.1904Q93.0664-13.1836 87.7441-7.86133Q82.4219-2.53906 75.3906 0.463867Q68.3594 3.4668 60.3027 3.4668Q52.2949 3.4668 45.2637 0.463867Q38.2324-2.53906 32.9102-7.86133Q27.5879-13.1836 24.6094-20.1904Q21.6309-27.1973 21.6309-35.2539Q21.6309-41.8945 23.6816-47.8027Q25.7324-53.7109 29.4434-58.6182Q33.1543-63.5254 38.208-67.0166Q43.2617-70.5078 49.2188-72.2656L49.2188-65.3809Q49.2188-62.2559 51.3916-61.4502Q53.5645-60.6445 56.25-62.5977L74.0723-75.4883Q76.2207-77.0508 76.2207-79.248Q76.2207-81.4453 74.0723-82.959L56.25-95.8984Q53.5645-97.8516 51.3916-97.0703Q49.2188-96.2891 49.2188-93.1152L49.2188-85.5957Q40.5762-83.6914 33.2031-79.0527Q25.8301-74.4141 20.3369-67.7002Q14.8438-60.9863 11.792-52.71Q8.74023-44.4336 8.74023-35.2539Z"/>
  </g>
  <g id="Semibold-M" transform="matrix(1 0 0 1 1983.6 1126)">
   <path d="M8.74023-35.2539Q8.74023-24.8047 12.7197-15.5762Q16.6992-6.34766 23.7305 0.683594Q30.7617 7.71484 39.9902 11.6943Q49.2188 15.6738 59.668 15.6738Q70.1172 15.6738 79.3457 11.6943Q88.5742 7.71484 95.6055 0.683594Q102.637-6.34766 106.616-15.5762Q110.596-24.8047 110.596-35.2539Q110.596-42.9199 108.228-50.2686Q105.859-57.6172 101.611-63.8672Q97.3633-70.1172 91.6504-74.4629Q89.4043-76.2695 87.085-76.123Q84.7656-75.9766 83.3008-74.1699Q81.7383-72.168 82.2266-69.9219Q82.7148-67.6758 84.5703-65.918Q89.1113-62.3047 92.4316-57.5439Q95.752-52.7832 97.583-47.1436Q99.4141-41.5039 99.4141-35.2539Q99.4141-27.002 96.3379-19.7754Q93.2617-12.5488 87.8174-7.10449Q82.373-1.66016 75.1465 1.41602Q67.9199 4.49219 59.668 4.49219Q51.416 4.49219 44.2139 1.41602Q37.0117-1.66016 31.543-7.10449Q26.0742-12.5488 23.0225-19.7754Q19.9707-27.002 19.9707-35.2539Q19.9707-42.1875 22.1436-48.3398Q24.3164-54.4922 28.2471-59.5703Q32.1777-64.6484 37.5244-68.2373Q42.8711-71.8262 49.1699-73.4863L49.1699-66.5527Q49.1699-63.623 51.0986-62.8662Q53.0273-62.1094 55.4688-63.8672L72.5098-76.0742Q74.4629-77.4414 74.4629-79.4189Q74.4629-81.3965 72.5098-82.8125L55.5176-95.0195Q53.0762-96.8262 51.123-96.0693Q49.1699-95.3125 49.1699-92.334L49.1699-85.0586Q40.5762-83.2031 33.2031-78.6621Q25.8301-74.1211 20.3369-67.4561Q14.8438-60.791 11.792-52.5879Q8.74023-44.3848 8.74023-35.2539Z"/>
  </g>
  <g id="Medium-M" transform="matrix(1 0 0 1 1687.38 1126)">
   <path d="M8.74023-35.2539Q8.74023-24.9023 12.6953-15.7471Q16.6504-6.5918 23.6084 0.341797Q30.5664 7.27539 39.6973 11.2305Q48.8281 15.1855 59.1797 15.1855Q69.5312 15.1855 78.6621 11.2305Q87.793 7.27539 94.751 0.341797Q101.709-6.5918 105.664-15.7471Q109.619-24.9023 109.619-35.2539Q109.619-43.1641 107.153-50.5615Q104.688-57.959 100.244-64.2334Q95.8008-70.5078 89.8438-74.9023Q87.8906-76.5137 85.8154-76.2695Q83.7402-76.0254 82.5195-74.3652Q81.2012-72.6074 81.665-70.6299Q82.1289-68.6523 83.8379-67.1875Q88.623-63.5254 92.1875-58.5693Q95.752-53.6133 97.7295-47.7051Q99.707-41.7969 99.707-35.2539Q99.707-26.8066 96.582-19.458Q93.457-12.1094 87.8906-6.54297Q82.3242-0.976562 74.9756 2.12402Q67.627 5.22461 59.1797 5.22461Q50.7324 5.22461 43.4082 2.12402Q36.084-0.976562 30.5176-6.54297Q24.9512-12.1094 21.8262-19.458Q18.7012-26.8066 18.7012-35.2539Q18.7012-42.3828 20.9717-48.7549Q23.2422-55.127 27.3438-60.3271Q31.4453-65.5273 37.0117-69.165Q42.5781-72.8027 49.1699-74.4141L49.1699-67.4805Q49.1699-64.6973 50.9277-63.9893Q52.6855-63.2812 54.9316-64.8926L71.3379-76.5137Q73.1445-77.7832 73.1689-79.5898Q73.1934-81.3965 71.3379-82.7148L54.9805-94.3359Q52.6855-95.9961 50.9277-95.2881Q49.1699-94.5801 49.1699-91.748L49.1699-84.668Q40.5762-82.8613 33.2275-78.3691Q25.8789-73.877 20.3857-67.2607Q14.8926-60.6445 11.8164-52.4658Q8.74023-44.2871 8.74023-35.2539Z"/>
  </g>
  <g id="Regular-M" transform="matrix(1 0 0 1 1391.3 1126)">
   <path d="M8.74023-35.2539Q8.74023-25.0488 12.6465-16.0156Q16.5527-6.98242 23.4375-0.12207Q30.3223 6.73828 39.3311 10.6445Q48.3398 14.5508 58.5449 14.5508Q68.75 14.5508 77.7588 10.6445Q86.7676 6.73828 93.6523-0.12207Q100.537-6.98242 104.443-16.0156Q108.35-25.0488 108.35-35.2539Q108.35-43.457 105.762-50.9521Q103.174-58.4473 98.4863-64.7217Q93.7988-70.9961 87.5-75.5371Q85.8887-76.7578 84.1309-76.4404Q82.373-76.123 81.4453-74.6582Q80.5176-73.1445 80.9326-71.5332Q81.3477-69.9219 82.8613-68.7988Q88.0371-65.0879 91.8945-59.9121Q95.752-54.7363 97.9004-48.4619Q100.049-42.1875 100.049-35.2539Q100.049-26.6113 96.8506-19.0674Q93.6523-11.5234 87.9639-5.83496Q82.2754-0.146484 74.7314 3.05176Q67.1875 6.25 58.5449 6.25Q49.9023 6.25 42.3828 3.05176Q34.8633-0.146484 29.1748-5.83496Q23.4863-11.5234 20.2881-19.0674Q17.0898-26.6113 17.0898-35.2539Q17.0898-42.6758 19.4824-49.292Q21.875-55.9082 26.1963-61.2793Q30.5176-66.6504 36.377-70.3613Q42.2363-74.0723 49.1211-75.6348L49.1211-68.6523Q49.1211-66.0645 50.6592-65.4053Q52.1973-64.7461 54.1992-66.1621L69.7754-77.0996Q71.4355-78.2227 71.46-79.8096Q71.4844-81.3965 69.7754-82.5684L54.248-93.5059Q52.1973-94.9707 50.6592-94.3115Q49.1211-93.6523 49.1211-91.0156L49.1211-84.1309Q40.5762-82.4219 33.2275-78.0029Q25.8789-73.584 20.3857-67.0166Q14.8926-60.4492 11.8164-52.3438Q8.74023-44.2383 8.74023-35.2539Z"/>
  </g>
  <g id="Light-M" transform="matrix(1 0 0 1 1095.42 1126)">
   <path d="M8.74023-35.2051Q8.74023-25.1465 12.5732-16.2598Q16.4062-7.37305 23.1689-0.634766Q29.9316 6.10352 38.7939 9.93652Q47.6562 13.7695 57.7148 13.7695Q67.7734 13.7695 76.6357 9.93652Q85.498 6.10352 92.2607-0.634766Q99.0234-7.37305 102.856-16.2598Q106.689-25.1465 106.689-35.2051Q106.689-43.6035 103.955-51.2207Q101.221-58.8379 96.3135-65.1123Q91.4062-71.3867 84.8145-75.7812Q83.5938-76.6602 82.251-76.416Q80.9082-76.1719 80.2246-75.0488Q79.541-73.877 79.8584-72.6562Q80.1758-71.4355 81.3477-70.6055Q87.0605-66.8457 91.333-61.4014Q95.6055-55.957 97.998-49.292Q100.391-42.627 100.391-35.2051Q100.391-26.3672 97.0703-18.6279Q93.75-10.8887 87.915-5.0293Q82.0801 0.830078 74.3408 4.12598Q66.6016 7.42188 57.7148 7.42188Q48.877 7.42188 41.1377 4.12598Q33.3984 0.830078 27.5391-5.0293Q21.6797-10.8887 18.3838-18.6279Q15.0879-26.3672 15.0879-35.2051Q15.0879-42.9199 17.627-49.7803Q20.166-56.6406 24.707-62.207Q29.248-67.7734 35.4004-71.5576Q41.5527-75.3418 48.7305-76.8555L48.7305-68.8477Q48.7305-66.748 50-66.1865Q51.2695-65.625 52.9785-66.8457L68.1641-77.4902Q69.5801-78.418 69.6045-79.7363Q69.6289-81.0547 68.1641-82.0312L53.0273-92.7246Q51.2695-93.9453 50-93.3838Q48.7305-92.8223 48.7305-90.6738L48.7305-83.3496Q40.2344-81.7383 32.9834-77.3926Q25.7324-73.0469 20.2881-66.5771Q14.8438-60.1074 11.792-52.124Q8.74023-44.1406 8.74023-35.2051Z"/>
  </g>
  <g id="Thin-M" transform="matrix(1 0 0 1 799.782 1126)">
   <path d="M8.74023-35.1562Q8.74023-25.293 12.4756-16.6016Q16.2109-7.91016 22.8027-1.34277Q29.3945 5.22461 38.0859 8.98438Q46.7773 12.7441 56.5918 12.7441Q66.5039 12.7441 75.1709 8.98438Q83.8379 5.22461 90.4297-1.34277Q97.0215-7.91016 100.781-16.6016Q104.541-25.293 104.541-35.1562Q104.541-43.7988 101.611-51.5625Q98.6816-59.3262 93.457-65.6006Q88.2324-71.875 81.2988-76.0742Q80.5176-76.5625 79.7607-76.3916Q79.0039-76.2207 78.6133-75.5859Q78.2227-74.9023 78.418-74.1699Q78.6133-73.4375 79.2969-72.998Q85.7422-69.1406 90.5762-63.3545Q95.4102-57.5684 98.0957-50.3662Q100.781-43.1641 100.781-35.1562Q100.781-26.0254 97.3633-18.0176Q93.9453-10.0098 87.8662-3.93066Q81.7871 2.14844 73.7793 5.56641Q65.7715 8.98438 56.5918 8.98438Q47.4609 8.98438 39.4775 5.56641Q31.4941 2.14844 25.415-3.93066Q19.3359-10.0098 15.918-18.0176Q12.5-26.0254 12.5-35.1562Q12.5-43.2617 15.1855-50.4395Q17.8711-57.6172 22.7295-63.4277Q27.5879-69.2383 34.1064-73.1201Q40.625-77.002 48.2422-78.4668L48.2422-69.0918Q48.2422-67.627 49.1699-67.2119Q50.0977-66.7969 51.3672-67.7246L66.0645-77.9785Q67.1387-78.7109 67.1387-79.6631Q67.1387-80.6152 66.0645-81.3965L51.416-91.6504Q50.0488-92.5781 49.1455-92.1387Q48.2422-91.6992 48.2422-90.2344L48.2422-82.3242Q39.8438-80.8105 32.666-76.5869Q25.4883-72.3633 20.1172-66.04Q14.7461-59.7168 11.7432-51.8311Q8.74023-43.9453 8.74023-35.1562Z"/>
  </g>
  <g id="Ultralight-M" transform="matrix(1 0 0 1 503.632 1126)">
   <path d="M8.74023-35.1074Q8.74023-25.3906 12.4268-16.7969Q16.1133-8.20312 22.6318-1.70898Q29.1504 4.78516 37.7197 8.49609Q46.2891 12.207 56.0547 12.207Q65.8203 12.207 74.3896 8.49609Q82.959 4.78516 89.4775-1.70898Q95.9961-8.20312 99.707-16.7969Q103.418-25.3906 103.418-35.1074Q103.418-43.8965 100.391-51.7334Q97.3633-59.5703 91.9922-65.8447Q86.6211-72.1191 79.4434-76.2207Q78.9551-76.5137 78.4912-76.3916Q78.0273-76.2695 77.7832-75.8301Q77.5879-75.3906 77.6855-74.9268Q77.7832-74.4629 78.2715-74.2188Q85.1074-70.3125 90.21-64.3311Q95.3125-58.3496 98.1689-50.9033Q101.025-43.457 101.025-35.1074Q101.025-25.8301 97.5098-17.7002Q93.9941-9.57031 87.8174-3.39355Q81.6406 2.7832 73.5107 6.29883Q65.3809 9.81445 56.0547 9.81445Q46.7773 9.81445 38.6475 6.29883Q30.5176 2.7832 24.3164-3.39355Q18.1152-9.57031 14.624-17.7002Q11.1328-25.8301 11.1328-35.1074Q11.1328-43.4082 13.916-50.7812Q16.6992-58.1543 21.7041-64.0869Q26.709-70.0195 33.4229-73.9502Q40.1367-77.8809 47.998-79.2969L47.998-69.2383Q47.998-68.1152 48.7305-67.749Q49.4629-67.3828 50.5859-68.1641L64.9902-78.2227Q65.918-78.8574 65.918-79.6387Q65.918-80.4199 64.9902-81.0059L50.5859-91.1133Q49.4141-91.8945 48.7061-91.5283Q47.998-91.1621 47.998-90.0391L47.998-81.7871Q39.5996-80.3223 32.4951-76.1475Q25.3906-71.9727 20.0439-65.7227Q14.6973-59.4727 11.7188-51.6846Q8.74023-43.8965 8.74023-35.1074Z"/>
  </g>
  <g id="Black-S" transform="matrix(1 0 0 1 2884.57 696)">
   <path d="M6.83594-35.2539Q6.83594-26.5625 10.1074-18.9697Q13.3789-11.377 19.165-5.59082Q24.9512 0.195312 32.5439 3.4668Q40.1367 6.73828 48.8281 6.73828Q57.5195 6.73828 65.1123 3.4668Q72.7051 0.195312 78.4912-5.59082Q84.2773-11.377 87.5488-18.9697Q90.8203-26.5625 90.8203-35.2539Q90.8203-40.2832 89.4043-45.752Q87.9883-51.2207 85.4248-56.0547Q82.8613-60.8887 79.4922-63.916Q76.6602-66.5039 73.7549-66.6748Q70.8496-66.8457 68.75-64.7461Q66.3574-62.3535 66.8457-59.3994Q67.334-56.4453 69.4336-53.9551Q72.9004-49.8535 74.7803-45.2637Q76.6602-40.6738 76.6602-35.2539Q76.6602-29.4922 74.4873-24.4385Q72.3145-19.3848 68.5059-15.5762Q64.6973-11.7676 59.6436-9.59473Q54.5898-7.42188 48.8281-7.42188Q43.0664-7.42188 38.0127-9.59473Q32.959-11.7676 29.1504-15.5762Q25.3418-19.3848 23.1689-24.4385Q20.9961-29.4922 20.9961-35.2539Q20.9961-41.1621 23.2422-46.2891Q25.4883-51.416 29.4678-55.2734Q33.4473-59.1309 38.623-61.1816L38.623-55.8105Q38.623-52.9297 40.8936-52.1484Q43.1641-51.3672 45.8496-53.3691L61.9141-65.2832Q64.0625-66.8457 64.0137-69.1406Q63.9648-71.4355 61.9141-72.9492L45.8496-84.9121Q43.1641-86.9141 40.8936-86.1816Q38.623-85.4492 38.623-82.4707L38.623-75.9766Q31.7871-74.2676 25.9766-70.4834Q20.166-66.6992 15.8691-61.2793Q11.5723-55.8594 9.2041-49.2432Q6.83594-42.627 6.83594-35.2539Z"/>
  </g>
  <g id="Heavy-S" transform="matrix(1 0 0 1 2588.47 696)">
   <path d="M6.83594-35.2539Q6.83594-26.709 10.0586-19.2383Q13.2812-11.7676 18.9941-6.05469Q24.707-0.341797 32.2021 2.88086Q39.6973 6.10352 48.1934 6.10352Q56.7871 6.10352 64.2578 2.88086Q71.7285-0.341797 77.4414-6.05469Q83.1543-11.7676 86.377-19.2383Q89.5996-26.709 89.5996-35.2539Q89.5996-40.5762 88.0615-46.1426Q86.5234-51.709 83.7158-56.543Q80.9082-61.377 77.1973-64.5508Q74.707-66.7969 72.1191-66.8701Q69.5312-66.9434 67.7246-65.0391Q65.7227-62.8906 66.1621-60.2783Q66.6016-57.666 68.5547-55.5664Q72.5098-51.3672 74.7559-46.3135Q77.002-41.2598 77.0508-35.2539Q77.0508-29.2969 74.8047-24.0479Q72.5586-18.7988 68.6035-14.8682Q64.6484-10.9375 59.4238-8.69141Q54.1992-6.44531 48.1934-6.44531Q42.2363-6.44531 37.0117-8.69141Q31.7871-10.9375 27.8564-14.8682Q23.9258-18.7988 21.6797-24.0479Q19.4336-29.2969 19.4336-35.2539Q19.4336-41.5527 21.8994-46.9971Q24.3652-52.4414 28.6865-56.4453Q33.0078-60.4492 38.623-62.4023L38.623-57.1289Q38.623-54.3945 40.6738-53.6621Q42.7246-52.9297 45.166-54.7363L60.4004-65.8691Q62.3535-67.334 62.3291-69.3848Q62.3047-71.4355 60.4004-72.8516L45.2148-84.0332Q42.7246-85.8887 40.6738-85.1807Q38.623-84.4727 38.623-81.6895L38.623-75.4883Q31.8359-73.877 26.0254-70.1416Q20.2148-66.4062 15.8936-61.0596Q11.5723-55.7129 9.2041-49.1455Q6.83594-42.5781 6.83594-35.2539Z"/>
  </g>
  <g id="Bold-S" transform="matrix(1 0 0 1 2292.42 696)">
   <path d="M6.83594-35.2539Q6.83594-26.9043 10.0342-19.5312Q13.2324-12.1582 18.8477-6.54297Q24.4629-0.927734 31.8115 2.27051Q39.1602 5.46875 47.5586 5.46875Q55.957 5.46875 63.3057 2.27051Q70.6543-0.927734 76.2695-6.54297Q81.8848-12.1582 85.083-19.5312Q88.2812-26.9043 88.2812-35.2539Q88.2812-40.9668 86.5723-46.6064Q84.8633-52.2461 81.8115-57.1045Q78.7598-61.9629 74.6582-65.332Q72.5586-67.1875 70.3125-67.1387Q68.0664-67.0898 66.6016-65.332Q64.9902-63.4766 65.4053-61.2793Q65.8203-59.082 67.5293-57.3242Q72.1191-53.125 74.7803-47.5098Q77.4414-41.8945 77.4414-35.2539Q77.4414-29.0527 75.1221-23.6328Q72.8027-18.2129 68.7256-14.1113Q64.6484-10.0098 59.2041-7.69043Q53.7598-5.37109 47.5586-5.37109Q41.3574-5.37109 35.9375-7.69043Q30.5176-10.0098 26.416-14.1113Q22.3145-18.2129 19.9951-23.6328Q17.6758-29.0527 17.6758-35.2539Q17.6758-41.9922 20.3857-47.7783Q23.0957-53.5645 27.832-57.7393Q32.5684-61.9141 38.6719-63.7695L38.6719-58.5938Q38.6719-56.0059 40.4541-55.3223Q42.2363-54.6387 44.4336-56.25L58.6914-66.5527Q60.4492-67.8711 60.4492-69.6777Q60.4492-71.4844 58.6914-72.7539L44.4824-83.1055Q42.2363-84.7168 40.4541-84.082Q38.6719-83.4473 38.6719-80.8105L38.6719-74.9512Q31.8848-73.4375 26.0742-69.7754Q20.2637-66.1133 15.9424-60.8154Q11.6211-55.5176 9.22852-48.999Q6.83594-42.4805 6.83594-35.2539Z"/>
  </g>
  <g id="Semibold-S" transform="matrix(1 0 0 1 1996.2 696)">
   <path d="M6.83594-35.2539Q6.83594-27.002 9.98535-19.7266Q13.1348-12.4512 18.7012-6.88477Q24.2676-1.31836 31.543 1.83105Q38.8184 4.98047 47.0703 4.98047Q55.3711 4.98047 62.6465 1.83105Q69.9219-1.31836 75.4639-6.88477Q81.0059-12.4512 84.1553-19.7266Q87.3047-27.002 87.3047-35.2539Q87.3047-41.1621 85.5225-46.875Q83.7402-52.5879 80.4932-57.4707Q77.2461-62.3535 72.9004-65.8203Q71.0449-67.3828 69.043-67.2607Q67.041-67.1387 65.7715-65.5273Q64.4531-63.8672 64.8682-61.9629Q65.2832-60.0586 66.8457-58.5449Q71.8262-54.2969 74.7559-48.291Q77.6855-42.2852 77.7344-35.2539Q77.7344-28.8574 75.3662-23.3154Q72.998-17.7734 68.7988-13.5498Q64.5996-9.32617 59.0332-6.95801Q53.4668-4.58984 47.0703-4.58984Q40.7227-4.58984 35.1562-6.95801Q29.5898-9.32617 25.3906-13.5498Q21.1914-17.7734 18.8232-23.3154Q16.4551-28.8574 16.4551-35.2539Q16.4551-42.2852 19.3115-48.3154Q22.168-54.3457 27.1973-58.6182Q32.2266-62.8906 38.6719-64.6973L38.6719-59.5703Q38.6719-57.0801 40.2832-56.4453Q41.8945-55.8105 43.8965-57.2754L57.4707-66.9922Q59.1309-68.2129 59.1309-69.8486Q59.1309-71.4844 57.4707-72.7051L43.9453-82.4219Q41.8945-83.9355 40.2832-83.3008Q38.6719-82.666 38.6719-80.1758L38.6719-74.5605Q31.8848-73.0957 26.0742-69.5068Q20.2637-65.918 15.9424-60.6445Q11.6211-55.3711 9.22852-48.9014Q6.83594-42.4316 6.83594-35.2539Z"/>
  </g>
  <g id="Medium-S" transform="matrix(1 0 0 1 1699.83 696)">
   <path d="M6.83594-35.2539Q6.83594-27.0996 9.96094-19.873Q13.0859-12.6465 18.6035-7.12891Q24.1211-1.61133 31.3232 1.51367Q38.5254 4.63867 46.7285 4.63867Q54.9316 4.63867 62.1338 1.51367Q69.3359-1.61133 74.8535-7.12891Q80.3711-12.6465 83.4961-19.873Q86.6211-27.0996 86.6211-35.2539Q86.6211-41.3574 84.7412-47.1191Q82.8613-52.8809 79.4678-57.7637Q76.0742-62.6465 71.582-66.2109Q69.873-67.5781 68.0664-67.3828Q66.2598-67.1875 65.1855-65.7227Q64.0625-64.1602 64.4531-62.4756Q64.8438-60.791 66.3086-59.4727Q71.6309-55.1758 74.7559-48.9014Q77.8809-42.627 77.9297-35.2539Q77.9297-28.7109 75.5127-23.0713Q73.0957-17.4316 68.8477-13.1348Q64.5996-8.83789 58.9111-6.4209Q53.2227-4.00391 46.7285-4.00391Q40.2344-4.00391 34.5703-6.4209Q28.9062-8.83789 24.6338-13.1348Q20.3613-17.4316 17.9443-23.0713Q15.5273-28.7109 15.5273-35.2539Q15.5273-42.5293 18.5303-48.7305Q21.5332-54.9316 26.7578-59.3018Q31.9824-63.6719 38.6719-65.3809L38.6719-60.3516Q38.6719-57.959 40.1611-57.3486Q41.6504-56.7383 43.5059-58.1055L56.5918-67.3828Q58.1543-68.5059 58.1543-70.0195Q58.1543-71.5332 56.5918-72.6074L43.5547-81.8848Q41.6504-83.3008 40.1611-82.7148Q38.6719-82.1289 38.6719-79.6875L38.6719-74.3164Q31.8848-72.8516 26.0742-69.2871Q20.2637-65.7227 15.9668-60.5225Q11.6699-55.3223 9.25293-48.8525Q6.83594-42.3828 6.83594-35.2539Z"/>
  </g>
  <g id="Regular-S" transform="matrix(1 0 0 1 1403.58 696)">
   <path d="M6.83594-35.2539Q6.83594-27.1973 9.93652-20.0684Q13.0371-12.9395 18.4814-7.4707Q23.9258-2.00195 31.0547 1.07422Q38.1836 4.15039 46.2402 4.15039Q54.3457 4.15039 61.4746 1.07422Q68.6035-2.00195 74.0479-7.4707Q79.4922-12.9395 82.5928-20.0684Q85.6934-27.1973 85.6934-35.2539Q85.6934-41.6016 83.7158-47.4121Q81.7383-53.2227 78.1738-58.1299Q74.6094-63.0371 69.8242-66.6992Q68.4082-67.8223 66.8213-67.5537Q65.2344-67.2852 64.4043-65.918Q63.5742-64.5508 63.9404-63.1348Q64.3066-61.7188 65.625-60.6934Q71.3379-56.3477 74.7559-49.707Q78.1738-43.0664 78.2227-35.2539Q78.2227-28.5645 75.7568-22.7783Q73.291-16.9922 68.9209-12.5977Q64.5508-8.20312 58.7402-5.7373Q52.9297-3.27148 46.2402-3.27148Q39.5996-3.27148 33.8135-5.7373Q28.0273-8.20312 23.6572-12.5977Q19.2871-16.9922 16.8213-22.7783Q14.3555-28.5645 14.3555-35.2539Q14.3555-42.8223 17.5049-49.2676Q20.6543-55.7129 26.1475-60.1807Q31.6406-64.6484 38.6719-66.3086L38.6719-61.3281Q38.6719-59.0332 39.9902-58.4717Q41.3086-57.9102 43.0176-59.1309L55.4199-67.8223Q56.8359-68.8477 56.8604-70.1904Q56.8848-71.5332 55.4199-72.5586L43.0664-81.25Q41.3086-82.5195 39.9902-81.958Q38.6719-81.3965 38.6719-79.1016L38.6719-73.9258Q31.9336-72.5586 26.123-69.043Q20.3125-65.5273 15.9912-60.3516Q11.6699-55.1758 9.25293-48.7549Q6.83594-42.334 6.83594-35.2539Z"/>
  </g>
  <g id="Light-S" transform="matrix(1 0 0 1 1107.6 696)">
   <path d="M6.83594-35.2051Q6.83594-27.2949 9.86328-20.2881Q12.8906-13.2812 18.2373-7.93457Q23.584-2.58789 30.5908 0.439453Q37.5977 3.4668 45.5078 3.4668Q53.4668 3.4668 60.4736 0.439453Q67.4805-2.58789 72.8271-7.93457Q78.1738-13.2812 81.2012-20.2881Q84.2285-27.2949 84.2285-35.2051Q84.2285-41.748 82.1289-47.6562Q80.0293-53.5645 76.2695-58.4717Q72.5098-63.3789 67.4805-66.8945Q66.3574-67.7246 65.1611-67.5293Q63.9648-67.334 63.3301-66.2598Q62.6953-65.2344 62.9883-64.1357Q63.2812-63.0371 64.2578-62.2559Q70.7031-57.8613 74.585-50.7568Q78.4668-43.6523 78.5156-35.2051Q78.5156-28.3691 75.9521-22.3877Q73.3887-16.4062 68.8721-11.8652Q64.3555-7.32422 58.374-4.78516Q52.3926-2.24609 45.5078-2.24609Q38.6719-2.24609 32.6904-4.78516Q26.709-7.32422 22.1924-11.8652Q17.6758-16.4062 15.1367-22.3877Q12.5977-28.3691 12.5977-35.2051Q12.5977-43.1152 15.9424-49.8291Q19.2871-56.543 25.0977-61.1572Q30.9082-65.7715 38.3301-67.3828L38.3301-61.4746Q38.3301-59.6191 39.4287-59.1553Q40.5273-58.6914 41.9434-59.7168L54.0039-68.1641Q55.2246-69.043 55.249-70.1416Q55.2734-71.2402 54.0039-72.1191L41.9922-80.5664Q40.5273-81.5918 39.4287-81.1279Q38.3301-80.6641 38.3301-78.8086L38.3301-73.2422Q31.6406-71.9238 25.9033-68.4814Q20.166-65.0391 15.8936-59.9609Q11.6211-54.8828 9.22852-48.5596Q6.83594-42.2363 6.83594-35.2051Z"/>
  </g>
  <g id="Thin-S" transform="matrix(1 0 0 1 811.867 696)">
   <path d="M6.83594-35.2051Q6.83594-27.3926 9.79004-20.5811Q12.7441-13.7695 17.9199-8.54492Q23.0957-3.32031 29.9316-0.390625Q36.7676 2.53906 44.5312 2.53906Q52.3438 2.53906 59.1553-0.390625Q65.9668-3.32031 71.1914-8.54492Q76.416-13.7695 79.3457-20.5811Q82.2754-27.3926 82.2754-35.2051Q82.2754-41.8945 80.0293-47.9492Q77.7832-54.0039 73.7305-58.9111Q69.6777-63.8184 64.3555-67.1387Q63.6719-67.627 62.9639-67.4805Q62.2559-67.334 61.8652-66.748Q61.5234-66.1133 61.6943-65.4541Q61.8652-64.7949 62.5-64.3555Q69.873-59.8145 74.3652-52.124Q78.8574-44.4336 78.8574-35.2051Q78.8574-28.0762 76.1963-21.8506Q73.5352-15.625 68.8232-10.9131Q64.1113-6.20117 57.8857-3.54004Q51.6602-0.878906 44.5312-0.878906Q37.4512-0.878906 31.2256-3.54004Q25-6.20117 20.2881-10.9131Q15.5762-15.625 12.915-21.8506Q10.2539-28.0762 10.2539-35.2051Q10.2539-43.5059 13.8672-50.5859Q17.4805-57.666 23.7305-62.4756Q29.9805-67.2852 37.8906-68.8477L37.8906-61.7188Q37.8906-60.4492 38.6719-60.083Q39.4531-59.7168 40.5273-60.498L52.1484-68.6035Q53.0762-69.2871 53.0762-70.0684Q53.0762-70.8496 52.1484-71.4844L40.5273-79.6387Q39.4531-80.4199 38.6719-80.0537Q37.8906-79.6875 37.8906-78.418L37.8906-72.3145Q31.2988-71.0938 25.6592-67.7734Q20.0195-64.4531 15.7715-59.4727Q11.5234-54.4922 9.17969-48.291Q6.83594-42.0898 6.83594-35.2051Z"/>
  </g>
  <g id="Ultralight-S" transform="matrix(1 0 0 1 515.644 696)">
   <path d="M6.83594-35.1562Q6.83594-27.4902 9.74121-20.7275Q12.6465-13.9648 17.7734-8.83789Q22.9004-3.71094 29.6387-0.830078Q36.377 2.05078 44.043 2.05078Q51.7578 2.05078 58.4717-0.830078Q65.1855-3.71094 70.3369-8.83789Q75.4883-13.9648 78.3936-20.7275Q81.2988-27.4902 81.2988-35.1562Q81.2988-41.9922 78.9551-48.0957Q76.6113-54.1992 72.4365-59.1064Q68.2617-64.0137 62.7441-67.2852Q62.2559-67.5781 61.8164-67.4805Q61.377-67.3828 61.1328-66.9922Q60.9375-66.5527 61.0596-66.1133Q61.1816-65.6738 61.5723-65.4297Q69.4336-60.8398 74.2432-52.832Q79.0527-44.8242 79.0527-35.1562Q79.0527-27.9297 76.3428-21.582Q73.6328-15.2344 68.8232-10.4248Q64.0137-5.61523 57.666-2.90527Q51.3184-0.195312 44.043-0.195312Q36.8164-0.195312 30.4688-2.90527Q24.1211-5.61523 19.3115-10.4248Q14.502-15.2344 11.7676-21.582Q9.0332-27.9297 9.0332-35.1562Q9.0332-43.75 12.793-51.001Q16.5527-58.252 23.0225-63.1592Q29.4922-68.0664 37.6953-69.5801L37.6953-61.8164Q37.6953-60.8398 38.3057-60.5225Q38.916-60.2051 39.7949-60.8887L51.2207-68.7988Q51.9531-69.3848 51.9775-70.0195Q52.002-70.6543 51.2207-71.1914L39.7949-79.1504Q38.916-79.7852 38.3057-79.4922Q37.6953-79.1992 37.6953-78.2227L37.6953-71.8262Q31.1035-70.7031 25.5127-67.4072Q19.9219-64.1113 15.6982-59.2041Q11.4746-54.2969 9.15527-48.1445Q6.83594-41.9922 6.83594-35.1562Z"/>
  </g>
 </g>
</svg>
