<?xml version="1.0" encoding="UTF-8"?>
<!--Generator: Apple Native CoreSVG 175-->
<!DOCTYPE svg
PUBLIC "-//W3C//DTD SVG 1.1//EN"
       "http://www.w3.org/Graphics/SVG/1.1/DTD/svg11.dtd">
<svg version="1.1" xmlns="http://www.w3.org/2000/svg" xmlns:xlink="http://www.w3.org/1999/xlink" width="3300" height="2200">
 <!--glyph: "uni100681.medium", point size: 100.0, font version: "17.0d11e1", template writer version: "65.1"-->
 <style>.hierarchical-0:secondary {fill:#4D4D4D}
.hierarchical-1:primary {fill:#212121}

.SFSymbolsPreview212121 {fill:#212121;opacity:1.0}
.SFSymbolsPreview4D4D4D {fill:#4D4D4D;opacity:1.0}
</style>
 <g id="Notes">
  <rect height="2200" id="artboard" style="fill:white;opacity:1" width="3300" x="0" y="0"/>
  <line style="fill:none;stroke:black;opacity:1;stroke-width:0.5;" x1="263" x2="3036" y1="292" y2="292"/>
  <text style="stroke:none;fill:black;font-family:sans-serif;font-size:13;font-weight:bold;" transform="matrix(1 0 0 1 263 322)">Weight/Scale Variations</text>
  <text style="stroke:none;fill:black;font-family:sans-serif;font-size:13;text-anchor:middle;" transform="matrix(1 0 0 1 559.711 322)">Ultralight</text>
  <text style="stroke:none;fill:black;font-family:sans-serif;font-size:13;text-anchor:middle;" transform="matrix(1 0 0 1 856.422 322)">Thin</text>
  <text style="stroke:none;fill:black;font-family:sans-serif;font-size:13;text-anchor:middle;" transform="matrix(1 0 0 1 1153.13 322)">Light</text>
  <text style="stroke:none;fill:black;font-family:sans-serif;font-size:13;text-anchor:middle;" transform="matrix(1 0 0 1 1449.84 322)">Regular</text>
  <text style="stroke:none;fill:black;font-family:sans-serif;font-size:13;text-anchor:middle;" transform="matrix(1 0 0 1 1746.56 322)">Medium</text>
  <text style="stroke:none;fill:black;font-family:sans-serif;font-size:13;text-anchor:middle;" transform="matrix(1 0 0 1 2043.27 322)">Semibold</text>
  <text style="stroke:none;fill:black;font-family:sans-serif;font-size:13;text-anchor:middle;" transform="matrix(1 0 0 1 2339.98 322)">Bold</text>
  <text style="stroke:none;fill:black;font-family:sans-serif;font-size:13;text-anchor:middle;" transform="matrix(1 0 0 1 2636.69 322)">Heavy</text>
  <text style="stroke:none;fill:black;font-family:sans-serif;font-size:13;text-anchor:middle;" transform="matrix(1 0 0 1 2933.4 322)">Black</text>
  <line style="fill:none;stroke:black;opacity:1;stroke-width:0.5;" x1="263" x2="3036" y1="1903" y2="1903"/>
  <g transform="matrix(1 0 0 1 263 1933)">
   <path d="M9.24805 0.830078Q10.8691 0.830078 12.2949 0.214844Q13.7207-0.400391 14.8096-1.49414Q15.8984-2.58789 16.5186-4.01367Q17.1387-5.43945 17.1387-7.05078Q17.1387-8.66211 16.5186-10.0879Q15.8984-11.5137 14.8047-12.6074Q13.7109-13.7012 12.2852-14.3164Q10.8594-14.9316 9.23828-14.9316Q7.62695-14.9316 6.20117-14.3164Q4.77539-13.7012 3.69141-12.6074Q2.60742-11.5137 1.9873-10.0879Q1.36719-8.66211 1.36719-7.05078Q1.36719-5.43945 1.9873-4.01367Q2.60742-2.58789 3.69629-1.49414Q4.78516-0.400391 6.21094 0.214844Q7.63672 0.830078 9.24805 0.830078ZM9.24805-0.654297Q7.91992-0.654297 6.7627-1.14746Q5.60547-1.64062 4.73145-2.51953Q3.85742-3.39844 3.36426-4.56055Q2.87109-5.72266 2.87109-7.05078Q2.87109-8.37891 3.35938-9.54102Q3.84766-10.7031 4.72168-11.582Q5.5957-12.4609 6.75293-12.9541Q7.91016-13.4473 9.23828-13.4473Q10.5762-13.4473 11.7334-12.9541Q12.8906-12.4609 13.7695-11.582Q14.6484-10.7031 15.1465-9.54102Q15.6445-8.37891 15.6445-7.05078Q15.6445-5.72266 15.1514-4.56055Q14.6582-3.39844 13.7842-2.51953Q12.9102-1.64062 11.748-1.14746Q10.5859-0.654297 9.24805-0.654297ZM5.6543-7.05078Q5.6543-6.72852 5.85938-6.52832Q6.06445-6.32812 6.40625-6.32812L8.51562-6.32812L8.51562-4.20898Q8.51562-3.88672 8.71094-3.67676Q8.90625-3.4668 9.23828-3.4668Q9.56055-3.4668 9.77051-3.67676Q9.98047-3.88672 9.98047-4.20898L9.98047-6.32812L12.0898-6.32812Q12.4219-6.32812 12.627-6.52832Q12.832-6.72852 12.832-7.05078Q12.832-7.38281 12.627-7.58789Q12.4219-7.79297 12.0898-7.79297L9.98047-7.79297L9.98047-9.90234Q9.98047-10.2344 9.77051-10.4443Q9.56055-10.6543 9.23828-10.6543Q8.90625-10.6543 8.71094-10.4443Q8.51562-10.2344 8.51562-9.90234L8.51562-7.79297L6.40625-7.79297Q6.06445-7.79297 5.85938-7.58789Q5.6543-7.38281 5.6543-7.05078Z"/>
  </g>
  <g transform="matrix(1 0 0 1 281.867 1933)">
   <path d="M11.709 2.91016Q13.75 2.91016 15.5518 2.12891Q17.3535 1.34766 18.7305-0.0292969Q20.1074-1.40625 20.8887-3.20801Q21.6699-5.00977 21.6699-7.05078Q21.6699-9.0918 20.8887-10.8936Q20.1074-12.6953 18.7305-14.0723Q17.3535-15.4492 15.5469-16.2305Q13.7402-17.0117 11.6992-17.0117Q9.6582-17.0117 7.85645-16.2305Q6.05469-15.4492 4.68262-14.0723Q3.31055-12.6953 2.5293-10.8936Q1.74805-9.0918 1.74805-7.05078Q1.74805-5.00977 2.5293-3.20801Q3.31055-1.40625 4.6875-0.0292969Q6.06445 1.34766 7.86621 2.12891Q9.66797 2.91016 11.709 2.91016ZM11.709 1.25Q9.98047 1.25 8.47656 0.605469Q6.97266-0.0390625 5.83496-1.17676Q4.69727-2.31445 4.05762-3.81836Q3.41797-5.32227 3.41797-7.05078Q3.41797-8.7793 4.05762-10.2832Q4.69727-11.7871 5.83008-12.9297Q6.96289-14.0723 8.4668-14.7119Q9.9707-15.3516 11.6992-15.3516Q13.4277-15.3516 14.9316-14.7119Q16.4355-14.0723 17.5781-12.9297Q18.7207-11.7871 19.3652-10.2832Q20.0098-8.7793 20.0098-7.05078Q20.0098-5.32227 19.3701-3.81836Q18.7305-2.31445 17.5928-1.17676Q16.4551-0.0390625 14.9463 0.605469Q13.4375 1.25 11.709 1.25ZM7.17773-7.05078Q7.17773-6.69922 7.41211-6.47461Q7.64648-6.25 8.01758-6.25L10.8887-6.25L10.8887-3.36914Q10.8887-2.99805 11.1133-2.76855Q11.3379-2.53906 11.6895-2.53906Q12.0605-2.53906 12.29-2.76855Q12.5195-2.99805 12.5195-3.36914L12.5195-6.25L15.4004-6.25Q15.7715-6.25 16.001-6.47461Q16.2305-6.69922 16.2305-7.05078Q16.2305-7.42188 16.001-7.65137Q15.7715-7.88086 15.4004-7.88086L12.5195-7.88086L12.5195-10.752Q12.5195-11.1328 12.29-11.3623Q12.0605-11.5918 11.6895-11.5918Q11.3379-11.5918 11.1133-11.3574Q10.8887-11.123 10.8887-10.752L10.8887-7.88086L8.01758-7.88086Q7.63672-7.88086 7.40723-7.65137Q7.17773-7.42188 7.17773-7.05078Z"/>
  </g>
  <g transform="matrix(1 0 0 1 305.646 1933)">
   <path d="M14.9707 5.66406Q17.0605 5.66406 18.96 5.01465Q20.8594 4.36523 22.4512 3.19336Q24.043 2.02148 25.2197 0.429688Q26.3965-1.16211 27.0459-3.06641Q27.6953-4.9707 27.6953-7.05078Q27.6953-9.14062 27.0459-11.04Q26.3965-12.9395 25.2197-14.5312Q24.043-16.123 22.4512-17.2998Q20.8594-18.4766 18.9551-19.126Q17.0508-19.7754 14.9609-19.7754Q12.8711-19.7754 10.9717-19.126Q9.07227-18.4766 7.48535-17.2998Q5.89844-16.123 4.72168-14.5312Q3.54492-12.9395 2.90039-11.04Q2.25586-9.14062 2.25586-7.05078Q2.25586-4.9707 2.90527-3.06641Q3.55469-1.16211 4.72656 0.429688Q5.89844 2.02148 7.49023 3.19336Q9.08203 4.36523 10.9814 5.01465Q12.8809 5.66406 14.9707 5.66406ZM14.9707 3.84766Q13.1641 3.84766 11.5283 3.2959Q9.89258 2.74414 8.53516 1.74805Q7.17773 0.751953 6.17676-0.610352Q5.17578-1.97266 4.62891-3.6084Q4.08203-5.24414 4.08203-7.05078Q4.08203-8.86719 4.62891-10.5029Q5.17578-12.1387 6.17188-13.501Q7.16797-14.8633 8.52539-15.8594Q9.88281-16.8555 11.5186-17.4023Q13.1543-17.9492 14.9609-17.9492Q16.7773-17.9492 18.4131-17.4023Q20.0488-16.8555 21.4111-15.8594Q22.7734-14.8633 23.7695-13.501Q24.7656-12.1387 25.3174-10.5029Q25.8691-8.86719 25.8691-7.05078Q25.8789-5.24414 25.332-3.6084Q24.7852-1.97266 23.7842-0.610352Q22.7832 0.751953 21.4209 1.74805Q20.0586 2.74414 18.4229 3.2959Q16.7871 3.84766 14.9707 3.84766ZM9.19922-7.05078Q9.19922-6.66992 9.45801-6.4209Q9.7168-6.17188 10.1172-6.17188L14.0625-6.17188L14.0625-2.2168Q14.0625-1.81641 14.3115-1.55762Q14.5605-1.29883 14.9512-1.29883Q15.3516-1.29883 15.6104-1.55273Q15.8691-1.80664 15.8691-2.2168L15.8691-6.17188L19.8242-6.17188Q20.2246-6.17188 20.4785-6.4209Q20.7324-6.66992 20.7324-7.05078Q20.7324-7.46094 20.4785-7.71484Q20.2246-7.96875 19.8242-7.96875L15.8691-7.96875L15.8691-11.9141Q15.8691-12.3242 15.6104-12.583Q15.3516-12.8418 14.9512-12.8418Q14.5605-12.8418 14.3115-12.583Q14.0625-12.3242 14.0625-11.9141L14.0625-7.96875L10.1172-7.96875Q9.70703-7.96875 9.45312-7.71484Q9.19922-7.46094 9.19922-7.05078Z"/>
  </g>
  <text style="stroke:none;fill:black;font-family:sans-serif;font-size:13;font-weight:bold;" transform="matrix(1 0 0 1 263 1953)">Design Variations</text>
  <text style="stroke:none;fill:black;font-family:sans-serif;font-size:13;" transform="matrix(1 0 0 1 263 1971)">Symbols are supported in up to nine weights and three scales.</text>
  <text style="stroke:none;fill:black;font-family:sans-serif;font-size:13;" transform="matrix(1 0 0 1 263 1989)">For optimal layout with text and other symbols, vertically align</text>
  <text style="stroke:none;fill:black;font-family:sans-serif;font-size:13;" transform="matrix(1 0 0 1 263 2007)">symbols with the adjacent text.</text>
  <line style="fill:none;stroke:#00AEEF;stroke-width:0.5;opacity:1.0;" x1="776" x2="776" y1="1919" y2="1933"/>
  <g transform="matrix(1 0 0 1 776 1933)">
   <path d="M3.31055 0.15625Q3.70117 0.15625 3.91602-0.00976562Q4.13086-0.175781 4.26758-0.585938L5.52734-4.0332L11.2891-4.0332L12.5488-0.585938Q12.6855-0.175781 12.9004-0.00976562Q13.1152 0.15625 13.4961 0.15625Q13.8867 0.15625 14.1162-0.0585938Q14.3457-0.273438 14.3457-0.644531Q14.3457-0.869141 14.2383-1.17188L9.6582-13.3691Q9.48242-13.8184 9.17969-14.043Q8.87695-14.2676 8.4082-14.2676Q7.5-14.2676 7.17773-13.3789L2.59766-1.16211Q2.49023-0.859375 2.49023-0.634766Q2.49023-0.263672 2.70996-0.0537109Q2.92969 0.15625 3.31055 0.15625ZM6.00586-5.51758L8.37891-12.0898L8.42773-12.0898L10.8008-5.51758Z"/>
  </g>
  <line style="fill:none;stroke:#00AEEF;stroke-width:0.5;opacity:1.0;" x1="793.197" x2="793.197" y1="1919" y2="1933"/>
  <text style="stroke:none;fill:black;font-family:sans-serif;font-size:13;font-weight:bold;" transform="matrix(1 0 0 1 776 1953)">Margins</text>
  <text style="stroke:none;fill:black;font-family:sans-serif;font-size:13;" transform="matrix(1 0 0 1 776 1971)">Leading and trailing margins on the left and right side of each symbol</text>
  <text style="stroke:none;fill:black;font-family:sans-serif;font-size:13;" transform="matrix(1 0 0 1 776 1989)">can be adjusted by modifying the x-location of the margin guidelines.</text>
  <text style="stroke:none;fill:black;font-family:sans-serif;font-size:13;" transform="matrix(1 0 0 1 776 2007)">Modifications are automatically applied proportionally to all</text>
  <text style="stroke:none;fill:black;font-family:sans-serif;font-size:13;" transform="matrix(1 0 0 1 776 2025)">scales and weights.</text>
  <g transform="matrix(1 0 0 1 1289 1933)">
   <path d="M2.8418 1.86523L4.54102 3.57422Q5.18555 4.22852 5.90332 4.17969Q6.62109 4.13086 7.31445 3.35938L18.0078-8.42773L17.041-9.4043L6.42578 2.27539Q6.16211 2.57812 5.89355 2.61719Q5.625 2.65625 5.27344 2.30469L4.10156 1.14258Q3.75 0.791016 3.79395 0.522461Q3.83789 0.253906 4.14062-0.0195312L15.6152-10.8203L14.6387-11.7871L3.04688-0.898438Q2.30469-0.214844 2.25098 0.498047Q2.19727 1.21094 2.8418 1.86523ZM9.25781-16.3281Q8.94531-16.0254 8.90625-15.6348Q8.86719-15.2441 9.04297-14.9512Q9.21875-14.6777 9.55566-14.541Q9.89258-14.4043 10.3809-14.5215Q11.4746-14.7754 12.5977-14.7314Q13.7207-14.6875 14.7949-13.9844L14.209-12.5293Q13.9551-11.9043 14.0674-11.4404Q14.1797-10.9766 14.5801-10.5664L16.875-8.25195Q17.2363-7.88086 17.5781-7.82227Q17.9199-7.76367 18.3398-7.8418L19.4043-8.03711L20.0684-7.36328L20.0293-6.80664Q20-6.43555 20.1221-6.12305Q20.2441-5.81055 20.6055-5.44922L21.3672-4.70703Q21.7285-4.3457 22.1533-4.33105Q22.5781-4.31641 22.9297-4.66797L25.8398-7.58789Q26.1914-7.93945 26.1816-8.35449Q26.1719-8.76953 25.8105-9.13086L25.0391-9.89258Q24.6875-10.2539 24.3799-10.3857Q24.0723-10.5176 23.7109-10.4883L23.1348-10.4395L22.4902-11.0742L22.7344-12.1973Q22.832-12.6172 22.6953-12.9834Q22.5586-13.3496 22.1191-13.7891L19.9219-15.9766Q18.6719-17.2168 17.2607-17.8369Q15.8496-18.457 14.4189-18.4814Q12.9883-18.5059 11.665-17.959Q10.3418-17.4121 9.25781-16.3281ZM10.752-15.957Q11.6602-16.6211 12.7002-16.9043Q13.7402-17.1875 14.8047-17.085Q15.8691-16.9824 16.8701-16.5137Q17.8711-16.0449 18.7012-15.2051L21.1328-12.793Q21.3086-12.6172 21.3525-12.4512Q21.3965-12.2852 21.3379-12.0312L21.0156-10.5469L22.5195-9.0625L23.5059-9.12109Q23.6914-9.13086 23.7891-9.09668Q23.8867-9.0625 24.0332-8.91602L24.6094-8.33984L22.168-5.89844L21.5918-6.47461Q21.4453-6.62109 21.4062-6.71875Q21.3672-6.81641 21.377-7.01172L21.4453-7.98828L19.9512-9.47266L18.4277-9.21875Q18.1836-9.16992 18.042-9.2041Q17.9004-9.23828 17.7148-9.41406L15.7129-11.416Q15.5176-11.5918 15.4932-11.7529Q15.4688-11.9141 15.5859-12.1875L16.4648-14.2773Q15.293-15.3711 13.8281-15.791Q12.3633-16.2109 10.8398-15.7617Q10.7227-15.7324 10.6885-15.8057Q10.6543-15.8789 10.752-15.957Z"/>
  </g>
  <text style="stroke:none;fill:black;font-family:sans-serif;font-size:13;font-weight:bold;" transform="matrix(1 0 0 1 1289 1953)">Exporting</text>
  <text style="stroke:none;fill:black;font-family:sans-serif;font-size:13;" transform="matrix(1 0 0 1 1289 1971)">Symbols should be outlined when exporting to ensure the</text>
  <text style="stroke:none;fill:black;font-family:sans-serif;font-size:13;" transform="matrix(1 0 0 1 1289 1989)">design is preserved when submitting to Xcode.</text>
  <text id="template-version" style="stroke:none;fill:black;font-family:sans-serif;font-size:13;text-anchor:end;" transform="matrix(1 0 0 1 3036 1933)">Template v.3.0</text>
  <text style="stroke:none;fill:black;font-family:sans-serif;font-size:13;text-anchor:end;" transform="matrix(1 0 0 1 3036 1951)">Requires Xcode 13 or greater</text>
  <text id="descriptive-name" style="stroke:none;fill:black;font-family:sans-serif;font-size:13;text-anchor:end;" transform="matrix(1 0 0 1 3036 1969)">Generated from arrow.clockwise.circle</text>
  <text style="stroke:none;fill:black;font-family:sans-serif;font-size:13;text-anchor:end;" transform="matrix(1 0 0 1 3036 1987)">Typeset at 100 points</text>
  <text style="stroke:none;fill:black;font-family:sans-serif;font-size:13;" transform="matrix(1 0 0 1 263 726)">Small</text>
  <text style="stroke:none;fill:black;font-family:sans-serif;font-size:13;" transform="matrix(1 0 0 1 263 1156)">Medium</text>
  <text style="stroke:none;fill:black;font-family:sans-serif;font-size:13;" transform="matrix(1 0 0 1 263 1586)">Large</text>
 </g>
 <g id="Guides">
  <g id="H-reference" style="fill:#27AAE1;stroke:none;" transform="matrix(1 0 0 1 339 696)">
   <path d="M0.976562 0L3.66211 0L29.3457-67.1387L30.0293-67.1387L30.0293-70.459L28.125-70.459ZM11.6699-24.4629L46.9727-24.4629L46.2402-26.709L12.4512-26.709ZM55.127 0L57.7637 0L30.6152-70.459L29.4434-70.459L29.4434-67.1387Z"/>
  </g>
  <line id="Baseline-S" style="fill:none;stroke:#27AAE1;opacity:1;stroke-width:0.5;" x1="263" x2="3036" y1="696" y2="696"/>
  <line id="Capline-S" style="fill:none;stroke:#27AAE1;opacity:1;stroke-width:0.5;" x1="263" x2="3036" y1="625.541" y2="625.541"/>
  <g id="H-reference" style="fill:#27AAE1;stroke:none;" transform="matrix(1 0 0 1 339 1126)">
   <path d="M0.976562 0L3.66211 0L29.3457-67.1387L30.0293-67.1387L30.0293-70.459L28.125-70.459ZM11.6699-24.4629L46.9727-24.4629L46.2402-26.709L12.4512-26.709ZM55.127 0L57.7637 0L30.6152-70.459L29.4434-70.459L29.4434-67.1387Z"/>
  </g>
  <line id="Baseline-M" style="fill:none;stroke:#27AAE1;opacity:1;stroke-width:0.5;" x1="263" x2="3036" y1="1126" y2="1126"/>
  <line id="Capline-M" style="fill:none;stroke:#27AAE1;opacity:1;stroke-width:0.5;" x1="263" x2="3036" y1="1055.54" y2="1055.54"/>
  <g id="H-reference" style="fill:#27AAE1;stroke:none;" transform="matrix(1 0 0 1 339 1556)">
   <path d="M0.976562 0L3.66211 0L29.3457-67.1387L30.0293-67.1387L30.0293-70.459L28.125-70.459ZM11.6699-24.4629L46.9727-24.4629L46.2402-26.709L12.4512-26.709ZM55.127 0L57.7637 0L30.6152-70.459L29.4434-70.459L29.4434-67.1387Z"/>
  </g>
  <line id="Baseline-L" style="fill:none;stroke:#27AAE1;opacity:1;stroke-width:0.5;" x1="263" x2="3036" y1="1556" y2="1556"/>
  <line id="Capline-L" style="fill:none;stroke:#27AAE1;opacity:1;stroke-width:0.5;" x1="263" x2="3036" y1="1485.54" y2="1485.54"/>
  <line id="left-margin-Ultralight-S" style="fill:none;stroke:#00AEEF;stroke-width:0.5;opacity:1.0;" x1="515.644" x2="515.644" y1="600.785" y2="720.121"/>
  <line id="right-margin-Ultralight-S" style="fill:none;stroke:#00AEEF;stroke-width:0.5;opacity:1.0;" x1="603.778" x2="603.778" y1="600.785" y2="720.121"/>
  <line id="left-margin-Thin-S" style="fill:none;stroke:#00AEEF;stroke-width:0.5;opacity:1.0;" x1="811.867" x2="811.867" y1="600.785" y2="720.121"/>
  <line id="right-margin-Thin-S" style="fill:none;stroke:#00AEEF;stroke-width:0.5;opacity:1.0;" x1="900.978" x2="900.978" y1="600.785" y2="720.121"/>
  <line id="left-margin-Light-S" style="fill:none;stroke:#00AEEF;stroke-width:0.5;opacity:1.0;" x1="1107.6" x2="1107.6" y1="600.785" y2="720.121"/>
  <line id="right-margin-Light-S" style="fill:none;stroke:#00AEEF;stroke-width:0.5;opacity:1.0;" x1="1198.67" x2="1198.67" y1="600.785" y2="720.121"/>
  <line id="left-margin-Regular-S" style="fill:none;stroke:#00AEEF;stroke-width:0.5;opacity:1.0;" x1="1403.58" x2="1403.58" y1="600.785" y2="720.121"/>
  <line id="right-margin-Regular-S" style="fill:none;stroke:#00AEEF;stroke-width:0.5;opacity:1.0;" x1="1496.11" x2="1496.11" y1="600.785" y2="720.121"/>
  <line id="left-margin-Medium-S" style="fill:none;stroke:#00AEEF;stroke-width:0.5;opacity:1.0;" x1="1699.83" x2="1699.83" y1="600.785" y2="720.121"/>
  <line id="right-margin-Medium-S" style="fill:none;stroke:#00AEEF;stroke-width:0.5;opacity:1.0;" x1="1793.28" x2="1793.28" y1="600.785" y2="720.121"/>
  <line id="left-margin-Semibold-S" style="fill:none;stroke:#00AEEF;stroke-width:0.5;opacity:1.0;" x1="1996.2" x2="1996.2" y1="600.785" y2="720.121"/>
  <line id="right-margin-Semibold-S" style="fill:none;stroke:#00AEEF;stroke-width:0.5;opacity:1.0;" x1="2090.34" x2="2090.34" y1="600.785" y2="720.121"/>
  <line id="left-margin-Bold-S" style="fill:none;stroke:#00AEEF;stroke-width:0.5;opacity:1.0;" x1="2292.42" x2="2292.42" y1="600.785" y2="720.121"/>
  <line id="right-margin-Bold-S" style="fill:none;stroke:#00AEEF;stroke-width:0.5;opacity:1.0;" x1="2387.54" x2="2387.54" y1="600.785" y2="720.121"/>
  <line id="left-margin-Heavy-S" style="fill:none;stroke:#00AEEF;stroke-width:0.5;opacity:1.0;" x1="2588.47" x2="2588.47" y1="600.785" y2="720.121"/>
  <line id="right-margin-Heavy-S" style="fill:none;stroke:#00AEEF;stroke-width:0.5;opacity:1.0;" x1="2684.91" x2="2684.91" y1="600.785" y2="720.121"/>
  <line id="left-margin-Black-S" style="fill:none;stroke:#00AEEF;stroke-width:0.5;opacity:1.0;" x1="2884.57" x2="2884.57" y1="600.785" y2="720.121"/>
  <line id="right-margin-Black-S" style="fill:none;stroke:#00AEEF;stroke-width:0.5;opacity:1.0;" x1="2982.23" x2="2982.23" y1="600.785" y2="720.121"/>
  <line id="left-margin-Ultralight-M" style="fill:none;stroke:#00AEEF;stroke-width:0.5;opacity:1.0;" x1="503.632" x2="503.632" y1="1030.79" y2="1150.12"/>
  <line id="right-margin-Ultralight-M" style="fill:none;stroke:#00AEEF;stroke-width:0.5;opacity:1.0;" x1="615.79" x2="615.79" y1="1030.79" y2="1150.12"/>
  <line id="left-margin-Thin-M" style="fill:none;stroke:#00AEEF;stroke-width:0.5;opacity:1.0;" x1="799.782" x2="799.782" y1="1030.79" y2="1150.12"/>
  <line id="right-margin-Thin-M" style="fill:none;stroke:#00AEEF;stroke-width:0.5;opacity:1.0;" x1="913.063" x2="913.063" y1="1030.79" y2="1150.12"/>
  <line id="left-margin-Light-M" style="fill:none;stroke:#00AEEF;stroke-width:0.5;opacity:1.0;" x1="1095.42" x2="1095.42" y1="1030.79" y2="1150.12"/>
  <line id="right-margin-Light-M" style="fill:none;stroke:#00AEEF;stroke-width:0.5;opacity:1.0;" x1="1210.85" x2="1210.85" y1="1030.79" y2="1150.12"/>
  <line id="left-margin-Regular-M" style="fill:none;stroke:#00AEEF;stroke-width:0.5;opacity:1.0;" x1="1391.3" x2="1391.3" y1="1030.79" y2="1150.12"/>
  <line id="right-margin-Regular-M" style="fill:none;stroke:#00AEEF;stroke-width:0.5;opacity:1.0;" x1="1508.39" x2="1508.39" y1="1030.79" y2="1150.12"/>
  <line id="left-margin-Medium-M" style="fill:none;stroke:#00AEEF;stroke-width:0.5;opacity:1.0;" x1="1687.38" x2="1687.38" y1="1030.79" y2="1150.12"/>
  <line id="right-margin-Medium-M" style="fill:none;stroke:#00AEEF;stroke-width:0.5;opacity:1.0;" x1="1805.74" x2="1805.74" y1="1030.79" y2="1150.12"/>
  <line id="left-margin-Semibold-M" style="fill:none;stroke:#00AEEF;stroke-width:0.5;opacity:1.0;" x1="1983.6" x2="1983.6" y1="1030.79" y2="1150.12"/>
  <line id="right-margin-Semibold-M" style="fill:none;stroke:#00AEEF;stroke-width:0.5;opacity:1.0;" x1="2102.93" x2="2102.93" y1="1030.79" y2="1150.12"/>
  <line id="left-margin-Bold-M" style="fill:none;stroke:#00AEEF;stroke-width:0.5;opacity:1.0;" x1="2279.65" x2="2279.65" y1="1030.79" y2="1150.12"/>
  <line id="right-margin-Bold-M" style="fill:none;stroke:#00AEEF;stroke-width:0.5;opacity:1.0;" x1="2400.3" x2="2400.3" y1="1030.79" y2="1150.12"/>
  <line id="left-margin-Heavy-M" style="fill:none;stroke:#00AEEF;stroke-width:0.5;opacity:1.0;" x1="2575.43" x2="2575.43" y1="1030.79" y2="1150.12"/>
  <line id="right-margin-Heavy-M" style="fill:none;stroke:#00AEEF;stroke-width:0.5;opacity:1.0;" x1="2697.94" x2="2697.94" y1="1030.79" y2="1150.12"/>
  <line id="left-margin-Black-M" style="fill:none;stroke:#00AEEF;stroke-width:0.5;opacity:1.0;" x1="2871.32" x2="2871.32" y1="1030.79" y2="1150.12"/>
  <line id="right-margin-Black-M" style="fill:none;stroke:#00AEEF;stroke-width:0.5;opacity:1.0;" x1="2995.48" x2="2995.48" y1="1030.79" y2="1150.12"/>
  <line id="left-margin-Ultralight-L" style="fill:none;stroke:#00AEEF;stroke-width:0.5;opacity:1.0;" x1="487.592" x2="487.592" y1="1460.79" y2="1580.12"/>
  <line id="right-margin-Ultralight-L" style="fill:none;stroke:#00AEEF;stroke-width:0.5;opacity:1.0;" x1="631.83" x2="631.83" y1="1460.79" y2="1580.12"/>
  <line id="left-margin-Thin-L" style="fill:none;stroke:#00AEEF;stroke-width:0.5;opacity:1.0;" x1="783.693" x2="783.693" y1="1460.79" y2="1580.12"/>
  <line id="right-margin-Thin-L" style="fill:none;stroke:#00AEEF;stroke-width:0.5;opacity:1.0;" x1="929.152" x2="929.152" y1="1460.79" y2="1580.12"/>
  <line id="left-margin-Light-L" style="fill:none;stroke:#00AEEF;stroke-width:0.5;opacity:1.0;" x1="1079.18" x2="1079.18" y1="1460.79" y2="1580.12"/>
  <line id="right-margin-Light-L" style="fill:none;stroke:#00AEEF;stroke-width:0.5;opacity:1.0;" x1="1227.08" x2="1227.08" y1="1460.79" y2="1580.12"/>
  <line id="left-margin-Regular-L" style="fill:none;stroke:#00AEEF;stroke-width:0.5;opacity:1.0;" x1="1374.97" x2="1374.97" y1="1460.79" y2="1580.12"/>
  <line id="right-margin-Regular-L" style="fill:none;stroke:#00AEEF;stroke-width:0.5;opacity:1.0;" x1="1524.72" x2="1524.72" y1="1460.79" y2="1580.12"/>
  <line id="left-margin-Medium-L" style="fill:none;stroke:#00AEEF;stroke-width:0.5;opacity:1.0;" x1="1670.87" x2="1670.87" y1="1460.79" y2="1580.12"/>
  <line id="right-margin-Medium-L" style="fill:none;stroke:#00AEEF;stroke-width:0.5;opacity:1.0;" x1="1822.24" x2="1822.24" y1="1460.79" y2="1580.12"/>
  <line id="left-margin-Semibold-L" style="fill:none;stroke:#00AEEF;stroke-width:0.5;opacity:1.0;" x1="1966.97" x2="1966.97" y1="1460.79" y2="1580.12"/>
  <line id="right-margin-Semibold-L" style="fill:none;stroke:#00AEEF;stroke-width:0.5;opacity:1.0;" x1="2119.56" x2="2119.56" y1="1460.79" y2="1580.12"/>
  <line id="left-margin-Bold-L" style="fill:none;stroke:#00AEEF;stroke-width:0.5;opacity:1.0;" x1="2262.85" x2="2262.85" y1="1460.79" y2="1580.12"/>
  <line id="right-margin-Bold-L" style="fill:none;stroke:#00AEEF;stroke-width:0.5;opacity:1.0;" x1="2417.1" x2="2417.1" y1="1460.79" y2="1580.12"/>
  <line id="left-margin-Heavy-L" style="fill:none;stroke:#00AEEF;stroke-width:0.5;opacity:1.0;" x1="2558.39" x2="2558.39" y1="1460.79" y2="1580.12"/>
  <line id="right-margin-Heavy-L" style="fill:none;stroke:#00AEEF;stroke-width:0.5;opacity:1.0;" x1="2714.98" x2="2714.98" y1="1460.79" y2="1580.12"/>
  <line id="left-margin-Black-L" style="fill:none;stroke:#00AEEF;stroke-width:0.5;opacity:1.0;" x1="2854.05" x2="2854.05" y1="1460.79" y2="1580.12"/>
  <line id="right-margin-Black-L" style="fill:none;stroke:#00AEEF;stroke-width:0.5;opacity:1.0;" x1="3012.75" x2="3012.75" y1="1460.79" y2="1580.12"/>
 </g>
 <g id="Symbols">
  <g id="Black-L" transform="matrix(1 0 0 1 2854.05 1556)">
   <path class="hierarchical-0:secondary SFSymbolsPreview4D4D4D" d="M79.3457 32.8613Q90.5762 32.8613 100.757 29.3945Q110.938 25.9277 119.458 19.6777Q127.979 13.4277 134.229 4.90723Q140.479-3.61328 143.945-13.7939Q147.412-23.9746 147.412-35.2051Q147.412-46.4355 143.945-56.6162Q140.479-66.7969 134.204-75.3174Q127.93-83.8379 119.434-90.1123Q110.938-96.3867 100.732-99.8291Q90.5273-103.271 79.2969-103.271Q68.1152-103.271 57.9102-99.8291Q47.7051-96.3867 39.209-90.1123Q30.7129-83.8379 24.4385-75.3174Q18.1641-66.7969 14.7217-56.6162Q11.2793-46.4355 11.2793-35.2051Q11.2793-23.9746 14.7217-13.7939Q18.1641-3.61328 24.4385 4.90723Q30.7129 13.4277 39.2334 19.6777Q47.7539 25.9277 57.9346 29.3945Q68.1152 32.8613 79.3457 32.8613ZM79.3457 12.4023Q71.4355 12.4023 64.2822 10.0098Q57.1289 7.61719 51.1963 3.24707Q45.2637-1.12305 40.8936-7.08008Q36.5234-13.0371 34.1309-20.166Q31.7383-27.2949 31.7383-35.2051Q31.7383-43.1152 34.1309-50.2686Q36.5234-57.4219 40.8936-63.3545Q45.2637-69.2871 51.1963-73.6572Q57.1289-78.0273 64.2578-80.4199Q71.3867-82.8125 79.2969-82.8125Q87.207-82.8125 94.3604-80.4199Q101.514-78.0273 107.471-73.6572Q113.428-69.2871 117.798-63.3545Q122.168-57.4219 124.561-50.2686Q126.953-43.1152 126.953-35.2051Q126.953-27.2949 124.561-20.166Q122.168-13.0371 117.798-7.08008Q113.428-1.12305 107.495 3.24707Q101.562 7.61719 94.4092 10.0098Q87.2559 12.4023 79.3457 12.4023Z"/>
   <path class="hierarchical-1:primary SFSymbolsPreview212121" d="M51.8066-32.4707Q51.8066-26.7578 53.9551-21.7529Q56.1035-16.748 59.8877-12.9395Q63.6719-9.13086 68.6523-6.98242Q73.6328-4.83398 79.2969-4.83398Q84.9609-4.83398 89.9414-6.98242Q94.9219-9.13086 98.7061-12.9395Q102.49-16.748 104.639-21.7529Q106.787-26.7578 106.787-32.4219Q106.787-35.0098 104.956-36.8164Q103.125-38.623 100.586-38.623Q97.9492-38.623 96.1182-36.8164Q94.2871-35.0098 94.2871-32.4219Q94.2871-28.2715 92.2607-24.8535Q90.2344-21.4355 86.8408-19.4336Q83.4473-17.4316 79.2969-17.4316Q75.1465-17.4316 71.7529-19.458Q68.3594-21.4844 66.3574-24.8779Q64.3555-28.2715 64.3555-32.4219Q64.3555-35.6934 65.5762-38.5742Q66.7969-41.4551 68.9453-43.4082Q71.0938-45.3613 73.8281-45.8984Q74.0723-45.9473 74.3896-46.0938Q74.707-46.2402 75.0488-46.3867L73.6328-44.8242Q72.9004-43.7988 72.9004-41.9922Q72.9004-39.2578 74.585-37.793Q76.2695-36.3281 78.7109-36.3281Q81.25-36.3281 82.8613-38.0371L93.457-48.6816Q95.166-50.3906 95.1416-52.8564Q95.1172-55.3223 93.5059-56.9336L82.959-67.627Q82.1289-68.457 81.0059-69.0674Q79.8828-69.6777 78.5645-69.6777Q75.7812-69.6777 74.292-68.0176Q72.8027-66.3574 72.8027-64.4043Q72.8027-63.0371 73.291-62.207Q73.7793-61.377 74.2676-60.6934L75.2441-59.5215Q75.0488-59.5215 74.7803-59.4727Q74.5117-59.4238 74.2676-59.375Q69.6289-58.7402 65.5762-56.3965Q61.5234-54.0527 58.4229-50.415Q55.3223-46.7773 53.5645-42.1875Q51.8066-37.5977 51.8066-32.4707Z"/>
  </g>
  <g id="Heavy-L" transform="matrix(1 0 0 1 2558.39 1556)">
   <path class="hierarchical-0:secondary SFSymbolsPreview4D4D4D" d="M78.2715 31.7871Q89.3555 31.7871 99.3652 28.3691Q109.375 24.9512 117.749 18.7988Q126.123 12.6465 132.3 4.24805Q138.477-4.15039 141.895-14.1602Q145.312-24.1699 145.312-35.2051Q145.312-46.2402 141.895-56.2744Q138.477-66.3086 132.3-74.6826Q126.123-83.0566 117.749-89.2578Q109.375-95.459 99.3408-98.8525Q89.3066-102.246 78.2227-102.246Q67.2363-102.246 57.2021-98.8525Q47.168-95.459 38.7939-89.2578Q30.4199-83.0566 24.2432-74.6826Q18.0664-66.3086 14.6729-56.2744Q11.2793-46.2402 11.2793-35.2051Q11.2793-24.1699 14.6729-14.1602Q18.0664-4.15039 24.2432 4.24805Q30.4199 12.6465 38.8184 18.7988Q47.2168 24.9512 57.2266 28.3691Q67.2363 31.7871 78.2715 31.7871ZM78.2715 14.0137Q70.1172 14.0137 62.7197 11.5479Q55.3223 9.08203 49.1943 4.56543Q43.0664 0.0488281 38.5498-6.12793Q34.0332-12.3047 31.543-19.6777Q29.0527-27.0508 29.0527-35.2051Q29.0527-43.4082 31.543-50.8057Q34.0332-58.2031 38.5254-64.3311Q43.0176-70.459 49.1699-74.9756Q55.3223-79.4922 62.6953-81.9824Q70.0684-84.4727 78.2227-84.4727Q86.4258-84.4727 93.8232-81.9824Q101.221-79.4922 107.373-74.9756Q113.525-70.459 118.042-64.3311Q122.559-58.2031 125.049-50.8057Q127.539-43.4082 127.539-35.2051Q127.539-27.0508 125.049-19.6777Q122.559-12.3047 118.042-6.12793Q113.525 0.0488281 107.397 4.56543Q101.27 9.08203 93.8721 11.5479Q86.4746 14.0137 78.2715 14.0137Z"/>
   <path class="hierarchical-1:primary SFSymbolsPreview212121" d="M50.6836-32.4219Q50.6836-26.709 52.832-21.6797Q54.9805-16.6504 58.7646-12.8418Q62.5488-9.0332 67.5537-6.88477Q72.5586-4.73633 78.2227-4.73633Q83.9355-4.73633 88.916-6.88477Q93.8965-9.0332 97.6807-12.8418Q101.465-16.6504 103.613-21.6553Q105.762-26.6602 105.762-32.373Q105.762-34.7168 104.102-36.3525Q102.441-37.9883 100.146-37.9883Q97.7539-37.9883 96.0938-36.3525Q94.4336-34.7168 94.4336-32.373Q94.4336-27.8809 92.2607-24.1699Q90.0879-20.459 86.4014-18.2861Q82.7148-16.1133 78.2227-16.1133Q73.7305-16.1133 70.0684-18.3105Q66.4062-20.5078 64.2334-24.1943Q62.0605-27.8809 62.0605-32.373Q62.0605-36.1816 63.623-39.4531Q65.1855-42.7246 67.9199-44.873Q70.6543-47.0215 74.0723-47.4121Q74.4629-47.4609 74.9268-47.5586Q75.3906-47.6562 75.8301-47.7051L72.998-44.8242Q72.168-43.75 72.168-41.9922Q72.168-39.5996 73.7061-38.2324Q75.2441-36.8652 77.4414-36.8652Q79.7363-36.8652 81.2012-38.4277L92.2363-49.5117Q93.7988-51.0742 93.7744-53.3447Q93.75-55.6152 92.2852-57.0801L81.2988-68.2129Q80.5664-68.9941 79.541-69.5312Q78.5156-70.0684 77.3438-70.0684Q74.8535-70.0684 73.4863-68.5547Q72.1191-67.041 72.1191-65.1855Q72.1191-64.0137 72.5586-63.208Q72.998-62.4023 73.4375-61.7676L75.5859-59.5215Q75.293-59.5215 74.9023-59.4971Q74.5117-59.4727 74.1699-59.4238Q69.3359-58.9355 65.1123-56.665Q60.8887-54.3945 57.6416-50.7324Q54.3945-47.0703 52.5391-42.3828Q50.6836-37.6953 50.6836-32.4219Z"/>
  </g>
  <g id="Bold-L" transform="matrix(1 0 0 1 2262.85 1556)">
   <path class="hierarchical-0:secondary SFSymbolsPreview4D4D4D" d="M77.0996 30.6152Q87.9395 30.6152 97.7783 27.2461Q107.617 23.877 115.869 17.8223Q124.121 11.7676 130.176 3.51562Q136.23-4.73633 139.6-14.5752Q142.969-24.4141 142.969-35.2539Q142.969-46.0938 139.6-55.9326Q136.23-65.7715 130.151-73.999Q124.072-82.2266 115.845-88.3057Q107.617-94.3848 97.7539-97.7295Q87.8906-101.074 77.0508-101.074Q66.2598-101.074 56.3965-97.7295Q46.5332-94.3848 38.3301-88.3057Q30.127-82.2266 24.0479-73.999Q17.9688-65.7715 14.624-55.9326Q11.2793-46.0938 11.2793-35.2539Q11.2793-24.4141 14.624-14.5752Q17.9688-4.73633 24.0479 3.51562Q30.127 11.7676 38.3545 17.8223Q46.582 23.877 56.4209 27.2461Q66.2598 30.6152 77.0996 30.6152ZM77.0996 15.8203Q68.6523 15.8203 60.9863 13.2568Q53.3203 10.6934 46.9482 6.00586Q40.5762 1.31836 35.8887-5.07812Q31.2012-11.4746 28.6377-19.1162Q26.0742-26.7578 26.0742-35.2539Q26.0742-43.75 28.6377-51.416Q31.2012-59.082 35.8887-65.4541Q40.5762-71.8262 46.9238-76.4893Q53.2715-81.1523 60.9375-83.7158Q68.6035-86.2793 77.0508-86.2793Q85.5469-86.2793 93.2129-83.7158Q100.879-81.1523 107.275-76.4893Q113.672-71.8262 118.335-65.4541Q122.998-59.082 125.586-51.416Q128.174-43.75 128.174-35.2539Q128.174-26.7578 125.61-19.1162Q123.047-11.4746 118.359-5.07812Q113.672 1.31836 107.3 6.00586Q100.928 10.6934 93.2617 13.2568Q85.5957 15.8203 77.0996 15.8203Z"/>
   <path class="hierarchical-1:primary SFSymbolsPreview212121" d="M49.4629-32.4219Q49.4629-26.6113 51.6113-21.582Q53.7598-16.5527 57.5684-12.7197Q61.377-8.88672 66.3818-6.73828Q71.3867-4.58984 77.0996-4.58984Q82.8125-4.58984 87.8174-6.73828Q92.8223-8.88672 96.6064-12.7197Q100.391-16.5527 102.539-21.5576Q104.688-26.5625 104.688-32.3242Q104.688-34.375 103.223-35.8154Q101.758-37.2559 99.707-37.2559Q97.6074-37.2559 96.1426-35.8154Q94.6777-34.375 94.6777-32.3242Q94.6777-27.3926 92.3096-23.3887Q89.9414-19.3848 85.9619-17.0166Q81.9824-14.6484 77.0996-14.6484Q72.2168-14.6484 68.2129-17.0166Q64.209-19.3848 61.8652-23.3887Q59.5215-27.3926 59.5215-32.3242Q59.5215-36.7676 61.4746-40.4785Q63.4277-44.1895 66.7969-46.5088Q70.166-48.8281 74.3652-49.1211Q74.9512-49.1211 75.5859-49.1699Q76.2207-49.2188 76.7578-49.2188L72.3633-44.7754Q71.4355-43.75 71.4355-42.041Q71.4355-39.9414 72.7783-38.7207Q74.1211-37.5 76.123-37.5Q78.0762-37.5 79.3945-38.8672L90.9668-50.4883Q92.334-51.8555 92.3096-53.8818Q92.2852-55.9082 90.9668-57.2754L79.541-68.8965Q78.8574-69.5801 77.9541-70.0439Q77.0508-70.5078 76.0254-70.5078Q73.877-70.5078 72.6318-69.165Q71.3867-67.8223 71.3867-66.1133Q71.3867-65.0879 71.7529-64.3311Q72.1191-63.5742 72.6074-62.9883L75.9766-59.4727Q75.5859-59.5215 75.0977-59.5459Q74.6094-59.5703 74.1211-59.5215Q69.0918-59.2285 64.6484-57.0068Q60.2051-54.7852 56.7871-51.0986Q53.3691-47.4121 51.416-42.627Q49.4629-37.8418 49.4629-32.4219Z"/>
  </g>
  <g id="Semibold-L" transform="matrix(1 0 0 1 1966.97 1556)">
   <path class="hierarchical-0:secondary SFSymbolsPreview4D4D4D" d="M76.2695 29.7852Q86.9629 29.7852 96.6797 26.4648Q106.396 23.1445 114.551 17.1631Q122.705 11.1816 128.687 3.02734Q134.668-5.12695 137.988-14.8438Q141.309-24.5605 141.309-35.2539Q141.309-45.9473 137.988-55.6641Q134.668-65.3809 128.662-73.5107Q122.656-81.6406 114.526-87.6465Q106.396-93.6523 96.6553-96.9727Q86.9141-100.293 76.2207-100.293Q65.5273-100.293 55.8105-96.9727Q46.0938-93.6523 37.9883-87.6465Q29.8828-81.6406 23.877-73.5107Q17.8711-65.3809 14.5752-55.6641Q11.2793-45.9473 11.2793-35.2539Q11.2793-24.5605 14.5996-14.8438Q17.9199-5.12695 23.9014 3.02734Q29.8828 11.1816 38.0127 17.1631Q46.1426 23.1445 55.8594 26.4648Q65.5762 29.7852 76.2695 29.7852ZM76.2695 17.041Q67.627 17.041 59.7656 14.4043Q51.9043 11.7676 45.3857 6.98242Q38.8672 2.19727 34.0576-4.3457Q29.248-10.8887 26.6357-18.7256Q24.0234-26.5625 24.0234-35.2539Q24.0234-43.9453 26.6357-51.8066Q29.248-59.668 34.0332-66.1865Q38.8184-72.7051 45.3369-77.4902Q51.8555-82.2754 59.7168-84.9121Q67.5781-87.5488 76.2207-87.5488Q84.9609-87.5488 92.7979-84.9121Q100.635-82.2754 107.178-77.4902Q113.721-72.7051 118.506-66.1865Q123.291-59.668 125.928-51.8066Q128.564-43.9453 128.564-35.2539Q128.613-26.5625 126.001-18.7256Q123.389-10.8887 118.579-4.3457Q113.77 2.19727 107.227 6.98242Q100.684 11.7676 92.8467 14.4043Q85.0098 17.041 76.2695 17.041Z"/>
   <path class="hierarchical-1:primary SFSymbolsPreview212121" d="M48.584-32.4219Q48.584-26.6113 50.7324-21.5576Q52.8809-16.5039 56.6895-12.6709Q60.498-8.83789 65.5029-6.68945Q70.5078-4.54102 76.2207-4.54102Q81.9824-4.54102 87.0117-6.68945Q92.041-8.83789 95.8252-12.6709Q99.6094-16.5039 101.758-21.5332Q103.906-26.5625 103.906-32.3242Q103.906-34.1797 102.563-35.498Q101.221-36.8164 99.3652-36.8164Q97.4609-36.8164 96.1182-35.498Q94.7754-34.1797 94.7754-32.3242Q94.7754-27.0996 92.2852-22.9004Q89.7949-18.7012 85.5957-16.1865Q81.3965-13.6719 76.2207-13.6719Q71.0938-13.6719 66.8945-16.1621Q62.6953-18.6523 60.2051-22.876Q57.7148-27.0996 57.7148-32.3242Q57.7148-37.1582 59.9365-41.1865Q62.1582-45.2148 65.9912-47.6807Q69.8242-50.1465 74.5117-50.293Q75.2441-50.3418 75.9766-50.3418Q76.709-50.3418 77.3438-50.2441L71.875-44.8242Q70.8984-43.75 70.8984-42.0898Q70.8984-40.2344 72.0947-39.0869Q73.291-37.9395 75.0977-37.9395Q76.8555-37.9395 78.0762-39.209L89.9902-51.1719Q91.2598-52.3926 91.2354-54.2725Q91.2109-56.1523 90.0391-57.4219L78.2227-69.3848Q77.5879-70.0195 76.7822-70.4346Q75.9766-70.8496 75.0488-70.8496Q73.1445-70.8496 71.9727-69.6289Q70.8008-68.4082 70.8008-66.748Q70.8008-65.8691 71.1426-65.1367Q71.4844-64.4043 71.9238-63.8184L76.1719-59.5215Q75.7324-59.5703 75.1709-59.5947Q74.6094-59.6191 74.0234-59.6191Q68.8477-59.4238 64.2822-57.251Q59.7168-55.0781 56.1768-51.3672Q52.6367-47.6562 50.6104-42.8223Q48.584-37.9883 48.584-32.4219Z"/>
  </g>
  <g id="Medium-L" transform="matrix(1 0 0 1 1670.87 1556)">
   <path class="hierarchical-0:secondary SFSymbolsPreview4D4D4D" d="M75.6836 29.1504Q86.2305 29.1504 95.8496 25.8545Q105.469 22.5586 113.55 16.626Q121.631 10.6934 127.563 2.63672Q133.496-5.41992 136.792-15.0635Q140.088-24.707 140.088-35.2539Q140.088-45.8496 136.792-55.4688Q133.496-65.0879 127.539-73.1445Q121.582-81.2012 113.525-87.1582Q105.469-93.1152 95.8252-96.3867Q86.1816-99.6582 75.6348-99.6582Q65.0391-99.6582 55.4199-96.3867Q45.8008-93.1152 37.7441-87.1582Q29.6875-81.2012 23.7549-73.1445Q17.8223-65.0879 14.5508-55.4688Q11.2793-45.8496 11.2793-35.2539Q11.2793-24.707 14.5508-15.0635Q17.8223-5.41992 23.7549 2.63672Q29.6875 10.6934 37.7686 16.626Q45.8496 22.5586 55.4688 25.8545Q65.0879 29.1504 75.6836 29.1504ZM75.6836 18.0176Q66.8457 18.0176 58.8379 15.332Q50.8301 12.6465 44.2139 7.76367Q37.5977 2.88086 32.6904-3.78418Q27.7832-10.4492 25.1221-18.4326Q22.4609-26.416 22.4609-35.2539Q22.4609-44.1406 25.1221-52.124Q27.7832-60.1074 32.666-66.748Q37.5488-73.3887 44.165-78.2715Q50.7812-83.1543 58.7891-85.8154Q66.7969-88.4766 75.6348-88.4766Q84.4727-88.4766 92.4805-85.8154Q100.488-83.1543 107.129-78.2715Q113.77-73.3887 118.652-66.748Q123.535-60.1074 126.221-52.124Q128.906-44.1406 128.906-35.2539Q128.955-26.416 126.294-18.4326Q123.633-10.4492 118.726-3.78418Q113.818 2.88086 107.178 7.76367Q100.537 12.6465 92.5293 15.332Q84.5215 18.0176 75.6836 18.0176Z"/>
   <path class="hierarchical-1:primary SFSymbolsPreview212121" d="M47.9004-32.4219Q47.9004-26.5625 50.0488-21.5088Q52.1973-16.4551 56.0059-12.6221Q59.8145-8.78906 64.8193-6.64062Q69.8242-4.49219 75.5859-4.49219Q81.3965-4.49219 86.4014-6.64062Q91.4062-8.78906 95.1904-12.6221Q98.9746-16.4551 101.123-21.46Q103.271-26.4648 103.271-32.2754Q103.271-33.9844 102.026-35.2051Q100.781-36.4258 99.0723-36.4258Q97.3145-36.4258 96.0938-35.2051Q94.873-33.9844 94.873-32.2754Q94.873-26.8555 92.2852-22.4854Q89.6973-18.1152 85.3271-15.5273Q80.957-12.9395 75.5859-12.9395Q70.2148-12.9395 65.8447-15.5029Q61.4746-18.0664 58.9111-22.4609Q56.3477-26.8555 56.3477-32.2754Q56.3477-37.4512 58.7891-41.7236Q61.2305-45.9961 65.3809-48.5352Q69.5312-51.0742 74.6094-51.1719Q75.4395-51.2207 76.2695-51.1719Q77.0996-51.123 77.7832-51.0254L71.4844-44.7754Q70.459-43.75 70.459-42.1387Q70.459-40.4297 71.582-39.3555Q72.7051-38.2812 74.3652-38.2812Q75.9277-38.2812 77.0508-39.4043L89.2578-51.709Q90.4297-52.7832 90.4053-54.5654Q90.3809-56.3477 89.2578-57.5195L77.2461-69.7754Q76.6602-70.3613 75.9277-70.7275Q75.1953-71.0938 74.3164-71.0938Q72.6074-71.0938 71.4844-69.9463Q70.3613-68.7988 70.3613-67.2363Q70.3613-66.4062 70.6787-65.7227Q70.9961-65.0391 71.4355-64.4531L76.3672-59.4727Q75.8301-59.5703 75.1953-59.6191Q74.5605-59.668 73.9258-59.668Q68.7012-59.5703 63.9893-57.4219Q59.2773-55.2734 55.6641-51.5625Q52.0508-47.8516 49.9756-42.9443Q47.9004-38.0371 47.9004-32.4219Z"/>
  </g>
  <g id="Regular-L" transform="matrix(1 0 0 1 1374.97 1556)">
   <path class="hierarchical-0:secondary SFSymbolsPreview4D4D4D" d="M74.8535 28.3203Q85.3027 28.3203 94.7998 25.0732Q104.297 21.8262 112.256 15.9668Q120.215 10.1074 126.099 2.14844Q131.982-5.81055 135.229-15.332Q138.477-24.8535 138.477-35.2539Q138.477-45.7031 135.229-55.2002Q131.982-64.6973 126.099-72.6562Q120.215-80.6152 112.256-86.499Q104.297-92.3828 94.7754-95.6299Q85.2539-98.877 74.8047-98.877Q64.3555-98.877 54.8584-95.6299Q45.3613-92.3828 37.4268-86.499Q29.4922-80.6152 23.6084-72.6562Q17.7246-64.6973 14.502-55.2002Q11.2793-45.7031 11.2793-35.2539Q11.2793-24.8535 14.5264-15.332Q17.7734-5.81055 23.6328 2.14844Q29.4922 10.1074 37.4512 15.9668Q45.4102 21.8262 54.9072 25.0732Q64.4043 28.3203 74.8535 28.3203ZM74.8535 19.2383Q65.8203 19.2383 57.6416 16.4795Q49.4629 13.7207 42.6758 8.74023Q35.8887 3.75977 30.8838-3.05176Q25.8789-9.86328 23.1445-18.042Q20.4102-26.2207 20.4102-35.2539Q20.4102-44.3359 23.1445-52.5146Q25.8789-60.6934 30.8594-67.5049Q35.8398-74.3164 42.627-79.2969Q49.4141-84.2773 57.5928-87.0117Q65.7715-89.7461 74.8047-89.7461Q83.8867-89.7461 92.0654-87.0117Q100.244-84.2773 107.056-79.2969Q113.867-74.3164 118.848-67.5049Q123.828-60.6934 126.587-52.5146Q129.346-44.3359 129.346-35.2539Q129.395-26.2207 126.66-18.042Q123.926-9.86328 118.921-3.05176Q113.916 3.75977 107.104 8.74023Q100.293 13.7207 92.1143 16.4795Q83.9355 19.2383 74.8535 19.2383Z"/>
   <path class="hierarchical-1:primary SFSymbolsPreview212121" d="M47.0703-32.373Q47.0703-26.5137 49.2188-21.4355Q51.3672-16.3574 55.1758-12.5244Q58.9844-8.69141 64.0137-6.54297Q69.043-4.39453 74.8047-4.39453Q80.6152-4.39453 85.6445-6.54297Q90.6738-8.69141 94.458-12.5244Q98.2422-16.3574 100.391-21.3867Q102.539-26.416 102.539-32.2266Q102.539-33.7402 101.416-34.8389Q100.293-35.9375 98.7793-35.9375Q97.2168-35.9375 96.1182-34.8389Q95.0195-33.7402 95.0195-32.2266Q95.0195-26.5625 92.3096-21.9727Q89.5996-17.3828 85.0098-14.6484Q80.4199-11.9141 74.8047-11.9141Q69.1895-11.9141 64.5996-14.624Q60.0098-17.334 57.2998-21.9482Q54.5898-26.5625 54.5898-32.2266Q54.5898-37.8418 57.2998-42.4072Q60.0098-46.9727 64.5996-49.6582Q69.1895-52.3438 74.8047-52.3438Q75.7812-52.3438 76.709-52.2705Q77.6367-52.1973 78.418-52.0508L71.0449-44.7754Q69.9219-43.7012 69.9219-42.1387Q69.9219-40.6738 70.9229-39.6729Q71.9238-38.6719 73.4375-38.6719Q74.8047-38.6719 75.8301-39.6973L88.3789-52.3438Q89.4043-53.3203 89.3799-54.9316Q89.3555-56.543 88.3789-57.6172L76.0254-70.2148Q75.4883-70.752 74.8291-71.0693Q74.1699-71.3867 73.3887-71.3867Q71.9238-71.3867 70.8984-70.3613Q69.873-69.3359 69.873-67.8223Q69.873-67.1387 70.1416-66.4795Q70.4102-65.8203 70.8496-65.2832L76.6113-59.4727Q76.0254-59.5703 75.3174-59.6436Q74.6094-59.7168 73.877-59.7168Q68.5059-59.7168 63.6719-57.6172Q58.8379-55.5176 55.1025-51.7822Q51.3672-48.0469 49.2188-43.0908Q47.0703-38.1348 47.0703-32.373Z"/>
  </g>
  <g id="Light-L" transform="matrix(1 0 0 1 1079.18 1556)">
   <path class="hierarchical-0:secondary SFSymbolsPreview4D4D4D" d="M73.9258 27.3926Q84.2285 27.3926 93.6035 24.1943Q102.979 20.9961 110.815 15.2344Q118.652 9.47266 124.438 1.63574Q130.225-6.20117 133.423-15.5762Q136.621-24.9512 136.621-35.2539Q136.621-45.5566 133.423-54.9316Q130.225-64.3066 124.438-72.1436Q118.652-79.9805 110.815-85.7666Q102.979-91.5527 93.6035-94.751Q84.2285-97.9492 73.877-97.9492Q63.5742-97.9492 54.2236-94.751Q44.873-91.5527 37.0361-85.7666Q29.1992-79.9805 23.4131-72.1436Q17.627-64.3066 14.4531-54.9316Q11.2793-45.5566 11.2793-35.2539Q11.2793-24.9512 14.4775-15.5762Q17.6758-6.20117 23.4375 1.63574Q29.1992 9.47266 37.0361 15.2344Q44.873 20.9961 54.248 24.1943Q63.623 27.3926 73.9258 27.3926ZM73.9258 20.5078Q64.6973 20.5078 56.3232 17.6758Q47.9492 14.8438 40.9912 9.74121Q34.0332 4.63867 28.9307-2.31934Q23.8281-9.27734 21.0205-17.6514Q18.2129-26.0254 18.2129-35.2539Q18.2129-44.5312 21.0205-52.8809Q23.8281-61.2305 28.9307-68.2129Q34.0332-75.1953 40.9912-80.2979Q47.9492-85.4004 56.2988-88.208Q64.6484-91.0156 73.877-91.0156Q83.1543-91.0156 91.5283-88.208Q99.9023-85.4004 106.86-80.2979Q113.818-75.1953 118.945-68.2129Q124.072-61.2305 126.88-52.8809Q129.688-44.5312 129.688-35.2539Q129.736-26.0254 126.929-17.6514Q124.121-9.27734 118.994-2.31934Q113.867 4.63867 106.909 9.74121Q99.9512 14.8438 91.5771 17.6758Q83.2031 20.5078 73.9258 20.5078Z"/>
   <path class="hierarchical-1:primary SFSymbolsPreview212121" d="M46.6309-32.373Q46.6309-26.6113 48.7305-21.6309Q50.8301-16.6504 54.5654-12.8906Q58.3008-9.13086 63.2568-7.03125Q68.2129-4.93164 73.877-4.93164Q79.6387-4.93164 84.5703-7.03125Q89.502-9.13086 93.2129-12.8906Q96.9238-16.6504 99.0234-21.6064Q101.123-26.5625 101.123-32.2754Q101.123-33.4961 100.22-34.375Q99.3164-35.2539 98.1445-35.2539Q96.875-35.2539 95.9961-34.375Q95.1172-33.4961 95.1172-32.2754Q95.1172-26.3184 92.2852-21.4844Q89.4531-16.6504 84.6436-13.7695Q79.834-10.8887 73.877-10.8887Q67.9688-10.8887 63.1348-13.7451Q58.3008-16.6016 55.4443-21.46Q52.5879-26.3184 52.5879-32.2754Q52.5879-38.2324 55.4443-43.0176Q58.3008-47.8027 63.1348-50.6348Q67.9688-53.4668 73.877-53.4668Q75.3906-53.4668 76.7578-53.3447Q78.125-53.2227 79.248-52.9785L70.2148-43.9941Q69.1895-43.0176 69.1895-41.6992Q69.1895-40.5273 70.0195-39.6973Q70.8496-38.8672 72.0703-38.8672Q73.1934-38.8672 73.9746-39.6973L86.9629-52.9297Q87.793-53.7598 87.793-55.127Q87.793-56.4941 86.9629-57.4219L74.2188-70.459Q73.7793-70.9473 73.2178-71.2402Q72.6562-71.5332 72.0215-71.5332Q70.8008-71.5332 69.9707-70.7031Q69.1406-69.873 69.1406-68.6035Q69.1406-68.0664 69.3359-67.5293Q69.5312-66.9922 69.9219-66.5039L77.4414-58.9844Q76.5625-59.082 75.4883-59.2041Q74.4141-59.3262 73.291-59.3262Q67.8711-59.3262 63.0371-57.2754Q58.2031-55.2246 54.5166-51.5381Q50.8301-47.8516 48.7305-42.9688Q46.6309-38.0859 46.6309-32.373Z"/>
  </g>
  <g id="Thin-L" transform="matrix(1 0 0 1 783.693 1556)">
   <path class="hierarchical-0:secondary SFSymbolsPreview4D4D4D" d="M72.7051 26.1719Q82.8613 26.1719 92.041 23.0469Q101.221 19.9219 108.911 14.2822Q116.602 8.64258 122.266 0.952148Q127.93-6.73828 131.055-15.9424Q134.18-25.1465 134.18-35.2539Q134.18-45.4102 131.055-54.5898Q127.93-63.7695 122.29-71.46Q116.65-79.1504 108.936-84.8145Q101.221-90.4785 92.0166-93.6035Q82.8125-96.7285 72.7051-96.7285Q62.5488-96.7285 53.3691-93.6035Q44.1895-90.4785 36.499-84.8145Q28.8086-79.1504 23.1689-71.46Q17.5293-63.7695 14.4043-54.5898Q11.2793-45.4102 11.2793-35.2539Q11.2793-25.1465 14.4043-15.9424Q17.5293-6.73828 23.1689 0.952148Q28.8086 8.64258 36.5234 14.2822Q44.2383 19.9219 53.418 23.0469Q62.5977 26.1719 72.7051 26.1719ZM72.7051 22.168Q63.2324 22.168 54.6143 19.2627Q45.9961 16.3574 38.8184 11.084Q31.6406 5.81055 26.3428-1.36719Q21.0449-8.54492 18.1641-17.1631Q15.2832-25.7812 15.2832-35.2539Q15.2832-44.7754 18.1641-53.3936Q21.0449-62.0117 26.3428-69.1895Q31.6406-76.3672 38.8184-81.6406Q45.9961-86.9141 54.5898-89.8193Q63.1836-92.7246 72.7051-92.7246Q82.2266-92.7246 90.8203-89.8193Q99.4141-86.9141 106.616-81.6406Q113.818-76.3672 119.092-69.1895Q124.365-62.0117 127.271-53.3936Q130.176-44.7754 130.176-35.2539Q130.176-25.7812 127.271-17.1631Q124.365-8.54492 119.092-1.36719Q113.818 5.81055 106.641 11.084Q99.4629 16.3574 90.8447 19.2627Q82.2266 22.168 72.7051 22.168Z"/>
   <path class="hierarchical-1:primary SFSymbolsPreview212121" d="M46.0938-32.373Q46.0938-26.7578 48.1445-21.8994Q50.1953-17.041 53.833-13.3789Q57.4707-9.7168 62.3047-7.69043Q67.1387-5.66406 72.7051-5.66406Q78.3203-5.66406 83.1543-7.69043Q87.9883-9.7168 91.6016-13.3789Q95.2148-17.041 97.2412-21.8994Q99.2676-26.7578 99.2676-32.373Q99.2676-33.1543 98.7061-33.7402Q98.1445-34.3262 97.3633-34.3262Q96.4844-34.3262 95.9229-33.7402Q95.3613-33.1543 95.3613-32.373Q95.3613-25.9766 92.334-20.8252Q89.3066-15.6738 84.1797-12.6221Q79.0527-9.57031 72.7051-9.57031Q66.3574-9.57031 61.2305-12.5977Q56.1035-15.625 53.0762-20.8008Q50.0488-25.9766 50.0488-32.373Q50.0488-38.6719 53.0762-43.7744Q56.1035-48.877 61.2305-51.8799Q66.3574-54.8828 72.7051-54.8828Q74.8535-54.8828 76.8066-54.7119Q78.7598-54.541 80.3711-54.1504L69.1406-42.9199Q68.3105-42.0898 68.3105-41.0645Q68.3105-40.2832 68.8721-39.7217Q69.4336-39.1602 70.3125-39.1602Q71.0449-39.1602 71.582-39.6973L85.1074-53.7109Q85.7422-54.3457 85.7666-55.3467Q85.791-56.3477 85.1074-57.1289L71.9238-70.752Q71.5332-71.1426 71.1182-71.4111Q70.7031-71.6797 70.2148-71.6797Q69.3848-71.6797 68.7988-71.0938Q68.2129-70.5078 68.2129-69.6289Q68.2129-69.2871 68.3105-68.8965Q68.4082-68.5059 68.7988-68.1152L78.6133-58.252Q77.2461-58.4961 75.7324-58.6426Q74.2188-58.7891 72.6074-58.7891Q67.0898-58.7891 62.2559-56.7871Q57.4219-54.7852 53.8086-51.1719Q50.1953-47.5586 48.1445-42.749Q46.0938-37.9395 46.0938-32.373Z"/>
  </g>
  <g id="Ultralight-L" transform="matrix(1 0 0 1 487.592 1556)">
   <path class="hierarchical-0:secondary SFSymbolsPreview4D4D4D" d="M72.0703 25.5371Q82.1289 25.5371 91.2354 22.4609Q100.342 19.3848 107.935 13.7939Q115.527 8.20312 121.143 0.585938Q126.758-7.03125 129.858-16.1133Q132.959-25.1953 132.959-35.2539Q132.959-45.3125 129.858-54.4189Q126.758-63.5254 121.167-71.1182Q115.576-78.7109 107.959-84.3262Q100.342-89.9414 91.2354-93.0176Q82.1289-96.0938 72.0703-96.0938Q62.0605-96.0938 52.9541-93.0176Q43.8477-89.9414 36.2305-84.3262Q28.6133-78.7109 23.0225-71.1182Q17.4316-63.5254 14.3555-54.4189Q11.2793-45.3125 11.2793-35.2539Q11.2793-25.1953 14.3555-16.1133Q17.4316-7.03125 23.0225 0.585938Q28.6133 8.20312 36.2305 13.7939Q43.8477 19.3848 52.9541 22.4609Q62.0605 25.5371 72.0703 25.5371ZM72.0703 23.0469Q62.4512 23.0469 53.7109 20.0928Q44.9707 17.1387 37.6709 11.792Q30.3711 6.44531 25.0244-0.854492Q19.6777-8.1543 16.7236-16.8945Q13.7695-25.6348 13.7695-35.2539Q13.7695-44.9219 16.7236-53.6377Q19.6777-62.3535 25.0244-69.6533Q30.3711-76.9531 37.6953-82.3242Q45.0195-87.6953 53.7354-90.6494Q62.4512-93.6035 72.0703-93.6035Q81.7383-93.6035 90.4785-90.6494Q99.2188-87.6953 106.494-82.3242Q113.77-76.9531 119.141-69.6533Q124.512-62.3535 127.466-53.6377Q130.42-44.9219 130.42-35.2539Q130.371-25.6348 127.441-16.8945Q124.512-8.1543 119.141-0.854492Q113.77 6.44531 106.494 11.792Q99.2188 17.1387 90.4785 20.0928Q81.7383 23.0469 72.0703 23.0469Z"/>
   <path class="hierarchical-1:primary SFSymbolsPreview212121" d="M45.8008-32.373Q45.8008-26.8555 47.8027-22.0703Q49.8047-17.2852 53.418-13.6719Q57.0312-10.0586 61.8164-8.05664Q66.6016-6.05469 72.0703-6.05469Q77.6855-6.05469 82.4219-8.05664Q87.1582-10.0586 90.7471-13.6719Q94.3359-17.2852 96.3379-22.0947Q98.3398-26.9043 98.3398-32.4219Q98.3398-32.959 97.9004-33.3984Q97.4609-33.8379 96.9727-33.8379Q96.2891-33.8379 95.8496-33.3984Q95.4102-32.959 95.4102-32.4219Q95.4102-25.8301 92.334-20.5078Q89.2578-15.1855 83.96-12.0361Q78.6621-8.88672 72.0703-8.88672Q65.5273-8.88672 60.2295-12.0117Q54.9316-15.1367 51.8066-20.459Q48.6816-25.7812 48.6816-32.4219Q48.6816-38.9648 51.8066-44.2139Q54.9316-49.4629 60.2295-52.5635Q65.5273-55.6641 72.0703-55.6641Q74.6094-55.6641 76.8555-55.4688Q79.1016-55.2734 80.957-54.7852L68.6035-42.4316Q67.8223-41.6504 67.8223-40.7715Q67.8223-40.1855 68.2617-39.7461Q68.7012-39.3066 69.3848-39.3066Q69.9707-39.3066 70.3613-39.6973L84.1797-54.1016Q84.6191-54.6875 84.6924-55.5176Q84.7656-56.3477 84.1797-57.0312L70.7031-70.8984Q70.3613-71.2891 70.0195-71.5332Q69.6777-71.7773 69.2871-71.7773Q68.6035-71.7773 68.1641-71.3379Q67.7246-70.8984 67.7246-70.2148Q67.7246-69.9707 67.7734-69.6533Q67.8223-69.3359 68.1641-68.9941L79.1992-57.959Q77.6367-58.1543 75.8789-58.3496Q74.1211-58.5449 72.2168-58.5449Q66.6504-58.5449 61.8408-56.5674Q57.0312-54.5898 53.418-51.001Q49.8047-47.4121 47.8027-42.6758Q45.8008-37.9395 45.8008-32.373Z"/>
  </g>
  <g id="Black-M" transform="matrix(1 0 0 1 2871.32 1126)">
   <path class="hierarchical-0:secondary SFSymbolsPreview4D4D4D" d="M62.0605 18.1152Q73.0957 18.1152 82.7637 13.9648Q92.4316 9.81445 99.7559 2.46582Q107.08-4.88281 111.255-14.5264Q115.43-24.1699 115.43-35.2051Q115.43-46.2402 111.255-55.8838Q107.08-65.5273 99.7559-72.876Q92.4316-80.2246 82.7637-84.375Q73.0957-88.5254 62.0605-88.5254Q51.0742-88.5254 41.4062-84.375Q31.7383-80.2246 24.3896-72.876Q17.041-65.5273 12.8906-55.8838Q8.74023-46.2402 8.74023-35.2051Q8.74023-24.1699 12.8906-14.5264Q17.041-4.88281 24.3896 2.46582Q31.7383 9.81445 41.4062 13.9648Q51.0742 18.1152 62.0605 18.1152ZM62.0605 0.732422Q54.6387 0.732422 48.1201-2.05078Q41.6016-4.83398 36.6455-9.76562Q31.6895-14.6973 28.9062-21.2158Q26.123-27.7344 26.123-35.2051Q26.123-42.6758 28.9062-49.1943Q31.6895-55.7129 36.6455-60.6445Q41.6016-65.5762 48.1201-68.3594Q54.6387-71.1426 62.0605-71.1426Q69.5312-71.1426 76.0498-68.3594Q82.5684-65.5762 87.5-60.6445Q92.4316-55.7129 95.2393-49.1943Q98.0469-42.6758 98.0469-35.2051Q98.0469-27.7344 95.2393-21.2158Q92.4316-14.6973 87.5-9.76562Q82.5684-4.83398 76.0498-2.05078Q69.5312 0.732422 62.0605 0.732422Z"/>
   <path class="hierarchical-1:primary SFSymbolsPreview212121" d="M40.9668-33.1543Q40.9668-27.2949 43.8232-22.4854Q46.6797-17.6758 51.4648-14.8193Q56.25-11.9629 62.0605-11.9629Q67.8711-11.9629 72.6562-14.8193Q77.4414-17.6758 80.2979-22.4854Q83.1543-27.2949 83.1543-33.1055Q83.1543-35.2051 81.665-36.6943Q80.1758-38.1836 78.0762-38.1836Q75.9277-38.1836 74.4385-36.6943Q72.9492-35.2051 72.9492-33.1055Q72.9492-30.0781 71.4844-27.6123Q70.0195-25.1465 67.5537-23.6816Q65.0879-22.2168 62.0605-22.2168Q59.0332-22.2168 56.543-23.6816Q54.0527-25.1465 52.6123-27.6123Q51.1719-30.0781 51.1719-33.1055Q51.1719-35.2539 51.8555-37.2314Q52.5391-39.209 53.8086-40.625Q55.0781-42.041 56.6895-42.5293Q57.1777-42.7246 57.7637-43.0664L57.2754-42.4316Q56.8848-41.6504 56.8848-40.2832Q56.8848-37.9883 58.252-36.8408Q59.6191-35.6934 61.6211-35.6934Q63.7207-35.6934 65.0391-37.1094L72.998-45.1172Q74.4141-46.5332 74.3896-48.5352Q74.3652-50.5371 73.0469-51.8555L65.0879-59.9121Q64.4043-60.5957 63.501-61.1084Q62.5977-61.6211 61.4746-61.6211Q59.1309-61.6211 57.9346-60.2783Q56.7383-58.9355 56.7383-57.373Q56.7383-56.25 57.1533-55.6152Q57.5684-54.9805 57.9102-54.4434L58.3496-53.9062Q58.1543-53.8574 57.9102-53.8086Q57.666-53.7598 57.4707-53.7598Q52.832-52.9297 49.0967-49.9512Q45.3613-46.9727 43.1641-42.6025Q40.9668-38.2324 40.9668-33.1543Z"/>
  </g>
  <g id="Heavy-M" transform="matrix(1 0 0 1 2575.43 1126)">
   <path class="hierarchical-0:secondary SFSymbolsPreview4D4D4D" d="M61.2305 17.2852Q72.0703 17.2852 81.5918 13.1836Q91.1133 9.08203 98.3154 1.85547Q105.518-5.37109 109.644-14.8682Q113.77-24.3652 113.77-35.2051Q113.77-46.0449 109.644-55.542Q105.518-65.0391 98.3154-72.29Q91.1133-79.541 81.5918-83.6182Q72.0703-87.6953 61.2305-87.6953Q50.4395-87.6953 40.918-83.6182Q31.3965-79.541 24.1699-72.29Q16.9434-65.0391 12.8418-55.542Q8.74023-46.0449 8.74023-35.2051Q8.74023-24.3652 12.8418-14.8682Q16.9434-5.37109 24.1699 1.85547Q31.3965 9.08203 40.918 13.1836Q50.4395 17.2852 61.2305 17.2852ZM61.2305 2.05078Q53.5156 2.05078 46.7529-0.854492Q39.9902-3.75977 34.8633-8.8623Q29.7363-13.9648 26.8555-20.7275Q23.9746-27.4902 23.9746-35.2051Q23.9746-42.9688 26.8555-49.7314Q29.7363-56.4941 34.8633-61.5967Q39.9902-66.6992 46.7529-69.5801Q53.5156-72.4609 61.2305-72.4609Q68.9453-72.4609 75.708-69.5801Q82.4707-66.6992 87.5977-61.5967Q92.7246-56.4941 95.6299-49.7314Q98.5352-42.9688 98.5352-35.2051Q98.5352-27.4902 95.6299-20.7275Q92.7246-13.9648 87.6221-8.8623Q82.5195-3.75977 75.7568-0.854492Q68.9941 2.05078 61.2305 2.05078Z"/>
   <path class="hierarchical-1:primary SFSymbolsPreview212121" d="M39.9414-33.1055Q39.9414-27.1973 42.8223-22.3389Q45.7031-17.4805 50.5127-14.5996Q55.3223-11.7188 61.1816-11.7188Q67.041-11.7188 71.875-14.5996Q76.709-17.4805 79.5898-22.3389Q82.4707-27.1973 82.4707-33.0566Q82.4707-34.9609 81.0791-36.3281Q79.6875-37.6953 77.7832-37.6953Q75.8301-37.6953 74.4385-36.3281Q73.0469-34.9609 73.0469-33.0566Q73.0469-29.7363 71.46-27.0508Q69.873-24.3652 67.1875-22.7539Q64.502-21.1426 61.1816-21.1426Q57.9102-21.1426 55.2002-22.7539Q52.4902-24.3652 50.9033-27.0508Q49.3164-29.7363 49.3164-33.0566Q49.3164-35.6445 50.3174-37.9639Q51.3184-40.2832 53.1006-41.8457Q54.8828-43.4082 57.0801-43.7988Q57.7148-43.9453 58.3496-44.1895L56.8359-42.5781Q56.2988-41.748 56.2988-40.4297Q56.2988-38.3789 57.5684-37.2803Q58.8379-36.1816 60.6445-36.1816Q62.5488-36.1816 63.7695-37.5L72.1191-45.8496Q73.3887-47.1191 73.3643-48.9746Q73.3398-50.8301 72.1191-52.0508L63.8672-60.4492Q63.2324-61.084 62.4023-61.5479Q61.5723-62.0117 60.5469-62.0117Q58.4473-62.0117 57.3242-60.7666Q56.2012-59.5215 56.2012-58.0078Q56.2012-56.9824 56.5674-56.3721Q56.9336-55.7617 57.2754-55.2246L58.4473-54.0039Q58.252-53.9551 57.9834-53.9307Q57.7148-53.9062 57.4707-53.9062Q52.6367-53.2715 48.6572-50.3174Q44.6777-47.3633 42.3096-42.8955Q39.9414-38.4277 39.9414-33.1055Z"/>
  </g>
  <g id="Bold-M" transform="matrix(1 0 0 1 2279.65 1126)">
   <path class="hierarchical-0:secondary SFSymbolsPreview4D4D4D" d="M60.3027 16.3574Q70.9473 16.3574 80.2734 12.3291Q89.5996 8.30078 96.7041 1.17188Q103.809-5.95703 107.861-15.2832Q111.914-24.6094 111.914-35.2539Q111.914-45.8496 107.861-55.1758Q103.809-64.502 96.7041-71.6309Q89.5996-78.7598 80.249-82.7881Q70.8984-86.8164 60.3027-86.8164Q49.707-86.8164 40.3564-82.7881Q31.0059-78.7598 23.9014-71.6309Q16.7969-64.502 12.7686-55.1758Q8.74023-45.8496 8.74023-35.2539Q8.74023-24.6094 12.7686-15.2832Q16.7969-5.95703 23.9258 1.17188Q31.0547 8.30078 40.3809 12.3291Q49.707 16.3574 60.3027 16.3574ZM60.3027 3.51562Q52.2949 3.51562 45.2637 0.488281Q38.2324-2.53906 32.9102-7.83691Q27.5879-13.1348 24.6094-20.166Q21.6309-27.1973 21.6309-35.2539Q21.6309-43.3105 24.6094-50.3174Q27.5879-57.3242 32.9102-62.6465Q38.2324-67.9688 45.2393-70.9717Q52.2461-73.9746 60.3027-73.9746Q68.3594-73.9746 75.3662-70.9717Q82.373-67.9688 87.6953-62.6465Q93.0176-57.3242 96.0449-50.3174Q99.0723-43.3105 99.0723-35.2539Q99.0723-27.1973 96.0693-20.166Q93.0664-13.1348 87.7441-7.83691Q82.4219-2.53906 75.3906 0.488281Q68.3594 3.51562 60.3027 3.51562Z"/>
   <path class="hierarchical-1:primary SFSymbolsPreview212121" d="M38.8672-33.1055Q38.8672-27.0996 41.7725-22.1924Q44.6777-17.2852 49.5361-14.3799Q54.3945-11.4746 60.3027-11.4746Q66.2109-11.4746 71.0938-14.3799Q75.9766-17.2852 78.8574-22.168Q81.7383-27.0508 81.7383-33.0078Q81.7383-34.7168 80.4932-35.9375Q79.248-37.1582 77.5391-37.1582Q75.7812-37.1582 74.5361-35.9375Q73.291-34.7168 73.291-33.0078Q73.291-29.3945 71.5332-26.4404Q69.7754-23.4863 66.8457-21.7285Q63.916-19.9707 60.3027-19.9707Q56.6895-19.9707 53.7354-21.7285Q50.7812-23.4863 49.0723-26.4404Q47.3633-29.3945 47.3633-33.0078Q47.3633-36.1328 48.7061-38.8428Q50.0488-41.5527 52.3926-43.2617Q54.7363-44.9707 57.6172-45.2148Q58.3984-45.3125 59.0332-45.4102L56.4453-42.7734Q55.7617-41.8945 55.7617-40.5762Q55.7617-38.7695 56.8848-37.7441Q58.0078-36.7188 59.668-36.7188Q61.3281-36.7188 62.4512-37.8906L71.1914-46.6309Q72.3145-47.8027 72.29-49.4873Q72.2656-51.1719 71.1914-52.2461L62.5488-61.084Q61.9629-61.6211 61.2305-62.0117Q60.498-62.4023 59.6191-62.4023Q57.7637-62.4023 56.7383-61.2793Q55.7129-60.1562 55.7129-58.7402Q55.7129-57.8613 56.0303-57.251Q56.3477-56.6406 56.6895-56.1523L58.6426-54.1016Q58.4473-54.1016 58.1299-54.1016Q57.8125-54.1016 57.5684-54.1016Q52.4902-53.6621 48.2422-50.7568Q43.9941-47.8516 41.4307-43.2373Q38.8672-38.623 38.8672-33.1055Z"/>
  </g>
  <g id="Semibold-M" transform="matrix(1 0 0 1 1983.6 1126)">
   <path class="hierarchical-0:secondary SFSymbolsPreview4D4D4D" d="M59.668 15.6738Q70.1172 15.6738 79.3457 11.6943Q88.5742 7.71484 95.6055 0.683594Q102.637-6.34766 106.616-15.5518Q110.596-24.7559 110.596-35.2539Q110.596-45.7031 106.616-54.9072Q102.637-64.1113 95.6055-71.1426Q88.5742-78.1738 79.3457-82.1777Q70.1172-86.1816 59.6191-86.1816Q49.1699-86.1816 39.9658-82.1777Q30.7617-78.1738 23.7305-71.1426Q16.6992-64.1113 12.7197-54.9072Q8.74023-45.7031 8.74023-35.2539Q8.74023-24.7559 12.7197-15.5518Q16.6992-6.34766 23.7305 0.683594Q30.7617 7.71484 39.9902 11.6943Q49.2188 15.6738 59.668 15.6738ZM59.668 4.49219Q51.416 4.49219 44.2139 1.41602Q37.0117-1.66016 31.543-7.10449Q26.0742-12.5488 23.0225-19.751Q19.9707-26.9531 19.9707-35.2539Q19.9707-43.5059 23.0225-50.708Q26.0742-57.9102 31.5186-63.3789Q36.9629-68.8477 44.165-71.8994Q51.3672-74.9512 59.6191-74.9512Q67.9199-74.9512 75.1221-71.8994Q82.3242-68.8477 87.7686-63.3789Q93.2129-57.9102 96.3135-50.708Q99.4141-43.5059 99.4141-35.2539Q99.4141-26.9531 96.3379-19.751Q93.2617-12.5488 87.8174-7.10449Q82.373-1.66016 75.1465 1.41602Q67.9199 4.49219 59.668 4.49219Z"/>
   <path class="hierarchical-1:primary SFSymbolsPreview212121" d="M38.0859-33.1055Q38.0859-27.0996 40.9912-22.1436Q43.8965-17.1875 48.7793-14.2578Q53.6621-11.3281 59.668-11.3281Q65.5762-11.3281 70.4834-14.2578Q75.3906-17.1875 78.2959-22.0947Q81.2012-27.002 81.2012-33.0078Q81.2012-34.5703 80.0537-35.6934Q78.9062-36.8164 77.2949-36.8164Q75.6836-36.8164 74.5361-35.6934Q73.3887-34.5703 73.3887-33.0078Q73.3887-29.1504 71.5332-26.0254Q69.6777-22.9004 66.5771-21.0449Q63.4766-19.1895 59.668-19.1895Q55.8105-19.1895 52.6855-21.0449Q49.5605-22.9004 47.7539-26.0254Q45.9473-29.1504 45.9473-33.0078Q45.9473-36.5234 47.5098-39.4775Q49.0723-42.4316 51.8066-44.2383Q54.541-46.0449 57.959-46.1914Q58.8379-46.2891 59.4727-46.2891L56.1035-42.9199Q55.3223-42.041 55.3223-40.7227Q55.3223-39.1113 56.3721-38.1348Q57.4219-37.1582 58.9355-37.1582Q60.4492-37.1582 61.4746-38.2324L70.5078-47.2168Q71.5332-48.291 71.5088-49.8535Q71.4844-51.416 70.5078-52.4414L61.5723-61.5234Q61.0352-62.0605 60.3516-62.4023Q59.668-62.7441 58.8867-62.7441Q57.2266-62.7441 56.25-61.6699Q55.2734-60.5957 55.2734-59.2773Q55.2734-58.4473 55.5664-57.8613Q55.8594-57.2754 56.25-56.7871L58.7402-54.1992Q58.4961-54.248 58.1787-54.248Q57.8613-54.248 57.5684-54.248Q52.2949-53.9551 47.876-51.0742Q43.457-48.1934 40.7715-43.5059Q38.0859-38.8184 38.0859-33.1055Z"/>
  </g>
  <g id="Medium-M" transform="matrix(1 0 0 1 1687.38 1126)">
   <path class="hierarchical-0:secondary SFSymbolsPreview4D4D4D" d="M59.1797 15.1855Q69.5312 15.1855 78.6621 11.2305Q87.793 7.27539 94.751 0.317383Q101.709-6.64062 105.664-15.7715Q109.619-24.9023 109.619-35.2539Q109.619-45.6055 105.664-54.7363Q101.709-63.8672 94.751-70.8252Q87.793-77.7832 78.6377-81.7383Q69.4824-85.6934 59.1309-85.6934Q48.7793-85.6934 39.6484-81.7383Q30.5176-77.7832 23.584-70.8252Q16.6504-63.8672 12.6953-54.7363Q8.74023-45.6055 8.74023-35.2539Q8.74023-24.9023 12.6953-15.7715Q16.6504-6.64062 23.6084 0.317383Q30.5664 7.27539 39.6973 11.2305Q48.8281 15.1855 59.1797 15.1855ZM59.1797 5.27344Q50.7324 5.27344 43.4082 2.12402Q36.084-1.02539 30.5176-6.5918Q24.9512-12.1582 21.8262-19.4824Q18.7012-26.8066 18.7012-35.2539Q18.7012-43.7012 21.8262-51.0254Q24.9512-58.3496 30.4932-63.916Q36.0352-69.4824 43.3838-72.6074Q50.7324-75.7324 59.1309-75.7324Q67.5781-75.7324 74.9023-72.6074Q82.2266-69.4824 87.8174-63.916Q93.4082-58.3496 96.5576-51.0254Q99.707-43.7012 99.707-35.2539Q99.707-26.8066 96.582-19.4824Q93.457-12.1582 87.8906-6.5918Q82.3242-1.02539 74.9756 2.12402Q67.627 5.27344 59.1797 5.27344Z"/>
   <path class="hierarchical-1:primary SFSymbolsPreview212121" d="M37.5-33.1055Q37.5-27.002 40.4053-22.0459Q43.3105-17.0898 48.2178-14.1602Q53.125-11.2305 59.1309-11.2305Q65.1367-11.2305 70.0684-14.1602Q75-17.0898 77.9053-22.0215Q80.8105-26.9531 80.8105-32.959Q80.8105-34.4238 79.7119-35.498Q78.6133-36.5723 77.1484-36.5723Q75.6348-36.5723 74.5361-35.498Q73.4375-34.4238 73.4375-32.959Q73.4375-28.9551 71.5088-25.6836Q69.5801-22.4121 66.3574-20.5078Q63.1348-18.6035 59.1309-18.6035Q55.1758-18.6035 51.9287-20.5078Q48.6816-22.4121 46.7773-25.6836Q44.873-28.9551 44.873-32.959Q44.873-36.7676 46.6309-39.917Q48.3887-43.0664 51.416-44.9707Q54.4434-46.875 58.2031-46.9238Q59.1797-46.9727 59.8145-46.9727L55.8594-43.0176Q55.0293-42.0898 55.0293-40.7715Q55.0293-39.3066 55.9814-38.3545Q56.9336-37.4023 58.3984-37.4023Q59.7656-37.4023 60.791-38.4277L69.9707-47.6562Q70.9473-48.6328 70.9229-50.1221Q70.8984-51.6113 69.9707-52.5391L60.8398-61.8652Q60.4004-62.3047 59.7412-62.6221Q59.082-62.9395 58.3496-62.9395Q56.8848-62.9395 55.9326-61.9385Q54.9805-60.9375 54.9805-59.6191Q54.9805-58.8867 55.249-58.3008Q55.5176-57.7148 55.9082-57.2754L58.7891-54.2969Q58.5938-54.2969 58.2275-54.3213Q57.8613-54.3457 57.5684-54.3457Q52.1973-54.1992 47.6562-51.3184Q43.1152-48.4375 40.3076-43.6768Q37.5-38.916 37.5-33.1055Z"/>
  </g>
  <g id="Regular-M" transform="matrix(1 0 0 1 1391.3 1126)">
   <path class="hierarchical-0:secondary SFSymbolsPreview4D4D4D" d="M58.5449 14.5508Q68.75 14.5508 77.7588 10.6445Q86.7676 6.73828 93.6523-0.146484Q100.537-7.03125 104.443-16.04Q108.35-25.0488 108.35-35.2539Q108.35-45.459 104.443-54.4678Q100.537-63.4766 93.6523-70.3613Q86.7676-77.2461 77.7344-81.1523Q68.7012-85.0586 58.4961-85.0586Q48.291-85.0586 39.2822-81.1523Q30.2734-77.2461 23.4131-70.3613Q16.5527-63.4766 12.6465-54.4678Q8.74023-45.459 8.74023-35.2539Q8.74023-25.0488 12.6465-16.04Q16.5527-7.03125 23.4375-0.146484Q30.3223 6.73828 39.3311 10.6445Q48.3398 14.5508 58.5449 14.5508ZM58.5449 6.25Q49.9023 6.25 42.3828 3.02734Q34.8633-0.195312 29.1748-5.88379Q23.4863-11.5723 20.2881-19.0918Q17.0898-26.6113 17.0898-35.2539Q17.0898-43.8965 20.2881-51.416Q23.4863-58.9355 29.1504-64.6484Q34.8145-70.3613 42.334-73.5596Q49.8535-76.7578 58.4961-76.7578Q67.1387-76.7578 74.6582-73.5596Q82.1777-70.3613 87.8906-64.6484Q93.6035-58.9355 96.8262-51.416Q100.049-43.8965 100.049-35.2539Q100.049-26.6113 96.8506-19.0918Q93.6523-11.5723 87.9639-5.88379Q82.2754-0.195312 74.7314 3.02734Q67.1875 6.25 58.5449 6.25Z"/>
   <path class="hierarchical-1:primary SFSymbolsPreview212121" d="M36.7188-33.0566Q36.7188-26.9531 39.6484-21.9482Q42.5781-16.9434 47.5098-13.9893Q52.4414-11.0352 58.4961-11.0352Q64.502-11.0352 69.458-13.9893Q74.4141-16.9434 77.3438-21.8994Q80.2734-26.8555 80.2734-32.9102Q80.2734-34.2285 79.2725-35.2051Q78.2715-36.1816 76.9043-36.1816Q75.5371-36.1816 74.5361-35.2051Q73.5352-34.2285 73.5352-32.9102Q73.5352-28.7109 71.5088-25.2686Q69.4824-21.8262 66.0889-19.7998Q62.6953-17.7734 58.4961-17.7734Q54.2969-17.7734 50.8789-19.7998Q47.4609-21.8262 45.459-25.2686Q43.457-28.7109 43.457-32.9102Q43.457-37.0605 45.459-40.4785Q47.4609-43.8965 50.8789-45.8984Q54.2969-47.9004 58.4961-47.9004Q59.5703-47.9004 60.2539-47.8027L55.5176-43.1152Q54.5898-42.1875 54.5898-40.8691Q54.5898-39.5996 55.4688-38.6963Q56.3477-37.793 57.666-37.793Q58.8867-37.793 59.8145-38.7207L69.2871-48.1934Q70.166-49.0723 70.1416-50.4395Q70.1172-51.8066 69.2871-52.6855L59.9121-62.2559Q59.4727-62.6953 58.8867-62.9639Q58.3008-63.2324 57.666-63.2324Q56.3477-63.2324 55.4688-62.3047Q54.5898-61.377 54.5898-60.1074Q54.5898-59.4727 54.8096-58.8867Q55.0293-58.3008 55.4199-57.8613L58.8867-54.3457Q58.6426-54.3945 58.2764-54.4189Q57.9102-54.4434 57.5684-54.4434Q52.0508-54.4434 47.3145-51.5869Q42.5781-48.7305 39.6484-43.8965Q36.7188-39.0625 36.7188-33.0566Z"/>
  </g>
  <g id="Light-M" transform="matrix(1 0 0 1 1095.42 1126)">
   <path class="hierarchical-0:secondary SFSymbolsPreview4D4D4D" d="M57.7148 13.7207Q67.7734 13.7207 76.6357 9.8877Q85.498 6.05469 92.2607-0.708008Q99.0234-7.4707 102.856-16.333Q106.689-25.1953 106.689-35.2539Q106.689-45.3125 102.856-54.1748Q99.0234-63.0371 92.2607-69.7998Q85.498-76.5625 76.6113-80.3955Q67.7246-84.2285 57.666-84.2285Q47.6074-84.2285 38.7451-80.3955Q29.8828-76.5625 23.1445-69.7998Q16.4062-63.0371 12.5732-54.1748Q8.74023-45.3125 8.74023-35.2539Q8.74023-25.1953 12.5732-16.333Q16.4062-7.4707 23.1689-0.708008Q29.9316 6.05469 38.7939 9.8877Q47.6562 13.7207 57.7148 13.7207ZM57.7148 7.37305Q48.877 7.37305 41.1377 4.07715Q33.3984 0.78125 27.5391-5.07812Q21.6797-10.9375 18.3838-18.6768Q15.0879-26.416 15.0879-35.2539Q15.0879-44.0918 18.3838-51.8311Q21.6797-59.5703 27.5391-65.4541Q33.3984-71.3379 41.1133-74.6338Q48.8281-77.9297 57.666-77.9297Q66.5527-77.9297 74.2676-74.6338Q81.9824-71.3379 87.8662-65.4541Q93.75-59.5703 97.0703-51.8311Q100.391-44.0918 100.391-35.2539Q100.391-26.416 97.0703-18.6768Q93.75-10.9375 87.915-5.07812Q82.0801 0.78125 74.3408 4.07715Q66.6016 7.37305 57.7148 7.37305Z"/>
   <path class="hierarchical-1:primary SFSymbolsPreview212121" d="M36.3281-33.0566Q36.3281-27.0996 39.1846-22.1924Q42.041-17.2852 46.875-14.4043Q51.709-11.5234 57.666-11.5234Q63.5742-11.5234 68.4326-14.4043Q73.291-17.2852 76.1475-22.1436Q79.0039-27.002 79.0039-32.959Q79.0039-34.0332 78.1982-34.8145Q77.3926-35.5957 76.3672-35.5957Q75.2441-35.5957 74.4629-34.8145Q73.6816-34.0332 73.6816-32.959Q73.6816-28.4668 71.5332-24.8291Q69.3848-21.1914 65.7715-19.043Q62.1582-16.8945 57.666-16.8945Q53.1738-16.8945 49.5605-19.043Q45.9473-21.1914 43.7988-24.8291Q41.6504-28.4668 41.6504-32.959Q41.6504-37.4023 43.7988-41.04Q45.9473-44.6777 49.5605-46.8018Q53.1738-48.9258 57.666-48.9258Q59.668-48.9258 61.0352-48.6328L54.7852-42.4316Q53.9551-41.6016 53.9551-40.4785Q53.9551-39.4531 54.6631-38.7207Q55.3711-37.9883 56.4453-37.9883Q57.4219-37.9883 58.1543-38.7207L68.0176-48.7305Q68.75-49.4629 68.75-50.6104Q68.75-51.7578 68.0176-52.5391L58.3008-62.4512Q57.9102-62.8418 57.4219-63.0859Q56.9336-63.3301 56.4453-63.3301Q55.3711-63.3301 54.6387-62.5977Q53.9062-61.8652 53.9062-60.8398Q53.9062-60.3027 54.0771-59.8389Q54.248-59.375 54.5898-58.9844L59.668-53.9062Q59.082-53.9551 58.4229-54.0283Q57.7637-54.1016 57.0801-54.1016Q51.4648-54.1016 46.7529-51.2939Q42.041-48.4863 39.1846-43.7256Q36.3281-38.9648 36.3281-33.0566Z"/>
  </g>
  <g id="Thin-M" transform="matrix(1 0 0 1 799.782 1126)">
   <path class="hierarchical-0:secondary SFSymbolsPreview4D4D4D" d="M56.5918 12.5977Q66.5039 12.5977 75.1709 8.88672Q83.8379 5.17578 90.4297-1.44043Q97.0215-8.05664 100.781-16.7236Q104.541-25.3906 104.541-35.2539Q104.541-45.1172 100.781-53.7842Q97.0215-62.4512 90.4297-69.0674Q83.8379-75.6836 75.1709-79.3945Q66.5039-83.1055 56.5918-83.1055Q46.7285-83.1055 38.0615-79.3945Q29.3945-75.6836 22.8271-69.0674Q16.2598-62.4512 12.5-53.7842Q8.74023-45.1172 8.74023-35.2539Q8.74023-25.3906 12.4756-16.7236Q16.2109-8.05664 22.8027-1.44043Q29.3945 5.17578 38.0859 8.88672Q46.7773 12.5977 56.5918 12.5977ZM56.5918 8.88672Q47.4609 8.88672 39.4775 5.44434Q31.4941 2.00195 25.415-4.05273Q19.3359-10.1074 15.918-18.1152Q12.5-26.123 12.5-35.2539Q12.5-44.3848 15.918-52.3926Q19.3359-60.4004 25.415-66.4795Q31.4941-72.5586 39.4775-76.001Q47.4609-79.4434 56.5918-79.4434Q65.7715-79.4434 73.7549-76.001Q81.7383-72.5586 87.8174-66.4795Q93.8965-60.4004 97.3389-52.3926Q100.781-44.3848 100.781-35.2539Q100.781-26.123 97.3633-18.1152Q93.9453-10.1074 87.8662-4.05273Q81.7871 2.00195 73.7793 5.44434Q65.7715 8.88672 56.5918 8.88672Z"/>
   <path class="hierarchical-1:primary SFSymbolsPreview212121" d="M35.8398-33.0078Q35.8398-27.1973 38.623-22.4365Q41.4062-17.6758 46.1182-14.917Q50.8301-12.1582 56.5918-12.1582Q62.4512-12.1582 67.1387-14.917Q71.8262-17.6758 74.585-22.4121Q77.3438-27.1484 77.3438-33.0078Q77.3438-33.6914 76.8311-34.2041Q76.3184-34.7168 75.6348-34.7168Q74.8535-34.7168 74.3408-34.2041Q73.8281-33.6914 73.8281-33.0078Q73.8281-28.125 71.5332-24.1943Q69.2383-20.2637 65.332-17.9443Q61.4258-15.625 56.5918-15.625Q51.7578-15.625 47.8516-17.9443Q43.9453-20.2637 41.6504-24.1943Q39.3555-28.125 39.3555-33.0078Q39.3555-37.793 41.6504-41.6992Q43.9453-45.6055 47.8516-47.876Q51.7578-50.1465 56.5918-50.1465Q59.8633-50.1465 62.0605-49.6582L53.8086-41.4551Q53.125-40.7715 53.125-39.8438Q53.125-39.209 53.6133-38.6963Q54.1016-38.1836 54.834-38.1836Q55.5176-38.1836 56.0059-38.7207L66.3574-49.4141Q66.8945-49.9512 66.9189-50.7812Q66.9434-51.6113 66.3574-52.2461L56.2012-62.6953Q55.9082-63.0371 55.5664-63.2324Q55.2246-63.4277 54.834-63.4277Q54.0527-63.4277 53.5645-62.9395Q53.0762-62.4512 53.0762-61.7188Q53.0762-61.377 53.1494-61.0352Q53.2227-60.6934 53.5645-60.3516L60.6934-53.2227Q59.7168-53.3691 58.6426-53.4912Q57.5684-53.6133 56.3965-53.6133Q50.7324-53.6133 46.0693-50.8789Q41.4062-48.1445 38.623-43.4814Q35.8398-38.8184 35.8398-33.0078Z"/>
  </g>
  <g id="Ultralight-M" transform="matrix(1 0 0 1 503.632 1126)">
   <path class="hierarchical-0:secondary SFSymbolsPreview4D4D4D" d="M56.0547 12.0605Q65.8203 12.0605 74.3896 8.37402Q82.959 4.6875 89.4775-1.83105Q95.9961-8.34961 99.707-16.9189Q103.418-25.4883 103.418-35.2539Q103.418-45.0195 99.707-53.5889Q95.9961-62.1582 89.4775-68.6768Q82.959-75.1953 74.3896-78.8818Q65.8203-82.5684 56.0547-82.5684Q46.2891-82.5684 37.7197-78.8818Q29.1504-75.1953 22.6562-68.6768Q16.1621-62.1582 12.4512-53.5889Q8.74023-45.0195 8.74023-35.2539Q8.74023-25.4883 12.4268-16.9189Q16.1133-8.34961 22.6318-1.83105Q29.1504 4.6875 37.7197 8.37402Q46.2891 12.0605 56.0547 12.0605ZM56.0547 9.66797Q46.7773 9.66797 38.6475 6.17676Q30.5176 2.68555 24.3164-3.49121Q18.1152-9.66797 14.624-17.8223Q11.1328-25.9766 11.1328-35.2539Q11.1328-44.5312 14.624-52.6855Q18.1152-60.8398 24.3164-67.041Q30.5176-73.2422 38.6475-76.7334Q46.7773-80.2246 56.0547-80.2246Q65.3809-80.2246 73.5107-76.7334Q81.6406-73.2422 87.8174-67.041Q93.9941-60.8398 97.5098-52.6855Q101.025-44.5312 101.025-35.2539Q101.025-25.9766 97.5098-17.8223Q93.9941-9.66797 87.8174-3.49121Q81.6406 2.68555 73.5107 6.17676Q65.3809 9.66797 56.0547 9.66797Z"/>
   <path class="hierarchical-1:primary SFSymbolsPreview212121" d="M35.5957-33.0078Q35.5957-27.2949 38.3301-22.6318Q41.0645-17.9688 45.7031-15.2344Q50.3418-12.5 56.0547-12.5Q61.8164-12.5 66.4307-15.2344Q71.0449-17.9688 73.7793-22.6318Q76.5137-27.2949 76.5137-33.0566Q76.5137-33.5449 76.123-33.9355Q75.7324-34.3262 75.293-34.3262Q74.707-34.3262 74.3408-33.9355Q73.9746-33.5449 73.9746-33.0566Q73.9746-27.9785 71.582-23.9014Q69.1895-19.8242 65.1367-17.4316Q61.084-15.0391 56.0547-15.0391Q51.0254-15.0391 46.9727-17.4316Q42.9199-19.8242 40.5273-23.9014Q38.1348-27.9785 38.1348-33.0566Q38.1348-38.0371 40.5273-42.0898Q42.9199-46.1426 46.9727-48.5107Q51.0254-50.8789 56.0547-50.8789Q59.9609-50.8789 62.5977-50.1953L53.3691-40.9668Q52.7344-40.3809 52.7344-39.5996Q52.7344-39.1113 53.1006-38.7207Q53.4668-38.3301 54.0527-38.3301Q54.541-38.3301 54.9316-38.7207L65.5273-49.8047Q65.9668-50.1953 66.0156-50.8789Q66.0645-51.5625 65.5273-52.1484L55.1758-62.8418Q54.8828-63.1348 54.5898-63.3301Q54.2969-63.5254 54.0039-63.5254Q53.418-63.5254 53.0273-63.1592Q52.6367-62.793 52.6367-62.207Q52.6367-61.9629 52.6855-61.6943Q52.7344-61.4258 53.0273-61.1328L61.2305-52.9297Q60.0586-53.0762 58.7646-53.2471Q57.4707-53.418 56.1035-53.418Q50.3418-53.418 45.7031-50.708Q41.0645-47.998 38.3301-43.3838Q35.5957-38.7695 35.5957-33.0078Z"/>
  </g>
  <g id="Black-S" transform="matrix(1 0 0 1 2884.57 696)">
   <path class="hierarchical-0:secondary SFSymbolsPreview4D4D4D" d="M48.8281 6.78711Q57.5195 6.78711 65.1123 3.51562Q72.7051 0.244141 78.4912-5.54199Q84.2773-11.3281 87.5488-18.9209Q90.8203-26.5137 90.8203-35.2051Q90.8203-43.8965 87.5488-51.4893Q84.2773-59.082 78.4912-64.8682Q72.7051-70.6543 65.1123-73.9258Q57.5195-77.1973 48.8281-77.1973Q40.1367-77.1973 32.5439-73.9258Q24.9512-70.6543 19.165-64.8682Q13.3789-59.082 10.1074-51.4893Q6.83594-43.8965 6.83594-35.2051Q6.83594-26.5137 10.1074-18.9209Q13.3789-11.3281 19.165-5.54199Q24.9512 0.244141 32.5439 3.51562Q40.1367 6.78711 48.8281 6.78711ZM48.8281-7.37305Q43.0664-7.37305 38.0127-9.5459Q32.959-11.7188 29.1504-15.5273Q25.3418-19.3359 23.1689-24.3896Q20.9961-29.4434 20.9961-35.2051Q20.9961-40.9668 23.1689-46.0205Q25.3418-51.0742 29.1504-54.8828Q32.959-58.6914 38.0127-60.8643Q43.0664-63.0371 48.8281-63.0371Q54.5898-63.0371 59.6436-60.8643Q64.6973-58.6914 68.5059-54.8828Q72.3145-51.0742 74.4873-46.0205Q76.6602-40.9668 76.6602-35.2051Q76.6602-29.4434 74.4873-24.3896Q72.3145-19.3359 68.5059-15.5273Q64.6973-11.7188 59.6436-9.5459Q54.5898-7.37305 48.8281-7.37305Z"/>
   <path class="hierarchical-1:primary SFSymbolsPreview212121" d="M32.373-33.5938Q32.373-29.0527 34.5947-25.3174Q36.8164-21.582 40.5762-19.3359Q44.3359-17.0898 48.8281-17.0898Q53.3691-17.0898 57.1045-19.3359Q60.8398-21.582 63.0615-25.3174Q65.2832-29.0527 65.2832-33.5938Q65.2832-35.3027 64.1113-36.4746Q62.9395-37.6465 61.2305-37.6465Q59.5215-37.6465 58.3252-36.4746Q57.1289-35.3027 57.1289-33.5938Q57.1289-31.2988 56.0059-29.3945Q54.8828-27.4902 53.0029-26.3916Q51.123-25.293 48.8281-25.293Q46.5332-25.293 44.6289-26.416Q42.7246-27.5391 41.626-29.4189Q40.5273-31.2988 40.5273-33.5938Q40.5273-35.1562 40.9912-36.5967Q41.4551-38.0371 42.2852-39.1113Q43.1152-40.1855 44.2383-40.625Q44.6289-40.7715 45.1172-41.0645L44.9707-40.7715Q44.6777-40.1855 44.6777-39.1113Q44.6777-37.3047 45.7764-36.377Q46.875-35.4492 48.4863-35.4492Q50.1953-35.4492 51.2207-36.5723L57.373-42.7734Q58.4961-43.8965 58.4961-45.5078Q58.4961-47.1191 57.4219-48.1934L51.2695-54.3945Q50.7324-54.9316 50-55.3711Q49.2676-55.8105 48.3398-55.8105Q46.4844-55.8105 45.5322-54.7363Q44.5801-53.6621 44.5801-52.4414Q44.5801-51.5137 44.8975-51.0254Q45.2148-50.5371 45.5078-50.0977L45.7031-49.8047Q45.5566-49.7559 45.3613-49.7314Q45.166-49.707 44.9707-49.6582Q41.4062-48.9746 38.5498-46.6309Q35.6934-44.2871 34.0332-40.8936Q32.373-37.5 32.373-33.5938Z"/>
  </g>
  <g id="Heavy-S" transform="matrix(1 0 0 1 2588.47 696)">
   <path class="hierarchical-0:secondary SFSymbolsPreview4D4D4D" d="M48.1934 6.15234Q56.7871 6.15234 64.2578 2.92969Q71.7285-0.292969 77.4414-6.00586Q83.1543-11.7188 86.377-19.1895Q89.5996-26.6602 89.5996-35.2051Q89.5996-43.75 86.377-51.2451Q83.1543-58.7402 77.4414-64.4531Q71.7285-70.166 64.2334-73.3887Q56.7383-76.6113 48.1934-76.6113Q39.6484-76.6113 32.1777-73.3887Q24.707-70.166 18.9941-64.4531Q13.2812-58.7402 10.0586-51.2451Q6.83594-43.75 6.83594-35.2051Q6.83594-26.6602 10.0586-19.1895Q13.2812-11.7188 18.9941-6.00586Q24.707-0.292969 32.2021 2.92969Q39.6973 6.15234 48.1934 6.15234ZM48.1934-6.39648Q42.2363-6.39648 37.0117-8.64258Q31.7871-10.8887 27.8564-14.8438Q23.9258-18.7988 21.6797-24.0234Q19.4336-29.248 19.4336-35.2051Q19.4336-41.1621 21.6553-46.4111Q23.877-51.6602 27.832-55.5908Q31.7871-59.5215 37.0117-61.7676Q42.2363-64.0137 48.1934-64.0137Q54.1992-64.0137 59.4238-61.7676Q64.6484-59.5215 68.5791-55.5908Q72.5098-51.6602 74.7803-46.4111Q77.0508-41.1621 77.0508-35.2051Q77.0508-29.248 74.8047-24.0234Q72.5586-18.7988 68.6035-14.8438Q64.6484-10.8887 59.4238-8.64258Q54.1992-6.39648 48.1934-6.39648Z"/>
   <path class="hierarchical-1:primary SFSymbolsPreview212121" d="M31.543-33.5938Q31.543-28.9551 33.7891-25.1709Q36.0352-21.3867 39.8438-19.1162Q43.6523-16.8457 48.1934-16.8457Q52.7832-16.8457 56.5674-19.1162Q60.3516-21.3867 62.5977-25.1709Q64.8438-28.9551 64.8438-33.5449Q64.8438-35.1074 63.7451-36.2061Q62.6465-37.3047 61.0352-37.3047Q59.4727-37.3047 58.3496-36.2061Q57.2266-35.1074 57.2266-33.5449Q57.2266-31.0547 56.0059-28.9795Q54.7852-26.9043 52.7344-25.708Q50.6836-24.5117 48.1934-24.5117Q45.7031-24.5117 43.6279-25.7324Q41.5527-26.9531 40.3564-29.0039Q39.1602-31.0547 39.1602-33.5449Q39.1602-35.4492 39.8926-37.1582Q40.625-38.8672 41.8457-40.0635Q43.0664-41.2598 44.6777-41.6016Q45.0684-41.6992 45.5078-41.8945L44.6777-41.0156Q44.2871-40.3809 44.2871-39.3066Q44.2871-37.6465 45.3125-36.7432Q46.3379-35.8398 47.8027-35.8398Q49.3652-35.8398 50.3418-36.9141L56.7383-43.3105Q57.8125-44.3359 57.8125-45.8496Q57.8125-47.3633 56.7871-48.3887L50.3906-54.834Q49.9023-55.3223 49.2188-55.7129Q48.5352-56.1035 47.7051-56.1035Q46.0449-56.1035 45.1172-55.1025Q44.1895-54.1016 44.1895-52.8809Q44.1895-52.0508 44.4824-51.5625Q44.7754-51.0742 45.0684-50.6348L45.7031-49.9512Q45.5566-49.9023 45.3857-49.9023Q45.2148-49.9023 45.0195-49.8535Q41.3086-49.3164 38.2324-46.9971Q35.1562-44.6777 33.3496-41.1865Q31.543-37.6953 31.543-33.5938Z"/>
  </g>
  <g id="Bold-S" transform="matrix(1 0 0 1 2292.42 696)">
   <path class="hierarchical-0:secondary SFSymbolsPreview4D4D4D" d="M47.5586 5.46875Q55.957 5.46875 63.3057 2.29492Q70.6543-0.878906 76.2695-6.51855Q81.8848-12.1582 85.083-19.5068Q88.2812-26.8555 88.2812-35.2539Q88.2812-43.6035 85.083-50.9766Q81.8848-58.3496 76.2695-63.9648Q70.6543-69.5801 63.2812-72.7539Q55.9082-75.9277 47.5098-75.9277Q39.1602-75.9277 31.7871-72.7539Q24.4141-69.5801 18.8232-63.9648Q13.2324-58.3496 10.0342-50.9766Q6.83594-43.6035 6.83594-35.2539Q6.83594-26.8555 10.0342-19.5068Q13.2324-12.1582 18.8477-6.51855Q24.4629-0.878906 31.8115 2.29492Q39.1602 5.46875 47.5586 5.46875ZM47.5586-5.32227Q41.3574-5.32227 35.9375-7.6416Q30.5176-9.96094 26.416-14.0625Q22.3145-18.1641 19.9951-23.6084Q17.6758-29.0527 17.6758-35.2539Q17.6758-41.4551 19.9951-46.875Q22.3145-52.2949 26.3916-56.3965Q30.4688-60.498 35.8887-62.8174Q41.3086-65.1367 47.5098-65.1367Q53.7598-65.1367 59.1797-62.8174Q64.5996-60.498 68.7012-56.3965Q72.8027-52.2949 75.1221-46.875Q77.4414-41.4551 77.4414-35.2539Q77.4414-29.0527 75.1221-23.6084Q72.8027-18.1641 68.7256-14.0625Q64.6484-9.96094 59.2041-7.6416Q53.7598-5.32227 47.5586-5.32227Z"/>
   <path class="hierarchical-1:primary SFSymbolsPreview212121" d="M30.6641-33.5449Q30.6641-28.8574 32.9346-25.0244Q35.2051-21.1914 39.0625-18.8721Q42.9199-16.5527 47.5586-16.5527Q52.1973-16.5527 56.0303-18.8477Q59.8633-21.1426 62.1338-24.9756Q64.4043-28.8086 64.4043-33.4961Q64.4043-34.9609 63.3789-35.9619Q62.3535-36.9629 60.8887-36.9629Q59.4238-36.9629 58.3984-35.9619Q57.373-34.9609 57.373-33.4961Q57.373-30.7617 56.0303-28.5156Q54.6875-26.2695 52.4658-24.9512Q50.2441-23.6328 47.5586-23.6328Q44.8242-23.6328 42.5781-24.9756Q40.332-26.3184 39.0381-28.54Q37.7441-30.7617 37.7441-33.4961Q37.7441-35.8398 38.7207-37.8418Q39.6973-39.8438 41.4062-41.1377Q43.1152-42.4316 45.2637-42.6758Q45.6543-42.7246 45.9961-42.8711L44.4336-41.2598Q43.8965-40.5762 43.8965-39.502Q43.8965-37.9883 44.8242-37.1338Q45.752-36.2793 47.1191-36.2793Q48.5352-36.2793 49.4629-37.2559L56.1523-43.9453Q57.0801-44.873 57.0801-46.2891Q57.0801-47.7051 56.1523-48.584L49.5117-55.3711Q49.0723-55.8105 48.4375-56.1279Q47.8027-56.4453 47.0703-56.4453Q45.5566-56.4453 44.7021-55.5176Q43.8477-54.5898 43.8477-53.418Q43.8477-52.6855 44.1162-52.1729Q44.3848-51.6602 44.6777-51.2695L45.752-50.0977Q45.6543-50.0977 45.4834-50.0977Q45.3125-50.0977 45.166-50.0488Q41.2598-49.707 37.9639-47.4121Q34.668-45.1172 32.666-41.5039Q30.6641-37.8906 30.6641-33.5449Z"/>
  </g>
  <g id="Semibold-S" transform="matrix(1 0 0 1 1996.2 696)">
   <path class="hierarchical-0:secondary SFSymbolsPreview4D4D4D" d="M47.0703 4.98047Q55.3711 4.98047 62.6465 1.85547Q69.9219-1.26953 75.4639-6.86035Q81.0059-12.4512 84.1553-19.7266Q87.3047-27.002 87.3047-35.2539Q87.3047-43.5059 84.1553-50.7812Q81.0059-58.0566 75.4395-63.623Q69.873-69.1895 62.5977-72.3389Q55.3223-75.4883 47.0215-75.4883Q38.7695-75.4883 31.4941-72.3389Q24.2188-69.1895 18.6768-63.623Q13.1348-58.0566 9.98535-50.7812Q6.83594-43.5059 6.83594-35.2539Q6.83594-27.002 9.98535-19.7266Q13.1348-12.4512 18.7012-6.86035Q24.2676-1.26953 31.543 1.85547Q38.8184 4.98047 47.0703 4.98047ZM47.0703-4.58984Q40.7227-4.58984 35.1562-6.95801Q29.5898-9.32617 25.3906-13.5254Q21.1914-17.7246 18.8232-23.291Q16.4551-28.8574 16.4551-35.2539Q16.4551-41.6016 18.8232-47.168Q21.1914-52.7344 25.3662-56.9336Q29.541-61.1328 35.1074-63.5254Q40.6738-65.918 47.0215-65.918Q53.418-65.918 58.9844-63.5254Q64.5508-61.1328 68.75-56.9336Q72.9492-52.7344 75.3418-47.168Q77.7344-41.6016 77.7344-35.2539Q77.7344-28.8574 75.3662-23.291Q72.998-17.7246 68.7988-13.5254Q64.5996-9.32617 59.0332-6.95801Q53.4668-4.58984 47.0703-4.58984Z"/>
   <path class="hierarchical-1:primary SFSymbolsPreview212121" d="M30.0293-33.5449Q30.0293-28.8086 32.3242-24.9023Q34.6191-20.9961 38.501-18.6768Q42.3828-16.3574 47.0703-16.3574Q51.709-16.3574 55.5908-18.6768Q59.4727-20.9961 61.7676-24.8535Q64.0625-28.7109 64.0625-33.4473Q64.0625-34.8145 63.0859-35.7666Q62.1094-36.7188 60.7422-36.7188Q59.375-36.7188 58.3984-35.7666Q57.4219-34.8145 57.4219-33.4473Q57.4219-30.5664 56.0059-28.1982Q54.5898-25.8301 52.2461-24.4385Q49.9023-23.0469 47.0703-23.0469Q44.1406-23.0469 41.7969-24.4385Q39.4531-25.8301 38.0615-28.1982Q36.6699-30.5664 36.6699-33.4473Q36.6699-36.0352 37.8662-38.2568Q39.0625-40.4785 41.0645-41.8701Q43.0664-43.2617 45.6055-43.4082Q45.9961-43.457 46.2891-43.5059L44.1895-41.4551Q43.5547-40.7227 43.5547-39.5996Q43.5547-38.2324 44.4336-37.4023Q45.3125-36.5723 46.6309-36.5723Q47.9004-36.5723 48.7793-37.5L55.6641-44.3848Q56.543-45.2148 56.543-46.5576Q56.543-47.9004 55.6641-48.7305L48.8281-55.7129Q48.4375-56.1035 47.8516-56.3965Q47.2656-56.6895 46.582-56.6895Q45.2148-56.6895 44.3848-55.7861Q43.5547-54.8828 43.5547-53.7598Q43.5547-53.0762 43.7988-52.5635Q44.043-52.0508 44.3848-51.6602L45.752-50.1953Q45.6543-50.2441 45.4834-50.2197Q45.3125-50.1953 45.2148-50.1953Q41.1621-49.9512 37.6953-47.6807Q34.2285-45.4102 32.1289-41.6992Q30.0293-37.9883 30.0293-33.5449Z"/>
  </g>
  <g id="Medium-S" transform="matrix(1 0 0 1 1699.83 696)">
   <path class="hierarchical-0:secondary SFSymbolsPreview4D4D4D" d="M46.7285 4.63867Q54.9316 4.63867 62.1338 1.51367Q69.3359-1.61133 74.8535-7.12891Q80.3711-12.6465 83.4961-19.8486Q86.6211-27.0508 86.6211-35.2539Q86.6211-43.4082 83.4961-50.6348Q80.3711-57.8613 74.8291-63.3789Q69.2871-68.8965 62.085-71.9971Q54.8828-75.0977 46.6797-75.0977Q38.4766-75.0977 31.2744-71.9971Q24.0723-68.8965 18.5791-63.3789Q13.0859-57.8613 9.96094-50.6348Q6.83594-43.4082 6.83594-35.2539Q6.83594-27.0508 9.96094-19.8486Q13.0859-12.6465 18.6035-7.12891Q24.1211-1.61133 31.3232 1.51367Q38.5254 4.63867 46.7285 4.63867ZM46.7285-4.00391Q40.2344-4.00391 34.5703-6.4209Q28.9062-8.83789 24.6338-13.1348Q20.3613-17.4316 17.9443-23.0957Q15.5273-28.7598 15.5273-35.2539Q15.5273-41.748 17.9199-47.4121Q20.3125-53.0762 24.585-57.373Q28.8574-61.6699 34.5215-64.0869Q40.1855-66.5039 46.6797-66.5039Q53.1738-66.5039 58.8379-64.0869Q64.502-61.6699 68.7988-57.373Q73.0957-53.0762 75.5127-47.4121Q77.9297-41.748 77.9297-35.2539Q77.9297-28.7598 75.5127-23.0957Q73.0957-17.4316 68.8477-13.1348Q64.5996-8.83789 58.9111-6.4209Q53.2227-4.00391 46.7285-4.00391Z"/>
   <path class="hierarchical-1:primary SFSymbolsPreview212121" d="M29.5898-33.4961Q29.5898-28.7109 31.8848-24.8047Q34.1797-20.8984 38.0859-18.5547Q41.9922-16.2109 46.7285-16.2109Q51.416-16.2109 55.3223-18.5303Q59.2285-20.8496 61.5234-24.7559Q63.8184-28.6621 63.8184-33.3984Q63.8184-34.7168 62.8906-35.6201Q61.9629-36.5234 60.6445-36.5234Q59.375-36.5234 58.4473-35.6201Q57.5195-34.7168 57.5195-33.3984Q57.5195-30.4199 56.0547-27.9541Q54.5898-25.4883 52.1484-24.0234Q49.707-22.5586 46.7285-22.5586Q43.7012-22.5586 41.2598-24.0234Q38.8184-25.4883 37.3779-27.9541Q35.9375-30.4199 35.9375-33.3984Q35.9375-36.2305 37.2559-38.623Q38.5742-41.0156 40.8447-42.4316Q43.1152-43.8477 45.8984-43.9453Q46.2891-43.9941 46.582-43.9941L44.0918-41.5527Q43.3594-40.8203 43.3594-39.6973Q43.3594-38.4277 44.2139-37.6221Q45.0684-36.8164 46.2402-36.8164Q47.5098-36.8164 48.3398-37.6953L55.3711-44.6777Q56.2012-45.5078 56.1768-46.7773Q56.1523-48.0469 55.3711-48.8281L48.3887-55.957Q47.998-56.3477 47.4365-56.5918Q46.875-56.8359 46.2402-56.8359Q44.9707-56.8359 44.165-55.9814Q43.3594-55.127 43.3594-54.0039Q43.3594-53.418 43.6035-52.9053Q43.8477-52.3926 44.1895-52.002L45.8008-50.293Q45.7031-50.293 45.5566-50.293Q45.4102-50.293 45.3125-50.293Q41.1621-50.1953 37.5732-47.9004Q33.9844-45.6055 31.7871-41.8457Q29.5898-38.0859 29.5898-33.4961Z"/>
  </g>
  <g id="Regular-S" transform="matrix(1 0 0 1 1403.58 696)">
   <path class="hierarchical-0:secondary SFSymbolsPreview4D4D4D" d="M46.2402 4.15039Q54.3457 4.15039 61.4746 1.07422Q68.6035-2.00195 74.0479-7.4707Q79.4922-12.9395 82.5928-20.0684Q85.6934-27.1973 85.6934-35.2539Q85.6934-43.3105 82.5928-50.4395Q79.4922-57.5684 74.0234-63.0371Q68.5547-68.5059 61.4258-71.582Q54.2969-74.6582 46.1914-74.6582Q38.1348-74.6582 31.0059-71.582Q23.877-68.5059 18.457-63.0371Q13.0371-57.5684 9.93652-50.4395Q6.83594-43.3105 6.83594-35.2539Q6.83594-27.1973 9.93652-20.0684Q13.0371-12.9395 18.4814-7.4707Q23.9258-2.00195 31.0547 1.07422Q38.1836 4.15039 46.2402 4.15039ZM46.2402-3.27148Q39.5996-3.27148 33.8135-5.7373Q28.0273-8.20312 23.6572-12.5977Q19.2871-16.9922 16.8213-22.8027Q14.3555-28.6133 14.3555-35.2539Q14.3555-41.8945 16.7969-47.7051Q19.2383-53.5156 23.6084-57.9102Q27.9785-62.3047 33.7646-64.7705Q39.5508-67.2363 46.1914-67.2363Q52.8809-67.2363 58.667-64.7705Q64.4531-62.3047 68.8477-57.9102Q73.2422-53.5156 75.7324-47.7051Q78.2227-41.8945 78.2227-35.2539Q78.2227-28.6133 75.7568-22.8027Q73.291-16.9922 68.9209-12.5977Q64.5508-8.20312 58.7402-5.7373Q52.9297-3.27148 46.2402-3.27148Z"/>
   <path class="hierarchical-1:primary SFSymbolsPreview212121" d="M28.9551-33.4961Q28.9551-28.6621 31.2744-24.707Q33.5938-20.752 37.5244-18.3838Q41.4551-16.0156 46.2402-16.0156Q50.9766-16.0156 54.9072-18.3594Q58.8379-20.7031 61.1572-24.6338Q63.4766-28.5645 63.4766-33.3496Q63.4766-34.5703 62.5977-35.4248Q61.7188-36.2793 60.498-36.2793Q59.3262-36.2793 58.4473-35.4248Q57.5684-34.5703 57.5684-33.3496Q57.5684-30.2246 56.0303-27.6367Q54.4922-25.0488 51.9287-23.5107Q49.3652-21.9727 46.2402-21.9727Q43.0664-21.9727 40.5029-23.5107Q37.9395-25.0488 36.4258-27.6367Q34.9121-30.2246 34.9121-33.3496Q34.9121-36.4746 36.4258-39.0625Q37.9395-41.6504 40.5029-43.1641Q43.0664-44.6777 46.2402-44.6777Q46.6309-44.6777 46.875-44.6289L43.8477-41.748Q43.0664-40.9668 43.0664-39.8438Q43.0664-38.6719 43.8477-37.8906Q44.6289-37.1094 45.752-37.1094Q46.875-37.1094 47.6562-37.9395L54.8828-45.1172Q55.6641-45.8496 55.6396-47.0459Q55.6152-48.2422 54.8828-48.9746L47.7051-56.2988Q47.3633-56.6406 46.8506-56.8604Q46.3379-57.0801 45.752-57.0801Q44.6289-57.0801 43.8477-56.2744Q43.0664-55.4688 43.0664-54.3457Q43.0664-53.8086 43.2861-53.2959Q43.5059-52.7832 43.8477-52.3926L45.8008-50.3906Q45.7031-50.4395 45.5566-50.4395Q45.4102-50.4395 45.3613-50.4395Q41.0645-50.4395 37.3291-48.1689Q33.5938-45.8984 31.2744-42.0654Q28.9551-38.2324 28.9551-33.4961Z"/>
  </g>
  <g id="Light-S" transform="matrix(1 0 0 1 1107.6 696)">
   <path class="hierarchical-0:secondary SFSymbolsPreview4D4D4D" d="M45.5078 3.41797Q53.4668 3.41797 60.4736 0.415039Q67.4805-2.58789 72.8271-7.95898Q78.1738-13.3301 81.2012-20.3125Q84.2285-27.2949 84.2285-35.2539Q84.2285-43.2129 81.2012-50.1953Q78.1738-57.1777 72.8027-62.5488Q67.4316-67.9199 60.4492-70.9229Q53.4668-73.9258 45.459-73.9258Q37.5488-73.9258 30.542-70.9229Q23.5352-67.9199 18.2129-62.5488Q12.8906-57.1777 9.86328-50.1953Q6.83594-43.2129 6.83594-35.2539Q6.83594-27.2949 9.86328-20.3125Q12.8906-13.3301 18.2373-7.95898Q23.584-2.58789 30.5908 0.415039Q37.5977 3.41797 45.5078 3.41797ZM45.5078-2.29492Q38.6719-2.29492 32.6904-4.83398Q26.709-7.37305 22.1924-11.9141Q17.6758-16.4551 15.1367-22.4365Q12.5977-28.418 12.5977-35.2539Q12.5977-42.0898 15.1367-48.0713Q17.6758-54.0527 22.1924-58.5938Q26.709-63.1348 32.666-65.6738Q38.623-68.2129 45.459-68.2129Q52.3438-68.2129 58.3252-65.6738Q64.3066-63.1348 68.8232-58.5938Q73.3398-54.0527 75.9277-48.0713Q78.5156-42.0898 78.5156-35.2539Q78.5156-28.418 75.9521-22.4365Q73.3887-16.4551 68.8721-11.9141Q64.3555-7.37305 58.374-4.83398Q52.3926-2.29492 45.5078-2.29492Z"/>
   <path class="hierarchical-1:primary SFSymbolsPreview212121" d="M28.6133-33.4961Q28.6133-28.8086 30.8838-24.9268Q33.1543-21.0449 36.9873-18.75Q40.8203-16.4551 45.5078-16.4551Q50.1953-16.4551 54.0283-18.75Q57.8613-21.0449 60.1074-24.8779Q62.3535-28.7109 62.3535-33.3984Q62.3535-34.375 61.6699-35.0586Q60.9863-35.7422 60.0098-35.7422Q59.082-35.7422 58.374-35.0586Q57.666-34.375 57.666-33.3984Q57.666-30.0293 56.0303-27.2461Q54.3945-24.4629 51.6357-22.8271Q48.877-21.1914 45.5078-21.1914Q42.0898-21.1914 39.3311-22.8271Q36.5723-24.4629 34.9609-27.2461Q33.3496-30.0293 33.3496-33.3984Q33.3496-36.7676 34.9609-39.5508Q36.5723-42.334 39.3311-43.9453Q42.0898-45.5566 45.5078-45.5566Q46.7285-45.5566 47.5098-45.3613L43.2129-41.1133Q42.5293-40.4297 42.5293-39.502Q42.5293-38.5742 43.1396-37.9395Q43.75-37.3047 44.6777-37.3047Q45.5566-37.3047 46.1914-37.9395L53.7598-45.6055Q54.3945-46.2402 54.3945-47.2168Q54.3945-48.1934 53.7598-48.8281L46.2891-56.4941Q45.9961-56.7871 45.5811-56.9824Q45.166-57.1777 44.6777-57.1777Q43.75-57.1777 43.1152-56.543Q42.4805-55.9082 42.4805-54.9805Q42.4805-54.541 42.6514-54.126Q42.8223-53.7109 43.1152-53.3691L46.4355-50Q46.0938-50.0977 45.6787-50.1221Q45.2637-50.1465 44.9219-50.1465Q40.5762-50.1465 36.8652-47.9248Q33.1543-45.7031 30.8838-41.9434Q28.6133-38.1836 28.6133-33.4961Z"/>
  </g>
  <g id="Thin-S" transform="matrix(1 0 0 1 811.867 696)">
   <path class="hierarchical-0:secondary SFSymbolsPreview4D4D4D" d="M44.5312 2.44141Q52.3438 2.44141 59.1553-0.488281Q65.9668-3.41797 71.1914-8.64258Q76.416-13.8672 79.3457-20.6787Q82.2754-27.4902 82.2754-35.2539Q82.2754-43.0176 79.3457-49.8291Q76.416-56.6406 71.1914-61.8652Q65.9668-67.0898 59.1553-70.0195Q52.3438-72.9492 44.5312-72.9492Q36.7676-72.9492 29.9316-70.0195Q23.0957-67.0898 17.9199-61.8652Q12.7441-56.6406 9.79004-49.8291Q6.83594-43.0176 6.83594-35.2539Q6.83594-27.4902 9.79004-20.6787Q12.7441-13.8672 17.9199-8.64258Q23.0957-3.41797 29.9316-0.488281Q36.7676 2.44141 44.5312 2.44141ZM44.5312-0.927734Q37.4512-0.927734 31.2256-3.58887Q25-6.25 20.2881-10.9619Q15.5762-15.6738 12.915-21.9238Q10.2539-28.1738 10.2539-35.2539Q10.2539-42.334 12.915-48.584Q15.5762-54.834 20.2881-59.5459Q25-64.2578 31.2256-66.9189Q37.4512-69.5801 44.5312-69.5801Q51.6602-69.5801 57.8857-66.9189Q64.1113-64.2578 68.8232-59.5459Q73.5352-54.834 76.1963-48.584Q78.8574-42.334 78.8574-35.2539Q78.8574-28.1738 76.1963-21.9238Q73.5352-15.6738 68.8232-10.9619Q64.1113-6.25 57.8857-3.58887Q51.6602-0.927734 44.5312-0.927734Z"/>
   <path class="hierarchical-1:primary SFSymbolsPreview212121" d="M28.1738-33.4961Q28.1738-28.9062 30.3711-25.1465Q32.5684-21.3867 36.2793-19.1895Q39.9902-16.9922 44.5312-16.9922Q49.1211-16.9922 52.832-19.1895Q56.543-21.3867 58.7158-25.1221Q60.8887-28.8574 60.8887-33.4473Q60.8887-34.0332 60.4492-34.4971Q60.0098-34.9609 59.4238-34.9609Q58.7402-34.9609 58.3008-34.4971Q57.8613-34.0332 57.8613-33.4473Q57.8613-29.6875 56.0791-26.6602Q54.2969-23.6328 51.2939-21.8506Q48.291-20.0684 44.5312-20.0684Q40.8203-20.0684 37.8174-21.8506Q34.8145-23.6328 33.0322-26.6602Q31.25-29.6875 31.25-33.4473Q31.25-37.1094 33.0322-40.1367Q34.8145-43.1641 37.8174-44.9219Q40.8203-46.6797 44.5312-46.6797Q46.875-46.6797 48.4375-46.2891L42.3828-40.2344Q41.7969-39.6973 41.7969-38.9648Q41.7969-38.3789 42.2119-37.915Q42.627-37.4512 43.2617-37.4512Q43.8965-37.4512 44.2871-37.9395L52.2949-46.1914Q52.7344-46.6309 52.7588-47.3633Q52.7832-48.0957 52.2949-48.584L44.4336-56.6406Q44.1895-56.9336 43.8965-57.1045Q43.6035-57.2754 43.2617-57.2754Q42.5781-57.2754 42.1631-56.8359Q41.748-56.3965 41.748-55.7617Q41.748-55.4688 41.8213-55.1758Q41.8945-54.8828 42.1387-54.6387L47.3633-49.4141Q46.6797-49.5605 45.8984-49.6338Q45.1172-49.707 44.3359-49.707Q39.8926-49.707 36.2305-47.5342Q32.5684-45.3613 30.3711-41.6992Q28.1738-38.0371 28.1738-33.4961Z"/>
  </g>
  <g id="Ultralight-S" transform="matrix(1 0 0 1 515.644 696)">
   <path class="hierarchical-0:secondary SFSymbolsPreview4D4D4D" d="M44.043 1.95312Q51.7578 1.95312 58.4717-0.927734Q65.1855-3.80859 70.3369-8.95996Q75.4883-14.1113 78.3936-20.8252Q81.2988-27.5391 81.2988-35.2539Q81.2988-42.9688 78.3936-49.6826Q75.4883-56.3965 70.3369-61.5479Q65.1855-66.6992 58.4717-69.5801Q51.7578-72.4609 44.043-72.4609Q36.377-72.4609 29.6387-69.5801Q22.9004-66.6992 17.7734-61.5479Q12.6465-56.3965 9.74121-49.6826Q6.83594-42.9688 6.83594-35.2539Q6.83594-27.5391 9.74121-20.8252Q12.6465-14.1113 17.7734-8.95996Q22.9004-3.80859 29.6387-0.927734Q36.377 1.95312 44.043 1.95312ZM44.043-0.292969Q36.8164-0.292969 30.4688-3.00293Q24.1211-5.71289 19.3115-10.5225Q14.502-15.332 11.7676-21.6797Q9.0332-28.0273 9.0332-35.2539Q9.0332-42.4805 11.7676-48.8281Q14.502-55.1758 19.3115-59.9854Q24.1211-64.7949 30.4688-67.5049Q36.8164-70.2148 44.043-70.2148Q51.2695-70.2148 57.6416-67.5049Q64.0137-64.7949 68.7988-59.9854Q73.584-55.1758 76.3184-48.8281Q79.0527-42.4805 79.0527-35.2539Q79.0527-28.0273 76.3428-21.6797Q73.6328-15.332 68.8232-10.5225Q64.0137-5.71289 57.666-3.00293Q51.3184-0.292969 44.043-0.292969Z"/>
   <path class="hierarchical-1:primary SFSymbolsPreview212121" d="M27.9785-33.4961Q27.9785-29.0039 30.127-25.3174Q32.2754-21.6309 35.9375-19.4824Q39.5996-17.334 44.0918-17.334Q48.6328-17.334 52.2705-19.4824Q55.9082-21.6309 58.0566-25.3174Q60.2051-29.0039 60.2051-33.4961Q60.2051-33.9355 59.8633-34.2773Q59.5215-34.6191 59.1309-34.6191Q58.5938-34.6191 58.2764-34.2773Q57.959-33.9355 57.959-33.4961Q57.959-29.5898 56.1035-26.4404Q54.248-23.291 51.123-21.4355Q47.998-19.5801 44.0918-19.5801Q40.2344-19.5801 37.085-21.4355Q33.9355-23.291 32.0801-26.4404Q30.2246-29.5898 30.2246-33.4961Q30.2246-37.3535 32.0801-40.4785Q33.9355-43.6035 37.085-45.4346Q40.2344-47.2656 44.0918-47.2656Q46.9727-47.2656 48.877-46.8262L41.9434-39.8438Q41.4551-39.3555 41.4551-38.7207Q41.4551-38.3301 41.748-37.9639Q42.041-37.5977 42.5781-37.5977Q43.0176-37.5977 43.3105-37.9395L51.6113-46.5332Q51.9043-46.9238 51.9531-47.4854Q52.002-48.0469 51.6113-48.5352L43.5059-56.7871Q43.3105-57.0801 43.0664-57.2266Q42.8223-57.373 42.5293-57.373Q42.041-57.373 41.7236-57.0312Q41.4062-56.6895 41.4062-56.2012Q41.4062-56.0059 41.4551-55.7861Q41.5039-55.5664 41.6992-55.3223L47.8027-49.1699Q46.9727-49.3164 46.0205-49.4385Q45.0684-49.5605 44.043-49.5605Q39.5996-49.5605 35.9375-47.4121Q32.2754-45.2637 30.127-41.626Q27.9785-37.9883 27.9785-33.4961Z"/>
  </g>
 </g>
</svg>
