<?xml version="1.0" encoding="UTF-8"?>
<!--Generator: Apple Native CoreSVG 175-->
<!DOCTYPE svg
PUBLIC "-//W3C//DTD SVG 1.1//EN"
       "http://www.w3.org/Graphics/SVG/1.1/DTD/svg11.dtd">
<svg version="1.1" xmlns="http://www.w3.org/2000/svg" xmlns:xlink="http://www.w3.org/1999/xlink" width="3300" height="2200">
 <!--glyph: "uni100447.medium", point size: 100.0, font version: "17.0d11e1", template writer version: "65.1"-->
 <g id="Notes">
  <rect height="2200" id="artboard" style="fill:white;opacity:1" width="3300" x="0" y="0"/>
  <line style="fill:none;stroke:black;opacity:1;stroke-width:0.5;" x1="263" x2="3036" y1="292" y2="292"/>
  <text style="stroke:none;fill:black;font-family:sans-serif;font-size:13;font-weight:bold;" transform="matrix(1 0 0 1 263 322)">Weight/Scale Variations</text>
  <text style="stroke:none;fill:black;font-family:sans-serif;font-size:13;text-anchor:middle;" transform="matrix(1 0 0 1 559.711 322)">Ultralight</text>
  <text style="stroke:none;fill:black;font-family:sans-serif;font-size:13;text-anchor:middle;" transform="matrix(1 0 0 1 856.422 322)">Thin</text>
  <text style="stroke:none;fill:black;font-family:sans-serif;font-size:13;text-anchor:middle;" transform="matrix(1 0 0 1 1153.13 322)">Light</text>
  <text style="stroke:none;fill:black;font-family:sans-serif;font-size:13;text-anchor:middle;" transform="matrix(1 0 0 1 1449.84 322)">Regular</text>
  <text style="stroke:none;fill:black;font-family:sans-serif;font-size:13;text-anchor:middle;" transform="matrix(1 0 0 1 1746.56 322)">Medium</text>
  <text style="stroke:none;fill:black;font-family:sans-serif;font-size:13;text-anchor:middle;" transform="matrix(1 0 0 1 2043.27 322)">Semibold</text>
  <text style="stroke:none;fill:black;font-family:sans-serif;font-size:13;text-anchor:middle;" transform="matrix(1 0 0 1 2339.98 322)">Bold</text>
  <text style="stroke:none;fill:black;font-family:sans-serif;font-size:13;text-anchor:middle;" transform="matrix(1 0 0 1 2636.69 322)">Heavy</text>
  <text style="stroke:none;fill:black;font-family:sans-serif;font-size:13;text-anchor:middle;" transform="matrix(1 0 0 1 2933.4 322)">Black</text>
  <line style="fill:none;stroke:black;opacity:1;stroke-width:0.5;" x1="263" x2="3036" y1="1903" y2="1903"/>
  <g transform="matrix(1 0 0 1 263 1933)">
   <path d="M9.24805 0.830078Q10.8691 0.830078 12.2949 0.214844Q13.7207-0.400391 14.8096-1.49414Q15.8984-2.58789 16.5186-4.01367Q17.1387-5.43945 17.1387-7.05078Q17.1387-8.66211 16.5186-10.0879Q15.8984-11.5137 14.8047-12.6074Q13.7109-13.7012 12.2852-14.3164Q10.8594-14.9316 9.23828-14.9316Q7.62695-14.9316 6.20117-14.3164Q4.77539-13.7012 3.69141-12.6074Q2.60742-11.5137 1.9873-10.0879Q1.36719-8.66211 1.36719-7.05078Q1.36719-5.43945 1.9873-4.01367Q2.60742-2.58789 3.69629-1.49414Q4.78516-0.400391 6.21094 0.214844Q7.63672 0.830078 9.24805 0.830078ZM9.24805-0.654297Q7.91992-0.654297 6.7627-1.14746Q5.60547-1.64062 4.73145-2.51953Q3.85742-3.39844 3.36426-4.56055Q2.87109-5.72266 2.87109-7.05078Q2.87109-8.37891 3.35938-9.54102Q3.84766-10.7031 4.72168-11.582Q5.5957-12.4609 6.75293-12.9541Q7.91016-13.4473 9.23828-13.4473Q10.5762-13.4473 11.7334-12.9541Q12.8906-12.4609 13.7695-11.582Q14.6484-10.7031 15.1465-9.54102Q15.6445-8.37891 15.6445-7.05078Q15.6445-5.72266 15.1514-4.56055Q14.6582-3.39844 13.7842-2.51953Q12.9102-1.64062 11.748-1.14746Q10.5859-0.654297 9.24805-0.654297ZM5.6543-7.05078Q5.6543-6.72852 5.85938-6.52832Q6.06445-6.32812 6.40625-6.32812L8.51562-6.32812L8.51562-4.20898Q8.51562-3.88672 8.71094-3.67676Q8.90625-3.4668 9.23828-3.4668Q9.56055-3.4668 9.77051-3.67676Q9.98047-3.88672 9.98047-4.20898L9.98047-6.32812L12.0898-6.32812Q12.4219-6.32812 12.627-6.52832Q12.832-6.72852 12.832-7.05078Q12.832-7.38281 12.627-7.58789Q12.4219-7.79297 12.0898-7.79297L9.98047-7.79297L9.98047-9.90234Q9.98047-10.2344 9.77051-10.4443Q9.56055-10.6543 9.23828-10.6543Q8.90625-10.6543 8.71094-10.4443Q8.51562-10.2344 8.51562-9.90234L8.51562-7.79297L6.40625-7.79297Q6.06445-7.79297 5.85938-7.58789Q5.6543-7.38281 5.6543-7.05078Z"/>
  </g>
  <g transform="matrix(1 0 0 1 281.867 1933)">
   <path d="M11.709 2.91016Q13.75 2.91016 15.5518 2.12891Q17.3535 1.34766 18.7305-0.0292969Q20.1074-1.40625 20.8887-3.20801Q21.6699-5.00977 21.6699-7.05078Q21.6699-9.0918 20.8887-10.8936Q20.1074-12.6953 18.7305-14.0723Q17.3535-15.4492 15.5469-16.2305Q13.7402-17.0117 11.6992-17.0117Q9.6582-17.0117 7.85645-16.2305Q6.05469-15.4492 4.68262-14.0723Q3.31055-12.6953 2.5293-10.8936Q1.74805-9.0918 1.74805-7.05078Q1.74805-5.00977 2.5293-3.20801Q3.31055-1.40625 4.6875-0.0292969Q6.06445 1.34766 7.86621 2.12891Q9.66797 2.91016 11.709 2.91016ZM11.709 1.25Q9.98047 1.25 8.47656 0.605469Q6.97266-0.0390625 5.83496-1.17676Q4.69727-2.31445 4.05762-3.81836Q3.41797-5.32227 3.41797-7.05078Q3.41797-8.7793 4.05762-10.2832Q4.69727-11.7871 5.83008-12.9297Q6.96289-14.0723 8.4668-14.7119Q9.9707-15.3516 11.6992-15.3516Q13.4277-15.3516 14.9316-14.7119Q16.4355-14.0723 17.5781-12.9297Q18.7207-11.7871 19.3652-10.2832Q20.0098-8.7793 20.0098-7.05078Q20.0098-5.32227 19.3701-3.81836Q18.7305-2.31445 17.5928-1.17676Q16.4551-0.0390625 14.9463 0.605469Q13.4375 1.25 11.709 1.25ZM7.17773-7.05078Q7.17773-6.69922 7.41211-6.47461Q7.64648-6.25 8.01758-6.25L10.8887-6.25L10.8887-3.36914Q10.8887-2.99805 11.1133-2.76855Q11.3379-2.53906 11.6895-2.53906Q12.0605-2.53906 12.29-2.76855Q12.5195-2.99805 12.5195-3.36914L12.5195-6.25L15.4004-6.25Q15.7715-6.25 16.001-6.47461Q16.2305-6.69922 16.2305-7.05078Q16.2305-7.42188 16.001-7.65137Q15.7715-7.88086 15.4004-7.88086L12.5195-7.88086L12.5195-10.752Q12.5195-11.1328 12.29-11.3623Q12.0605-11.5918 11.6895-11.5918Q11.3379-11.5918 11.1133-11.3574Q10.8887-11.123 10.8887-10.752L10.8887-7.88086L8.01758-7.88086Q7.63672-7.88086 7.40723-7.65137Q7.17773-7.42188 7.17773-7.05078Z"/>
  </g>
  <g transform="matrix(1 0 0 1 305.646 1933)">
   <path d="M14.9707 5.66406Q17.0605 5.66406 18.96 5.01465Q20.8594 4.36523 22.4512 3.19336Q24.043 2.02148 25.2197 0.429688Q26.3965-1.16211 27.0459-3.06641Q27.6953-4.9707 27.6953-7.05078Q27.6953-9.14062 27.0459-11.04Q26.3965-12.9395 25.2197-14.5312Q24.043-16.123 22.4512-17.2998Q20.8594-18.4766 18.9551-19.126Q17.0508-19.7754 14.9609-19.7754Q12.8711-19.7754 10.9717-19.126Q9.07227-18.4766 7.48535-17.2998Q5.89844-16.123 4.72168-14.5312Q3.54492-12.9395 2.90039-11.04Q2.25586-9.14062 2.25586-7.05078Q2.25586-4.9707 2.90527-3.06641Q3.55469-1.16211 4.72656 0.429688Q5.89844 2.02148 7.49023 3.19336Q9.08203 4.36523 10.9814 5.01465Q12.8809 5.66406 14.9707 5.66406ZM14.9707 3.84766Q13.1641 3.84766 11.5283 3.2959Q9.89258 2.74414 8.53516 1.74805Q7.17773 0.751953 6.17676-0.610352Q5.17578-1.97266 4.62891-3.6084Q4.08203-5.24414 4.08203-7.05078Q4.08203-8.86719 4.62891-10.5029Q5.17578-12.1387 6.17188-13.501Q7.16797-14.8633 8.52539-15.8594Q9.88281-16.8555 11.5186-17.4023Q13.1543-17.9492 14.9609-17.9492Q16.7773-17.9492 18.4131-17.4023Q20.0488-16.8555 21.4111-15.8594Q22.7734-14.8633 23.7695-13.501Q24.7656-12.1387 25.3174-10.5029Q25.8691-8.86719 25.8691-7.05078Q25.8789-5.24414 25.332-3.6084Q24.7852-1.97266 23.7842-0.610352Q22.7832 0.751953 21.4209 1.74805Q20.0586 2.74414 18.4229 3.2959Q16.7871 3.84766 14.9707 3.84766ZM9.19922-7.05078Q9.19922-6.66992 9.45801-6.4209Q9.7168-6.17188 10.1172-6.17188L14.0625-6.17188L14.0625-2.2168Q14.0625-1.81641 14.3115-1.55762Q14.5605-1.29883 14.9512-1.29883Q15.3516-1.29883 15.6104-1.55273Q15.8691-1.80664 15.8691-2.2168L15.8691-6.17188L19.8242-6.17188Q20.2246-6.17188 20.4785-6.4209Q20.7324-6.66992 20.7324-7.05078Q20.7324-7.46094 20.4785-7.71484Q20.2246-7.96875 19.8242-7.96875L15.8691-7.96875L15.8691-11.9141Q15.8691-12.3242 15.6104-12.583Q15.3516-12.8418 14.9512-12.8418Q14.5605-12.8418 14.3115-12.583Q14.0625-12.3242 14.0625-11.9141L14.0625-7.96875L10.1172-7.96875Q9.70703-7.96875 9.45312-7.71484Q9.19922-7.46094 9.19922-7.05078Z"/>
  </g>
  <text style="stroke:none;fill:black;font-family:sans-serif;font-size:13;font-weight:bold;" transform="matrix(1 0 0 1 263 1953)">Design Variations</text>
  <text style="stroke:none;fill:black;font-family:sans-serif;font-size:13;" transform="matrix(1 0 0 1 263 1971)">Symbols are supported in up to nine weights and three scales.</text>
  <text style="stroke:none;fill:black;font-family:sans-serif;font-size:13;" transform="matrix(1 0 0 1 263 1989)">For optimal layout with text and other symbols, vertically align</text>
  <text style="stroke:none;fill:black;font-family:sans-serif;font-size:13;" transform="matrix(1 0 0 1 263 2007)">symbols with the adjacent text.</text>
  <line style="fill:none;stroke:#00AEEF;stroke-width:0.5;opacity:1.0;" x1="776" x2="776" y1="1919" y2="1933"/>
  <g transform="matrix(1 0 0 1 776 1933)">
   <path d="M3.31055 0.15625Q3.70117 0.15625 3.91602-0.00976562Q4.13086-0.175781 4.26758-0.585938L5.52734-4.0332L11.2891-4.0332L12.5488-0.585938Q12.6855-0.175781 12.9004-0.00976562Q13.1152 0.15625 13.4961 0.15625Q13.8867 0.15625 14.1162-0.0585938Q14.3457-0.273438 14.3457-0.644531Q14.3457-0.869141 14.2383-1.17188L9.6582-13.3691Q9.48242-13.8184 9.17969-14.043Q8.87695-14.2676 8.4082-14.2676Q7.5-14.2676 7.17773-13.3789L2.59766-1.16211Q2.49023-0.859375 2.49023-0.634766Q2.49023-0.263672 2.70996-0.0537109Q2.92969 0.15625 3.31055 0.15625ZM6.00586-5.51758L8.37891-12.0898L8.42773-12.0898L10.8008-5.51758Z"/>
  </g>
  <line style="fill:none;stroke:#00AEEF;stroke-width:0.5;opacity:1.0;" x1="793.197" x2="793.197" y1="1919" y2="1933"/>
  <text style="stroke:none;fill:black;font-family:sans-serif;font-size:13;font-weight:bold;" transform="matrix(1 0 0 1 776 1953)">Margins</text>
  <text style="stroke:none;fill:black;font-family:sans-serif;font-size:13;" transform="matrix(1 0 0 1 776 1971)">Leading and trailing margins on the left and right side of each symbol</text>
  <text style="stroke:none;fill:black;font-family:sans-serif;font-size:13;" transform="matrix(1 0 0 1 776 1989)">can be adjusted by modifying the x-location of the margin guidelines.</text>
  <text style="stroke:none;fill:black;font-family:sans-serif;font-size:13;" transform="matrix(1 0 0 1 776 2007)">Modifications are automatically applied proportionally to all</text>
  <text style="stroke:none;fill:black;font-family:sans-serif;font-size:13;" transform="matrix(1 0 0 1 776 2025)">scales and weights.</text>
  <g transform="matrix(1 0 0 1 1289 1933)">
   <path d="M2.8418 1.86523L4.54102 3.57422Q5.18555 4.22852 5.90332 4.17969Q6.62109 4.13086 7.31445 3.35938L18.0078-8.42773L17.041-9.4043L6.42578 2.27539Q6.16211 2.57812 5.89355 2.61719Q5.625 2.65625 5.27344 2.30469L4.10156 1.14258Q3.75 0.791016 3.79395 0.522461Q3.83789 0.253906 4.14062-0.0195312L15.6152-10.8203L14.6387-11.7871L3.04688-0.898438Q2.30469-0.214844 2.25098 0.498047Q2.19727 1.21094 2.8418 1.86523ZM9.25781-16.3281Q8.94531-16.0254 8.90625-15.6348Q8.86719-15.2441 9.04297-14.9512Q9.21875-14.6777 9.55566-14.541Q9.89258-14.4043 10.3809-14.5215Q11.4746-14.7754 12.5977-14.7314Q13.7207-14.6875 14.7949-13.9844L14.209-12.5293Q13.9551-11.9043 14.0674-11.4404Q14.1797-10.9766 14.5801-10.5664L16.875-8.25195Q17.2363-7.88086 17.5781-7.82227Q17.9199-7.76367 18.3398-7.8418L19.4043-8.03711L20.0684-7.36328L20.0293-6.80664Q20-6.43555 20.1221-6.12305Q20.2441-5.81055 20.6055-5.44922L21.3672-4.70703Q21.7285-4.3457 22.1533-4.33105Q22.5781-4.31641 22.9297-4.66797L25.8398-7.58789Q26.1914-7.93945 26.1816-8.35449Q26.1719-8.76953 25.8105-9.13086L25.0391-9.89258Q24.6875-10.2539 24.3799-10.3857Q24.0723-10.5176 23.7109-10.4883L23.1348-10.4395L22.4902-11.0742L22.7344-12.1973Q22.832-12.6172 22.6953-12.9834Q22.5586-13.3496 22.1191-13.7891L19.9219-15.9766Q18.6719-17.2168 17.2607-17.8369Q15.8496-18.457 14.4189-18.4814Q12.9883-18.5059 11.665-17.959Q10.3418-17.4121 9.25781-16.3281ZM10.752-15.957Q11.6602-16.6211 12.7002-16.9043Q13.7402-17.1875 14.8047-17.085Q15.8691-16.9824 16.8701-16.5137Q17.8711-16.0449 18.7012-15.2051L21.1328-12.793Q21.3086-12.6172 21.3525-12.4512Q21.3965-12.2852 21.3379-12.0312L21.0156-10.5469L22.5195-9.0625L23.5059-9.12109Q23.6914-9.13086 23.7891-9.09668Q23.8867-9.0625 24.0332-8.91602L24.6094-8.33984L22.168-5.89844L21.5918-6.47461Q21.4453-6.62109 21.4062-6.71875Q21.3672-6.81641 21.377-7.01172L21.4453-7.98828L19.9512-9.47266L18.4277-9.21875Q18.1836-9.16992 18.042-9.2041Q17.9004-9.23828 17.7148-9.41406L15.7129-11.416Q15.5176-11.5918 15.4932-11.7529Q15.4688-11.9141 15.5859-12.1875L16.4648-14.2773Q15.293-15.3711 13.8281-15.791Q12.3633-16.2109 10.8398-15.7617Q10.7227-15.7324 10.6885-15.8057Q10.6543-15.8789 10.752-15.957Z"/>
  </g>
  <text style="stroke:none;fill:black;font-family:sans-serif;font-size:13;font-weight:bold;" transform="matrix(1 0 0 1 1289 1953)">Exporting</text>
  <text style="stroke:none;fill:black;font-family:sans-serif;font-size:13;" transform="matrix(1 0 0 1 1289 1971)">Symbols should be outlined when exporting to ensure the</text>
  <text style="stroke:none;fill:black;font-family:sans-serif;font-size:13;" transform="matrix(1 0 0 1 1289 1989)">design is preserved when submitting to Xcode.</text>
  <text id="template-version" style="stroke:none;fill:black;font-family:sans-serif;font-size:13;text-anchor:end;" transform="matrix(1 0 0 1 3036 1933)">Template v.3.0</text>
  <text style="stroke:none;fill:black;font-family:sans-serif;font-size:13;text-anchor:end;" transform="matrix(1 0 0 1 3036 1951)">Requires Xcode 13 or greater</text>
  <text id="descriptive-name" style="stroke:none;fill:black;font-family:sans-serif;font-size:13;text-anchor:end;" transform="matrix(1 0 0 1 3036 1969)">Generated from staroflife.fill</text>
  <text style="stroke:none;fill:black;font-family:sans-serif;font-size:13;text-anchor:end;" transform="matrix(1 0 0 1 3036 1987)">Typeset at 100 points</text>
  <text style="stroke:none;fill:black;font-family:sans-serif;font-size:13;" transform="matrix(1 0 0 1 263 726)">Small</text>
  <text style="stroke:none;fill:black;font-family:sans-serif;font-size:13;" transform="matrix(1 0 0 1 263 1156)">Medium</text>
  <text style="stroke:none;fill:black;font-family:sans-serif;font-size:13;" transform="matrix(1 0 0 1 263 1586)">Large</text>
 </g>
 <g id="Guides">
  <g id="H-reference" style="fill:#27AAE1;stroke:none;" transform="matrix(1 0 0 1 339 696)">
   <path d="M0.976562 0L3.66211 0L29.3457-67.1387L30.0293-67.1387L30.0293-70.459L28.125-70.459ZM11.6699-24.4629L46.9727-24.4629L46.2402-26.709L12.4512-26.709ZM55.127 0L57.7637 0L30.6152-70.459L29.4434-70.459L29.4434-67.1387Z"/>
  </g>
  <line id="Baseline-S" style="fill:none;stroke:#27AAE1;opacity:1;stroke-width:0.5;" x1="263" x2="3036" y1="696" y2="696"/>
  <line id="Capline-S" style="fill:none;stroke:#27AAE1;opacity:1;stroke-width:0.5;" x1="263" x2="3036" y1="625.541" y2="625.541"/>
  <g id="H-reference" style="fill:#27AAE1;stroke:none;" transform="matrix(1 0 0 1 339 1126)">
   <path d="M0.976562 0L3.66211 0L29.3457-67.1387L30.0293-67.1387L30.0293-70.459L28.125-70.459ZM11.6699-24.4629L46.9727-24.4629L46.2402-26.709L12.4512-26.709ZM55.127 0L57.7637 0L30.6152-70.459L29.4434-70.459L29.4434-67.1387Z"/>
  </g>
  <line id="Baseline-M" style="fill:none;stroke:#27AAE1;opacity:1;stroke-width:0.5;" x1="263" x2="3036" y1="1126" y2="1126"/>
  <line id="Capline-M" style="fill:none;stroke:#27AAE1;opacity:1;stroke-width:0.5;" x1="263" x2="3036" y1="1055.54" y2="1055.54"/>
  <g id="H-reference" style="fill:#27AAE1;stroke:none;" transform="matrix(1 0 0 1 339 1556)">
   <path d="M0.976562 0L3.66211 0L29.3457-67.1387L30.0293-67.1387L30.0293-70.459L28.125-70.459ZM11.6699-24.4629L46.9727-24.4629L46.2402-26.709L12.4512-26.709ZM55.127 0L57.7637 0L30.6152-70.459L29.4434-70.459L29.4434-67.1387Z"/>
  </g>
  <line id="Baseline-L" style="fill:none;stroke:#27AAE1;opacity:1;stroke-width:0.5;" x1="263" x2="3036" y1="1556" y2="1556"/>
  <line id="Capline-L" style="fill:none;stroke:#27AAE1;opacity:1;stroke-width:0.5;" x1="263" x2="3036" y1="1485.54" y2="1485.54"/>
  <line id="left-margin-Regular-M" style="fill:none;stroke:#00AEEF;stroke-width:0.5;opacity:1.0;" x1="1399.53" x2="1399.53" y1="1030.79" y2="1150.12"/>
  <line id="right-margin-Regular-M" style="fill:none;stroke:#00AEEF;stroke-width:0.5;opacity:1.0;" x1="1500.16" x2="1500.16" y1="1030.79" y2="1150.12"/>
 </g>
 <g id="Symbols">
  <g id="Black-L" transform="matrix(1 0 0 1 2863.14 1556)">
   <path d="M45.6543-36.9629L18.1641-21.4844Q14.8438-19.5801 13.1348-17.7002Q11.4258-15.8203 11.4258-13.3301Q11.4258-10.498 14.1113-5.85938L16.7969-1.2207Q20.7031 5.46875 25.0977 5.46875Q27.8809 5.46875 32.1289 2.92969L57.5684-11.9629L55.8594-12.9395L55.6152 17.2852Q55.5664 21.8262 56.7139 24.2432Q57.8613 26.6602 60.5225 27.5391Q63.1836 28.418 67.5781 28.418L72.8516 28.418Q77.2949 28.418 79.9072 27.5146Q82.5195 26.6113 83.667 24.2188Q84.8145 21.8262 84.7656 17.2363L84.5215-12.9395L82.8613-11.9629L108.398 2.83203Q110.547 4.10156 112.354 4.80957Q114.16 5.51758 115.723 5.51758Q117.969 5.51758 119.946 3.93066Q121.924 2.34375 124.072-1.12305L126.66-5.66406Q129.297-10.0586 129.297-13.0859Q129.297-15.6738 127.49-17.6025Q125.684-19.5312 122.314-21.3867L94.4824-36.9629L94.4824-33.8379L122.314-49.1211Q125.586-50.9277 127.295-52.8564Q129.004-54.7852 129.004-57.2754Q129.004-60.2051 126.367-64.6484L123.73-69.1895Q119.678-76.0254 115.381-76.0254Q112.5-76.0254 108.252-73.4375L83.0078-58.4473L84.668-57.4707L84.8145-87.3047Q84.8145-91.8945 83.667-94.2871Q82.5195-96.6797 79.9072-97.5586Q77.2949-98.4375 72.8516-98.4375L67.5781-98.4375Q63.1836-98.4375 60.5469-97.5586Q57.9102-96.6797 56.7871-94.2627Q55.6641-91.8457 55.6641-87.2559L55.8594-57.4707L57.666-58.4473L32.2266-73.3398Q30.0293-74.6094 28.1738-75.3418Q26.3184-76.0742 24.707-76.0742Q22.4121-76.0742 20.3857-74.4873Q18.3594-72.9004 16.3574-69.3359L13.7695-64.8438Q11.377-60.4492 11.377-57.5195Q11.377-54.8828 13.1348-52.9297Q14.8926-50.9766 18.2129-49.0723L45.6543-33.8867Z"/>
  </g>
  <g id="Heavy-L" transform="matrix(1 0 0 1 2567.74 1556)">
   <path d="M46.8262-37.1582L17.7734-20.7031Q14.5996-18.8965 12.9883-17.1143Q11.377-15.332 11.377-12.9883Q11.377-10.3027 13.9648-5.9082L16.0645-2.19727Q19.7754 4.15039 23.9258 4.15039Q26.5625 4.15039 30.6152 1.70898L57.9102-14.209L55.6641-15.4297L55.4688 16.748Q55.4199 20.9961 56.5186 23.291Q57.6172 25.5859 60.1074 26.4404Q62.5977 27.2949 66.7969 27.2949L70.9961 27.2949Q75.1953 27.2949 77.6611 26.416Q80.127 25.5371 81.2256 23.2666Q82.3242 20.9961 82.2754 16.6992L82.0801-15.4297L79.8828-14.209L107.227 1.66016Q109.277 2.88086 110.962 3.51562Q112.646 4.15039 114.111 4.15039Q116.26 4.15039 118.115 2.63672Q119.971 1.12305 122.021-2.14844L124.121-5.76172Q126.66-9.91211 126.66-12.793Q126.66-15.1855 124.951-17.0166Q123.242-18.8477 120.068-20.6055L90.7227-37.1582L90.7227-33.7891L120.068-49.9023Q123.145-51.6113 124.756-53.418Q126.367-55.2246 126.367-57.5684Q126.367-60.3516 123.877-64.5508L121.777-68.2129Q117.969-74.707 113.867-74.707Q111.182-74.707 107.129-72.2168L79.9805-56.25L82.1777-55.0293L82.3242-86.8652Q82.3242-91.1621 81.2256-93.4326Q80.127-95.7031 77.6611-96.5576Q75.1953-97.4121 70.9961-97.4121L66.7969-97.4121Q62.5977-97.4121 60.1318-96.5576Q57.666-95.7031 56.5918-93.4082Q55.5176-91.1133 55.5176-86.8164L55.6641-55.0293L57.959-56.25L30.7129-72.168Q28.6133-73.3887 26.8555-74.0723Q25.0977-74.7559 23.584-74.7559Q21.3867-74.7559 19.4824-73.2422Q17.5781-71.7285 15.7227-68.3105L13.6719-64.7461Q11.4258-60.498 11.4258-57.7637Q11.4258-55.2734 13.0371-53.4424Q14.6484-51.6113 17.8223-49.8047L46.8262-33.8379Z"/>
  </g>
  <g id="Bold-L" transform="matrix(1 0 0 1 2272.5 1556)">
   <path d="M48.1934-37.4512L17.334-19.8242Q14.3555-18.1152 12.8662-16.4551Q11.377-14.7949 11.377-12.5977Q11.377-10.0586 13.7695-5.95703L15.2832-3.32031Q18.75 2.68555 22.6074 2.68555Q25.0488 2.68555 28.9062 0.390625L58.3008-16.6992L55.4688-18.2129L55.3223 16.1621Q55.3223 20.1172 56.3232 22.2412Q57.3242 24.3652 59.668 25.1953Q62.0117 26.0254 65.918 26.0254L68.9453 26.0254Q72.8516 26.0254 75.1709 25.1953Q77.4902 24.3652 78.4912 22.2412Q79.4922 20.1172 79.4922 16.1133L79.3457-18.2129L76.5625-16.6992L105.957 0.341797Q107.861 1.46484 109.424 2.0752Q110.986 2.68555 112.354 2.68555Q114.355 2.68555 116.089 1.24512Q117.822-0.195312 119.775-3.27148L121.289-5.9082Q123.682-9.7168 123.682-12.4512Q123.682-14.6484 122.119-16.3818Q120.557-18.1152 117.529-19.7754L86.5234-37.4512L86.5234-33.7891L117.529-50.7324Q120.459-52.3438 121.948-54.0527Q123.438-55.7617 123.438-57.959Q123.438-60.5469 121.143-64.502L119.58-67.1387Q116.016-73.1934 112.207-73.1934Q109.717-73.1934 105.859-70.8984L76.6113-53.8086L79.4434-52.2949L79.4922-86.377Q79.4922-90.3809 78.4912-92.5049Q77.4902-94.6289 75.1709-95.4346Q72.8516-96.2402 68.9453-96.2402L65.918-96.2402Q62.0117-96.2402 59.6924-95.4346Q57.373-94.6289 56.3721-92.4805Q55.3711-90.332 55.3711-86.377L55.4688-52.2949L58.3496-53.8086L29.0039-70.8496Q27.0508-72.0215 25.3906-72.6562Q23.7305-73.291 22.3145-73.291Q20.2148-73.291 18.457-71.8506Q16.6992-70.4102 15.0391-67.2363L13.5254-64.5996Q11.4746-60.5957 11.4746-58.0078Q11.4746-55.7617 12.9395-54.0771Q14.4043-52.3926 17.4316-50.6836L48.1934-33.7891Z"/>
  </g>
  <g id="Semibold-L" transform="matrix(1 0 0 1 1976.81 1556)">
   <path d="M49.0723-37.5977L16.9922-19.1895Q14.1602-17.5781 12.7441-15.9912Q11.3281-14.4043 11.3281-12.3535Q11.3281-9.91211 13.623-5.95703L14.6973-4.10156Q18.0176 1.66016 21.6797 1.66016Q24.0234 1.66016 27.7344-0.537109L58.5449-18.4082L55.2734-20.1172L55.2246 15.7227Q55.1758 19.4824 56.1523 21.5088Q57.1289 23.5352 59.3506 24.3164Q61.5723 25.0977 65.2832 25.0977L67.4805 25.0977Q71.2402 25.0977 73.4375 24.3164Q75.6348 23.5352 76.5869 21.5088Q77.5391 19.4824 77.5391 15.7227L77.4414-20.1172L74.2188-18.4082L105.078-0.585938Q106.885 0.488281 108.35 1.0498Q109.814 1.61133 111.133 1.61133Q113.037 1.61133 114.673 0.244141Q116.309-1.12305 118.164-4.00391L119.287-5.95703Q121.631-9.57031 121.631-12.207Q121.631-14.2578 120.142-15.918Q118.652-17.5781 115.771-19.1406L83.6426-37.5977L83.6426-33.7402L115.771-51.3184Q118.604-52.8809 119.995-54.4922Q121.387-56.1035 121.387-58.1543Q121.387-60.6445 119.189-64.4043L118.018-66.4062Q114.697-72.168 111.035-72.168Q108.691-72.168 104.98-69.9707L74.2676-52.0996L77.4902-50.3906L77.5391-86.0352Q77.5391-89.7949 76.5869-91.8213Q75.6348-93.8477 73.4375-94.6533Q71.2402-95.459 67.4805-95.459L65.2832-95.459Q61.5723-95.459 59.3506-94.6533Q57.1289-93.8477 56.1768-91.8213Q55.2246-89.7949 55.2246-86.0352L55.2734-50.3906L58.5449-52.0996L27.7832-69.9219Q25.9766-71.0449 24.3896-71.6553Q22.8027-72.2656 21.4355-72.2656Q19.4336-72.2656 17.749-70.874Q16.0645-69.4824 14.502-66.4551L13.4277-64.502Q11.4746-60.6445 11.4746-58.2031Q11.4746-56.1035 12.8418-54.4922Q14.209-52.8809 17.0898-51.2207L49.0723-33.7402Z"/>
  </g>
  <g id="Medium-L" transform="matrix(1 0 0 1 1680.88 1556)">
   <path d="M49.7559-37.7441L16.748-18.7012Q14.0625-17.1875 12.6953-15.6494Q11.3281-14.1113 11.3281-12.1094Q11.3281-9.76562 13.5742-5.95703L14.2578-4.6875Q17.4805 0.927734 20.9961 0.927734Q23.2422 0.927734 26.8555-1.2207L58.7402-19.6777L55.1758-21.5332L55.127 15.3809Q55.127 18.9941 56.0547 20.9473Q56.9824 22.9004 59.1064 23.6816Q61.2305 24.4629 64.7949 24.4629L66.4062 24.4629Q70.0195 24.4629 72.1191 23.6816Q74.2188 22.9004 75.1465 20.9473Q76.0742 18.9941 76.0742 15.3809L76.0254-21.5332L72.5098-19.6777L104.395-1.26953Q106.152-0.244141 107.544 0.292969Q108.936 0.830078 110.205 0.830078Q112.061 0.830078 113.599-0.488281Q115.137-1.80664 116.992-4.58984L117.822-6.00586Q120.068-9.52148 120.068-12.0117Q120.068-14.0137 118.652-15.6006Q117.236-17.1875 114.453-18.7012L81.4453-37.7441L81.4453-33.7402L114.404-51.7578Q117.188-53.2715 118.506-54.8096Q119.824-56.3477 119.824-58.3496Q119.824-60.7422 117.773-64.3555L116.895-65.8203Q113.672-71.3867 110.156-71.3867Q107.91-71.3867 104.346-69.2871L72.5098-50.8301L76.0742-48.9258L76.0742-85.791Q76.0742-89.3555 75.1465-91.3086Q74.2188-93.2617 72.1191-94.043Q70.0195-94.8242 66.4062-94.8242L64.7949-94.8242Q61.2305-94.8242 59.1064-94.043Q56.9824-93.2617 56.0547-91.3086Q55.127-89.3555 55.127-85.791L55.1758-48.9258L58.7402-50.8301L26.9043-69.2383Q25.1465-70.3125 23.6084-70.8984Q22.0703-71.4844 20.8008-71.4844Q18.7988-71.4844 17.1875-70.1416Q15.5762-68.7988 14.1602-65.8691L13.3789-64.4531Q11.4746-60.6934 11.4746-58.3008Q11.4746-56.3477 12.793-54.8096Q14.1113-53.2715 16.8945-51.6602L49.7559-33.7402Z"/>
  </g>
  <g id="Regular-L" transform="matrix(1 0 0 1 1385.17 1556)">
   <path d="M50.6836-37.8906L16.4551-18.1152Q13.8672-16.6504 12.5732-15.1855Q11.2793-13.7207 11.2793-11.8652Q11.2793-9.61914 13.4277-6.00586L13.7207-5.41992Q16.748-0.0976562 20.1172-0.0976562Q22.2168-0.0976562 25.6836-2.14844L58.9844-21.3867L55.0293-23.4375L55.0293 14.9902Q55.0293 18.3594 55.9082 20.2148Q56.7871 22.0703 58.7891 22.8271Q60.791 23.584 64.209 23.584L64.9902 23.584Q68.4082 23.584 70.4102 22.8271Q72.4121 22.0703 73.291 20.2148Q74.1699 18.3594 74.1699 14.9902L74.1699-23.4375L70.2148-21.3867L103.516-2.14844Q105.176-1.17188 106.494-0.683594Q107.812-0.195312 108.984-0.195312Q110.742-0.195312 112.207-1.46484Q113.672-2.73438 115.43-5.37109L115.869-6.10352Q118.066-9.375 118.066-11.7676Q118.066-13.623 116.724-15.1367Q115.381-16.6504 112.744-18.1152L78.5645-37.8906L78.5645-33.6914L112.695-52.3438Q115.332-53.7598 116.577-55.2246Q117.822-56.6895 117.822-58.5938Q117.822-60.8398 115.869-64.3066L115.381-65.0879Q112.354-70.3613 109.033-70.3613Q106.885-70.3613 103.467-68.3594L70.2148-49.1699L74.1699-47.0703L74.1699-85.4492Q74.1699-88.8184 73.291-90.6738Q72.4121-92.5293 70.4102-93.2861Q68.4082-94.043 64.9902-94.043L64.209-94.043Q60.791-94.043 58.7891-93.2861Q56.7871-92.5293 55.9082-90.6738Q55.0293-88.8184 55.0293-85.4492L55.0293-47.0703L58.9844-49.1699L25.7324-68.3594Q24.0723-69.3848 22.6074-69.9219Q21.1426-70.459 19.9219-70.459Q18.0176-70.459 16.5039-69.1895Q14.9902-67.9199 13.6719-65.0879L13.2812-64.3555Q11.5234-60.7422 11.5234-58.4961Q11.5234-56.6406 12.7197-55.2002Q13.916-53.7598 16.6016-52.2461L50.6836-33.6914Z"/>
  </g>
  <g id="Light-L" transform="matrix(1 0 0 1 1088.8 1556)">
   <path d="M50.4883-37.6465L16.2598-17.8711Q13.7695-16.4551 12.5244-15.0391Q11.2793-13.623 11.2793-11.8164Q11.2793-9.61914 13.3301-6.15234L13.623-5.56641Q16.6016-0.439453 19.8242-0.439453Q21.875-0.439453 25.1953-2.44141L58.4961-21.6309L54.9805-23.4375L54.9805 14.9902Q54.9805 18.2617 55.835 20.0439Q56.6895 21.8262 58.6426 22.5586Q60.5957 23.291 63.8672 23.291L64.6484 23.291Q67.9688 23.291 69.8975 22.5586Q71.8262 21.8262 72.6807 20.0439Q73.5352 18.2617 73.5352 14.9902L73.5352-23.4375L70.0195-21.6309L103.32-2.44141Q104.932-1.46484 106.226-0.976562Q107.52-0.488281 108.643-0.488281Q110.352-0.488281 111.768-1.7334Q113.184-2.97852 114.844-5.51758L115.283-6.25Q117.383-9.47266 117.383-11.7676Q117.383-13.5254 116.089-14.9902Q114.795-16.4551 112.256-17.8711L78.0762-37.6465L78.0762-33.9355L112.207-52.5879Q114.795-53.9551 115.991-55.3711Q117.188-56.7871 117.188-58.6426Q117.188-60.8398 115.283-64.1602L114.795-64.9414Q111.865-70.0195 108.691-70.0195Q106.592-70.0195 103.271-68.1152L70.0195-48.9258L73.5352-47.0703L73.5352-85.4492Q73.5352-88.7207 72.6807-90.5029Q71.8262-92.2852 69.8975-93.0176Q67.9688-93.75 64.6484-93.75L63.8672-93.75Q60.5957-93.75 58.6426-93.0176Q56.6895-92.2852 55.835-90.5029Q54.9805-88.7207 54.9805-85.4492L54.9805-47.0703L58.4961-48.9258L25.2441-68.1152Q23.6816-69.0918 22.2656-69.6045Q20.8496-70.1172 19.6777-70.1172Q17.8711-70.1172 16.4062-68.8965Q14.9414-67.6758 13.5742-64.9414L13.1836-64.209Q11.4258-60.791 11.4258-58.5938Q11.4258-56.7871 12.6221-55.3711Q13.8184-53.9551 16.4062-52.5391L50.4883-33.9355Z"/>
  </g>
  <g id="Thin-L" transform="matrix(1 0 0 1 792.555 1556)">
   <path d="M50.1953-37.3047L16.0156-17.5293Q13.623-16.1621 12.4512-14.8438Q11.2793-13.5254 11.2793-11.8164Q11.2793-9.66797 13.2324-6.34766L13.5254-5.76172Q16.4062-0.878906 19.4336-0.878906Q21.4355-0.878906 24.5605-2.7832L57.8613-21.9727L54.9805-23.4375L54.9805 14.9902Q54.9805 18.0664 55.7861 19.7754Q56.5918 21.4844 58.4473 22.1924Q60.3027 22.9004 63.4277 22.9004L64.209 22.9004Q67.334 22.9004 69.2139 22.1924Q71.0938 21.4844 71.8994 19.7754Q72.7051 18.0664 72.7051 14.9902L72.7051-23.4375L69.7754-21.9727L103.076-2.7832Q104.59-1.85547 105.859-1.36719Q107.129-0.878906 108.154-0.878906Q109.814-0.878906 111.157-2.09961Q112.5-3.32031 114.111-5.76172L114.502-6.39648Q116.504-9.57031 116.504-11.7188Q116.504-13.4277 115.283-14.7949Q114.062-16.1621 111.67-17.5293L77.4902-37.3047L77.4902-34.2773L111.572-52.9297Q114.014-54.248 115.161-55.5908Q116.309-56.9336 116.309-58.6426Q116.309-60.8398 114.502-63.9648L114.014-64.7461Q111.23-69.5801 108.203-69.5801Q106.201-69.5801 103.027-67.7734L69.7754-48.584L72.7051-47.0703L72.7051-85.4492Q72.7051-88.5254 71.8994-90.2344Q71.0938-91.9434 69.2139-92.6514Q67.334-93.3594 64.209-93.3594L63.4277-93.3594Q60.3027-93.3594 58.4473-92.6514Q56.5918-91.9434 55.7861-90.2344Q54.9805-88.5254 54.9805-85.4492L54.9805-47.0703L57.8613-48.584L24.6582-67.7734Q23.1445-68.7012 21.8262-69.165Q20.5078-69.6289 19.3848-69.6289Q17.6758-69.6289 16.2598-68.4814Q14.8438-67.334 13.4766-64.7461L13.0859-64.0625Q11.3281-60.8887 11.3281-58.6914Q11.3281-56.9336 12.5-55.5664Q13.6719-54.1992 16.1621-52.8809L50.1953-34.2773Z"/>
  </g>
  <g id="Ultralight-L" transform="matrix(1 0 0 1 496.088 1556)">
   <path d="M50.0488-37.1094L15.8691-17.334Q13.5254-16.0156 12.4023-14.7217Q11.2793-13.4277 11.2793-11.7676Q11.2793-9.66797 13.1836-6.44531L13.4766-5.85938Q16.3086-1.07422 19.1895-1.07422Q21.2402-1.07422 24.2188-2.97852L57.5195-22.168L54.9316-23.4375L54.9316 14.9902Q54.9316 18.0176 55.7129 19.6777Q56.4941 21.3379 58.3252 21.9971Q60.1562 22.6562 63.2324 22.6562L64.0137 22.6562Q67.041 22.6562 68.8721 21.9971Q70.7031 21.3379 71.4844 19.6777Q72.2656 18.0176 72.2656 14.9902L72.2656-23.4375L69.6777-22.168L102.979-2.97852Q104.443-2.05078 105.664-1.58691Q106.885-1.12305 107.91-1.12305Q109.521-1.12305 110.84-2.29492Q112.158-3.4668 113.721-5.85938L114.111-6.49414Q116.016-9.66797 116.016-11.7188Q116.016-13.3301 114.844-14.6729Q113.672-16.0156 111.328-17.334L77.1484-37.1094L77.1484-34.4727L111.23-53.125Q113.672-54.3945 114.771-55.7129Q115.869-57.0312 115.869-58.6914Q115.869-60.8398 114.111-63.8672L113.623-64.6484Q110.889-69.3848 108.008-69.3848Q106.006-69.3848 102.93-67.5781L69.6777-48.3887L72.2656-47.0703L72.2656-85.4492Q72.2656-88.4766 71.4844-90.1367Q70.7031-91.7969 68.8721-92.4561Q67.041-93.1152 64.0137-93.1152L63.2324-93.1152Q60.1562-93.1152 58.3252-92.4561Q56.4941-91.7969 55.7129-90.1367Q54.9316-88.4766 54.9316-85.4492L54.9316-47.0703L57.5195-48.3887L24.3164-67.5781Q22.8516-68.457 21.582-68.9453Q20.3125-69.4336 19.2383-69.4336Q17.5781-69.4336 16.1865-68.2861Q14.7949-67.1387 13.4277-64.6484L12.9883-63.9648Q11.2305-60.9375 11.2305-58.7891Q11.2305-57.0312 12.4023-55.6885Q13.5742-54.3457 16.0645-53.0762L50.0488-34.4727Z"/>
  </g>
  <g id="Black-M" transform="matrix(1 0 0 1 2877.91 1126)">
   <path d="M34.3262-36.3281L14.3555-25.1465Q11.6699-23.6328 10.2783-22.0947Q8.88672-20.5566 8.88672-18.5547Q8.88672-16.2109 11.0352-12.5L13.623-8.05664Q16.7969-2.68555 20.3613-2.68555Q22.6074-2.68555 26.0254-4.6875L44.1895-15.3809L43.4082-15.8203L43.2129 5.9082Q43.1641 11.5234 45.3613 13.2324Q47.5586 14.9414 52.9785 14.9414L57.9102 14.9414Q63.3301 14.9414 65.5029 13.2324Q67.6758 11.5234 67.627 5.85938L67.3828-15.8203L66.6992-15.3809L84.9121-4.83398Q86.6699-3.75977 88.1592-3.19824Q89.6484-2.63672 90.918-2.63672Q92.7734-2.63672 94.3604-3.90625Q95.9473-5.17578 97.7051-8.00781L100.146-12.2559Q102.246-15.8691 102.246-18.3105Q102.246-20.459 100.781-22.0215Q99.3164-23.584 96.5332-25.0977L76.2695-36.3281L76.2695-34.2773L96.5332-45.4102Q99.2188-46.875 100.61-48.4375Q102.002-50 102.002-52.0508Q102.002-54.4434 99.8535-58.0566L97.3633-62.3535Q94.043-67.8711 90.5762-67.8711Q88.2324-67.8711 84.7656-65.7715L66.8457-55.0293L67.5293-54.5898L67.6758-75.9766Q67.6758-81.5918 65.5029-83.3008Q63.3301-85.0098 57.9102-85.0098L52.9785-85.0098Q47.5586-85.0098 45.3857-83.3008Q43.2129-81.5918 43.2617-75.9277L43.4082-54.5898L44.2383-55.0293L26.0742-65.7227Q24.3652-66.6992 22.8516-67.3096Q21.3379-67.9199 20.0195-67.9199Q18.2129-67.9199 16.5527-66.626Q14.8926-65.332 13.2324-62.4512L10.7422-58.252Q8.74023-54.7363 8.74023-52.3438Q8.74023-50.1465 10.2051-48.5352Q11.6699-46.9238 14.4043-45.4102L34.3262-34.3262Z"/>
  </g>
  <g id="Heavy-M" transform="matrix(1 0 0 1 2582.42 1126)">
   <path d="M35.498-36.5723L14.0137-24.4141Q11.4746-22.998 10.1562-21.5576Q8.83789-20.1172 8.83789-18.2129Q8.83789-16.0156 10.8887-12.5L12.9395-8.98438Q15.918-3.90625 19.2871-3.90625Q21.3867-3.90625 24.6582-5.81055L44.5801-17.4805L43.2129-18.2617L43.0664 5.37109Q43.0664 10.5957 45.1172 12.2559Q47.168 13.916 52.2461 13.916L56.2012 13.916Q61.2793 13.916 63.3057 12.2559Q65.332 10.5957 65.332 5.37109L65.1367-18.2617L63.8184-17.4805L83.8379-5.9082Q85.498-4.93164 86.8652-4.39453Q88.2324-3.85742 89.4531-3.85742Q91.1621-3.85742 92.6514-5.07812Q94.1406-6.29883 95.8496-8.93555L97.8027-12.3047Q99.8047-15.6738 99.8047-18.0176Q99.8047-20.0195 98.4375-21.4844Q97.0703-22.9492 94.4336-24.4141L72.7051-36.5723L72.7051-34.1797L94.4336-46.0938Q96.9727-47.5098 98.2666-48.9746Q99.5605-50.4395 99.5605-52.3438Q99.5605-54.5898 97.5586-58.0078L95.5566-61.4258Q92.4805-66.6504 89.209-66.6504Q87.0117-66.6504 83.6914-64.6484L63.9648-52.9297L65.2344-52.1973L65.332-75.5371Q65.332-80.7617 63.3057-82.3975Q61.2793-84.0332 56.2012-84.0332L52.2461-84.0332Q47.168-84.0332 45.1172-82.3975Q43.0664-80.7617 43.1152-75.5371L43.2129-52.1973L44.6289-52.9297L24.707-64.6484Q23.0957-65.5762 21.6553-66.1377Q20.2148-66.6992 18.9941-66.6992Q17.2363-66.6992 15.6738-65.4785Q14.1113-64.2578 12.5977-61.5234L10.6445-58.1543Q8.78906-54.7852 8.78906-52.5391Q8.78906-50.5371 10.1318-49.0479Q11.4746-47.5586 14.0625-46.0938L35.498-34.2285Z"/>
  </g>
  <g id="Bold-M" transform="matrix(1 0 0 1 2287.07 1126)">
   <path d="M36.8652-36.9141L13.623-23.6328Q11.2305-22.3145 10.0342-20.9473Q8.83789-19.5801 8.83789-17.8711Q8.83789-15.8203 10.7422-12.5L12.1582-10.0586Q14.9414-5.27344 18.0664-5.27344Q20.0195-5.27344 23.0957-7.08008L45.0684-19.873L43.0664-20.9961L42.9688 4.83398Q42.9199 9.61914 44.8242 11.1816Q46.7285 12.7441 51.4648 12.7441L54.248 12.7441Q58.9844 12.7441 60.8643 11.1816Q62.7441 9.61914 62.7441 4.78516L62.5977-20.9961L60.6445-19.873L82.6172-7.17773Q84.1797-6.25 85.4492-5.76172Q86.7188-5.27344 87.793-5.27344Q89.4043-5.27344 90.7959-6.4209Q92.1875-7.56836 93.75-10.0098L95.166-12.4023Q97.0703-15.5273 97.0703-17.6758Q97.0703-19.5312 95.8008-20.8984Q94.5312-22.2656 92.0898-23.6328L68.75-36.9141L68.75-34.082L92.0898-46.875Q94.4824-48.1934 95.6787-49.5605Q96.875-50.9277 96.875-52.6855Q96.875-54.7852 95.0195-57.959L93.5547-60.4004Q90.7227-65.2832 87.6465-65.2832Q85.5957-65.2832 82.5195-63.4277L60.6934-50.5859L62.6953-49.5117L62.7441-75.0977Q62.7441-79.8828 60.8643-81.4453Q58.9844-83.0078 54.248-83.0078L51.4648-83.0078Q46.7285-83.0078 44.8486-81.4453Q42.9688-79.8828 42.9688-75.0488L43.0664-49.5117L45.1172-50.5859L23.1445-63.4277Q21.6309-64.3066 20.2881-64.8193Q18.9453-65.332 17.8223-65.332Q16.1621-65.332 14.7217-64.1846Q13.2812-63.0371 11.9141-60.4492L10.5469-58.1055Q8.88672-54.834 8.88672-52.7832Q8.88672-50.9766 10.083-49.6094Q11.2793-48.2422 13.7207-46.875L36.8652-34.1309Z"/>
  </g>
  <g id="Semibold-M" transform="matrix(1 0 0 1 1991.31 1126)">
   <path d="M37.7441-37.1094L13.3301-23.0957Q11.084-21.7773 9.93652-20.5078Q8.78906-19.2383 8.78906-17.5781Q8.78906-15.625 10.6445-12.5L11.6211-10.791Q14.2578-6.20117 17.2363-6.20117Q19.043-6.20117 22.0215-7.95898L45.4102-21.4844L42.9199-22.8516L42.8223 4.39453Q42.8223 8.88672 44.6045 10.4004Q46.3867 11.9141 50.9277 11.9141L52.9297 11.9141Q57.4219 11.9141 59.1797 10.4004Q60.9375 8.88672 60.9375 4.39453L60.8398-22.8516L58.3984-21.4844L81.7871-8.00781Q83.252-7.12891 84.4238-6.66504Q85.5957-6.20117 86.6211-6.20117Q88.1836-6.20117 89.4775-7.2998Q90.7715-8.39844 92.334-10.7422L93.3105-12.4512Q95.166-15.3809 95.166-17.4316Q95.166-19.1406 93.9697-20.459Q92.7734-21.7773 90.4785-23.0469L65.9668-37.1094L65.9668-34.0332L90.4297-47.4121Q92.7246-48.6328 93.8477-49.9268Q94.9707-51.2207 94.9707-52.9297Q94.9707-54.8828 93.2129-57.9102L92.1875-59.668Q89.502-64.3066 86.5723-64.3066Q84.6191-64.3066 81.6895-62.5977L58.4473-48.9746L60.8887-47.6562L60.9375-74.7559Q60.9375-79.248 59.1797-80.7373Q57.4219-82.2266 52.9297-82.2266L50.9277-82.2266Q46.3867-82.2266 44.6045-80.7373Q42.8223-79.248 42.8711-74.707L42.9199-47.6562L45.4102-48.9746L22.0703-62.5488Q20.6543-63.3789 19.3604-63.8916Q18.0664-64.4043 16.9922-64.4043Q15.3809-64.4043 14.0381-63.2812Q12.6953-62.1582 11.4258-59.7168L10.498-58.0078Q8.88672-54.8828 8.88672-52.9297Q8.88672-51.2695 10.0098-49.9756Q11.1328-48.6816 13.4277-47.3633L37.7441-34.0332Z"/>
  </g>
  <g id="Medium-M" transform="matrix(1 0 0 1 1695.31 1126)">
   <path d="M38.4277-37.2559L13.1348-22.6562Q10.9375-21.4355 9.86328-20.1904Q8.78906-18.9453 8.78906-17.3828Q8.78906-15.5273 10.5469-12.5L11.2305-11.3281Q13.7695-6.88477 16.6016-6.88477Q18.3105-6.88477 21.2402-8.59375L45.6543-22.7539L42.8223-24.2676L42.7734 4.10156Q42.7734 8.34961 44.458 9.81445Q46.1426 11.2793 50.4883 11.2793L51.9043 11.2793Q56.2012 11.2793 57.8857 9.81445Q59.5703 8.34961 59.5703 4.10156L59.5215-24.2676L56.7383-22.7539L81.1523-8.64258Q82.5684-7.8125 83.6914-7.37305Q84.8145-6.93359 85.7422-6.93359Q87.2559-6.93359 88.501-8.00781Q89.7461-9.08203 91.2109-11.2793L91.9434-12.5Q93.75-15.2832 93.75-17.2852Q93.75-18.8965 92.6025-20.166Q91.4551-21.4355 89.2578-22.6562L63.916-37.2559L63.916-33.9355L89.209-47.8027Q91.4062-48.9746 92.4805-50.2197Q93.5547-51.4648 93.5547-53.0762Q93.5547-54.9805 91.8945-57.9102L91.1133-59.1309Q88.5742-63.5742 85.791-63.5742Q83.8867-63.5742 81.1035-61.9141L56.7383-47.7539L59.5703-46.2402L59.5703-74.5117Q59.5703-78.7598 57.8857-80.2246Q56.2012-81.6895 51.9043-81.6895L50.4883-81.6895Q46.1426-81.6895 44.458-80.2246Q42.7734-78.7598 42.7734-74.4629L42.8223-46.2402L45.6543-47.7539L21.2891-61.9141Q19.873-62.7441 18.6523-63.208Q17.4316-63.6719 16.3574-63.6719Q14.7949-63.6719 13.5254-62.5977Q12.2559-61.5234 11.084-59.1797L10.4004-57.959Q8.93555-54.8828 8.93555-53.0762Q8.93555-51.4648 9.98535-50.2441Q11.0352-49.0234 13.2324-47.7539L38.4277-33.9844Z"/>
  </g>
  <g id="Regular-M" transform="matrix(1 0 0 1 1399.53 1126)">
   <path d="M39.3555-37.4512L12.8418-22.1191Q10.791-20.9473 9.76562-19.7754Q8.74023-18.6035 8.74023-17.1387Q8.74023-15.3809 10.4492-12.5L10.6934-12.0605Q13.0859-7.8125 15.7715-7.8125Q17.3828-7.8125 20.166-9.47266L45.9473-24.3652L42.6758-26.123L42.6758 3.71094Q42.6758 7.66602 44.2627 9.08203Q45.8496 10.498 49.9512 10.498L50.5859 10.498Q54.6387 10.498 56.2256 9.08203Q57.8125 7.66602 57.8125 3.71094L57.8125-26.123L54.541-24.3652L80.3223-9.47266Q81.6406-8.69141 82.6904-8.27637Q83.7402-7.86133 84.6191-7.86133Q86.0352-7.86133 87.207-8.88672Q88.3789-9.91211 89.7949-12.0117L90.1367-12.5488Q91.8945-15.1367 91.8945-17.041Q91.8945-18.5547 90.8203-19.751Q89.7461-20.9473 87.6465-22.1191L61.1816-37.4512L61.1816-33.8867L87.5977-48.3398Q89.6973-49.4629 90.6982-50.6348Q91.6992-51.8066 91.6992-53.3203Q91.6992-55.0781 90.1367-57.8613L89.7461-58.4473Q87.3535-62.6465 84.7168-62.6465Q82.959-62.6465 80.2734-61.084L54.541-46.1426L57.8125-44.4336L57.8125-74.1699Q57.8125-78.125 56.2256-79.541Q54.6387-80.957 50.5859-80.957L49.9512-80.957Q45.8496-80.957 44.2627-79.541Q42.6758-78.125 42.6758-74.1699L42.6758-44.4336L45.9473-46.1426L20.2148-61.084Q18.8965-61.8652 17.7246-62.3047Q16.5527-62.7441 15.5762-62.7441Q14.0625-62.7441 12.8662-61.7188Q11.6699-60.6934 10.5957-58.4473L10.3516-57.9102Q8.98438-54.9316 8.98438-53.2227Q8.98438-51.7578 9.93652-50.6348Q10.8887-49.5117 12.9883-48.291L39.3555-33.8867Z"/>
  </g>
  <g id="Light-M" transform="matrix(1 0 0 1 1103.13 1126)">
   <path d="M39.1602-37.207L12.6953-21.875Q10.6934-20.752 9.7168-19.6289Q8.74023-18.5059 8.74023-17.0898Q8.74023-15.3809 10.3516-12.6465L10.5957-12.207Q12.9395-8.10547 15.4785-8.10547Q17.0898-8.10547 19.7266-9.7168L45.5078-24.6094L42.627-26.123L42.627 3.71094Q42.627 7.51953 44.165 8.88672Q45.7031 10.2539 49.6582 10.2539L50.2441 10.2539Q54.1504 10.2539 55.7129 8.88672Q57.2754 7.51953 57.2754 3.71094L57.2754-26.123L54.3457-24.6094L80.1758-9.7168Q81.4453-8.93555 82.4463-8.54492Q83.4473-8.1543 84.2773-8.1543Q85.6934-8.1543 86.8164-9.13086Q87.9395-10.1074 89.2578-12.1582L89.5996-12.6953Q91.2598-15.2344 91.2598-17.041Q91.2598-18.457 90.2344-19.6045Q89.209-20.752 87.207-21.875L60.7422-37.207L60.7422-34.1309L87.1582-48.584Q89.1602-49.6582 90.1367-50.7812Q91.1133-51.9043 91.1133-53.3691Q91.1133-55.0781 89.5996-57.7148L89.209-58.3496Q86.9141-62.3535 84.375-62.3535Q82.7148-62.3535 80.127-60.8398L54.3457-45.8984L57.2754-44.4336L57.2754-74.1699Q57.2754-77.9785 55.7129-79.3457Q54.1504-80.7129 50.2441-80.7129L49.6582-80.7129Q45.7031-80.7129 44.165-79.3457Q42.627-77.9785 42.627-74.1699L42.627-44.4336L45.5078-45.8984L19.7754-60.8398Q18.5059-61.5723 17.4072-61.9873Q16.3086-62.4023 15.3809-62.4023Q13.916-62.4023 12.7686-61.4258Q11.6211-60.4492 10.5469-58.3496L10.2539-57.7637Q8.88672-54.9805 8.88672-53.3203Q8.88672-51.8555 9.83887-50.7568Q10.791-49.6582 12.793-48.5352L39.1602-34.1309Z"/>
  </g>
  <g id="Thin-M" transform="matrix(1 0 0 1 806.837 1126)">
   <path d="M38.916-36.8652L12.4512-21.5332Q10.5957-20.5078 9.64355-19.458Q8.69141-18.4082 8.69141-17.0898Q8.69141-15.4297 10.2539-12.793L10.498-12.3535Q12.7441-8.49609 15.1367-8.49609Q16.6992-8.49609 19.1406-10.0098L44.9219-24.9023L42.5781-26.123L42.5781 3.71094Q42.5781 7.37305 44.0674 8.64258Q45.5566 9.91211 49.2676 9.91211L49.8535 9.91211Q53.5645 9.91211 55.0293 8.64258Q56.4941 7.37305 56.4941 3.71094L56.4941-26.123L54.1016-24.9023L79.9316-10.0098Q81.1523-9.27734 82.1045-8.91113Q83.0566-8.54492 83.8867-8.54492Q85.2051-8.54492 86.2549-9.47266Q87.3047-10.4004 88.5742-12.3535L88.8672-12.8418Q90.4297-15.332 90.4297-16.9922Q90.4297-18.3594 89.4775-19.4336Q88.5254-20.5078 86.6211-21.5332L60.1562-36.8652L60.1562-34.4238L86.5723-48.9258Q88.5254-49.9023 89.4043-50.9521Q90.2832-52.002 90.2832-53.3691Q90.2832-55.0781 88.8672-57.5684L88.5254-58.1543Q86.2793-61.9629 83.9355-61.9629Q82.373-61.9629 79.8828-60.498L54.1016-45.6055L56.4941-44.4336L56.4941-74.1699Q56.4941-77.832 55.0293-79.1016Q53.5645-80.3711 49.8535-80.3711L49.2676-80.3711Q45.5566-80.3711 44.0674-79.1016Q42.5781-77.832 42.5781-74.1699L42.5781-44.4336L44.9219-45.6055L19.1895-60.498Q18.0176-61.2305 16.9922-61.6211Q15.9668-62.0117 15.0879-62.0117Q13.7695-62.0117 12.6465-61.084Q11.5234-60.1562 10.4492-58.1543L10.1562-57.6172Q8.78906-55.0781 8.78906-53.418Q8.78906-52.0508 9.69238-50.9766Q10.5957-49.9023 12.5488-48.8281L38.916-34.4238Z"/>
  </g>
  <g id="Ultralight-M" transform="matrix(1 0 0 1 510.346 1126)">
   <path d="M38.8184-36.7188L12.3535-21.3867Q10.498-20.4102 9.59473-19.3848Q8.69141-18.3594 8.69141-17.041Q8.69141-15.4297 10.2051-12.8906L10.4492-12.4512Q12.6465-8.74023 14.9414-8.74023Q16.4551-8.74023 18.8477-10.1562L44.6289-25.0488L42.5293-26.123L42.5293 3.71094Q42.5293 7.27539 43.9941 8.49609Q45.459 9.7168 49.0234 9.7168L49.6094 9.7168Q53.2227 9.7168 54.6875 8.49609Q56.1523 7.27539 56.1523 3.71094L56.1523-26.123L54.0039-25.0488L79.834-10.1562Q81.0059-9.47266 81.9336-9.10645Q82.8613-8.74023 83.6426-8.74023Q84.9609-8.74023 85.9863-9.64355Q87.0117-10.5469 88.1836-12.4512L88.5254-12.9395Q90.0391-15.3809 90.0391-16.9922Q90.0391-18.3105 89.0869-19.3604Q88.1348-20.4102 86.3281-21.3867L59.8633-36.7188L59.8633-34.5703L86.2793-49.0723Q88.1348-50 89.0137-51.0498Q89.8926-52.0996 89.8926-53.418Q89.8926-55.0781 88.5254-57.4707L88.1348-58.1055Q85.9863-61.7188 83.7402-61.7188Q82.1777-61.7188 79.7852-60.3516L54.0039-45.459L56.1523-44.4336L56.1523-74.1699Q56.1523-77.7344 54.6875-78.9551Q53.2227-80.1758 49.6094-80.1758L49.0234-80.1758Q45.459-80.1758 43.9941-78.9551Q42.5293-77.7344 42.5293-74.1699L42.5293-44.4336L44.6289-45.459L18.8965-60.3516Q17.7734-61.0352 16.7725-61.4014Q15.7715-61.7676 14.9414-61.7676Q13.6719-61.7676 12.5732-60.8887Q11.4746-60.0098 10.4004-58.1055L10.0586-57.5195Q8.69141-55.127 8.69141-53.4668Q8.69141-52.0996 9.61914-51.0498Q10.5469-50 12.4512-48.9746L38.8184-34.5703Z"/>
  </g>
  <g id="Black-S" transform="matrix(1 0 0 1 2889.58 696)">
   <path d="M26.5137-35.9863L11.377-27.5391Q9.22852-26.3184 8.10547-25.0977Q6.98242-23.877 6.98242-22.2656Q6.98242-20.4102 8.69141-17.4316L10.8887-13.6719Q13.4277-9.375 16.2598-9.375Q18.1152-9.375 20.8008-10.9863L34.4727-19.043L34.082-19.2871L33.8867-2.83203Q33.8379 1.66016 35.6201 3.02734Q37.4023 4.39453 41.6992 4.39453L45.8984 4.39453Q50.2441 4.39453 51.9775 3.02734Q53.7109 1.66016 53.6621-2.88086L53.4668-19.2871L53.125-19.043L66.8457-11.084Q69.8242-9.32617 71.6797-9.32617Q73.1445-9.32617 74.4385-10.3516Q75.7324-11.377 77.0996-13.623L79.1504-17.2363Q80.8105-20.1172 80.8105-22.0703Q80.8105-23.7793 79.6387-25.0244Q78.4668-26.2695 76.2695-27.4902L60.8398-35.9863L60.8398-34.5215L76.2695-43.0176Q78.418-44.1895 79.5166-45.4346Q80.6152-46.6797 80.6152-48.3398Q80.6152-50.2441 78.9062-53.125L76.8066-56.7383Q74.1699-61.1816 71.3867-61.1816Q69.4824-61.1816 66.748-59.4727L53.2715-51.3672L53.5645-51.123L53.7109-67.2852Q53.7109-71.7773 51.9775-73.1445Q50.2441-74.5117 45.8984-74.5117L41.6992-74.5117Q37.4023-74.5117 35.6445-73.1445Q33.8867-71.7773 33.9355-67.2363L34.082-51.123L34.5215-51.3672L20.8496-59.4238Q19.4824-60.2539 18.2861-60.7178Q17.0898-61.1816 16.0156-61.1816Q13.0859-61.1816 10.5469-56.8359L8.44727-53.2715Q6.83594-50.4883 6.83594-48.584Q6.83594-46.8262 8.03223-45.5322Q9.22852-44.2383 11.377-43.0176L26.5137-34.5703Z"/>
  </g>
  <g id="Heavy-S" transform="matrix(1 0 0 1 2593.87 696)">
   <path d="M27.5391-36.2305L11.084-26.9531Q9.0332-25.7812 7.9834-24.6338Q6.93359-23.4863 6.93359-21.9727Q6.93359-20.2148 8.59375-17.4316L10.3027-14.4531Q12.6953-10.4004 15.3809-10.4004Q17.0898-10.4004 19.6777-11.9141L34.8633-20.8496L33.9355-21.3379L33.7891-3.27148Q33.7402 0.927734 35.4004 2.22168Q37.0605 3.51562 41.1133 3.51562L44.4336 3.51562Q48.5352 3.51562 50.1709 2.22168Q51.8066 0.927734 51.7578-3.32031L51.6113-21.3379L50.6836-20.8496L65.918-12.0117Q68.75-10.3516 70.459-10.3516Q71.8262-10.3516 73.0469-11.3281Q74.2676-12.3047 75.5371-14.4043L77.1973-17.2852Q78.8086-19.9707 78.8086-21.8262Q78.8086-23.3887 77.71-24.585Q76.6113-25.7812 74.5117-26.9043L57.8613-36.2305L57.8613-34.4238L74.5117-43.6035Q76.5625-44.6777 77.5879-45.8496Q78.6133-47.0215 78.6133-48.584Q78.6133-50.3906 77.002-53.125L75.3418-55.957Q72.8516-60.1562 70.2148-60.1562Q68.457-60.1562 65.8691-58.5449L50.7812-49.6094L51.6602-49.0723L51.8066-66.8945Q51.8066-71.0938 50.1709-72.4121Q48.5352-73.7305 44.4336-73.7305L41.1133-73.7305Q37.0605-73.7305 35.4248-72.4121Q33.7891-71.0938 33.8379-66.8945L33.9355-49.0723L34.9121-49.6094L19.7266-58.4961Q18.4082-59.3262 17.2852-59.7412Q16.1621-60.1562 15.1367-60.1562Q12.3047-60.1562 10.0098-56.0547L8.39844-53.2227Q6.88477-50.5371 6.88477-48.7305Q6.88477-47.1191 7.9834-45.9229Q9.08203-44.7266 11.084-43.5547L27.5391-34.4727Z"/>
  </g>
  <g id="Bold-S" transform="matrix(1 0 0 1 2298.28 696)">
   <path d="M28.7109-36.5234L10.7422-26.3184Q8.88672-25.2441 7.91016-24.1699Q6.93359-23.0957 6.93359-21.6797Q6.93359-20.0684 8.44727-17.3828L9.66797-15.332Q11.8652-11.5234 14.3555-11.5234Q15.9668-11.5234 18.4082-12.9883L35.3516-22.8516L33.7891-23.6816L33.6914-3.80859Q33.6426 0.0976562 35.1807 1.34277Q36.7188 2.58789 40.4785 2.58789L42.8223 2.58789Q46.6309 2.58789 48.1445 1.34277Q49.6582 0.0976562 49.6094-3.80859L49.5117-23.6816L47.9492-22.8516L64.9414-13.0371Q67.5293-11.5234 69.0918-11.5234Q70.3613-11.5234 71.4844-12.4268Q72.6074-13.3301 73.8281-15.2832L75-17.334Q76.5625-19.7754 76.5625-21.5332Q76.5625-22.998 75.5371-24.0967Q74.5117-25.1953 72.6074-26.2695L54.4922-36.5234L54.4922-34.3262L72.5586-44.2383Q74.4629-45.2637 75.415-46.3623Q76.3672-47.4609 76.3672-48.877Q76.3672-50.5371 74.9023-53.0762L73.6816-55.127Q71.3867-59.0332 68.9453-59.0332Q67.334-59.0332 64.8438-57.5195L48.0469-47.6562L49.5605-46.7773L49.6582-66.5039Q49.6582-70.3613 48.1445-71.6064Q46.6309-72.8516 42.8223-72.8516L40.4785-72.8516Q36.7188-72.8516 35.2051-71.6064Q33.6914-70.3613 33.6914-66.5039L33.7891-46.7773L35.4004-47.6562L18.457-57.5195Q17.2363-58.252 16.1621-58.667Q15.0879-59.082 14.1602-59.082Q11.4746-59.082 9.47266-55.1758L8.30078-53.1738Q6.98242-50.5859 6.98242-48.9258Q6.98242-47.4609 7.93457-46.3867Q8.88672-45.3125 10.791-44.1895L28.7109-34.3262Z"/>
  </g>
  <g id="Semibold-S" transform="matrix(1 0 0 1 2002.35 696)">
   <path d="M29.4922-36.7188L10.498-25.8301Q8.74023-24.8047 7.8125-23.7793Q6.88477-22.7539 6.88477-21.4844Q6.88477-19.9219 8.34961-17.3828L9.17969-15.918Q11.2793-12.2559 13.6719-12.2559Q15.1367-12.2559 17.5293-13.6719L35.6934-24.2188L33.6426-25.293L33.5938-4.15039Q33.5938-0.488281 35.0098 0.708008Q36.4258 1.9043 40.0391 1.9043L41.6992 1.9043Q45.3125 1.9043 46.7285 0.708008Q48.1445-0.488281 48.1445-4.15039L48.0957-25.293L46.0449-24.2188L64.209-13.7207Q66.6504-12.3047 68.1152-12.3047Q69.3359-12.3047 70.3857-13.1836Q71.4355-14.0625 72.6562-15.8691L73.4863-17.334Q75-19.6289 75-21.3379Q75-22.7051 74.0479-23.7549Q73.0957-24.8047 71.2402-25.8301L52.1973-36.7188L52.1973-34.2285L71.1914-44.6289Q73.0469-45.6055 73.9258-46.6553Q74.8047-47.7051 74.8047-49.0234Q74.8047-50.6348 73.3887-53.0762L72.5586-54.541Q70.3613-58.2031 68.0664-58.2031Q66.5039-58.2031 64.1602-56.7871L46.0938-46.2891L48.0957-45.2148L48.1445-66.2109Q48.1445-69.8242 46.7285-71.0449Q45.3125-72.2656 41.6992-72.2656L40.0391-72.2656Q36.4258-72.2656 35.0098-71.0449Q33.5938-69.8242 33.5938-66.2109L33.6426-45.2148L35.6934-46.2891L17.5781-56.7871Q16.4062-57.5195 15.3809-57.9102Q14.3555-58.3008 13.4277-58.3008Q10.8887-58.3008 9.0332-54.5898L8.25195-53.125Q6.98242-50.5859 6.98242-49.0723Q6.98242-47.7051 7.86133-46.6797Q8.74023-45.6543 10.5957-44.6289L29.4922-34.2285Z"/>
  </g>
  <g id="Medium-S" transform="matrix(1 0 0 1 1706.25 696)">
   <path d="M30.127-36.8652L10.3516-25.4883Q8.64258-24.5117 7.76367-23.5352Q6.88477-22.5586 6.88477-21.2891Q6.88477-19.8242 8.30078-17.334L8.83789-16.4062Q10.8887-12.8418 13.1348-12.8418Q14.5508-12.8418 16.8945-14.209L35.9375-25.2441L33.5449-26.5137L33.5449-4.39453Q33.4961-0.927734 34.8633 0.219727Q36.2305 1.36719 39.6973 1.36719L40.8691 1.36719Q44.3359 1.36719 45.6787 0.219727Q47.0215-0.927734 47.0215-4.39453L46.9727-26.5137L44.6289-25.2441L63.6719-14.2578Q66.0156-12.8906 67.3828-12.8906Q68.6035-12.8906 69.5801-13.7451Q70.5566-14.5996 71.7285-16.3574L72.3633-17.334Q73.7793-19.5801 73.7793-21.1914Q73.7793-22.5098 72.876-23.5107Q71.9727-24.5117 70.2148-25.4883L50.4395-36.8652L50.4395-34.1797L70.166-44.9707Q71.9238-45.8984 72.7783-46.8994Q73.6328-47.9004 73.6328-49.1699Q73.6328-50.6836 72.3145-53.0273L71.6797-54.1016Q69.6289-57.6172 67.3828-57.6172Q65.918-57.6172 63.623-56.25L44.6777-45.2637L47.0215-43.9941L47.0215-66.0156Q47.0215-69.4336 45.6787-70.6055Q44.3359-71.7773 40.8691-71.7773L39.6973-71.7773Q36.2305-71.7773 34.8877-70.6055Q33.5449-69.4336 33.5449-66.0156L33.5449-43.9941L35.9375-45.2637L16.9434-56.25Q15.7715-56.9824 14.7949-57.3486Q13.8184-57.7148 12.9395-57.7148Q10.4492-57.7148 8.74023-54.1016L8.20312-53.125Q7.03125-50.5859 7.03125-49.1211Q7.03125-47.8516 7.86133-46.8994Q8.69141-45.9473 10.4004-44.9219L30.127-34.1797Z"/>
  </g>
  <g id="Regular-S" transform="matrix(1 0 0 1 1410.29 696)">
   <path d="M30.9082-37.0605L10.1074-25.0488Q8.49609-24.1211 7.66602-23.1934Q6.83594-22.2656 6.83594-21.0938Q6.83594-19.6777 8.20312-17.334L8.39844-16.9922Q10.3027-13.623 12.4512-13.623Q13.7695-13.623 16.0156-14.9414L36.2305-26.6113L33.4473-28.0762L33.4473-4.73633Q33.4473-1.51367 34.7168-0.390625Q35.9863 0.732422 39.2578 0.732422L39.7461 0.732422Q43.0176 0.732422 44.2871-0.390625Q45.5566-1.51367 45.5566-4.73633L45.5566-28.0762L42.7734-26.6113L62.9883-14.9414Q65.1855-13.6719 66.4551-13.6719Q67.5781-13.6719 68.5059-14.4775Q69.4336-15.2832 70.5566-16.9434L70.8496-17.3828Q72.2656-19.4336 72.2656-20.9961Q72.2656-22.2168 71.4111-23.1689Q70.5566-24.1211 68.8965-25.0488L48.1445-37.0605L48.1445-34.082L68.8477-45.4102Q70.5078-46.2891 71.3135-47.2412Q72.1191-48.1934 72.1191-49.3652Q72.1191-50.7812 70.8496-53.0273L70.5566-53.5156Q68.6035-56.8359 66.5039-56.8359Q65.1367-56.8359 62.9395-55.5664L42.7734-43.8965L45.5566-42.4316L45.5566-65.7227Q45.5566-68.9453 44.2871-70.0684Q43.0176-71.1914 39.7461-71.1914L39.2578-71.1914Q35.9863-71.1914 34.7168-70.0684Q33.4473-68.9453 33.4473-65.7227L33.4473-42.4316L36.2305-43.8965L16.0645-55.5664Q14.9414-56.25 14.0137-56.5918Q13.0859-56.9336 12.2559-56.9336Q9.86328-56.9336 8.34961-53.5156L8.1543-53.0762Q7.08008-50.6348 7.08008-49.2676Q7.08008-48.0957 7.8125-47.2168Q8.54492-46.3379 10.2051-45.3613L30.9082-34.082Z"/>
  </g>
  <g id="Light-S" transform="matrix(1 0 0 1 1113.85 696)">
   <path d="M30.7617-36.8652L9.96094-24.8535Q8.39844-23.9746 7.61719-23.0713Q6.83594-22.168 6.83594-21.0449Q6.83594-19.6777 8.1543-17.4316L8.34961-17.0898Q10.2051-13.8672 12.207-13.8672Q13.4766-13.8672 15.625-15.1367L35.8398-26.8066L33.3984-28.0762L33.3984-4.73633Q33.3984-1.66016 34.6436-0.585938Q35.8887 0.488281 39.0137 0.488281L39.502 0.488281Q42.627 0.488281 43.8477-0.585938Q45.0684-1.66016 45.0684-4.73633L45.0684-28.0762L42.627-26.8066L62.8418-15.1367Q64.9414-13.916 66.1621-13.916Q67.2363-13.916 68.1396-14.6973Q69.043-15.4785 70.1172-17.0898L70.3613-17.4805Q71.7285-19.5312 71.7285-20.9961Q71.7285-22.1191 70.9229-23.0469Q70.1172-23.9746 68.5059-24.8535L47.7539-36.8652L47.7539-34.2773L68.457-45.6055Q70.0684-46.4355 70.8252-47.3633Q71.582-48.291 71.582-49.4141Q71.582-50.7812 70.3613-52.9297L70.0684-53.418Q68.2129-56.5918 66.2109-56.5918Q64.8926-56.5918 62.793-55.3711L42.627-43.7012L45.0684-42.4316L45.0684-65.7227Q45.0684-68.7988 43.8477-69.873Q42.627-70.9473 39.502-70.9473L39.0137-70.9473Q35.8887-70.9473 34.6436-69.873Q33.3984-68.7988 33.3984-65.7227L33.3984-42.4316L35.8398-43.7012L15.6738-55.3711Q14.5996-56.0059 13.7207-56.3232Q12.8418-56.6406 12.1094-56.6406Q9.81445-56.6406 8.30078-53.418L8.05664-52.9785Q6.98242-50.6836 6.98242-49.3652Q6.98242-48.1934 7.71484-47.3389Q8.44727-46.4844 10.0586-45.5566L30.7617-34.2773Z"/>
  </g>
  <g id="Thin-S" transform="matrix(1 0 0 1 817.506 696)">
   <path d="M30.5664-36.6211L9.81445-24.6094Q8.30078-23.7305 7.56836-22.9004Q6.83594-22.0703 6.83594-21.0449Q6.83594-19.7266 8.05664-17.627L8.25195-17.2852Q10.0098-14.209 11.9141-14.209Q13.1348-14.209 15.1367-15.3809L35.3516-27.0508L33.3984-28.0762L33.3984-4.73633Q33.3984-1.80664 34.5459-0.805664Q35.6934 0.195312 38.6719 0.195312L39.1602 0.195312Q42.0898 0.195312 43.2373-0.805664Q44.3848-1.80664 44.3848-4.73633L44.3848-28.0762L42.4805-27.0508L62.6953-15.3809Q64.5996-14.2578 65.8203-14.2578Q66.8457-14.2578 67.6758-14.9902Q68.5059-15.7227 69.4824-17.2363L69.7754-17.6758Q70.9961-19.6289 70.9961-20.9473Q70.9961-22.0215 70.2393-22.876Q69.4824-23.7305 68.0176-24.6094L47.2656-36.6211L47.2656-34.5215L67.9688-45.8496Q69.4336-46.6797 70.166-47.5342Q70.8984-48.3887 70.8984-49.4141Q70.8984-50.7812 69.7754-52.7344L69.4824-53.2227Q67.7246-56.25 65.8691-56.25Q64.5996-56.25 62.6465-55.127L42.4805-43.457L44.3848-42.4316L44.3848-65.7227Q44.3848-68.6523 43.2373-69.6533Q42.0898-70.6543 39.1602-70.6543L38.6719-70.6543Q35.6934-70.6543 34.5459-69.6533Q33.3984-68.6523 33.3984-65.7227L33.3984-42.4316L35.3516-43.457L15.1855-55.127Q14.209-55.6641 13.3789-55.9814Q12.5488-56.2988 11.8652-56.2988Q9.81445-56.2988 8.20312-53.2227L7.95898-52.7832Q6.88477-50.7812 6.88477-49.4629Q6.88477-48.3398 7.61719-47.5098Q8.34961-46.6797 9.91211-45.8008L30.5664-34.5215Z"/>
  </g>
  <g id="Ultralight-S" transform="matrix(1 0 0 1 520.966 696)">
   <path d="M30.4688-36.4746L9.7168-24.4629Q8.25195-23.6328 7.54395-22.8271Q6.83594-22.0215 6.83594-20.9961Q6.83594-19.7266 8.00781-17.6758L8.20312-17.334Q9.96094-14.4043 11.7676-14.4043Q12.9395-14.4043 14.8926-15.5273L35.1074-27.1973L33.3496-28.0762L33.3496-4.73633Q33.3496-1.9043 34.4971-0.927734Q35.6445 0.0488281 38.4766 0.0488281L38.9648 0.0488281Q41.7969 0.0488281 42.9199-0.927734Q44.043-1.9043 44.043-4.73633L44.043-28.0762L42.3828-27.1973L62.5977-15.5273Q64.4531-14.4043 65.625-14.4043Q66.6016-14.4043 67.4316-15.1367Q68.2617-15.8691 69.1895-17.334L69.4336-17.7246Q70.6543-19.6777 70.6543-20.9473Q70.6543-21.9727 69.9219-22.8027Q69.1895-23.6328 67.7734-24.4629L47.0215-36.4746L47.0215-34.668L67.7246-45.9961Q69.1406-46.7773 69.8242-47.6074Q70.5078-48.4375 70.5078-49.4629Q70.5078-50.7812 69.4336-52.6855L69.1406-53.1738Q67.4805-56.0547 65.6738-56.0547Q64.4531-56.0547 62.5488-54.9805L42.3828-43.3105L44.043-42.4316L44.043-65.7227Q44.043-68.5547 42.9199-69.5312Q41.7969-70.5078 38.9648-70.5078L38.4766-70.5078Q35.6445-70.5078 34.4971-69.5312Q33.3496-68.5547 33.3496-65.7227L33.3496-42.4316L35.1074-43.3105L14.9414-54.9805Q13.9648-55.5176 13.1836-55.8105Q12.4023-56.1035 11.7676-56.1035Q9.76562-56.1035 8.1543-53.1738L7.91016-52.7344Q6.83594-50.8301 6.83594-49.5117Q6.83594-48.4375 7.54395-47.6074Q8.25195-46.7773 9.81445-45.9473L30.4688-34.668Z"/>
  </g>
 </g>
</svg>
